<svg id="Layer_1" data-name="Layer 1" xmlns="http://www.w3.org/2000/svg" viewBox="0 0 1080 846"><defs><style>.cls-1,.cls-31,.cls-32{fill:#191a1a;}.cls-2{fill:#a5a4a5;}.cls-3{fill:#636e93;}.cls-4{fill:#d84c4c;}.cls-5{fill:#ff9d8f;}.cls-6{fill:#ffb6aa;}.cls-7{fill:#fff;}.cls-8{fill:#d82921;}.cls-9{fill:#dcdfe6;}.cls-10{fill:#d2192c;}.cls-11{fill:#db2739;}.cls-12{fill:#512431;}.cls-13{fill:#361820;}.cls-14{fill:#5f303d;}.cls-15{fill:#ff8676;}.cls-16{fill:#ff2c5c;}.cls-17{fill:#ff4e76;}.cls-18{fill:#fde5e4;}.cls-19{fill:#ed523d;}.cls-20{fill:#d67060;}.cls-21{fill:#8c8c8c;}.cls-22{fill:#4d5b85;}.cls-23{fill:#192139;}.cls-24{fill:#a8a8a8;}.cls-25{fill:#f0e4e7;}.cls-26{fill:#efdfe3;}.cls-27{fill:#e6c8ce;}.cls-28{fill:#1ebe61;}.cls-29{fill:#2e86ff;}.cls-30{fill:#fdfefe;}.cls-31{font-size:47.33px;}.cls-31,.cls-32{font-family:Montserrat-ExtraBold, Montserrat;font-weight:800;}.cls-32{font-size:66.83px;}</style></defs><path class="cls-1" d="M589.84,532.88V811.52H890.9V532.88a61.74,61.74,0,0,0-61.74-61.73H651.57A61.73,61.73,0,0,0,589.84,532.88Z"/><path class="cls-1" d="M589.84,532.88V811.52H861.7V532.88A61.74,61.74,0,0,0,800,471.15H651.57A61.73,61.73,0,0,0,589.84,532.88Z"/><path class="cls-2" d="M589.84,532.88V811.52H826.48V532.88a61.74,61.74,0,0,0-61.74-61.73H651.57A61.73,61.73,0,0,0,589.84,532.88Z"/><path class="cls-3" d="M669.49,493.75H688.1a7,7,0,0,0,6.95-7h0a7,7,0,0,0-6.95-7H669.49a7,7,0,0,0-7,7h0A7,7,0,0,0,669.49,493.75Z"/><path class="cls-3" d="M644.63,493.75h3.71a7,7,0,0,0,6.95-7h0a7,7,0,0,0-6.95-7h-3.71a7,7,0,0,0-7,7h0A7,7,0,0,0,644.63,493.75Z"/><path class="cls-4" d="M555.51,453.29A105.26,105.26,0,0,0,542,461.18c-34,22.9-56.12,81.06-61.18,121.77l-15.1,121.4-58.1,6.59a46.57,46.57,0,0,0-42.54,42.54c0,.39-.06.79-.08,1.18-1.84,28.26,22.29,51.39,50.51,49.09l74.26-7.48a50,50,0,0,0,28.55-11.93h0A50,50,0,0,0,535.61,750Z"/><path class="cls-5" d="M391.19,790.05l-23.49-2.54-17.53.25-64.75,13.11a5.11,5.11,0,0,1-6.15-4.91v-.23a34.89,34.89,0,0,1,.29-5,35.89,35.89,0,0,1,14.87-25.51,28.36,28.36,0,0,1,3.85-2.31c20.93-23.33,61.47-15.51,61.47-15.51l25.14-5a24.52,24.52,0,0,1,26.43,12.35,22.85,22.85,0,0,1,2.53,8.15,6,6,0,0,1,.09.71A24.26,24.26,0,0,1,391.19,790.05Z"/><path class="cls-6" d="M388.49,780.28,365,777.71,347.5,778,282.75,791.1a5.12,5.12,0,0,1-3.18-.39,35.89,35.89,0,0,1,14.87-25.51,28.36,28.36,0,0,1,3.85-2.31c20.93-23.33,61.47-15.51,61.47-15.51l25.14-5,.33-.07c22.78-4.28,31.42,29.6,9.39,36.82A24.75,24.75,0,0,1,388.49,780.28Z"/><path class="cls-7" d="M682.84,440.38c-26.45,76.12-91.25,202.27-91.25,202.27-37.93-69.75-44.2-188.33-44.2-188.33a116.9,116.9,0,0,1,13.09-10.7c9.17-6.45,14-7.93,14-7.93l66.84-8.94c12.82,3.57,25,7.52,36.22,11.6C679.35,439,681.11,439.67,682.84,440.38Z"/><path class="cls-8" d="M821.79,810.79H480.11l29.16-278.88a124.18,124.18,0,0,1,38.12-77.59s5.94,112.26,41.19,182.57c1,2,2,3.87,3,5.76,0,0,1.46-2.84,4-8,14.58-28.86,64.73-129.62,87.2-194.29a145.63,145.63,0,0,1,88,107.41Z"/><path class="cls-9" d="M676.11,437.82c-18.35,38.44-52.68,72.57-52.68,72.57-6.8-15.87-21.4-36-21.4-36l-12.8,7.55-10.14-4.54c-3.26,6.8-12.84,22.93-12.84,22.93-11.41-14.81-16.62-34.36-18.86-46a116.9,116.9,0,0,1,13.09-10.7c9.17-6.45,14-7.93,14-7.93l66.84-8.94C653.61,430.15,665.28,433.93,676.11,437.82Z"/><path class="cls-4" d="M595.64,634.67c-2.15,37.54-7,126-7.57,176.12h-6.94c.55-49.16,5.21-134.93,7.45-173.9,1,2,2,3.87,3,5.76C591.59,642.65,593.05,639.81,595.64,634.67Z"/><path class="cls-4" d="M682.84,611.25l-36-9.67,10.41,41.07C629.84,691.32,589,774,589,774c1.65-49,5-109.86,6.67-139.32,14.58-28.86,64.73-129.62,87.2-194.29a144.08,144.08,0,0,1,46.29,30.23C707.23,523.51,682.84,611.25,682.84,611.25Z"/><path class="cls-4" d="M588.58,636.89c-1.74,30.11-4.91,88.15-6.53,135.67-10-43.4-34.66-134.9-34.66-134.9l11.27-30.48L540.37,617c-8.77-56.07-14.62-116.94-16.08-133v0a121.94,121.94,0,0,1,23.1-29.71S552.33,560.66,588.58,636.89Z"/><path class="cls-6" d="M637.43,341.65v80.68C622.58,441.34,594.8,451,594.8,451l-5.23,19.64-4-19.22c-8.55-4.81-11.08-15.68-11.08-15.68V367.14Z"/><path class="cls-5" d="M637.43,339.33v33.2c-20.38,14.88-43.7,24.75-62.92,30.31v-38Z"/><path class="cls-7" d="M662.06,433.83c-9.3,18.59-38.7,56.15-38.7,56.15-7.79-14.88-21.45-29.25-21.45-29.25l-12.33,9.88L594.81,451s27.77-9.63,42.63-28.63V410C649.4,414.49,662.06,433.83,662.06,433.83Z"/><path class="cls-7" d="M589.58,470.61l-9-10.63s-9.92,12.9-13.39,23.93c0,0-9-26.16-11.7-38.31,0,0,5.25-16,19-22.94v13s2.37,10.27,11.08,15.68Z"/><path class="cls-10" d="M469.34,273.2c0,30.57-19,55.36-42.43,55.36S384.5,303.77,384.5,273.2c0-15.51,4.9-29.56,12.79-39.58A43.09,43.09,0,0,1,410.84,222a33.65,33.65,0,0,1,16.07-4.13C450.35,217.85,469.34,242.64,469.34,273.2Z"/><path class="cls-11" d="M419.64,265.66c-4.35,11.75-14.5,18.82-22.65,15.8s-11.23-15-6.87-26.75,14.5-18.83,22.65-15.8S424,253.91,419.64,265.66Z"/><path class="cls-11" d="M403.45,292.83c.84,4.91-1.24,9.36-4.65,9.95s-6.86-2.93-7.7-7.84,1.24-9.36,4.65-9.95S402.6,287.92,403.45,292.83Z"/><path class="cls-12" d="M740.49,163.11l-.26,0c-12.74,2.35-28.38,2.53-47.56-.74,0,0-34.95-31.92-63.61-52a118.55,118.55,0,0,1,.2-14.18,145.17,145.17,0,0,1,4.43-27.62c14.81-55.95,83.84-74.85,125.7-34.9A115.82,115.82,0,0,1,788,77.3C801.9,114.4,779.46,155.8,740.49,163.11Z"/><path class="cls-13" d="M763.89,153.57a62.39,62.39,0,0,1-23.4,9.55l-.26,0c-12.74,2.35-28.38,2.52-47.56-.74,0,0-34.95-31.92-63.61-52a118.36,118.36,0,0,1,.2-14.17,145.17,145.17,0,0,1,4.43-27.62,1.31,1.31,0,0,0,0-.15c13.44,1.69,43.27,8.91,66.61,39.33C700.35,107.79,743.56,112.49,763.89,153.57Z"/><ellipse class="cls-14" cx="712" cy="32.94" rx="15.89" ry="27.43" transform="translate(560.95 729.52) rotate(-80.41)"/><path class="cls-14" d="M763,53c-2.3,3-8.33,2.17-13.47-1.8s-7.43-9.6-5.13-12.58,8.33-2.17,13.46,1.81S765.3,50,763,53Z"/><path class="cls-6" d="M702,303.92c-9,30.78-50,45.45-50,45.45-48.62,37-102.38,48.83-130.32,52.61a105.74,105.74,0,0,1-50.91-5.2c-22.72-8.44-36.75-22.66-45.38-36.38a91.71,91.71,0,0,1-13.62-48.84V220.2s3.16-22.7,22.29-42.77c16.36-17.16,39.52-25.93,63.22-25.86a82.55,82.55,0,0,1,23.2,3s55.46,15.73,87.62-10.48c0,0-38.84,54.43,9.81,82.57a52.61,52.61,0,0,1,25.92,36.49A163.94,163.94,0,0,1,646,290.72a50.73,50.73,0,0,1,12.16-16.15C679.19,256.78,709.72,277.48,702,303.92Z"/><path class="cls-5" d="M444.53,185.72s37.32-26.89,78.18-19.1l-25.29-9.79S463.17,162.89,444.53,185.72Z"/><path class="cls-5" d="M643.83,263.19a52.61,52.61,0,0,0-25.92-36.49c-48.65-28.14-9.81-82.57-9.81-82.57-32.16,26.21-87.62,10.48-87.62,10.48a82.55,82.55,0,0,0-23.2-3c-23.7-.07-46.86,8.7-63.22,25.86-18.53,19.44-22.07,41.36-22.27,42.71.85-2.27,27.56-71.07,102.45-55.78a98.53,98.53,0,0,1,11.66,3.3c10.48,3.57,38.64,11.64,57.36,2.68,0,0-22.88,46.49,23.09,63.09v0a60.4,60.4,0,0,0,7,3.09s26.2,8.48,31.84,37.05C644.83,269.8,644.37,266.35,643.83,263.19Z"/><path class="cls-12" d="M674.73,337.44c11-7.51,22.9-18.64,27.25-33.52,7.74-26.44-22.79-47.14-43.84-29.35A50.73,50.73,0,0,0,646,290.72a163.94,163.94,0,0,0-2.15-27.53,52.61,52.61,0,0,0-25.92-36.49c-48.65-28.14-9.81-82.57-9.81-82.57-32.16,26.21-87.62,10.48-87.62,10.48a82.55,82.55,0,0,0-23.2-3c-23.7-.07-46.86,8.7-63.22,25.86-19.13,20.07-22.29,42.77-22.29,42.77s-.35.65-.93,1.78a43.09,43.09,0,0,0-13.55,11.64c-3.26-28.23-5-100.58,54-140.68A102.46,102.46,0,0,1,481,79.31c19.73-5.55,54.54-11.38,81.9,5.28,0,0,86.44-33.08,131.87,35.43,0,0,21-3.16,42,18.33a77.17,77.17,0,0,1,20.09,39.32C763.76,213.35,767.11,293,674.73,337.44Z"/><path class="cls-14" d="M444.53,126.31S489.61,104.64,555,137.49A38,38,0,0,0,544,110s86,5.82,107.87,79.45c0,0,2.8-91.8-140.26-95.06,0,0,17.82,13.39,24.81,24.93C536.44,119.32,488.91,95.9,444.53,126.31Z"/><path class="cls-12" d="M534.33,157.46s-57-8.79-89.8,28.26c0,0,20.5-36.35,66.4-38.21Z"/><path class="cls-12" d="M597.18,151.1s-28.23,42.66,7.06,78c0,0-24.53-40.4,6.18-84.93v-3.49Z"/><circle class="cls-15" cx="483.34" cy="297.15" r="14.21"/><path class="cls-5" d="M471.47,294.86a10.08,10.08,0,1,0,10.07-10.08A10.07,10.07,0,0,0,471.47,294.86Z"/><path class="cls-12" d="M500.78,371.3l-.48.14c-10.48,3-21.42-3.27-24.7-13.67l-5.18-16.45-1.29-4.14s23.43-9.58,43-9.58l.67,5.38,2,16.27A20.39,20.39,0,0,1,500.78,371.3Z"/><path class="cls-16" d="M485.65,364c1.1,4.32,7.4,6.45,14.09,4.74s11.2-6.58,10.1-10.9-7.4-6.44-14.08-4.74S484.55,359.72,485.65,364Z"/><path class="cls-17" d="M487.83,361.93c.61,2.39,4.4,3.48,8.47,2.45s6.88-3.81,6.27-6.2-4.4-3.48-8.47-2.45S487.23,359.54,487.83,361.93Z"/><path class="cls-18" d="M512.82,333c-4.23,4.68-12.11,8.55-21.5,10-8,1.24-15.48.5-20.9-1.69l-.88-2.8-.41-1.34s23.43-9.58,43-9.58l.31,2.46Z"/><path class="cls-7" d="M512.46,330.06c-4.8,4.52-12.75,8.17-22.07,9.63-7.81,1.22-15.17.69-20.85-1.17l-.41-1.34s23.43-9.58,43-9.58Z"/><ellipse class="cls-12" cx="551.43" cy="275.57" rx="19.25" ry="21.58"/><path class="cls-7" d="M549.28,272.89a7.53,7.53,0,1,1-7.53-7.53A7.53,7.53,0,0,1,549.28,272.89Z"/><path class="cls-12" d="M567,262.92s6.67,6.46,13.67,2.47c0,0-5.59,9.5-13.67,4.75Z"/><path class="cls-12" d="M431.16,276c0,9,6.48,16.22,14.47,16.22s14.48-7.26,14.48-16.22-6.48-16.23-14.48-16.23S431.16,267,431.16,276Z"/><path class="cls-7" d="M433.92,273.57a5.66,5.66,0,1,0,5.66-5.66A5.66,5.66,0,0,0,433.92,273.57Z"/><path class="cls-12" d="M433.92,266.47s-5,4.86-10.28,1.85c0,0,4.21,7.14,10.28,3.57Z"/><path class="cls-12" d="M553.55,236.62c6.15.6,15.77,1.95,23.62,4.89a7.71,7.71,0,0,0,9.92-4.24l.07-.15a7.66,7.66,0,0,0-4.92-10.2c-7-2.11-17.72-4.31-29.09-2.59a6.17,6.17,0,0,0-5.15,5.5h0A6.18,6.18,0,0,0,553.55,236.62Z"/><path class="cls-12" d="M428.07,243.3a49.36,49.36,0,0,1,19.78-3.3,5.29,5.29,0,0,0,5.4-4.41h0a5.23,5.23,0,0,0-4.37-6,58.39,58.39,0,0,0-25.16,1.78,6.37,6.37,0,0,0-4.14,8.14h0A6.38,6.38,0,0,0,428.07,243.3Z"/><path class="cls-8" d="M715.05,247.93H691.26a199.1,199.1,0,0,0,2-42c-2.17-41.74-17.86-102.37-87.16-122.58a68.71,68.71,0,0,0-41.63.65c-.54.18-1.05.38-1.54.56A68.12,68.12,0,0,0,551,78.84a78.63,78.63,0,0,1,17.59-5.93,99.53,99.53,0,0,1,61,6c31.16,13.3,83.31,47.61,87.27,128.83A229.32,229.32,0,0,1,715.05,247.93Z"/><path class="cls-19" d="M715.05,247.93H691.26a199.1,199.1,0,0,0,2-42,57.84,57.84,0,0,1,7.13-.43,61.19,61.19,0,0,1,16.43,2.24A229.32,229.32,0,0,1,715.05,247.93Z"/><path class="cls-8" d="M715.05,327a72.15,72.15,0,0,1-10.24,23.61A73,73,0,0,1,665.1,380c-36.88,11.18-82.62,19.54-112.33,24.32-18.6,3-30.94,4.59-30.94,4.59V394.78c8.59-1.23,17.84-2.77,27.45-4.56,37.78-6.93,81.11-17.35,111.29-26.45a57.83,57.83,0,0,0,39.79-43.1Z"/><path class="cls-19" d="M715.05,327a72.15,72.15,0,0,1-10.24,23.61,57.31,57.31,0,0,1-5.88.29,61.38,61.38,0,0,1-14.09-1.65,57.54,57.54,0,0,0,15.52-28.53Z"/><path class="cls-19" d="M553.55,399.88a13,13,0,0,1-.78,4.44c-18.6,3-30.94,4.59-30.94,4.59V394.78c8.59-1.23,17.84-2.77,27.45-4.56a12.64,12.64,0,0,1,3.09,4.22,13.36,13.36,0,0,1,1,3.34A12.32,12.32,0,0,1,553.55,399.88Z"/><ellipse class="cls-8" cx="700.36" cy="278.47" rx="62.21" ry="66.88"/><ellipse class="cls-4" cx="715.03" cy="278.47" rx="52.42" ry="60"/><ellipse class="cls-8" cx="719.75" cy="272.89" rx="42.74" ry="48.91" transform="translate(-24.87 77.83) rotate(-6.08)"/><ellipse class="cls-2" cx="726.45" cy="274.26" rx="20.04" ry="23.77"/><path class="cls-2" d="M744.71,269.19c1.77,10.15-3.74,19.58-12.3,21.07s-16.92-5.53-18.69-15.68S717.46,255,726,253.51,743,259,744.71,269.19Z"/><path class="cls-12" d="M550,400.72a12,12,0,0,1-10.09,11.85L524,415.16a12,12,0,0,1-13.8-9.93,7.28,7.28,0,0,1-.14-1.39,5.06,5.06,0,0,1,0-.55,12,12,0,0,1,10.09-11.83L536,388.87a12,12,0,0,1,12.87,6.85,12.28,12.28,0,0,1,.93,3A11.66,11.66,0,0,1,550,400.72Z"/><path class="cls-14" d="M543.54,406.26a11.9,11.9,0,0,1-4.72,1.84l-15.92,2.59a11.36,11.36,0,0,1-1.63.15c-9.87.25-13.6-13.53-4.86-18.15a11.89,11.89,0,0,1,3.69-1.23L536,388.87a12,12,0,0,1,2.86-.13C547.69,389.4,550.9,401.38,543.54,406.26Z"/><path class="cls-1" d="M417.69,798.94a11.85,11.85,0,0,1-11.87,11.85H274.07a11.86,11.86,0,0,1,0-23.72H405.82A11.88,11.88,0,0,1,417.69,798.94Z"/><path class="cls-2" d="M417.7,798.94a11.69,11.69,0,0,1-3.49,8.38,11.83,11.83,0,0,1-8.4,3.46H358.53a11.86,11.86,0,1,1,0-23.71h47.28A11.89,11.89,0,0,1,417.7,798.94Z"/><path class="cls-2" d="M406,798.94a11.69,11.69,0,0,1-3.49,8.38,11.87,11.87,0,0,1-8.41,3.46H358.53a11.86,11.86,0,1,1,0-23.71h35.54A11.9,11.9,0,0,1,406,798.94Z"/><path class="cls-1" d="M533.91,799.4v11.38H436.69V799.4a36,36,0,0,1,36-36h25.15A36,36,0,0,1,533.91,799.4Z"/><path class="cls-1" d="M514.32,799.4v11.38H436.69V799.4a36,36,0,0,1,36-36h5.57A36,36,0,0,1,514.32,799.4Z"/><path class="cls-8" d="M733,474.53s32.13,11.8,63.62,44.87a118,118,0,0,1,27.15,46.81l44.68,166.38a56.61,56.61,0,0,1,1.87,8c.16,1,.32,2.2.48,3.49,4.34,36.68-25.55,68.42-62.44,66.64l-187.74-9.06c-27.25-1.32-48.84-23.88-48.48-51.16,0-.46,0-.93,0-1.39.74-28.47,25.29-50.5,53.73-48.92l138.59,7.7L741.57,588S725.38,515.7,733,474.53Z"/><path class="cls-4" d="M777.16,718.31l-147.39-7.78c-15.95-1.4-27.37,2.68-35.56,9.16-29.94,23.59-18.28,71.47,16.75,80.55a50.7,50.7,0,0,1-38.8-49.73c0-.47,0-.94,0-1.4.76-28.46,25.31-50.49,53.74-48.93l138.6,7.7L741.58,588S730.5,538.59,731,498.2c1.2,16.7,7.62,40.68,7.62,40.68Z"/><path class="cls-4" d="M808.4,810.72l-187.74-9.05a50.87,50.87,0,0,1-48.37-47,51,51,0,0,0,43.35,28.42l187.74,9.08c36.88,1.77,66.79-30,62.42-66.66-.13-1.27-.32-2.45-.47-3.49-.21-1.35-.47-2.67-.78-4l3.93,14.62a57.49,57.49,0,0,1,1.87,8c.15,1,.31,2.19.47,3.49C875.16,780.76,845.28,812.49,808.4,810.72Z"/><path class="cls-4" d="M814.54,553.54c5.74,13.53,3.7,27.33-4.57,30.85s-19.63-4.6-25.37-18.13-3.7-27.33,4.57-30.84S808.79,540,814.54,553.54Z"/><path class="cls-5" d="M638.58,759.89c0,.28-.05.58-.08.86-1.58,16.27-16.69,27.79-32.85,25.55l-61.17-8.48L524,774H445.24a6.12,6.12,0,0,1-6.05-7.21.88.88,0,0,0,.06-.28c.28-1.46.64-2.9,1.05-4.31a43,43,0,0,1,23.9-27.73,32.49,32.49,0,0,1,5.05-1.8c29.95-22.29,75.45-3.56,75.45-3.56h64.87a29.23,29.23,0,0,1,25.89,15.61A27.65,27.65,0,0,1,638.58,759.89Z"/><path class="cls-6" d="M602.47,774.76l-61.14-8.49-20.52-3.84H442.07a6.06,6.06,0,0,1-1.77-.25,43,43,0,0,1,23.9-27.73,32.49,32.49,0,0,1,5.05-1.8c29.95-22.29,75.45-3.56,75.45-3.56h64.87a29.49,29.49,0,0,1,3,.15c18.45,1.87,27.42,24.55,14.86,38.2C622.58,772.7,614.84,776.36,602.47,774.76Z"/><path class="cls-20" d="M544.71,729.1a40,40,0,0,1,7.8,12.31,2.88,2.88,0,0,0,2.72,1.87h0a2.91,2.91,0,0,0,2.63-4.17,55.71,55.71,0,0,0-6.18-10Z"/><path class="cls-2" d="M1072,826.6a15.89,15.89,0,0,1-15.89,15.9H23.89a15.9,15.9,0,0,1,0-31.79H1056.11A15.88,15.88,0,0,1,1072,826.6Z"/><path class="cls-2" d="M965.05,826.6a15.89,15.89,0,0,1-15.89,15.9H23.89a15.9,15.9,0,0,1,0-31.79H949.16A15.88,15.88,0,0,1,965.05,826.6Z"/><path class="cls-21" d="M64.69,833.22H26.17a8.82,8.82,0,0,1-8.83-8.82h0a8.83,8.83,0,0,1,8.83-8.83H64.69a8.83,8.83,0,0,1,8.83,8.83h0A8.82,8.82,0,0,1,64.69,833.22Z"/><path class="cls-21" d="M99.4,833.22H91.75a8.82,8.82,0,0,1-8.82-8.82h0a8.82,8.82,0,0,1,8.82-8.83H99.4a8.82,8.82,0,0,1,8.82,8.83h0A8.82,8.82,0,0,1,99.4,833.22Z"/><path class="cls-2" d="M462.75,677.4l-70-182.1a29.25,29.25,0,0,0-27.31-18.76H79.4a16.22,16.22,0,0,0-15.14,22l70,182.09a29.25,29.25,0,0,0,27.31,18.77H447.62A16.21,16.21,0,0,0,462.75,677.4Z"/><path class="cls-1" d="M414.43,699.43H128.35a29.22,29.22,0,0,1-27.3-18.76l-70-182.09a16.22,16.22,0,0,1,15.14-22H332.29a29.28,29.28,0,0,1,27.33,18.76l69.95,182.09A16.23,16.23,0,0,1,414.43,699.43Z"/><path class="cls-1" d="M430.12,679.14l-67.2-174.93a29.29,29.29,0,0,0-27.33-18.77H49.51a16.21,16.21,0,0,0-15.69,20.29l-2.75-7.15a16.22,16.22,0,0,1,15.14-22H332.29a29.28,29.28,0,0,1,27.33,18.76l69.95,182.09A13.55,13.55,0,0,1,430.12,679.14Z"/><path class="cls-2" d="M241.36,634.12l-6.81,65.31H161L177,632a7.09,7.09,0,0,1,6.93-5.57h50.4A7.1,7.1,0,0,1,241.36,634.12Z"/><path class="cls-22" d="M130.29,779.58H314.82a4.43,4.43,0,0,1,4.43,4.43V810.7a0,0,0,0,1,0,0H125.86a0,0,0,0,1,0,0V784A4.43,4.43,0,0,1,130.29,779.58Z"/><path class="cls-1" d="M130.29,779.58H314.82a4.43,4.43,0,0,1,4.43,4.43V810.7a0,0,0,0,1,0,0H125.86a0,0,0,0,1,0,0V784A4.43,4.43,0,0,1,130.29,779.58Z"/><path class="cls-2" d="M319.25,789.8v3.72A10.21,10.21,0,0,0,309,783.3H136.08a10.23,10.23,0,0,0-10.23,10.22V789.8a10.23,10.23,0,0,1,10.23-10.22H309A10.21,10.21,0,0,1,319.25,789.8Z"/><path class="cls-2" d="M319.26,789.81v20.9H276.47v-20.9a10.22,10.22,0,0,1,10.22-10.22H309A10.22,10.22,0,0,1,319.26,789.81Z"/><path class="cls-2" d="M315.26,781.7H288.91a9.56,9.56,0,0,0-9.54,9.54v19.47h-2.9V789.8a10.23,10.23,0,0,1,10.22-10.22H309A10.34,10.34,0,0,1,315.26,781.7Z"/><path class="cls-2" d="M297.52,649.32,285,616.62a5.26,5.26,0,0,0-4.9-3.36h-116a2.91,2.91,0,0,0-2.72,4l12.56,32.69a5.25,5.25,0,0,0,4.9,3.37h116A2.91,2.91,0,0,0,297.52,649.32Z"/><path class="cls-2" d="M273.49,634.12,259.6,767.19l-1.3,12.39H174.11L177,767.19,209.12,632a7.08,7.08,0,0,1,6.93-5.57h50.38A7.1,7.1,0,0,1,273.49,634.12Z"/><path class="cls-22" d="M153.35,779.58l35-147.63a7.09,7.09,0,0,1,6.92-5.56h50.4a7.09,7.09,0,0,1,7.06,7.72L237.54,779.58Z"/><path class="cls-1" d="M252.74,634.12,238.82,767.19l-1.29,12.39H153.34l2.93-12.39L188.35,632a7.09,7.09,0,0,1,6.93-5.57h50.4A7.11,7.11,0,0,1,252.74,634.12Z"/><path class="cls-2" d="M251.93,630.17a7.08,7.08,0,0,0-2.44-.44H199.11a7.09,7.09,0,0,0-6.93,5.56L158,779.58h-4.62l35-147.63a7.09,7.09,0,0,1,6.93-5.57h50.4A7,7,0,0,1,251.93,630.17Z"/><path class="cls-2" d="M229.08,655.58a11.1,11.1,0,1,1-11.1-11.1A11.1,11.1,0,0,1,229.08,655.58Z"/><path class="cls-23" d="M223.42,657.74H212.54a2.16,2.16,0,0,1-2.16-2.16h0a2.16,2.16,0,0,1,2.16-2.16h10.88a2.17,2.17,0,0,1,2.17,2.16h0A2.16,2.16,0,0,1,223.42,657.74Z"/><polygon class="cls-2" points="259.6 767.19 258.3 779.58 153.34 779.58 156.27 767.19 259.6 767.19"/><polygon class="cls-21" points="993.05 671.13 992.12 679.4 990.48 694.05 989.63 701.62 983.65 754.91 982.52 765.09 978.81 798.09 977.38 810.71 901.01 810.71 899.35 798.09 895.03 765.09 893.69 754.91 886.7 701.62 885.71 694.05 883.79 679.4 882.71 671.13 993.05 671.13"/><polygon class="cls-24" points="990.48 694.05 989.63 701.62 983.65 754.91 982.52 765.09 895.03 765.09 893.69 754.91 886.7 701.62 885.71 694.05 990.48 694.05"/><polygon class="cls-24" points="993.05 671.13 992.12 679.4 883.79 679.4 882.71 671.13 993.05 671.13"/><polygon class="cls-24" points="978.81 798.09 977.38 810.71 901.01 810.71 899.35 798.09 978.81 798.09"/><path class="cls-25" d="M992.17,706.19l-5.31,47.15a5.29,5.29,0,0,1-5.26,4.71H895.72a5.29,5.29,0,0,1-5.26-4.62l-6.21-47.15a4.13,4.13,0,0,1,4.09-4.66h99.72A4.14,4.14,0,0,1,992.17,706.19Z"/><path class="cls-7" d="M977.1,706.19l-5.29,47.15a5.31,5.31,0,0,1-5.28,4.71H895.72a5.29,5.29,0,0,1-5.26-4.62l-6.21-47.15a4.13,4.13,0,0,1,4.09-4.66H973A4.12,4.12,0,0,1,977.1,706.19Z"/><path class="cls-25" d="M1004,660.24a10.78,10.78,0,0,1-3.21,7.71,10.89,10.89,0,0,1-7.7,3.18h-113a10.9,10.9,0,0,1,0-21.8h113A10.92,10.92,0,0,1,1004,660.24Z"/><path class="cls-7" d="M982.94,660.24A10.87,10.87,0,0,1,972,671.13h-92a10.9,10.9,0,0,1,0-21.8h92A10.9,10.9,0,0,1,982.94,660.24Z"/><path class="cls-7" d="M993.05,649.33H882.71l2.61-5.36,3.8-7.78a5.24,5.24,0,0,1,4.69-3H982a5.23,5.23,0,0,1,4.7,3l3.79,7.78Z"/><path class="cls-26" d="M958.43,628.95H970.2a.83.83,0,0,1,.83.83v3.47a0,0,0,0,1,0,0H957.6a0,0,0,0,1,0,0v-3.47A.83.83,0,0,1,958.43,628.95Z"/><polygon class="cls-27" points="993.05 649.33 882.71 649.33 885.32 643.97 990.44 643.97 993.05 649.33"/><path class="cls-1" d="M373.26,842.79H244.4a25.34,25.34,0,0,1-25.31-25.31v-6.72H226v6.72a18.4,18.4,0,0,0,18.38,18.39H373.26a18.4,18.4,0,0,0,18.38-18.39,25.3,25.3,0,0,1,25.64-25.3l21.86.2-.09,6.93-21.86-.21a18.39,18.39,0,0,0-18.62,18.38A25.33,25.33,0,0,1,373.26,842.79Z"/><path class="cls-28" d="M292.84,104.18h-7.69c-.13-.27-.39-.19-.6-.21a55.38,55.38,0,0,1-6.9-1.11,49.18,49.18,0,0,1-15.51-6.55,1.83,1.83,0,0,0-1.74-.2q-5.37,1.77-10.76,3.47c-2.51.81-5,1.6-7.68,2.44.14-.43.22-.7.31-1,1.85-5.5,3.68-11,5.56-16.49a2.31,2.31,0,0,0-.3-2.34,49.13,49.13,0,0,1-8.42-21.62,9.61,9.61,0,0,0-.5-3V50c.37-.38.18-.87.23-1.3a50.5,50.5,0,1,1,57.54,55A19.28,19.28,0,0,0,292.84,104.18Zm13-22.25a10.44,10.44,0,0,0,3.95-.64c7.12-2.49,9.55-5.91,9.75-12.51a2.12,2.12,0,0,0-1.33-2.19c-3.72-1.79-7.38-3.71-11.18-5.36-2-.87-3.12-.54-4.42,1.22-1,1.4-2.06,2.8-3.13,4.17-1.24,1.59-2.43,1.9-4.34,1.17a34.81,34.81,0,0,1-4.62-2.19,40.68,40.68,0,0,1-14.89-14.73c-1-1.58-.92-2.19.3-3.6.95-1.09,1.95-2.14,2.85-3.27s1.62-2.1,1-3.49c-1.76-4.27-3.42-8.59-5.4-12.78a1.79,1.79,0,0,0-1.19-1.1c-2.67-.57-5.34-.66-7.65,1a13.78,13.78,0,0,0-4.68,6.45c-1.84,5-1.23,9.79.82,14.55a49.1,49.1,0,0,0,5.9,9.52,72.94,72.94,0,0,0,11.3,12.19c5.79,5,12.54,8.07,19.76,10.29A23.31,23.31,0,0,0,305.82,81.93Z"/><path class="cls-7" d="M305.82,81.93a23.31,23.31,0,0,1-7.16-1.26c-7.22-2.22-14-5.33-19.76-10.29a72.94,72.94,0,0,1-11.3-12.19,49.1,49.1,0,0,1-5.9-9.52c-2.05-4.76-2.66-9.59-.82-14.55a13.78,13.78,0,0,1,4.68-6.45c2.31-1.7,5-1.61,7.65-1a1.79,1.79,0,0,1,1.19,1.1c2,4.19,3.64,8.51,5.4,12.78.58,1.39-.23,2.49-1,3.49s-1.9,2.18-2.85,3.27c-1.22,1.41-1.26,2-.3,3.6A40.68,40.68,0,0,0,290.5,65.6a34.81,34.81,0,0,0,4.62,2.19c1.91.73,3.1.42,4.34-1.17,1.07-1.37,2.09-2.77,3.13-4.17,1.3-1.76,2.41-2.09,4.42-1.22,3.8,1.65,7.46,3.57,11.18,5.36a2.12,2.12,0,0,1,1.33,2.19c-.2,6.6-2.63,10-9.75,12.51A10.44,10.44,0,0,1,305.82,81.93Z"/><path class="cls-29" d="M152.28,276.5h7.89c.11.24.33.18.51.2A48.39,48.39,0,0,1,182,283.61q20.21,12.45,24.14,35.92a19.47,19.47,0,0,0,.56,3.54V331c-.29.17-.18.47-.21.71a52.38,52.38,0,0,1-1.08,6.71,50.39,50.39,0,0,1-56.7,38.55,48.4,48.4,0,0,1-31.61-18c-10.19-12.6-13.5-27-10.22-42.87,4.15-20,21.45-36.13,41.72-39A16.62,16.62,0,0,0,152.28,276.5Zm22.43,81.59c.45,0,1,0,1.63-.11,3.53-.48,6.39-1.94,7.83-5.44.94-2.27,1.93-4.53,2.84-6.81a3,3,0,0,0-1.26-3.93q-5.56-3.27-11.18-6.46a3,3,0,0,0-4,1c-.19.27-.35.55-.54.82a8.69,8.69,0,0,1-13.05,2.1,75.91,75.91,0,0,1-13-13,8.71,8.71,0,0,1-2-4.65c-.35-3.76,1.24-6.54,4.34-8.56,2.11-1.36,2.46-2.81,1.2-5q-3-5.18-6-10.33a3.08,3.08,0,0,0-4.2-1.44c-1.8.71-3.61,1.4-5.37,2.2-1.48.68-3.06,1.2-4.2,2.49a11.12,11.12,0,0,0-2.65,8.13,28.65,28.65,0,0,0,3.37,11.64,75.06,75.06,0,0,0,14.94,19.95,73.79,73.79,0,0,0,19.14,14.07A28.69,28.69,0,0,0,174.71,358.09Z"/><path class="cls-30" d="M174.71,358.09a28.69,28.69,0,0,1-12.09-3.34,73.79,73.79,0,0,1-19.14-14.07,75.06,75.06,0,0,1-14.94-19.95,28.65,28.65,0,0,1-3.37-11.64,11.12,11.12,0,0,1,2.65-8.13c1.14-1.29,2.72-1.81,4.2-2.49,1.76-.8,3.57-1.49,5.37-2.2a3.08,3.08,0,0,1,4.2,1.44q3,5.16,6,10.33c1.26,2.18.91,3.63-1.2,5-3.1,2-4.69,4.8-4.34,8.56a8.71,8.71,0,0,0,2,4.65,75.91,75.91,0,0,0,13,13,8.69,8.69,0,0,0,13.05-2.1c.19-.27.35-.55.54-.82a3,3,0,0,1,4-1q5.63,3.18,11.18,6.46a3,3,0,0,1,1.26,3.93c-.91,2.28-1.9,4.54-2.84,6.81-1.44,3.5-4.3,5-7.83,5.44C175.76,358.06,175.16,358.06,174.71,358.09Z"/><text class="cls-31" transform="translate(119.54 159.46)">WhatsApp</text><path class="cls-1" d="M837.65,369.29a15.37,15.37,0,0,0-8.23-2.24,15.16,15.16,0,0,0-8.5,2.39,15.53,15.53,0,0,0-5.63,6.67,23,23,0,0,0-2,9.76v11q0,4.61-1.15,6.64c-.77,1.35-2.17,2-4.22,2a19,19,0,0,1-4.84-.76v8.67a29.89,29.89,0,0,0,5.73.65q6.6,0,9.88-4.13c2.18-2.76,3.33-6.9,3.45-12.45a17.82,17.82,0,0,0,8.38,2.06,15.58,15.58,0,0,0,7.41-1.8,13.58,13.58,0,0,0,5.43-5.31,16.42,16.42,0,0,0,2-8.35,18.28,18.28,0,0,0-2.06-8.67A15.77,15.77,0,0,0,837.65,369.29Zm-3.27,20.24a7.79,7.79,0,0,1-5.37,1.89,12.41,12.41,0,0,1-6.79-2.13v-3.42a12,12,0,0,1,1.83-7.29,7,7,0,0,1,10.6-.35,9,9,0,0,1,1.85,5.87A6.91,6.91,0,0,1,834.38,389.53Z"/><polygon class="cls-1" points="884.18 371.24 875.27 371.24 875.27 390.83 867.89 390.83 860.57 390.83 860.57 356.25 851.66 356.25 851.66 399.56 867.89 399.56 884.18 399.56 884.18 371.24"/><path class="cls-1" d="M885.48,404.76a5,5,0,1,0,3.54,1.47A4.83,4.83,0,0,0,885.48,404.76Z"/><path class="cls-1" d="M873.74,404.76a5,5,0,1,0,3.53,1.47A4.83,4.83,0,0,0,873.74,404.76Z"/><rect class="cls-1" x="894.92" y="359.79" width="8.91" height="39.77"/><path class="cls-1" d="M898.37,350.56a2.65,2.65,0,0,1-.92-2.1,2.19,2.19,0,0,1,.83-1.86,3.47,3.47,0,0,1,2.13-.62,6.32,6.32,0,0,1,2.24.48l1.83-3.55a10,10,0,0,0-4.43-1.06,7.4,7.4,0,0,0-4.9,1.68,5.43,5.43,0,0,0-2,4.34,4.44,4.44,0,0,0,1.36,3.48h-1.36v3.72h12.27v-3.72H900.7A3.43,3.43,0,0,1,898.37,350.56Z"/><polygon class="cls-1" points="964.43 358.26 934.69 358.26 934.69 366.11 954.1 366.11 935.63 399.56 945.9 399.56 964.43 365.1 964.43 358.26"/><polygon class="cls-1" points="957.47 407.12 965.08 407.12 991.23 352.47 983.61 352.47 957.47 407.12"/><polygon class="cls-1" points="994.41 358.26 994.41 366.11 1013.83 366.11 995.36 399.56 1005.63 399.56 1024.15 365.1 1024.15 358.26 994.41 358.26"/><text class="cls-31" transform="translate(96.18 425.2)">Calls</text><text class="cls-32" transform="translate(154.24 247.93)">&amp;</text><path class="cls-2" d="M980.89,226.71a67.27,67.27,0,1,1-67.27-67.25A67.35,67.35,0,0,1,980.89,226.71Z"/><path class="cls-1" d="M913.62,139.44a87.29,87.29,0,1,0,87.3,87.27A87.27,87.27,0,0,0,913.62,139.44Zm0,154.55a67.27,67.27,0,1,1,67.27-67.28A67.34,67.34,0,0,1,913.62,294Z"/><path class="cls-1" d="M913.63,170.45A3.41,3.41,0,0,0,917,167v-6.81a3.41,3.41,0,0,0-6.81,0V167A3.41,3.41,0,0,0,913.63,170.45Z"/><path class="cls-1" d="M913.63,283a3.41,3.41,0,0,0-3.41,3.41v6.81a3.41,3.41,0,1,0,6.81,0v-6.81A3.41,3.41,0,0,0,913.63,283Z"/><path class="cls-1" d="M980.12,223.32h-6.81a3.41,3.41,0,0,0,0,6.81h6.81a3.41,3.41,0,1,0,0-6.81Z"/><path class="cls-1" d="M853.94,223.32h-6.81a3.41,3.41,0,0,0,0,6.81h6.81a3.41,3.41,0,1,0,0-6.81Z"/><path class="cls-1" d="M942.64,239.62l-22.22-14.56a6.59,6.59,0,0,0-1.52-2.93V184.68a4.9,4.9,0,1,0-9.79,0v37.45a6.67,6.67,0,0,0-1.86,4.58,6.76,6.76,0,0,0,6.76,6.76,6,6,0,0,0,1-.22l22.22,14.56a4.81,4.81,0,0,0,2.68.81,4.9,4.9,0,0,0,2.69-9Z"/></svg>