<?xml version="1.0" encoding="utf-8"?>
<!-- Generator: Adobe Illustrator 24.3.0, SVG Export Plug-In . SVG Version: 6.00 Build 0)  -->
<svg version="1.1" id="Layer_1" xmlns="http://www.w3.org/2000/svg" xmlns:xlink="http://www.w3.org/1999/xlink" x="0px" y="0px"
	 viewBox="0 0 1080 862" style="enable-background:new 0 0 1080 862;" xml:space="preserve">
<style type="text/css">
	.st0{fill:#222C4A;}
	.st1{fill:#384672;}
	.st2{fill:#4D5B85;}
	.st3{fill:#636E93;}
	.st4{fill:#ED6C5F;}
	.st5{fill:#FF9D8F;}
	.st6{fill:#FFB6AA;}
	.st7{fill:#FFFFFF;}
	.st8{fill:#ED523D;}
	.st9{fill:#DCDFE6;}
	.st10{fill:#B53F33;}
	.st11{fill:#F77A6D;}
	.st12{fill:#D2192C;}
	.st13{fill:#DB2739;}
	.st14{fill:#512431;}
	.st15{fill:#361820;}
	.st16{fill:#5F303D;}
	.st17{fill:#FF8676;}
	.st18{fill:#FF2C5C;}
	.st19{fill:#FF4E76;}
	.st20{fill:#FDE5E4;}
	.st21{fill:#FF3E53;}
	.st22{fill:#FF5166;}
	.st23{fill:#798BFD;}
	.st24{fill:#8B9AFC;}
	.st25{fill:#2D3857;}
	.st26{fill:#1C2844;}
	.st27{fill:#D67060;}
	.st28{fill:#8C8C8C;}
	.st29{fill:#626D91;}
	.st30{fill:#58658C;}
	.st31{fill:#303D6B;}
	.st32{fill:#192139;}
	.st33{fill:#A8A8A8;}
	.st34{fill:#F0E4E7;}
	.st35{fill:#EFDFE3;}
	.st36{fill:#E6C8CE;}
	.st37{fill:#4CAE50;}
	.st38{fill:#FDFEFE;}
	.st39{fill:#616161;}
	.st40{font-family:'Montserrat-ExtraBold';}
	.st41{font-size:66.1139px;}
	.st42{fill:#C1C6D7;}
</style>
<g>
	<g>
		<g>
			<path class="st0" d="M589.3,539.7v275.64h297.83V539.7c0-33.73-27.34-61.07-61.07-61.07H650.38
				C616.65,478.63,589.3,505.97,589.3,539.7z"/>
			<path class="st1" d="M589.3,539.7v275.64h268.94V539.7c0-33.73-27.34-61.07-61.07-61.07h-146.8
				C616.65,478.63,589.3,505.97,589.3,539.7z"/>
			<path class="st2" d="M589.3,539.7v275.64h234.1V539.7c0-33.73-27.34-61.07-61.07-61.07H650.38
				C616.65,478.63,589.3,505.97,589.3,539.7z"/>
			<g>
				<g>
					<g>
						<path class="st3" d="M668.1,500.99h18.41c3.8,0,6.88-3.08,6.88-6.88l0,0c0-3.8-3.08-6.88-6.88-6.88H668.1
							c-3.8,0-6.88,3.08-6.88,6.88l0,0C661.22,497.91,664.3,500.99,668.1,500.99z"/>
					</g>
					<g>
						<path class="st3" d="M643.5,500.99h3.67c3.8,0,6.88-3.08,6.88-6.88l0,0c0-3.8-3.08-6.88-6.88-6.88h-3.67
							c-3.8,0-6.88,3.08-6.88,6.88l0,0C636.63,497.91,639.71,500.99,643.5,500.99z"/>
					</g>
				</g>
			</g>
		</g>
		<g>
			<g>
				<path class="st4" d="M555.34,460.96c0,0-5.36,2.44-13.34,7.81c-33.66,22.66-55.52,80.19-60.53,120.46l-14.93,120.1l-57.48,6.52
					c-22.38,1.95-40.35,19.68-42.08,42.08c-0.03,0.39-0.06,0.78-0.08,1.17c-1.82,27.95,22.05,50.84,49.97,48.56l73.47-7.4
					c10.42-0.85,20.31-4.98,28.24-11.8l0,0c9.98-8.59,16.13-20.8,17.08-33.94L555.34,460.96z"/>
				<g>
					<path class="st5" d="M392.79,794.11l-23.25-2.51l-17.33,0.25l-64.05,12.97c-3.11,0.63-6.04-1.69-6.09-4.86l0.01-0.23
						c-0.02-1.66,0.07-3.34,0.28-4.96c1.15-10.07,6.31-19.37,14.71-25.23c2.24-1.57,3.81-2.29,3.81-2.29
						c20.7-23.08,60.8-15.34,60.8-15.34l24.88-4.98c10.72-2.16,21.33,3.14,26.15,12.22c1.3,2.43,2.15,5.14,2.5,8.06
						c0.05,0.23,0.07,0.47,0.09,0.7C416.69,781.42,406.31,793.27,392.79,794.11z"/>
					<path class="st6" d="M390.12,784.44l-23.22-2.54l-17.34,0.28l-64.05,12.97c-1.11,0.22-2.21,0.06-3.15-0.39
						c1.15-10.07,6.31-19.37,14.71-25.23c2.24-1.57,3.81-2.29,3.81-2.29c20.7-23.08,60.8-15.34,60.8-15.34l24.88-4.98
						c0.11-0.02,0.21-0.04,0.32-0.06c22.54-4.24,31.08,29.28,9.29,36.42C394.26,783.91,392.23,784.31,390.12,784.44z"/>
				</g>
			</g>
			<g>
				<g>
					<path class="st7" d="M681.31,448.2c-26.17,75.3-90.27,200.1-90.27,200.1c-37.52-69-43.73-186.32-43.73-186.32
						c4.03-3.8,8.36-7.35,12.96-10.58c9.07-6.39,13.87-7.85,13.87-7.85l66.12-8.84c12.68,3.53,24.7,7.44,35.83,11.47
						C677.85,446.82,679.59,447.49,681.31,448.2z"/>
					<path class="st8" d="M818.77,814.62H480.75l28.85-275.88c3.07-29.42,16.44-56.76,37.71-76.77c0,0,5.88,111.06,40.75,180.61
						c0.96,1.92,1.97,3.82,2.98,5.7c0,0,1.44-2.82,4.01-7.9c14.42-28.55,64.04-128.23,86.27-192.2
						c45.01,18.25,77.77,58.31,87.04,106.25L818.77,814.62z"/>
					<path class="st9" d="M674.65,445.66c-18.16,38.03-52.11,71.8-52.11,71.8c-6.73-15.71-21.18-35.62-21.18-35.62l-12.66,7.46
						l-10.03-4.49c-3.23,6.73-12.71,22.69-12.71,22.69c-11.29-14.65-16.44-34-18.66-45.51c4.03-3.8,8.36-7.35,12.96-10.58
						c9.07-6.39,13.87-7.85,13.87-7.85l66.12-8.84C652.39,438.08,663.93,441.81,674.65,445.66z"/>
					<g>
						<path class="st10" d="M595.04,640.4c-2.13,37.13-6.91,124.64-7.49,174.23h-6.87c0.55-48.63,5.15-133.47,7.37-172.03
							c0.96,1.92,1.97,3.82,2.98,5.7C591.03,648.29,592.48,645.48,595.04,640.4z"/>
					</g>
					<path class="st11" d="M681.31,617.23l-35.65-9.57l10.3,40.64c-27.08,48.15-67.52,129.93-67.52,129.93
						c1.63-48.51,4.92-108.68,6.59-137.82c14.42-28.55,64.04-128.23,86.27-192.2c17.29,7.01,32.76,17.24,45.79,29.9
						C705.44,530.43,681.31,617.23,681.31,617.23z"/>
					<path class="st11" d="M588.06,642.59c-1.72,29.79-4.85,87.2-6.46,134.21c-9.91-42.93-34.3-133.45-34.3-133.45l11.15-30.15
						l-18.09,9.73c-8.68-55.47-14.47-115.69-15.91-131.53c0-0.02,0-0.02,0-0.02c6.04-10.87,13.71-20.81,22.85-29.4
						C547.31,461.98,552.2,567.18,588.06,642.59z"/>
				</g>
				<g>
					<g>
						<path class="st6" d="M636.38,350.52v79.81c-14.69,18.81-42.17,28.33-42.17,28.33l-5.17,19.43l-3.94-19.01
							c-8.47-4.76-10.96-15.52-10.96-15.52v-67.82L636.38,350.52z"/>
						<path class="st5" d="M636.38,348.23v32.84c-20.16,14.72-43.23,24.48-62.24,29.99v-37.61L636.38,348.23z"/>
					</g>
					<path class="st7" d="M660.75,441.72c-9.2,18.38-38.28,55.54-38.28,55.54c-7.72-14.72-21.22-28.94-21.22-28.94l-12.2,9.78
						l5.17-19.44c0,0,27.47-9.52,42.17-28.32v-12.18C648.23,422.58,660.75,441.72,660.75,441.72z"/>
					<path class="st7" d="M589.04,478.1l-8.88-10.51c0,0-9.81,12.76-13.25,23.67c0,0-8.87-25.88-11.57-37.9
						c0,0,5.19-15.82,18.8-22.69v12.89c0,0,2.34,10.17,10.96,15.52L589.04,478.1z"/>
				</g>
			</g>
			<g>
				<g>
					<path class="st12" d="M470.09,282.81c0,30.25-18.78,54.77-41.97,54.77c-23.17,0-41.95-24.52-41.95-54.77
						c0-15.34,4.84-29.24,12.65-39.15c3.83-4.9,8.37-8.82,13.4-11.51c4.9-2.65,10.26-4.09,15.9-4.09
						C451.31,228.06,470.09,252.58,470.09,282.81z"/>
					<path class="st13" d="M420.94,275.35c-4.31,11.62-14.35,18.62-22.41,15.63c-8.07-2.99-11.11-14.84-6.8-26.46
						c4.31-11.62,14.35-18.62,22.41-15.63C422.2,251.88,425.25,263.72,420.94,275.35z"/>
					<path class="st13" d="M404.91,302.23c0.83,4.86-1.23,9.27-4.6,9.84c-3.37,0.58-6.78-2.89-7.61-7.75
						c-0.83-4.86,1.23-9.27,4.6-9.84S404.08,297.37,404.91,302.23z"/>
				</g>
				<g>
					<path class="st14" d="M738.34,173.9c-0.09,0.02-0.17,0.02-0.26,0.04c-12.61,2.32-28.07,2.5-47.05-0.73
						c0,0-34.57-31.58-62.92-51.46c0,0-0.37-5.51,0.19-14.03c0.47-7.38,1.66-17.04,4.39-27.32c14.65-55.35,82.93-74.05,124.34-34.53
						c10.99,10.52,21.3,24.52,28.27,43.13C799.09,125.71,776.89,166.67,738.34,173.9z"/>
					<path class="st15" d="M761.48,164.46c-6.75,4.54-14.54,7.83-23.15,9.44c-0.09,0.02-0.17,0.02-0.26,0.04
						c-12.61,2.32-28.07,2.5-47.05-0.73c0,0-34.57-31.58-62.92-51.46c0,0-0.37-5.51,0.19-14.03c0.47-7.38,1.66-17.04,4.39-27.32
						c0.02-0.04,0.02-0.11,0.04-0.15c13.29,1.68,42.81,8.82,65.89,38.92C698.62,119.18,741.37,123.83,761.48,164.46z"/>
					<g>
						
							<ellipse transform="matrix(0.1665 -0.986 0.986 0.1665 547.3947 737.8574)" class="st16" cx="710.16" cy="45.13" rx="15.72" ry="27.14"/>
						<path class="st16" d="M760.6,64.94c-2.28,2.94-8.24,2.14-13.32-1.78s-7.36-9.5-5.08-12.44c2.28-2.94,8.24-2.14,13.32,1.78
							C760.6,56.42,762.88,62,760.6,64.94z"/>
					</g>
				</g>
				<g>
					<path class="st6" d="M700.24,313.2c-8.91,30.44-49.44,44.96-49.44,44.96c-48.1,36.59-101.28,48.3-128.93,52.04
						c-16.95,2.28-34.31,0.82-50.36-5.14c-22.48-8.35-36.36-22.42-44.9-35.99c-9.06-14.41-13.47-31.3-13.47-48.32v-90.37
						c0,0,3.12-22.46,22.05-42.32c16.18-16.97,39.09-25.64,62.54-25.58c7.38,0,15.42,0.77,22.95,3.01c0,0,54.86,15.55,86.67-10.37
						c0,0-38.42,53.85,9.7,81.68c13.45,7.77,23.02,20.8,25.64,36.1c1.27,7.42,2.13,16.44,2.13,27.24
						c3.61-7.19,7.74-12.33,12.03-15.98C677.69,266.56,707.9,287.04,700.24,313.2z"/>
					<path class="st5" d="M445.55,196.27c0,0,36.92-26.6,77.35-18.9l-25.02-9.68C497.87,167.69,463.99,173.68,445.55,196.27z"/>
					<path class="st5" d="M642.71,272.91c-2.62-15.3-12.2-28.33-25.64-36.1c-48.12-27.84-9.7-81.68-9.7-81.68
						c-31.82,25.92-86.67,10.37-86.67,10.37c-7.53-2.24-15.58-3.01-22.95-3.01c-23.45-0.06-46.36,8.61-62.54,25.58
						c-18.33,19.23-21.84,40.92-22.03,42.25c0.84-2.24,27.26-70.3,101.35-55.18c3.92,0.82,7.74,1.98,11.53,3.27
						c10.37,3.53,38.23,11.51,56.75,2.65c0,0-22.64,45.99,22.83,62.41l-0.01-0.03c2.14,1.11,4.43,2.14,6.93,3.06
						c0,0,25.92,8.39,31.49,36.66C643.7,279.45,643.25,276.03,642.71,272.91z"/>
				</g>
				<g>
					<path class="st14" d="M673.28,346.35c10.93-7.42,22.65-18.44,26.96-33.15c7.66-26.16-22.55-46.64-43.37-29.04
						c-4.28,3.66-8.41,8.8-12.03,15.98c0-10.8-0.86-19.81-2.13-27.24c-2.62-15.3-12.2-28.33-25.64-36.1
						c-48.12-27.84-9.7-81.68-9.7-81.68c-31.82,25.92-86.67,10.37-86.67,10.37c-7.53-2.24-15.58-3.01-22.95-3.01
						c-23.45-0.06-46.36,8.61-62.54,25.58c-18.93,19.86-22.05,42.32-22.05,42.32s-0.34,0.65-0.93,1.76
						c-5.03,2.69-9.57,6.6-13.4,11.51c-3.23-27.92-4.97-99.5,53.46-139.17c8.95-6.07,18.91-10.54,29.34-13.49
						c19.51-5.49,53.95-11.25,81.02,5.23c0,0,85.51-32.72,130.45,35.04c0,0,20.8-3.12,41.52,18.14
						c10.37,10.63,17.04,24.31,19.88,38.9C761.36,223.6,764.67,302.43,673.28,346.35z"/>
					<path class="st16" d="M445.55,137.49c0,0,44.6-21.44,109.25,11.06c0,0,1.15-15.21-10.83-27.2c0,0,85.05,5.76,106.72,78.6
						c0,0,2.77-90.81-138.76-94.04c0,0,17.63,13.25,24.55,24.66C536.48,130.58,489.46,107.41,445.55,137.49z"/>
					<path class="st14" d="M534.39,168.31c0,0-56.34-8.69-88.84,27.96c0,0,20.28-35.96,65.69-37.8L534.39,168.31z"/>
					<path class="st14" d="M596.57,162.02c0,0-27.93,42.2,6.99,77.12c0,0-24.27-39.97,6.11-84.01v-3.46L596.57,162.02z"/>
				</g>
				<g>
					<g>
						<circle class="st17" cx="483.95" cy="306.5" r="14.06"/>
						<path class="st5" d="M472.2,304.24c0,5.5,4.46,9.97,9.97,9.97c5.5,0,9.97-4.46,9.97-9.97c0-5.5-4.46-9.97-9.97-9.97
							C476.67,294.27,472.2,298.73,472.2,304.24z"/>
					</g>
					<g>
						<path class="st14" d="M501.2,379.85c-0.17,0.05-0.31,0.09-0.47,0.14c-10.37,3-21.2-3.24-24.44-13.52l-5.13-16.28l-1.28-4.09
							c0,0,23.18-9.48,42.56-9.48l0.66,5.32l2.01,16.09C516.33,367.7,510.51,376.99,501.2,379.85z"/>
						<g>
							<path class="st18" d="M486.23,372.67c1.09,4.27,7.33,6.38,13.94,4.69c6.61-1.68,11.09-6.51,10-10.78
								c-1.09-4.27-7.33-6.38-13.94-4.69C489.62,363.57,485.14,368.4,486.23,372.67z"/>
							<path class="st19" d="M488.39,370.58c0.6,2.36,4.35,3.44,8.38,2.42c4.03-1.02,6.8-3.77,6.2-6.13
								c-0.6-2.36-4.35-3.44-8.38-2.42C490.57,365.48,487.79,368.22,488.39,370.58z"/>
						</g>
						<g>
							<path class="st20" d="M513.11,341.95c-4.18,4.63-11.98,8.46-21.27,9.93c-7.92,1.23-15.31,0.5-20.68-1.68l-0.87-2.76
								l-0.4-1.32c0,0,23.18-9.48,42.56-9.48l0.31,2.43L513.11,341.95z"/>
							<path class="st7" d="M512.76,339.06c-4.75,4.47-12.62,8.08-21.84,9.52c-7.73,1.21-15.01,0.69-20.63-1.16l-0.4-1.32
								c0,0,23.18-9.48,42.56-9.48L512.76,339.06z"/>
						</g>
					</g>
					<g>
						<ellipse class="st14" cx="551.31" cy="285.15" rx="19.04" ry="21.35"/>
						<path class="st7" d="M549.18,282.5c0,4.11-3.34,7.45-7.45,7.45c-4.11,0-7.45-3.34-7.45-7.45c0-4.11,3.34-7.45,7.45-7.45
							C545.84,275.05,549.18,278.39,549.18,282.5z"/>
						<path class="st14" d="M566.72,272.64c0,0,6.6,6.39,13.52,2.44c0,0-5.53,9.4-13.52,4.7V272.64z"/>
					</g>
					<g>
						<path class="st14" d="M432.33,285.56c0,8.86,6.41,16.05,14.32,16.05c7.91,0,14.32-7.19,14.32-16.05
							c0-8.86-6.41-16.05-14.32-16.05C438.74,269.51,432.33,276.69,432.33,285.56z"/>
						<path class="st7" d="M435.06,283.18c0,3.09,2.51,5.6,5.6,5.6s5.6-2.51,5.6-5.6c0-3.09-2.51-5.6-5.6-5.6
							S435.06,280.08,435.06,283.18z"/>
						<path class="st14" d="M435.06,276.15c0,0-4.96,4.81-10.17,1.83c0,0,4.16,7.07,10.17,3.53V276.15z"/>
					</g>
					<path class="st14" d="M553.4,246.62c6.08,0.59,15.6,1.93,23.37,4.84c3.9,1.46,8.25-0.33,9.81-4.19l0.06-0.15
						c1.67-4.14-0.59-8.79-4.86-10.09c-6.87-2.09-17.53-4.26-28.78-2.56c-2.73,0.41-4.81,2.69-5.09,5.44l0,0
						C547.57,243.28,550.02,246.29,553.4,246.62z"/>
					<path class="st14" d="M429.28,253.23c4.27-1.73,10.81-3.48,19.57-3.27c2.63,0.06,4.92-1.77,5.34-4.36l0,0
						c0.45-2.84-1.48-5.52-4.32-5.94c-5.46-0.81-14.72-1.33-24.89,1.76c-3.39,1.03-5.24,4.7-4.09,8.05l0,0
						C422.06,252.93,425.89,254.61,429.28,253.23z"/>
				</g>
				<g>
					<g>
						<path class="st8" d="M713.17,257.81h-23.53c0,0,3.23-17.65,1.95-41.53c-2.14-41.29-17.67-101.26-86.23-121.26
							c-13.49-3.94-27.91-3.94-41.18,0.64c-0.53,0.18-1.04,0.38-1.53,0.55c0,0-6.32-3.89-11.81-5.68c0,0,6.44-3.38,17.4-5.86
							c20.19-4.56,41.29-2.19,60.31,5.95c30.83,13.16,82.42,47.1,86.34,127.45C715.49,230.21,715,243.44,713.17,257.81z"/>
						<path class="st8" d="M713.17,257.81h-23.53c0,0,3.23-17.65,1.95-41.53c2.32-0.29,4.67-0.42,7.05-0.42
							c5.62,0,11.06,0.77,16.25,2.21C715.49,230.21,715,243.44,713.17,257.81z"/>
					</g>
					<g>
						<path class="st8" d="M713.17,335.99c-1.99,8.47-5.44,16.34-10.13,23.35c-9.13,13.76-22.93,24.17-39.28,29.13
							c-36.49,11.06-81.74,19.33-111.13,24.06c-18.4,2.96-30.61,4.53-30.61,4.53v-13.98c8.49-1.22,17.65-2.74,27.16-4.51
							c37.37-6.86,80.23-17.16,110.09-26.16c9.24-2.76,17.47-7.81,24.02-14.42c7.59-7.61,13-17.34,15.35-28.22L713.17,335.99z"/>
						<path class="st8" d="M713.17,335.99c-1.99,8.47-5.44,16.34-10.13,23.35c-1.92,0.2-3.85,0.29-5.82,0.29
							c-4.78,0-9.44-0.58-13.93-1.64c7.59-7.61,13-17.34,15.35-28.22L713.17,335.99z"/>
						<path class="st8" d="M553.41,408.12c0,1.53-0.27,3.01-0.77,4.4c-18.4,2.96-30.61,4.53-30.61,4.53v-13.98
							c8.49-1.22,17.65-2.74,27.16-4.51c1.28,1.15,2.32,2.57,3.05,4.18c0.46,1.02,0.8,2.12,1,3.3
							C553.34,406.73,553.41,407.44,553.41,408.12z"/>
					</g>
					<g>
						<g>
							<ellipse class="st12" cx="698.63" cy="288.02" rx="61.54" ry="66.17"/>
							<g>
								<ellipse class="st21" cx="713.15" cy="288.02" rx="51.86" ry="59.35"/>
								
									<ellipse transform="matrix(0.9944 -0.106 0.106 0.9944 -25.9002 77.6768)" class="st22" cx="717.82" cy="282.5" rx="42.28" ry="48.38"/>
							</g>
						</g>
						<g>
							<ellipse class="st23" cx="724.45" cy="283.86" rx="19.82" ry="23.51"/>
							<path class="st24" d="M742.51,278.84c1.75,10.04-3.7,19.37-12.17,20.85c-8.47,1.47-16.74-5.47-18.49-15.52
								c-1.75-10.04,3.7-19.37,12.17-20.85C732.49,261.85,740.77,268.8,742.51,278.84z"/>
						</g>
					</g>
					<g>
						<path class="st14" d="M549.87,408.96c0,5.72-4.14,10.76-9.98,11.72l-15.75,2.56c-6.48,1.05-12.57-3.34-13.64-9.82
							c-0.09-0.46-0.14-0.92-0.14-1.37c-0.02-0.18-0.02-0.37-0.02-0.55c0-5.7,4.14-10.76,9.98-11.7l15.75-2.56
							c5.4-0.89,10.55,2.01,12.73,6.78c0.43,0.94,0.73,1.95,0.92,3.02C549.82,407.67,549.87,408.32,549.87,408.96z"/>
						<path class="st16" d="M543.5,414.44c-1.36,0.91-2.94,1.54-4.66,1.82l-15.75,2.56c-0.54,0.09-1.08,0.14-1.61,0.15
							c-9.77,0.25-13.45-13.39-4.81-17.96c1.11-0.59,2.34-1.01,3.65-1.22l15.75-2.56c0.96-0.16,1.91-0.2,2.83-0.13
							C547.61,397.76,550.78,409.61,543.5,414.44z"/>
					</g>
				</g>
			</g>
			<g>
				<path class="st25" d="M419.01,802.9c0,3.25-1.3,6.18-3.43,8.29c-2.13,2.13-5.06,3.43-8.31,3.43H276.92
					c-6.48,0-11.72-5.24-11.72-11.72c0-3.25,1.3-6.18,3.43-8.31c2.13-2.13,5.06-3.43,8.29-3.43h130.34
					C413.74,791.16,419.01,796.42,419.01,802.9z"/>
				<g>
					<path class="st26" d="M419.02,802.9c0,3.25-1.3,6.19-3.45,8.29c-2.12,2.12-5.06,3.43-8.32,3.43h-46.77
						c-6.48,0-11.74-5.24-11.74-11.72c0-3.25,1.33-6.17,3.45-8.32c2.12-2.12,5.09-3.43,8.29-3.43h46.77
						C413.73,791.15,419.02,796.42,419.02,802.9z"/>
					<path class="st0" d="M407.41,802.9c0,3.25-1.3,6.19-3.45,8.29c-2.12,2.12-5.06,3.43-8.32,3.43h-35.16
						c-6.48,0-11.74-5.24-11.74-11.72c0-3.25,1.33-6.17,3.45-8.32c2.12-2.12,5.09-3.43,8.29-3.43h35.16
						C402.12,791.15,407.41,796.42,407.41,802.9z"/>
				</g>
			</g>
			<g>
				<path class="st0" d="M533.97,803.36v11.26H437.8v-11.26c0-19.7,15.94-35.65,35.65-35.65h24.88
					C518.03,767.71,533.97,783.66,533.97,803.36z"/>
				<path class="st25" d="M514.6,803.36v11.26h-76.8v-11.26c0-19.7,15.94-35.65,35.65-35.65h5.51
					C498.66,767.71,514.6,783.66,514.6,803.36z"/>
			</g>
			<g>
				<g>
					<path class="st4" d="M730.96,481.97c0,0,31.79,11.67,62.93,44.39c12.46,13.09,21.56,29.03,26.86,46.31l44.2,164.6
						c0.8,2.59,1.43,5.23,1.85,7.91c0.16,1.02,0.32,2.18,0.47,3.45c4.3,36.29-25.27,67.68-61.77,65.92l-185.72-8.96
						c-26.96-1.3-48.31-23.62-47.97-50.61c0.01-0.46,0.01-0.91,0.03-1.37c0.73-28.16,25.02-49.96,53.15-48.39l137.1,7.61
						L739.4,594.24C739.4,594.24,723.39,522.7,730.96,481.97z"/>
					<path class="st11" d="M774.61,723.14l-145.81-7.69c-15.77-1.39-27.07,2.65-35.17,9.06c-29.61,23.34-18.09,70.71,16.57,79.68
						c-22.26-5.4-38.67-25.5-38.39-49.19c0.03-0.46,0.03-0.93,0.03-1.39c0.75-28.15,25.03-49.94,53.16-48.4l137.11,7.62
						l-22.69-118.59c0,0-10.96-48.89-10.47-88.84c1.18,16.52,7.54,40.24,7.54,40.24L774.61,723.14z"/>
					<path class="st10" d="M805.51,814.56L619.8,805.6c-25.6-1.26-46.11-21.41-47.86-46.52c7.82,15.95,23.98,27.22,42.89,28.12
						l185.72,8.98c36.48,1.75,66.07-29.64,61.75-65.94c-0.13-1.26-0.31-2.42-0.46-3.45c-0.21-1.34-0.46-2.65-0.77-3.99l3.89,14.46
						c0.8,2.6,1.44,5.22,1.85,7.92c0.15,1,0.31,2.16,0.46,3.45C871.56,784.92,842,816.31,805.51,814.56z"/>
					<path class="st11" d="M811.59,560.14c5.68,13.38,3.66,27.04-4.52,30.51c-8.18,3.48-19.42-4.55-25.1-17.93
						c-5.68-13.38-3.66-27.04,4.52-30.51C794.67,538.74,805.91,546.76,811.59,560.14z"/>
				</g>
				<g>
					<path class="st5" d="M637.52,764.27c-0.03,0.27-0.05,0.57-0.08,0.85c-1.56,16.1-16.51,27.49-32.5,25.28l-60.51-8.39l-20.28-3.8
						h-77.89c-3.8,0-6.67-3.42-5.99-7.13c0.03-0.08,0.05-0.19,0.05-0.27c0.27-1.45,0.63-2.87,1.04-4.26
						c3.53-12.13,11.94-22.36,23.64-27.44c3.01-1.31,5-1.78,5-1.78c29.63-22.06,74.64-3.53,74.64-3.53h64.17
						c11.12,0,20.85,6.31,25.61,15.44C636.78,753.7,637.96,758.86,637.52,764.27z"/>
					<path class="st6" d="M601.8,778.98l-60.48-8.39l-20.31-3.8h-77.89c-0.6,0-1.2-0.08-1.75-0.25
						c3.53-12.13,11.94-22.36,23.64-27.44c3.01-1.31,5-1.78,5-1.78c29.63-22.06,74.64-3.53,74.64-3.53h64.17
						c1,0,1.98,0.05,2.95,0.15c18.26,1.86,27.13,24.29,14.7,37.79C621.69,776.94,614.04,780.56,601.8,778.98z"/>
					<path class="st27" d="M544.66,733.81c0,0,5.31,5.51,7.72,12.18c0.41,1.12,1.49,1.85,2.69,1.85l0,0c2.12,0,3.53-2.21,2.61-4.12
						c-1.28-2.66-3.29-6.28-6.12-9.91H544.66z"/>
				</g>
			</g>
		</g>
	</g>
	<g>
		<g>
			<path class="st28" d="M1066.29,830.27c0,4.34-1.77,8.28-4.62,11.13c-2.82,2.82-6.76,4.59-11.11,4.59H29.44
				c-8.69,0-15.72-7.03-15.72-15.72c0-4.35,1.77-8.28,4.62-11.13c2.82-2.82,6.76-4.59,11.11-4.59h1021.12
				C1059.25,814.54,1066.29,821.58,1066.29,830.27z"/>
			<path class="st28" d="M960.49,830.27c0,4.34-1.77,8.28-4.62,11.13c-2.82,2.82-6.76,4.59-11.11,4.59H29.44
				c-8.69,0-15.72-7.03-15.72-15.72c0-4.35,1.77-8.28,4.62-11.13c2.82-2.82,6.76-4.59,11.11-4.59h915.32
				C953.45,814.54,960.49,821.58,960.49,830.27z"/>
			<g>
				<path class="st28" d="M69.8,836.81H31.68c-4.82,0-8.73-3.91-8.73-8.73l0,0c0-4.82,3.91-8.73,8.73-8.73H69.8
					c4.82,0,8.73,3.91,8.73,8.73l0,0C78.53,832.91,74.62,836.81,69.8,836.81z"/>
				<path class="st28" d="M104.13,836.81h-7.56c-4.82,0-8.73-3.91-8.73-8.73l0,0c0-4.82,3.91-8.73,8.73-8.73h7.56
					c4.82,0,8.73,3.91,8.73,8.73l0,0C112.86,832.91,108.95,836.81,104.13,836.81z"/>
			</g>
		</g>
		<g>
			<g>
				<path class="st0" d="M463.58,682.66l-69.21-180.14c-4.3-11.18-15.04-18.56-27.02-18.56H84.34c-11.26,0-19.01,11.29-14.97,21.8
					l69.21,180.14c4.3,11.18,15.04,18.56,27.02,18.56h283.01C459.86,704.46,467.62,693.17,463.58,682.66z"/>
				<path class="st2" d="M415.78,704.46H132.77c-11.99,0-22.72-7.37-27.01-18.56L36.54,505.76c-4.04-10.52,3.72-21.8,14.98-21.8
					h283.01c11.99,0,22.72,7.37,27.03,18.56l69.2,180.13C434.8,693.16,427.03,704.46,415.78,704.46z"/>
				<path class="st29" d="M431.3,684.39l-66.48-173.06c-4.32-11.19-15.05-18.56-27.03-18.56H54.78c-10.64,0-18.15,10.07-15.52,20.07
					l-2.72-7.08c-4.04-10.52,3.72-21.8,14.98-21.8h283.01c11.99,0,22.72,7.37,27.03,18.56l69.2,180.13
					C430.98,683.23,431.17,683.82,431.3,684.39z"/>
				<path class="st1" d="M244.57,639.85l-6.74,64.61h-72.78l15.82-66.76c0.71-3.22,3.56-5.5,6.85-5.5h49.86
					C241.69,632.2,244.94,635.74,244.57,639.85z"/>
			</g>
			<g>
				<path class="st2" d="M321.63,814.53H130.31v-26.35c0-2.45,1.98-4.43,4.43-4.43h182.46c2.45,0,4.43,1.98,4.43,4.43V814.53z"/>
				<path class="st2" d="M321.63,814.53H130.31v-26.35c0-2.45,1.98-4.43,4.43-4.43h182.46c2.45,0,4.43,1.98,4.43,4.43V814.53z"/>
				<path class="st30" d="M321.62,793.86v3.68c0-5.59-4.52-10.11-10.11-10.11H140.42c-5.57,0-10.11,4.52-10.11,10.11v-3.68
					c0-5.59,4.54-10.11,10.11-10.11h171.09C317.1,783.75,321.62,788.27,321.62,793.86z"/>
				<g>
					<path class="st31" d="M321.63,793.87v20.67H279.3v-20.67c0-5.59,4.54-10.11,10.11-10.11h22.09
						C317.09,783.76,321.63,788.28,321.63,793.87z"/>
					<path class="st1" d="M317.67,785.85H291.6c-5.18,0-9.43,4.22-9.43,9.43v19.27h-2.88v-20.68c0-5.59,4.54-10.11,10.11-10.11h22.1
						C313.82,783.75,315.96,784.55,317.67,785.85z"/>
				</g>
			</g>
			<path class="st0" d="M300.13,654.89l-12.43-32.34c-0.77-2.01-2.7-3.33-4.85-3.33H168.11c-2.02,0-3.41,2.03-2.69,3.91l12.43,32.34
				c0.77,2.01,2.7,3.33,4.85,3.33h114.74C299.46,658.8,300.85,656.77,300.13,654.89z"/>
			<g>
				<path class="st1" d="M276.35,639.85l-13.74,131.64l-1.28,12.26h-83.29l2.9-12.26l31.73-133.79c0.71-3.22,3.54-5.5,6.85-5.5
					h49.84C273.5,632.2,276.72,635.74,276.35,639.85z"/>
				<path class="st2" d="M157.5,783.75l34.62-146.05c0.71-3.21,3.56-5.5,6.85-5.5h49.86c4.12,0,7.35,3.53,6.99,7.63l-15.03,143.91
					H157.5z"/>
				<path class="st2" d="M255.83,639.85l-13.77,131.64l-1.28,12.26h-83.29l2.9-12.26l31.73-133.79c0.71-3.22,3.56-5.5,6.85-5.5
					h49.86C252.95,632.2,256.19,635.74,255.83,639.85z"/>
				<path class="st29" d="M255.03,635.94c-0.75-0.27-1.58-0.43-2.42-0.43h-49.84c-3.29,0-6.14,2.28-6.85,5.5l-33.86,142.74h-4.57
					l34.63-146.05c0.71-3.22,3.56-5.5,6.85-5.5h49.86C251.56,632.2,253.89,633.73,255.03,635.94z"/>
				<g>
					<path class="st0" d="M232.42,661.08c0,6.07-4.92,10.98-10.98,10.98c-6.07,0-10.98-4.92-10.98-10.98
						c0-6.07,4.92-10.98,10.98-10.98C227.51,650.1,232.42,655.02,232.42,661.08z"/>
					<path class="st32" d="M226.82,663.22h-10.76c-1.18,0-2.14-0.96-2.14-2.14l0,0c0-1.18,0.96-2.14,2.14-2.14h10.76
						c1.18,0,2.14,0.96,2.14,2.14l0,0C228.96,662.26,228,663.22,226.82,663.22z"/>
				</g>
				<polygon class="st32" points="262.61,771.49 261.33,783.75 157.49,783.75 160.39,771.49 				"/>
			</g>
		</g>
		<g>
			<polygon class="st28" points="988.18,676.47 987.27,684.64 985.65,699.14 984.8,706.63 978.89,759.34 977.77,769.41 
				974.09,802.06 972.68,814.55 897.13,814.55 895.49,802.06 891.22,769.41 889.89,759.34 882.98,706.63 881.99,699.14 
				880.1,684.64 879.03,676.47 			"/>
			<polygon class="st33" points="985.65,699.14 984.8,706.63 978.89,759.34 977.77,769.41 891.22,769.41 889.89,759.34 
				882.98,706.63 881.99,699.14 			"/>
			<polygon class="st33" points="988.18,676.47 987.27,684.64 880.1,684.64 879.03,676.47 			"/>
			<polygon class="st33" points="974.09,802.06 972.68,814.55 897.13,814.55 895.49,802.06 			"/>
			<g>
				<path class="st34" d="M987.31,711.15l-5.25,46.64c-0.3,2.65-2.53,4.66-5.21,4.66H891.9c-2.65,0-4.86-1.94-5.21-4.57l-6.14-46.64
					c-0.32-2.44,1.58-4.61,4.04-4.61h98.65C985.69,706.63,987.56,708.75,987.31,711.15z"/>
				<path class="st7" d="M972.4,711.15l-5.23,46.64c-0.3,2.65-2.56,4.66-5.23,4.66H891.9c-2.65,0-4.86-1.94-5.21-4.57l-6.14-46.64
					c-0.32-2.44,1.58-4.61,4.04-4.61h83.77C970.78,706.63,972.68,708.75,972.4,711.15z"/>
			</g>
			<g>
				<g>
					<path class="st34" d="M998.98,665.69c0,2.99-1.21,5.69-3.17,7.63c-1.94,1.94-4.66,3.15-7.63,3.15H876.4
						c-5.96,0-10.78-4.82-10.78-10.78c0-2.99,1.21-5.68,3.15-7.63c1.96-1.96,4.66-3.17,7.63-3.17h111.78
						C994.14,654.89,998.98,659.73,998.98,665.69z"/>
					<path class="st7" d="M978.18,665.69c0,2.99-1.21,5.69-3.15,7.63c-1.96,1.94-4.66,3.15-7.63,3.15h-91
						c-5.96,0-10.78-4.82-10.78-10.78c0-2.99,1.21-5.68,3.15-7.63c1.96-1.96,4.66-3.17,7.63-3.17h91
						C973.36,654.89,978.18,659.73,978.18,665.69z"/>
				</g>
				<path class="st7" d="M988.18,654.89H879.03l2.58-5.3l3.77-7.69c0.87-1.78,2.67-2.92,4.63-2.92h87.19c1.99,0,3.79,1.14,4.66,2.92
					l3.74,7.69L988.18,654.89z"/>
				<path class="st35" d="M966.4,638.99h-13.28v-3.42c0-0.46,0.37-0.83,0.83-0.83h11.62c0.46,0,0.83,0.37,0.83,0.83V638.99z"/>
				<polygon class="st36" points="988.18,654.89 879.03,654.89 881.61,649.6 985.6,649.6 				"/>
			</g>
		</g>
		<g>
			<g>
				<g>
					<path class="st29" d="M375.05,846.28H247.57c-13.8,0-25.04-11.23-25.04-25.04v-6.65h6.85v6.65c0,10.03,8.16,18.19,18.19,18.19
						h127.48c10.03,0,18.19-8.16,18.19-18.19c0-6.75,2.65-13.08,7.45-17.82c4.8-4.74,11.22-7.32,17.92-7.21l21.62,0.2l-0.09,6.85
						l-21.62-0.2c-4.95-0.1-9.53,1.8-13.02,5.24c-3.49,3.44-5.41,8.04-5.41,12.94C400.09,835.05,388.86,846.28,375.05,846.28z"/>
				</g>
			</g>
		</g>
	</g>
	<g>
		<path class="st37" d="M295.5,115.61c-2.54,0-5.07,0-7.61,0c-0.13-0.27-0.39-0.19-0.6-0.21c-2.29-0.24-4.57-0.57-6.82-1.1
			c-5.48-1.29-10.61-3.42-15.35-6.47c-0.58-0.37-1.08-0.41-1.72-0.2c-3.54,1.17-7.1,2.3-10.65,3.43c-2.49,0.8-4.98,1.58-7.59,2.41
			c0.14-0.43,0.22-0.7,0.31-0.97c1.83-5.44,3.64-10.89,5.5-16.32c0.3-0.87,0.26-1.52-0.3-2.32c-4.49-6.45-7.25-13.59-8.32-21.38
			c-0.14-0.98-0.07-1.99-0.5-2.92c0-2.54,0-5.07,0-7.61c0.37-0.38,0.18-0.86,0.23-1.29c1.3-11.46,5.87-21.38,13.86-29.72
			c13.58-14.19,34.87-19.04,53.23-12.11c23.89,9.02,37.11,33.99,31.12,58.78c-4.72,19.53-21.35,34.62-41.28,37.45
			C297.83,115.24,296.63,115.23,295.5,115.61z M308.34,93.59c1.21,0.07,2.59-0.17,3.91-0.63c7.04-2.47,9.44-5.84,9.64-12.38
			c0.03-1.04-0.38-1.71-1.31-2.16c-3.68-1.77-7.31-3.67-11.06-5.3c-1.99-0.86-3.08-0.54-4.37,1.2c-1.03,1.38-2.04,2.77-3.1,4.13
			c-1.22,1.57-2.4,1.87-4.29,1.15c-1.58-0.6-3.1-1.34-4.57-2.16c-6.25-3.5-11.02-8.5-14.73-14.57c-0.96-1.56-0.91-2.17,0.3-3.57
			c0.94-1.08,1.93-2.11,2.82-3.23c0.79-0.99,1.59-2.08,1.03-3.46c-1.75-4.23-3.38-8.5-5.34-12.64c-0.24-0.51-0.6-0.97-1.18-1.09
			c-2.64-0.56-5.29-0.66-7.57,1.03c-2.18,1.61-3.68,3.83-4.63,6.38c-1.82,4.91-1.22,9.69,0.81,14.39c1.48,3.43,3.63,6.44,5.83,9.42
			c3.27,4.44,6.98,8.46,11.18,12.05c5.73,4.91,12.41,7.99,19.55,10.18C303.49,93.03,305.76,93.61,308.34,93.59z"/>
		<path class="st7" d="M308.34,93.59c-2.58,0.02-4.85-0.57-7.08-1.25c-7.14-2.19-13.82-5.27-19.55-10.18
			c-4.19-3.59-7.9-7.62-11.18-12.05c-2.2-2.98-4.35-5.99-5.83-9.42c-2.03-4.71-2.63-9.48-0.81-14.39c0.95-2.55,2.45-4.77,4.63-6.38
			c2.28-1.68,4.92-1.59,7.57-1.03c0.58,0.12,0.94,0.58,1.18,1.09c1.96,4.14,3.59,8.41,5.34,12.64c0.57,1.38-0.23,2.46-1.03,3.46
			c-0.89,1.12-1.89,2.15-2.82,3.23c-1.21,1.4-1.25,2-0.3,3.57c3.71,6.07,8.48,11.07,14.73,14.57c1.47,0.83,3,1.56,4.57,2.16
			c1.88,0.72,3.06,0.42,4.29-1.15c1.06-1.36,2.07-2.75,3.1-4.13c1.29-1.74,2.39-2.06,4.37-1.2c3.75,1.63,7.38,3.53,11.06,5.3
			c0.93,0.45,1.34,1.12,1.31,2.16c-0.2,6.54-2.6,9.92-9.64,12.38C310.93,93.43,309.54,93.66,308.34,93.59z"/>
	</g>
	<g>
		<path class="st1" d="M156.44,286.07c2.6,0,5.21,0,7.81,0c0.1,0.23,0.32,0.18,0.5,0.19c7.56,0.67,14.66,2.86,21.13,6.84
			c13.33,8.21,21.32,20.05,23.88,35.53c0.19,1.17,0.13,2.37,0.55,3.5c0,2.6,0,5.21,0,7.81c-0.29,0.17-0.18,0.46-0.2,0.7
			c-0.23,2.23-0.56,4.45-1.07,6.63c-6.07,25.57-30,41.9-56.08,38.14c-12.71-1.83-23.22-7.85-31.27-17.81
			c-10.08-12.46-13.36-26.72-10.11-42.4c4.11-19.82,21.22-35.74,41.27-38.58C154.04,286.46,155.28,286.51,156.44,286.07z
			 M178.64,366.78c0.44-0.03,1.03-0.02,1.61-0.1c3.49-0.48,6.32-1.92,7.75-5.38c0.93-2.25,1.9-4.48,2.8-6.74
			c0.64-1.62,0.2-3.03-1.24-3.88c-3.67-2.16-7.35-4.29-11.05-6.39c-1.41-0.8-3.02-0.35-3.96,0.98c-0.19,0.27-0.35,0.55-0.53,0.82
			c-3.07,4.56-8.58,5.45-12.91,2.07c-4.82-3.76-9.1-8.06-12.87-12.86c-1.07-1.36-1.78-2.87-1.94-4.6c-0.35-3.72,1.23-6.47,4.3-8.46
			c2.08-1.35,2.43-2.78,1.18-4.94c-1.96-3.41-3.92-6.82-5.9-10.21c-0.97-1.66-2.36-2.14-4.15-1.43c-1.78,0.7-3.57,1.39-5.31,2.18
			c-1.47,0.67-3.03,1.19-4.16,2.46c-2.04,2.31-2.73,5.04-2.62,8.04c0.16,4.11,1.53,7.89,3.33,11.52c3.71,7.48,8.87,13.9,14.78,19.73
			c5.63,5.56,11.79,10.41,18.93,13.92C170.4,365.32,174.27,366.68,178.64,366.78z"/>
		<path class="st38" d="M178.64,366.78c-4.37-0.1-8.24-1.47-11.97-3.3c-7.14-3.51-13.3-8.36-18.93-13.92
			c-5.91-5.83-11.07-12.25-14.78-19.73c-1.8-3.63-3.17-7.41-3.33-11.52c-0.11-3,0.58-5.73,2.62-8.04c1.12-1.27,2.69-1.79,4.16-2.46
			c1.74-0.79,3.53-1.48,5.31-2.18c1.79-0.7,3.18-0.23,4.15,1.43c1.98,3.4,3.94,6.81,5.9,10.21c1.25,2.16,0.9,3.59-1.18,4.94
			c-3.07,1.99-4.65,4.74-4.3,8.46c0.16,1.73,0.87,3.24,1.94,4.6c3.77,4.81,8.05,9.11,12.87,12.86c4.34,3.38,9.84,2.49,12.91-2.07
			c0.18-0.27,0.34-0.55,0.53-0.82c0.94-1.33,2.55-1.77,3.96-0.98c3.7,2.1,7.39,4.23,11.05,6.39c1.45,0.85,1.89,2.27,1.24,3.88
			c-0.9,2.26-1.87,4.49-2.8,6.74c-1.43,3.46-4.26,4.9-7.75,5.38C179.67,366.76,179.08,366.76,178.64,366.78z"/>
	</g>
	<g>
		<path class="st39" d="M178.75,137.51l-10.63,32.78h-9.93l-6.27-19.95l-6.56,19.95h-9.93l-10.63-32.78h9.55l6.6,20.93l6.93-20.93
			h8.52l6.6,21.12l6.88-21.12H178.75z"/>
		<path class="st39" d="M206.49,147.3c1.92,1.87,2.88,4.7,2.88,8.48v14.52h-8.9v-13.06c0-3.46-1.39-5.2-4.17-5.2
			c-1.53,0-2.76,0.5-3.68,1.5c-0.92,1-1.38,2.5-1.38,4.5v12.27h-8.9v-34.74h8.9v11.71c0.97-0.9,2.11-1.59,3.42-2.06
			s2.72-0.7,4.21-0.7C202.04,144.49,204.57,145.43,206.49,147.3z"/>
		<path class="st39" d="M235.41,147.37c2.22,1.92,3.32,4.86,3.32,8.83v14.09h-8.29v-3.28c-1.28,2.47-3.78,3.7-7.49,3.7
			c-1.97,0-3.67-0.34-5.1-1.03c-1.44-0.69-2.52-1.62-3.25-2.79c-0.73-1.17-1.1-2.51-1.1-4c0-2.4,0.92-4.27,2.76-5.6
			c1.84-1.33,4.68-1.99,8.52-1.99h5.06c-0.16-2.68-1.95-4.03-5.38-4.03c-1.22,0-2.45,0.2-3.7,0.59c-1.25,0.39-2.31,0.93-3.18,1.62
			l-3-6.04c1.4-0.94,3.11-1.66,5.13-2.18c2.01-0.52,4.03-0.77,6.06-0.77C229.98,144.49,233.19,145.45,235.41,147.37z M228.15,164.34
			c0.78-0.5,1.34-1.23,1.69-2.2v-2.2H226c-2.59,0-3.89,0.86-3.89,2.58c0,0.78,0.3,1.4,0.89,1.87c0.59,0.47,1.4,0.7,2.44,0.7
			C226.46,165.09,227.37,164.84,228.15,164.34z"/>
		<path class="st39" d="M261.86,169.26c-0.75,0.47-1.66,0.83-2.74,1.08c-1.08,0.25-2.22,0.37-3.44,0.37c-3.31,0-5.85-0.81-7.63-2.43
			s-2.67-4.04-2.67-7.26v-8.52h-3.7v-6.65h3.7v-6.6h8.9v6.6h5.81v6.65h-5.81v8.43c0,0.91,0.24,1.62,0.73,2.13
			c0.48,0.52,1.13,0.77,1.94,0.77c1.03,0,1.94-0.27,2.72-0.8L261.86,169.26z"/>
		<path class="st39" d="M268.23,169.99c-2.06-0.48-3.72-1.12-4.96-1.9l2.67-6.09c1.15,0.72,2.53,1.29,4.12,1.71
			c1.59,0.42,3.17,0.63,4.73,0.63c1.44,0,2.46-0.15,3.07-0.44c0.61-0.3,0.91-0.73,0.91-1.29c0-0.56-0.37-0.96-1.1-1.19
			c-0.73-0.23-1.9-0.46-3.49-0.68c-2.03-0.25-3.75-0.58-5.17-0.98c-1.42-0.41-2.65-1.15-3.68-2.25c-1.03-1.09-1.54-2.62-1.54-4.59
			c0-1.62,0.48-3.07,1.45-4.33c0.97-1.26,2.38-2.26,4.24-3c1.86-0.73,4.08-1.1,6.67-1.1c1.84,0,3.67,0.19,5.48,0.56
			c1.81,0.38,3.32,0.91,4.54,1.59l-2.67,6.04c-2.25-1.25-4.68-1.87-7.3-1.87c-1.4,0-2.44,0.16-3.09,0.49
			c-0.66,0.33-0.98,0.76-0.98,1.29c0,0.59,0.36,1.01,1.08,1.24c0.72,0.23,1.9,0.48,3.56,0.73c2.09,0.31,3.82,0.67,5.2,1.08
			c1.37,0.41,2.57,1.15,3.58,2.22c1.01,1.08,1.52,2.58,1.52,4.52c0,1.59-0.48,3.02-1.45,4.28c-0.97,1.26-2.4,2.26-4.28,2.97
			c-1.89,0.72-4.16,1.08-6.81,1.08C272.38,170.71,270.29,170.47,268.23,169.99z"/>
		<path class="st39" d="M313.27,163.92h-13.86l-2.58,6.37h-9.46l14.47-32.78h9.13l14.52,32.78h-9.65L313.27,163.92z M310.56,157.09
			l-4.21-10.49l-4.21,10.49H310.56z"/>
		<path class="st39" d="M349.96,146.11c1.89,1.08,3.39,2.61,4.5,4.59c1.11,1.98,1.66,4.28,1.66,6.91s-0.55,4.92-1.66,6.91
			c-1.11,1.98-2.61,3.51-4.5,4.59c-1.89,1.08-3.99,1.62-6.3,1.62c-2.97,0-5.32-0.89-7.07-2.67v11.33h-8.9v-34.46h8.48v2.53
			c1.65-1.97,4.15-2.95,7.49-2.95C345.97,144.49,348.07,145.03,349.96,146.11z M345.63,162.03c1-1.08,1.5-2.55,1.5-4.42
			s-0.5-3.35-1.5-4.42c-1-1.08-2.28-1.62-3.84-1.62c-1.56,0-2.84,0.54-3.84,1.62c-1,1.08-1.5,2.55-1.5,4.42s0.5,3.35,1.5,4.42
			c1,1.08,2.28,1.62,3.84,1.62C343.35,163.64,344.63,163.1,345.63,162.03z"/>
		<path class="st39" d="M382.5,146.11c1.89,1.08,3.39,2.61,4.5,4.59c1.11,1.98,1.66,4.28,1.66,6.91s-0.55,4.92-1.66,6.91
			c-1.11,1.98-2.61,3.51-4.5,4.59c-1.89,1.08-3.99,1.62-6.3,1.62c-2.97,0-5.32-0.89-7.07-2.67v11.33h-8.9v-34.46h8.48v2.53
			c1.65-1.97,4.15-2.95,7.49-2.95C378.51,144.49,380.61,145.03,382.5,146.11z M378.17,162.03c1-1.08,1.5-2.55,1.5-4.42
			s-0.5-3.35-1.5-4.42c-1-1.08-2.28-1.62-3.84-1.62c-1.56,0-2.84,0.54-3.84,1.62c-1,1.08-1.5,2.55-1.5,4.42s0.5,3.35,1.5,4.42
			c1,1.08,2.28,1.62,3.84,1.62C375.89,163.64,377.17,163.1,378.17,162.03z"/>
	</g>
	<g>
		<path class="st39" d="M834.46,377.87c-2.4-1.48-5.11-2.22-8.14-2.22c-3.19,0-5.99,0.79-8.41,2.36c-2.41,1.58-4.27,3.78-5.57,6.6
			c-1.31,2.82-1.96,6.04-1.96,9.66v10.86c0,3.04-0.38,5.23-1.14,6.57s-2.15,2.02-4.17,2.02c-1.33,0-2.92-0.26-4.79-0.76v8.58
			c2.14,0.43,4.03,0.64,5.66,0.64c4.36,0,7.62-1.37,9.78-4.09c2.16-2.73,3.3-6.83,3.41-12.31c2.61,1.36,5.37,2.04,8.29,2.04
			c2.65,0,5.09-0.6,7.33-1.78c2.24-1.19,4.03-2.94,5.37-5.25c1.34-2.32,2.01-5.07,2.01-8.26c0-3.15-0.68-6.01-2.04-8.58
			C838.73,381.37,836.85,379.35,834.46,377.87z M831.22,397.89c-1.4,1.25-3.17,1.87-5.31,1.87c-2.3,0-4.53-0.7-6.71-2.1v-3.39
			c-0.04-3.07,0.57-5.48,1.81-7.21c1.25-1.73,3.05-2.6,5.43-2.6c2.14,0,3.82,0.75,5.05,2.25c1.23,1.5,1.84,3.44,1.84,5.81
			C833.32,394.85,832.62,396.65,831.22,397.89z"/>
		<polygon class="st39" points="880.48,379.79 871.67,379.79 871.67,399.18 864.37,399.18 857.13,399.18 857.13,364.97 
			848.32,364.97 848.32,407.81 864.37,407.81 880.48,407.81 		"/>
		<path class="st39" d="M881.77,412.95c-1.37,0-2.53,0.49-3.51,1.46c-0.97,0.97-1.46,2.14-1.46,3.5c0,1.36,0.49,2.53,1.46,3.5
			c0.98,0.98,2.14,1.46,3.51,1.46c1.36,0,2.53-0.49,3.5-1.46c0.97-0.97,1.46-2.14,1.46-3.5c0-1.36-0.49-2.53-1.46-3.5
			C884.3,413.44,883.13,412.95,881.77,412.95z"/>
		<path class="st39" d="M870.15,412.95c-1.36,0-2.53,0.49-3.5,1.46c-0.98,0.97-1.46,2.14-1.46,3.5c0,1.36,0.49,2.53,1.46,3.5
			c0.97,0.98,2.14,1.46,3.5,1.46s2.53-0.49,3.5-1.46c0.98-0.97,1.46-2.14,1.46-3.5c0-1.36-0.49-2.53-1.46-3.5
			C872.68,413.44,871.51,412.95,870.15,412.95z"/>
		<rect x="891.11" y="368.47" class="st39" width="8.81" height="39.35"/>
		<path class="st39" d="M894.52,359.34c-0.6-0.53-0.91-1.22-0.91-2.08c0-0.82,0.28-1.43,0.82-1.84c0.55-0.41,1.25-0.62,2.1-0.62
			c0.66,0,1.4,0.16,2.22,0.47l1.81-3.51c-1.44-0.7-2.9-1.05-4.38-1.05c-1.91,0-3.52,0.56-4.85,1.67c-1.32,1.11-1.98,2.54-1.98,4.29
			c0,1.48,0.45,2.63,1.34,3.44h-1.34v3.68h12.14v-3.68h-4.67C895.9,360.12,895.13,359.86,894.52,359.34z"/>
		<polygon class="st39" points="959.87,366.95 930.45,366.95 930.45,374.72 949.66,374.72 931.38,407.81 941.54,407.81 
			959.87,373.73 		"/>
		<polygon class="st39" points="952.99,415.29 960.52,415.29 986.38,361.23 978.85,361.23 		"/>
		<polygon class="st39" points="989.53,366.95 989.53,374.72 1008.74,374.72 990.46,407.81 1000.62,407.81 1018.95,373.73 
			1018.95,366.95 		"/>
	</g>
	<g>
		<g>
			<path class="st39" d="M111.23,431.65c-2.73-1.45-4.88-3.47-6.44-6.06c-1.56-2.59-2.34-5.52-2.34-8.8c0-3.28,0.78-6.21,2.34-8.8
				c1.56-2.59,3.71-4.61,6.44-6.06s5.81-2.18,9.25-2.18c3,0,5.7,0.53,8.1,1.59c2.4,1.06,4.4,2.59,5.99,4.59l-5.9,5.34
				c-2.12-2.56-4.7-3.84-7.73-3.84c-1.78,0-3.36,0.39-4.75,1.17c-1.39,0.78-2.47,1.88-3.23,3.3c-0.77,1.42-1.15,3.05-1.15,4.89
				c0,1.84,0.38,3.47,1.15,4.89c0.76,1.42,1.84,2.52,3.23,3.3c1.39,0.78,2.97,1.17,4.75,1.17c3.03,0,5.6-1.28,7.73-3.84l5.9,5.34
				c-1.59,2-3.59,3.53-5.99,4.59c-2.4,1.06-5.1,1.59-8.1,1.59C117.04,433.83,113.96,433.11,111.23,431.65z"/>
			<path class="st39" d="M158.73,410.26c2.22,1.92,3.32,4.86,3.32,8.83v14.09h-8.29v-3.28c-1.28,2.47-3.78,3.7-7.49,3.7
				c-1.97,0-3.67-0.34-5.1-1.03c-1.44-0.69-2.52-1.62-3.25-2.79c-0.73-1.17-1.1-2.51-1.1-4c0-2.4,0.92-4.27,2.76-5.6
				c1.84-1.33,4.68-1.99,8.52-1.99h5.06c-0.16-2.68-1.95-4.03-5.38-4.03c-1.22,0-2.45,0.2-3.7,0.59c-1.25,0.39-2.31,0.93-3.18,1.62
				l-3-6.04c1.4-0.94,3.11-1.66,5.13-2.18c2.01-0.52,4.03-0.77,6.06-0.77C153.3,407.38,156.51,408.34,158.73,410.26z M151.47,427.23
				c0.78-0.5,1.34-1.23,1.69-2.2v-2.2h-3.84c-2.59,0-3.89,0.86-3.89,2.58c0,0.78,0.3,1.4,0.89,1.87c0.59,0.47,1.4,0.7,2.44,0.7
				C149.79,427.98,150.69,427.73,151.47,427.23z"/>
			<path class="st39" d="M167.67,398.43h8.9v34.74h-8.9V398.43z"/>
			<path class="st39" d="M182.33,398.43h8.9v34.74h-8.9V398.43z"/>
			<path class="st39" d="M199.93,432.87c-2.06-0.48-3.72-1.12-4.96-1.9l2.67-6.09c1.15,0.72,2.53,1.29,4.12,1.71
				c1.59,0.42,3.17,0.63,4.73,0.63c1.44,0,2.46-0.15,3.07-0.44c0.61-0.3,0.91-0.73,0.91-1.29c0-0.56-0.37-0.96-1.1-1.19
				c-0.73-0.23-1.9-0.46-3.49-0.68c-2.03-0.25-3.75-0.58-5.17-0.98c-1.42-0.41-2.65-1.15-3.68-2.25c-1.03-1.09-1.54-2.62-1.54-4.59
				c0-1.62,0.48-3.07,1.45-4.33c0.97-1.26,2.38-2.26,4.24-3c1.86-0.73,4.08-1.1,6.67-1.1c1.84,0,3.67,0.19,5.48,0.56
				c1.81,0.38,3.32,0.91,4.54,1.59l-2.67,6.04c-2.25-1.25-4.68-1.87-7.3-1.87c-1.4,0-2.44,0.16-3.09,0.49
				c-0.66,0.33-0.98,0.76-0.98,1.29c0,0.59,0.36,1.01,1.08,1.24c0.72,0.23,1.9,0.48,3.56,0.73c2.09,0.31,3.82,0.67,5.2,1.08
				c1.37,0.41,2.57,1.15,3.58,2.22c1.01,1.08,1.52,2.58,1.52,4.52c0,1.59-0.48,3.02-1.45,4.28c-0.97,1.26-2.4,2.26-4.28,2.97
				c-1.89,0.72-4.16,1.08-6.81,1.08C204.08,433.6,201.99,433.36,199.93,432.87z"/>
		</g>
	</g>
	<g>
		<text transform="matrix(1 0 0 1 158.3878 257.8132)" class="st39 st40 st41">&amp;</text>
	</g>
	<g>
		<g>
			<path class="st42" d="M976.16,236.82c0,36.69-29.86,66.56-66.55,66.56s-66.53-29.86-66.53-66.56s29.84-66.53,66.53-66.53
				S976.16,200.13,976.16,236.82z"/>
		</g>
		<g>
			<path class="st33" d="M909.6,150.48c-47.69,0-86.34,38.65-86.34,86.34c0,47.69,38.65,86.36,86.34,86.36
				c47.71,0,86.36-38.68,86.36-86.36C995.97,189.13,957.31,150.48,909.6,150.48z M909.6,303.38c-36.69,0-66.53-29.86-66.53-66.56
				s29.84-66.53,66.53-66.53s66.55,29.84,66.55,66.53S946.3,303.38,909.6,303.38z"/>
		</g>
		<g>
			<path class="st28" d="M909.61,181.16c1.86,0,3.37-1.51,3.37-3.37v-6.74c0-1.86-1.51-3.37-3.37-3.37s-3.37,1.51-3.37,3.37v6.74
				C906.25,179.65,907.75,181.16,909.61,181.16z"/>
			<path class="st28" d="M909.61,292.51c-1.86,0-3.37,1.51-3.37,3.37v6.74c0,1.86,1.51,3.37,3.37,3.37s3.37-1.51,3.37-3.37v-6.74
				C912.98,294.01,911.48,292.51,909.61,292.51z"/>
			<path class="st28" d="M975.39,233.46h-6.74c-1.86,0-3.37,1.51-3.37,3.37c0,1.86,1.51,3.37,3.37,3.37h6.74
				c1.86,0,3.37-1.51,3.37-3.37C978.76,234.97,977.26,233.46,975.39,233.46z"/>
			<path class="st28" d="M850.57,233.46h-6.74c-1.86,0-3.37,1.51-3.37,3.37c0,1.86,1.51,3.37,3.37,3.37h6.74
				c1.86,0,3.37-1.51,3.37-3.37C853.94,234.97,852.43,233.46,850.57,233.46z"/>
			<path class="st28" d="M938.31,249.59l-21.97-14.4c-0.28-1.1-0.75-2.1-1.5-2.9v-37.04c0-2.68-2.17-4.85-4.85-4.85
				s-4.85,2.17-4.85,4.85v37.04c-1.12,1.19-1.83,2.77-1.83,4.54c0,3.68,3,6.68,6.68,6.68c0.37,0,0.68-0.15,1.03-0.21L933,257.7
				c0.82,0.54,1.74,0.79,2.65,0.79c1.58,0,3.13-0.77,4.06-2.19C941.18,254.06,940.55,251.06,938.31,249.59z"/>
		</g>
	</g>
</g>
</svg>
