<?xml version="1.0" encoding="utf-8"?>
<!-- Generator: Adobe Illustrator 24.3.0, SVG Export Plug-In . SVG Version: 6.00 Build 0)  -->
<svg version="1.1" id="Layer_1" xmlns="http://www.w3.org/2000/svg" xmlns:xlink="http://www.w3.org/1999/xlink" x="0px" y="0px"
	 viewBox="0 0 1080 788" style="enable-background:new 0 0 1080 788;" xml:space="preserve">
<style type="text/css">
	.st0{fill:#C1C6D7;}
	.st1{fill:#D4DEFF;}
	.st2{fill:#FFFFFF;}
	.st3{fill:#E3EAFF;}
	.st4{fill:#CE4A3C;}
	.st5{fill:#8C8C8C;}
	.st6{fill:#A8A8A8;}
	.st7{fill:#C4204A;}
	.st8{fill:#E62552;}
	.st9{fill:#F99980;}
	.st10{fill:#DE623C;}
	.st11{fill:#020205;}
	.st12{fill:#ED523D;}
	.st13{fill:#EF6256;}
	.st14{fill:#FABA23;}
	.st15{fill:#FAD332;}
	.st16{fill:#95A6DB;}
	.st17{fill:#FAEE6C;}
	.st18{fill:#616161;}
</style>
<path class="st0" d="M1057.97,773H21.45c-6.97,0-12.62-5.65-12.62-12.62l0,0c0-6.97,5.65-12.62,12.62-12.62h1036.52
	c6.97,0,12.62,5.65,12.62,12.62l0,0C1070.59,767.35,1064.94,773,1057.97,773z"/>
<g>
	<g>
		
			<ellipse transform="matrix(0.0595 -0.9982 0.9982 0.0595 79.8819 352.8766)" class="st1" cx="227.22" cy="134.04" rx="35.3" ry="35.3"/>
		<g>
			<path class="st2" d="M236.16,159.96l-2.71-6.15c-3.56,1.5-7.7,2.01-10.5,1.43l-0.34-4.73c2.84,0.5,6.51,0.26,9.93-1.24
				c4.33-1.91,6.15-5.69,4.62-9.16c-1.48-3.35-4.76-4.38-10.08-4.22c-7.29,0.3-12.36-0.81-14.69-6.11
				c-2.23-5.06-0.32-10.48,4.88-13.86l-2.71-6.15l3.78-1.66l2.6,5.91c3.71-1.49,6.64-1.61,8.86-1.36l0.25,4.69
				c-1.6-0.17-4.69-0.41-8.59,1.31c-4.69,2.07-5.22,5.65-4.15,8.08c1.4,3.17,4.35,3.76,10.61,3.62c7.4-0.21,11.97,1.57,14.35,6.99
				c2.12,4.81,0.75,10.8-5.06,14.6l2.79,6.34L236.16,159.96z"/>
		</g>
	</g>
	<g>
		<path class="st1" d="M689.9,309.09l-24.18-27.16c0,0,8.89-19.06,35.01-19.74c16.19-0.42,30.48-16.74,30.48-16.74l24.31,27.3
			c0,0-15.73,22.37-34.24,22.54C701.7,295.47,689.9,309.09,689.9,309.09z"/>
		<path class="st3" d="M724.45,271.6c2.54,6.99-2.02,15.06-10.19,18.02c-8.16,2.96-16.83-0.31-19.37-7.31
			c-2.54-7,2.02-15.06,10.18-18.02C713.24,261.33,721.92,264.6,724.45,271.6z"/>
	</g>
	<g>
		<path class="st1" d="M957.74,250.17l-14.4-42.4c0,0-25.82-2.06-42.41,25.5c-10.28,17.08-36.45,22.48-36.45,22.48l14.47,42.63
			c0,0,33.52-3.25,44.95-22.98C935.99,254.54,957.74,250.17,957.74,250.17z"/>
		<path class="st3" d="M896.59,264.4c5.95,6.97,17.37,6.98,25.49,0.04c8.13-6.94,9.89-18.22,3.94-25.19
			c-5.95-6.97-17.37-6.98-25.49-0.04C892.4,246.16,890.64,257.44,896.59,264.4z"/>
	</g>
	<g>
		<g>
			<path class="st4" d="M876.33,715.37c-6.41,26.91-29.32,12.11-24.53,29.12c0.35,1.25,1.54,2.09,2.85,2.14l13.45,0.52
				c1.3,0.05,2.58-0.32,3.65-1.05c7.1-4.86,11.91-11.7,27.24-12.53c-0.12-6.54,0.18-15.89-1.98-19.23L876.33,715.37z"/>
			<path class="st5" d="M911.78,526.51c0,0-39.12,59.67-44.52,78.23c-5.4,18.56,5.9,50.01,3.85,113.39
				c12.23,3.17,28.53,0.45,28.53,0.45s9.81-79.5-1.73-98.27c17.29-26.39,60.73-84,60.73-84L911.78,526.51z"/>
		</g>
		<g>
			<path class="st4" d="M933.47,724.05c-9.95,13.55-34.8,5.54-33.81,23.72c37.66-0.6,53.32-0.52,53.32-0.52
				c-0.09-4.18-0.93-14.09-1.84-17.97L933.47,724.05z"/>
			<path class="st6" d="M921.81,514.44c0,0-12.48,97.35-9.6,116.46c2.88,19.11,11.8,34.08,12.12,97.49
				c12.34,2.72,31.19,5.16,31.19,5.16s7.95-76.49-8.4-97.54c4.63-31.21,26.72-109.71,26.72-109.71L921.81,514.44z"/>
		</g>
		<g>
			<path class="st7" d="M857.89,471.59l-15.21-17.05c-0.33-0.37-0.8-0.58-1.3-0.59l-12.52-0.07c-0.36-0.01-1.46,1.97-1.22,2.24
				l10.73,9.53c0.05,0.05,0.11,0.09,0.18,0.12l18.4,6.83C857.35,472.7,858.17,471.89,857.89,471.59z"/>
			<path class="st8" d="M856.73,472.73l-14.49-16.08c-0.33-0.37-0.8-0.58-1.3-0.59l-12.91-0.23c-0.36-0.01-0.55,0.42-0.31,0.68
				l10.2,11.25c0.05,0.05,0.11,0.09,0.18,0.12l18.2,5.52C856.71,473.51,857.01,473.04,856.73,472.73z"/>
			<path class="st9" d="M885.36,487.4l-10.48-5.14c0,0-10.34-10.46-11.87-12.8c-2.3-1.16-6.65-4.09-7.63-4.2
				c-0.98-0.11-2.98,0.19-2.98,0.19l4.85,5.52c0,0-2.3,0.46-5.24-1.41c-2.94-1.87-8.13-6.88-10.68-5.9c-0.9,0.8-0.9,0.8-0.9,0.8
				s-1.61-1.71-3.12-1.08c-1.51,0.64,1.5,8.19,10.04,16.19c0.57,2.14,3.38,5.88,3.38,5.88l17.28,6.07L885.36,487.4z"/>
			<path class="st7" d="M839.88,459.08c0.61,0.61,1.5,0.73,1.97,0.25c0.47-0.47,0.36-1.36-0.25-1.97c-0.61-0.61-1.5-0.73-1.97-0.25
				C839.16,457.58,839.27,458.46,839.88,459.08z"/>
			<path class="st9" d="M958.68,410.4c-3.29,8.38-27.62,3.98-24.52-0.04c1.95-2.52,2.03-8.76,1.57-14.57
				c-0.5-6.31-1.61-12.09-1.61-12.09l22.18-4.74c0,0,0.42,1.68,0.92,4.28C958.68,390.32,961.05,404.28,958.68,410.4z"/>
			<path class="st10" d="M957.22,383.24c-3.94,7-10.17,11.78-17.63,12.55c-1.3,0.15-2.6,0.15-3.86,0
				c-0.5-6.31-1.61-12.09-1.61-12.09l22.18-4.74C956.31,378.96,956.73,380.64,957.22,383.24z"/>
			<g>
				
					<ellipse transform="matrix(0.9945 -0.1044 0.1044 0.9945 -32.7552 99.6494)" class="st9" cx="935.84" cy="362.82" rx="25.47" ry="32.43"/>
				<path d="M918.78,370.73c-0.49,1.38-2.01,2.09-3.39,1.6c-1.38-0.49-2.09-2.01-1.6-3.39c0.49-1.38,2.01-2.09,3.39-1.6
					C918.55,367.83,919.27,369.35,918.78,370.73z"/>
				<path d="M936.17,366.93c-0.54,1.49-2.18,2.27-3.67,1.73c-1.49-0.54-2.27-2.18-1.73-3.67c0.54-1.49,2.18-2.27,3.67-1.73
					C935.93,363.79,936.7,365.44,936.17,366.93z"/>
				<path class="st10" d="M923.84,370.18c-0.56,4.18-1.34,9.31-1.34,9.31s2.74,2.89,7.29,0.89c-2.28,0.07-4.75-0.36-5.13-3.27
					C924.29,374.21,923.84,370.18,923.84,370.18z"/>
				<g>
					<path class="st11" d="M918,364.67c-0.3,0.18-0.68,0.2-1.01,0.02c-0.03-0.02-1.14-0.58-2.17-0.19c-0.73,0.28-1.31,1-1.74,2.13
						c-0.2,0.53-0.78,0.8-1.31,0.6c-0.53-0.2-0.79-0.78-0.6-1.31c0.64-1.72,1.63-2.84,2.94-3.33c1.92-0.72,3.76,0.27,3.84,0.31
						c0.49,0.27,0.67,0.89,0.4,1.38C918.28,364.45,918.15,364.58,918,364.67z"/>
				</g>
				<g>
					<path class="st11" d="M931.23,361.77c0.34,0.07,0.71-0.04,0.96-0.31c0.03-0.03,0.88-0.92,1.99-0.89
						c0.78,0.02,1.57,0.51,2.34,1.44c0.36,0.43,1,0.49,1.43,0.14c0.43-0.36,0.49-1,0.14-1.43c-1.17-1.41-2.47-2.15-3.88-2.18
						c-2.05-0.04-3.47,1.49-3.53,1.56c-0.38,0.42-0.34,1.06,0.07,1.44C930.89,361.66,931.06,361.74,931.23,361.77z"/>
				</g>
				<path class="st11" d="M955.98,371.48c-9.22-7.72-6.67-19.51-6.67-19.51c-4.47,0.29-5.72,2.2-5.72,2.2
					c-3.59-4.13-2.72-8.01-2.72-8.01c-9.69-1.05-12.52,5.8-19.92,9.84c-10.13,5.54-24.67,4.82-29.48-8.06
					c-0.7-1.87,1.07-3.67,2.96-3.03c1.75,0.59,3.93,0.86,6.36,0.14c0,0-2.96-1.95-4.03-5.46c-0.59-1.94,1.41-3.61,3.25-2.76
					c2.76,1.27,7.41,1.91,14.48-1.49c4.71-2.26,13.92-13.26,21.4-13.62c6.12-0.29,12.03,3.39,15.9,9.9c0,0,14.6-2.35,20.24,12.89
					c5.54,14.98-15.22,38.13-15.22,38.13S958.41,373.85,955.98,371.48z"/>
				<path class="st2" d="M924.97,387.19c-0.58-0.37-0.43-1.25,0.23-1.41c1.7-0.42,4.48-1.16,7.05-2.12c2.56-0.96,5.15-2.23,6.7-3.04
					c0.61-0.32,1.3,0.25,1.11,0.91c-0.58,2.03-2.11,5.36-6.04,6.83C930.08,389.84,926.74,388.34,924.97,387.19z"/>
				<g>
					<path class="st9" d="M949.41,360.99c-3,2.96-3.47,7.35-1.05,9.8c2.42,2.45,6.81,2.05,9.81-0.91c3-2.96,3.47-7.35,1.05-9.8
						C956.81,357.62,952.41,358.03,949.41,360.99z"/>
					<g>
						<path class="st10" d="M952.33,369.52c-0.13-0.05-0.25-0.12-0.35-0.23c-1.47-1.54-1.81-3.42-0.92-5.03
							c0.91-1.65,2.86-2.59,4.63-2.23c0.5,0.1,0.82,0.59,0.72,1.09c-0.1,0.5-0.59,0.82-1.09,0.72c-0.97-0.2-2.14,0.38-2.65,1.31
							c-0.5,0.9-0.27,1.92,0.64,2.87c0.35,0.37,0.34,0.95-0.03,1.3C953.01,369.57,952.65,369.64,952.33,369.52z"/>
					</g>
				</g>
			</g>
			<path class="st12" d="M907.09,533.65c17.37,3.54,48.6,9.66,65.11,3.22c6.25-8.97,7.83-59.72,7.83-59.72
				c1.81-52.23-4.46-59.98-18.58-77.48c-5.93,2.72-20.76,5.05-27.29,5.1c0,0-14.78,20.52-17.66,35.42
				c-2.92,15.11-3.26,41.97-3.53,57.36C912.68,514.65,909.3,522.89,907.09,533.65z"/>
			<path class="st13" d="M963.52,415.54c10.16,19.78,7.86,41.68-21.68,84.8c-20.69-1.8-24.75-19.05-24.75-19.05
				s5.68-21.41,13.07-48.34C937.54,406.02,959.07,406.88,963.52,415.54z"/>
			<path class="st13" d="M873.2,477.16l44.3,3.54c0,0,19-3.47,24.34,19.64c-9.51,7.4-34.05,10.18-74.31-4.77
				C871.78,489.77,873.2,477.16,873.2,477.16z"/>
			<polygon class="st2" points="934.3,403.31 933.88,415.23 963.85,402.66 960.22,393.02 			"/>
		</g>
	</g>
	<g>
		<path class="st14" d="M268.2,282.34c-8.76,20-32.08,29.12-52.08,20.36c-20-8.76-29.12-32.08-20.36-52.08
			c8.76-20,32.08-29.12,52.08-20.36C267.84,239.02,276.96,262.33,268.2,282.34z"/>
		<path class="st15" d="M261.73,279.51c-7.8,18.32-31.12,25.17-47.63,14.09c-10.5-6.84-16.2-19.58-14.23-32.07
			c3.07-21.06,26.16-33.39,45.13-24.8C261.16,243.64,269.04,263.13,261.73,279.51z"/>
		<g>
			<path class="st14" d="M229.76,293.78l-0.02-6.72c-3.86-0.06-7.86-1.24-10.19-2.9l1.58-4.46c2.4,1.59,5.87,2.85,9.59,2.84
				c4.73-0.01,7.91-2.75,7.9-6.55c-0.01-3.66-2.61-5.92-7.54-7.9c-6.8-2.64-11-5.69-11.02-11.49c-0.02-5.53,3.9-9.73,10.02-10.75
				l-0.02-6.72l4.13-0.01l0.02,6.46c3.99,0.12,6.73,1.18,8.66,2.31l-1.65,4.4c-1.4-0.79-4.13-2.25-8.39-2.24
				c-5.13,0.01-7.05,3.08-7.04,5.74c0.01,3.46,2.48,5.19,8.28,7.57c6.86,2.78,10.34,6.23,10.35,12.15
				c0.01,5.26-3.63,10.2-10.49,11.35l0.02,6.92L229.76,293.78z"/>
		</g>
	</g>
	<g>
		<path class="st14" d="M371.06,166.64c-8.76,20-32.08,29.12-52.08,20.36c-20-8.76-29.12-32.08-20.36-52.08
			c8.76-20,32.08-29.12,52.08-20.36C370.7,123.32,379.82,146.63,371.06,166.64z"/>
		<path class="st15" d="M364.59,163.8c-7.8,18.32-31.12,25.17-47.63,14.09c-10.5-6.84-16.2-19.58-14.23-32.07
			c3.07-21.06,26.16-33.39,45.13-24.8C364.02,127.94,371.89,147.43,364.59,163.8z"/>
		<g>
			<path class="st14" d="M332.61,178.08l-0.02-6.72c-3.86-0.06-7.86-1.24-10.19-2.9l1.58-4.46c2.4,1.59,5.87,2.85,9.59,2.84
				c4.73-0.01,7.91-2.75,7.9-6.55c-0.01-3.66-2.61-5.92-7.54-7.9c-6.8-2.64-11-5.69-11.02-11.49c-0.02-5.52,3.9-9.73,10.02-10.75
				l-0.02-6.72l4.13-0.01l0.02,6.46c3.99,0.12,6.73,1.18,8.66,2.31l-1.65,4.4c-1.4-0.79-4.13-2.25-8.39-2.24
				c-5.13,0.01-7.05,3.08-7.04,5.74c0.01,3.46,2.48,5.19,8.28,7.57c6.86,2.78,10.34,6.23,10.35,12.15
				c0.01,5.26-3.63,10.2-10.49,11.35l0.02,6.92L332.61,178.08z"/>
		</g>
	</g>
	<g>
		
			<ellipse transform="matrix(0.988 -0.1545 0.1545 0.988 -9.7992 107.3944)" class="st14" cx="686.14" cy="116.75" rx="39.54" ry="39.54"/>
		<path class="st15" d="M715.89,129.78c-7.8,18.32-31.12,25.17-47.63,14.09c-10.5-6.84-16.2-19.58-14.23-32.07
			c3.07-21.06,26.16-33.39,45.14-24.8C715.32,93.91,723.2,113.4,715.89,129.78z"/>
		<g>
			<path class="st14" d="M683.92,144.06l-0.02-6.72c-3.86-0.06-7.86-1.24-10.19-2.9l1.58-4.46c2.4,1.59,5.87,2.85,9.59,2.84
				c4.73-0.01,7.91-2.75,7.9-6.55c-0.01-3.66-2.61-5.92-7.54-7.9c-6.8-2.64-11-5.69-11.02-11.49c-0.02-5.52,3.9-9.73,10.02-10.75
				l-0.02-6.72l4.13-0.01l0.02,6.46c3.99,0.12,6.73,1.18,8.66,2.31l-1.65,4.4c-1.4-0.79-4.13-2.25-8.39-2.24
				c-5.13,0.01-7.05,3.08-7.04,5.74c0.01,3.46,2.48,5.19,8.28,7.57c6.86,2.78,10.34,6.23,10.35,12.15
				c0.01,5.26-3.63,10.2-10.49,11.35l0.02,6.92L683.92,144.06z"/>
		</g>
	</g>
	<g>
		<path class="st14" d="M853.48,200.42c-8.76,20-32.08,29.12-52.08,20.36c-20-8.76-29.12-32.08-20.36-52.08
			c8.76-20,32.08-29.12,52.08-20.36C853.12,157.1,862.24,180.41,853.48,200.42z"/>
		<path class="st15" d="M847.01,197.59c-7.8,18.32-31.12,25.17-47.63,14.09c-10.5-6.84-16.2-19.58-14.23-32.07
			c3.07-21.06,26.16-33.39,45.14-24.8C846.44,161.72,854.32,181.21,847.01,197.59z"/>
		<g>
			<path class="st14" d="M815.03,211.87l-0.02-6.72c-3.86-0.06-7.86-1.24-10.19-2.9l1.59-4.46c2.4,1.59,5.87,2.85,9.59,2.84
				c4.73-0.01,7.91-2.75,7.9-6.55c-0.01-3.66-2.61-5.92-7.54-7.9c-6.8-2.64-11-5.69-11.02-11.49c-0.02-5.53,3.9-9.73,10.02-10.75
				l-0.02-6.72l4.13-0.01l0.02,6.46c3.99,0.12,6.73,1.18,8.66,2.31l-1.65,4.4c-1.4-0.79-4.13-2.25-8.39-2.24
				c-5.13,0.01-7.05,3.08-7.04,5.74c0.01,3.46,2.48,5.19,8.28,7.57c6.86,2.78,10.34,6.23,10.35,12.15
				c0.02,5.26-3.63,10.2-10.49,11.35l0.02,6.92L815.03,211.87z"/>
		</g>
	</g>
	<g>
		<path class="st14" d="M551.69,113.02c-8.76,20-32.08,29.12-52.08,20.36c-20-8.76-29.12-32.08-20.36-52.08
			c8.76-20,32.08-29.12,52.08-20.36C551.34,69.7,560.45,93.01,551.69,113.02z"/>
		<path class="st15" d="M545.23,110.19c-7.8,18.32-31.12,25.17-47.63,14.09c-10.5-6.84-16.2-19.58-14.23-32.07
			c3.07-21.06,26.16-33.39,45.14-24.8C544.65,74.32,552.53,93.81,545.23,110.19z"/>
		<g>
			<path class="st14" d="M513.25,124.47l-0.02-6.72c-3.86-0.06-7.86-1.24-10.19-2.9l1.59-4.46c2.4,1.59,5.87,2.85,9.59,2.84
				c4.73-0.01,7.91-2.75,7.9-6.55c-0.01-3.66-2.61-5.92-7.54-7.9c-6.8-2.64-11-5.69-11.02-11.49c-0.02-5.52,3.9-9.73,10.02-10.75
				l-0.02-6.72l4.13-0.01l0.02,6.46c3.99,0.12,6.73,1.18,8.66,2.31l-1.65,4.4c-1.4-0.79-4.13-2.25-8.39-2.24
				c-5.13,0.01-7.05,3.08-7.04,5.74c0.01,3.46,2.48,5.19,8.28,7.57c6.86,2.78,10.34,6.23,10.35,12.15
				c0.02,5.26-3.63,10.2-10.49,11.35l0.02,6.92L513.25,124.47z"/>
		</g>
	</g>
	<g>
		<g>
			<g>
				<g>
					<path class="st16" d="M843.25,381.37c-3.31,0-5.99-1.96-5.99-4.37c0-3.56-0.13-7.16-0.37-10.7c-0.17-2.41,2.37-4.46,5.68-4.59
						c3.3-0.12,6.12,1.73,6.29,4.14c0.26,3.69,0.39,7.44,0.39,11.14C849.25,379.42,846.56,381.37,843.25,381.37z"/>
				</g>
				<g>
					<path class="st16" d="M839.75,348.47c-2.9,0-5.45-1.54-5.91-3.69c-1.53-7.11-3.59-14.23-6.12-21.17
						c-0.85-2.33,1.05-4.73,4.25-5.35c3.2-0.62,6.48,0.77,7.33,3.1c2.65,7.24,4.79,14.66,6.38,22.07c0.51,2.38-1.72,4.62-4.99,4.99
						C840.37,348.45,840.06,348.47,839.75,348.47z M267.84,348.28c-0.31,0-0.62-0.02-0.94-0.05c-3.27-0.38-5.5-2.61-4.99-5
						c1.6-7.41,3.76-14.83,6.41-22.07c0.86-2.33,4.14-3.71,7.34-3.09c3.2,0.62,5.09,3.02,4.24,5.35
						c-2.55,6.94-4.62,14.06-6.15,21.17C273.29,346.74,270.74,348.28,267.84,348.28z M824.15,305.81c-2.41,0-4.68-1.07-5.6-2.81
						c-3.53-6.71-7.59-13.37-12.08-19.77c-1.5-2.15-0.33-4.78,2.62-5.88c2.95-1.1,6.56-0.24,8.06,1.91
						c4.67,6.68,8.91,13.62,12.59,20.62c1.18,2.25-0.36,4.78-3.45,5.64C825.59,305.72,824.87,305.81,824.15,305.81z M283.48,305.65
						c-0.71,0-1.44-0.09-2.15-0.29c-3.09-0.87-4.63-3.39-3.44-5.65c3.68-6.99,7.92-13.91,12.6-20.59c1.5-2.15,5.11-3,8.06-1.9
						c2.95,1.1,4.12,3.73,2.61,5.88c-4.49,6.4-8.55,13.05-12.09,19.75C288.16,304.58,285.89,305.65,283.48,305.65z M796.66,266.48
						c-1.96,0-3.88-0.7-5.03-1.99c-5.37-6.02-11.24-11.91-17.46-17.51c-2.08-1.87-1.69-4.63,0.89-6.14
						c2.57-1.52,6.34-1.23,8.43,0.64c6.48,5.83,12.6,11.97,18.19,18.25c1.8,2.02,1.02,4.73-1.76,6.04
						C798.91,266.25,797.78,266.48,796.66,266.48z M311,266.36c-1.12,0-2.25-0.23-3.26-0.71c-2.77-1.32-3.56-4.02-1.75-6.05
						c5.6-6.27,11.73-12.41,18.2-18.23c2.08-1.87,5.86-2.16,8.43-0.64c2.57,1.52,2.96,4.27,0.88,6.15
						c-6.22,5.59-12.09,11.47-17.47,17.49C314.88,265.66,312.96,266.36,311,266.36z M758.54,232.17c-1.53,0-3.07-0.43-4.24-1.28
						c-6.97-5.09-14.39-9.96-22.04-14.49c-2.57-1.52-2.96-4.27-0.88-6.15c2.08-1.87,5.86-2.16,8.43-0.64
						c7.98,4.72,15.71,9.8,22.97,15.1c2.34,1.71,2.34,4.47,0,6.18C761.61,231.75,760.08,232.17,758.54,232.17z M349.14,232.08
						c-1.53,0-3.07-0.43-4.24-1.28c-2.34-1.71-2.34-4.47,0-6.18c7.27-5.3,15-10.38,22.99-15.09c2.57-1.52,6.34-1.23,8.43,0.64
						c2.08,1.87,1.69,4.63-0.88,6.15c-7.66,4.53-15.08,9.4-22.06,14.48C352.2,231.65,350.67,232.08,349.14,232.08z M711.54,204.37
						c-1.12,0-2.25-0.23-3.26-0.71c-8.27-3.92-16.9-7.57-25.68-10.84c-2.95-1.1-4.11-3.73-2.61-5.88c1.5-2.15,5.11-3,8.06-1.9
						c9.14,3.41,18.15,7.21,26.76,11.3c2.77,1.32,3.56,4.02,1.75,6.05C715.41,203.67,713.49,204.37,711.54,204.37z M396.18,204.29
						c-1.96,0-3.88-0.7-5.03-1.99c-1.8-2.02-1.02-4.73,1.76-6.04c8.62-4.09,17.64-7.89,26.79-11.29c2.95-1.1,6.56-0.24,8.06,1.91
						c1.5,2.15,0.33,4.78-2.61,5.88c-8.78,3.27-17.43,6.91-25.7,10.83C398.43,204.06,397.3,204.29,396.18,204.29z M657.66,184.3
						c-0.72,0-1.44-0.09-2.15-0.29c-9.2-2.58-18.7-4.83-28.22-6.69c-3.2-0.62-5.09-3.02-4.24-5.35c0.86-2.33,4.14-3.71,7.34-3.09
						c9.93,1.94,19.83,4.29,29.42,6.98c3.09,0.87,4.63,3.39,3.44,5.65C662.34,183.23,660.07,184.3,657.66,184.3z M450.11,184.23
						c-2.41,0-4.68-1.07-5.6-2.81c-1.19-2.25,0.36-4.78,3.45-5.64c9.6-2.69,19.51-5.03,29.44-6.96c3.2-0.62,6.48,0.76,7.33,3.09
						c0.85,2.33-1.05,4.73-4.24,5.35c-9.53,1.85-19.03,4.1-28.24,6.68C451.55,184.14,450.83,184.23,450.11,184.23z M599.2,172.88
						c-0.31,0-0.62-0.02-0.94-0.05c-9.72-1.12-19.65-1.87-29.52-2.25c-3.3-0.13-5.84-2.18-5.67-4.59c0.17-2.41,3-4.26,6.3-4.14
						c10.28,0.39,20.63,1.18,30.76,2.34c3.27,0.38,5.5,2.61,4.99,5C604.65,171.34,602.1,172.88,599.2,172.88z M508.6,172.85
						c-2.9,0-5.45-1.54-5.91-3.69c-0.51-2.38,1.72-4.62,4.99-4.99c10.13-1.16,20.48-1.94,30.77-2.32c3.31-0.12,6.12,1.73,6.29,4.14
						c0.17,2.41-2.37,4.46-5.68,4.59c-9.87,0.37-19.81,1.12-29.52,2.23C509.22,172.83,508.9,172.85,508.6,172.85z"/>
				</g>
				<g>
					<path class="st16" d="M264.3,381.37c-3.31,0-5.99-1.96-5.99-4.37c0-3.7,0.13-7.45,0.39-11.14c0.17-2.41,2.97-4.27,6.29-4.14
						c3.3,0.12,5.85,2.18,5.68,4.59c-0.25,3.54-0.37,7.14-0.37,10.7C270.29,379.42,267.61,381.37,264.3,381.37z"/>
				</g>
			</g>
		</g>
		<path class="st16" d="M876.22,377.14c-0.93-0.82-2.12-1.27-3.34-1.27c-1.62,0-3.12,0.77-4.12,2.12l-25.53,34.63l-25.75-37.83
			c-0.97-1.43-2.56-2.29-4.24-2.29c-1.15,0-2.28,0.41-3.19,1.14c-2.23,1.81-2.69,5.12-1.05,7.53l29.82,43.81
			c0.95,1.4,2.5,2.26,4.18,2.29h0.06c1.62,0,3.13-0.77,4.12-2.12L877,384.71C878.73,382.37,878.39,379.05,876.22,377.14z"/>
	</g>
	<g>
		<g>
			<g>
				<g>
					<path class="st15" d="M615.68,419.64v7.42c0,2.9-2.35,5.25-5.25,5.25h-90.5c-2.9,0-5.25-2.35-5.25-5.25v-7.42
						c0-1.29,0.46-2.47,1.24-3.39c0.96-1.14,2.4-1.86,4.01-1.86h90.5c1.61,0,3.04,0.72,4.01,1.86
						C615.22,417.17,615.68,418.35,615.68,419.64z"/>
					<rect x="519.71" y="414.4" class="st14" width="2.63" height="17.91"/>
					<rect x="530.73" y="414.4" class="st14" width="2.63" height="17.91"/>
					<rect x="541.75" y="414.4" class="st14" width="2.63" height="17.91"/>
					<rect x="552.78" y="414.4" class="st14" width="2.63" height="17.91"/>
					<rect x="563.8" y="414.4" class="st14" width="2.63" height="17.91"/>
					<rect x="574.83" y="414.4" class="st14" width="2.63" height="17.91"/>
					<rect x="585.85" y="414.4" class="st14" width="2.63" height="17.91"/>
					<rect x="596.87" y="414.4" class="st14" width="2.63" height="17.91"/>
					<rect x="607.9" y="414.4" class="st14" width="2.63" height="17.91"/>
					<path class="st14" d="M614.45,416.26h-98.52c0.96-1.14,2.4-1.86,4.01-1.86h90.5C612.04,414.4,613.48,415.12,614.45,416.26z"/>
					<path class="st14" d="M614.45,430.44h-98.52c0.96,1.14,2.4,1.86,4.01,1.86h90.5C612.04,432.3,613.48,431.58,614.45,430.44z"/>
				</g>
				<g>
					<path class="st15" d="M622.01,401.74v7.42c0,2.9-2.35,5.25-5.25,5.25h-90.5c-2.9,0-5.25-2.35-5.25-5.25v-7.42
						c0-1.29,0.46-2.47,1.24-3.39c0.96-1.14,2.4-1.86,4.01-1.86h90.5c1.61,0,3.04,0.72,4.01,1.86
						C621.55,399.26,622.01,400.44,622.01,401.74z"/>
					<rect x="526.04" y="396.49" class="st14" width="2.63" height="17.91"/>
					<rect x="537.06" y="396.49" class="st14" width="2.63" height="17.91"/>
					<rect x="548.08" y="396.49" class="st14" width="2.63" height="17.91"/>
					<rect x="559.11" y="396.49" class="st14" width="2.63" height="17.91"/>
					<rect x="570.13" y="396.49" class="st14" width="2.63" height="17.91"/>
					<rect x="581.16" y="396.49" class="st14" width="2.63" height="17.91"/>
					<rect x="592.18" y="396.49" class="st14" width="2.63" height="17.91"/>
					<rect x="603.2" y="396.49" class="st14" width="2.63" height="17.91"/>
					<rect x="614.23" y="396.49" class="st14" width="2.63" height="17.91"/>
					<path class="st14" d="M620.78,398.35h-98.52c0.96-1.14,2.4-1.86,4.01-1.86h90.5C618.37,396.49,619.81,397.21,620.78,398.35z"/>
					<path class="st14" d="M620.78,412.54h-98.52c0.96,1.14,2.4,1.86,4.01,1.86h90.5C618.37,414.4,619.81,413.67,620.78,412.54z"/>
				</g>
				<g>
					<path class="st15" d="M617.11,383.86v7.42c0,2.9-2.35,5.25-5.25,5.25h-90.5c-2.9,0-5.25-2.35-5.25-5.25v-7.42
						c0-1.29,0.47-2.47,1.24-3.39c0.96-1.14,2.4-1.86,4.01-1.86h90.5c1.61,0,3.04,0.72,4.01,1.86
						C616.64,381.39,617.11,382.57,617.11,383.86z"/>
					<rect x="521.13" y="378.61" class="st14" width="2.63" height="17.91"/>
					<rect x="532.15" y="378.61" class="st14" width="2.63" height="17.91"/>
					<rect x="543.18" y="378.61" class="st14" width="2.63" height="17.91"/>
					<rect x="554.2" y="378.61" class="st14" width="2.63" height="17.91"/>
					<rect x="565.22" y="378.61" class="st14" width="2.63" height="17.91"/>
					<rect x="576.25" y="378.61" class="st14" width="2.63" height="17.91"/>
					<rect x="587.27" y="378.61" class="st14" width="2.63" height="17.91"/>
					<rect x="598.29" y="378.61" class="st14" width="2.63" height="17.91"/>
					<rect x="609.32" y="378.61" class="st14" width="2.63" height="17.91"/>
					<path class="st14" d="M615.87,380.47h-98.52c0.96-1.14,2.4-1.86,4.01-1.86h90.5C613.47,378.61,614.9,379.34,615.87,380.47z"/>
					<path class="st14" d="M615.87,394.66h-98.52c0.96,1.14,2.4,1.86,4.01,1.86h90.5C613.47,396.52,614.9,395.8,615.87,394.66z"/>
				</g>
				<g>
					<path class="st15" d="M619.13,366.31v7.41c0,2.9-2.35,5.25-5.25,5.25h-90.5c-2.9,0-5.25-2.35-5.25-5.25v-7.41
						c0-1.29,0.47-2.47,1.24-3.39c0.96-1.14,2.4-1.86,4.01-1.86h90.5c1.61,0,3.04,0.72,4.01,1.86
						C618.66,363.84,619.13,365.02,619.13,366.31z"/>
					<rect x="523.15" y="361.06" class="st14" width="2.63" height="17.91"/>
					<rect x="534.17" y="361.06" class="st14" width="2.63" height="17.91"/>
					<rect x="545.2" y="361.06" class="st14" width="2.63" height="17.91"/>
					<rect x="556.22" y="361.06" class="st14" width="2.63" height="17.91"/>
					<rect x="567.24" y="361.06" class="st14" width="2.63" height="17.91"/>
					<rect x="578.27" y="361.06" class="st14" width="2.63" height="17.91"/>
					<rect x="589.29" y="361.06" class="st14" width="2.63" height="17.91"/>
					<rect x="600.31" y="361.06" class="st14" width="2.63" height="17.91"/>
					<rect x="611.34" y="361.06" class="st14" width="2.63" height="17.91"/>
					<path class="st14" d="M617.89,362.92h-98.52c0.96-1.14,2.4-1.86,4.01-1.86h90.5C615.49,361.06,616.92,361.78,617.89,362.92z"/>
					<path class="st14" d="M617.89,377.11h-98.52c0.96,1.14,2.4,1.86,4.01,1.86h90.5C615.49,378.97,616.92,378.25,617.89,377.11z"/>
				</g>
				<g>
					<path class="st15" d="M607.84,348.13v7.41c0,2.9-2.35,5.25-5.25,5.25h-90.5c-2.9,0-5.25-2.35-5.25-5.25v-7.41
						c0-1.29,0.46-2.47,1.24-3.39c0.96-1.14,2.4-1.86,4.01-1.86h90.5c1.61,0,3.04,0.72,4.01,1.86
						C607.38,345.66,607.84,346.84,607.84,348.13z"/>
					<rect x="511.87" y="342.89" class="st14" width="2.63" height="17.91"/>
					<rect x="522.89" y="342.89" class="st14" width="2.63" height="17.91"/>
					<rect x="533.91" y="342.89" class="st14" width="2.63" height="17.91"/>
					<rect x="544.94" y="342.89" class="st14" width="2.63" height="17.91"/>
					<rect x="555.96" y="342.89" class="st14" width="2.63" height="17.91"/>
					<rect x="566.99" y="342.89" class="st14" width="2.63" height="17.91"/>
					<rect x="578.01" y="342.89" class="st14" width="2.63" height="17.91"/>
					<rect x="589.03" y="342.89" class="st14" width="2.63" height="17.91"/>
					<rect x="600.06" y="342.89" class="st14" width="2.63" height="17.91"/>
					<path class="st14" d="M606.61,344.75h-98.52c0.96-1.14,2.4-1.86,4.01-1.86h90.5C604.2,342.89,605.64,343.61,606.61,344.75z"/>
					<path class="st14" d="M606.61,358.93h-98.52c0.96,1.14,2.4,1.86,4.01,1.86h90.5C604.2,360.79,605.64,360.07,606.61,358.93z"/>
				</g>
				<g>
					<path class="st15" d="M618.95,330.43v7.42c0,2.9-2.35,5.25-5.25,5.25h-90.5c-2.9,0-5.25-2.35-5.25-5.25v-7.42
						c0-1.29,0.46-2.47,1.24-3.39c0.96-1.14,2.4-1.86,4.01-1.86h90.5c1.61,0,3.04,0.72,4.01,1.86
						C618.48,327.96,618.95,329.14,618.95,330.43z"/>
					<rect x="522.97" y="325.19" class="st14" width="2.63" height="17.91"/>
					<rect x="533.99" y="325.19" class="st14" width="2.63" height="17.91"/>
					<rect x="545.02" y="325.19" class="st14" width="2.63" height="17.91"/>
					<rect x="556.04" y="325.19" class="st14" width="2.63" height="17.91"/>
					<rect x="567.06" y="325.19" class="st14" width="2.63" height="17.91"/>
					<rect x="578.09" y="325.19" class="st14" width="2.63" height="17.91"/>
					<rect x="589.11" y="325.19" class="st14" width="2.63" height="17.91"/>
					<rect x="600.13" y="325.19" class="st14" width="2.63" height="17.91"/>
					<rect x="611.16" y="325.19" class="st14" width="2.63" height="17.91"/>
					<path class="st14" d="M617.71,327.05h-98.52c0.96-1.14,2.4-1.86,4.01-1.86h90.5C615.31,325.19,616.74,325.91,617.71,327.05z"/>
					<path class="st14" d="M617.71,341.23h-98.52c0.96,1.14,2.4,1.86,4.01,1.86h90.5C615.31,343.09,616.74,342.37,617.71,341.23z"/>
				</g>
				<g>
					<path class="st15" d="M615.01,312.47v7.42c0,2.9-2.35,5.25-5.25,5.25h-90.5c-2.9,0-5.25-2.35-5.25-5.25v-7.42
						c0-1.29,0.47-2.47,1.24-3.39c0.96-1.14,2.4-1.86,4.01-1.86h90.5c1.61,0,3.04,0.72,4.01,1.86
						C614.54,310,615.01,311.18,615.01,312.47z"/>
					<rect x="519.03" y="307.23" class="st14" width="2.63" height="17.91"/>
					<rect x="530.06" y="307.23" class="st14" width="2.63" height="17.91"/>
					<rect x="541.08" y="307.23" class="st14" width="2.63" height="17.91"/>
					<rect x="552.1" y="307.23" class="st14" width="2.63" height="17.91"/>
					<rect x="563.13" y="307.23" class="st14" width="2.63" height="17.91"/>
					<rect x="574.15" y="307.23" class="st14" width="2.63" height="17.91"/>
					<rect x="585.17" y="307.23" class="st14" width="2.63" height="17.91"/>
					<rect x="596.2" y="307.23" class="st14" width="2.63" height="17.91"/>
					<rect x="607.22" y="307.23" class="st14" width="2.63" height="17.91"/>
					<path class="st14" d="M613.77,309.09h-98.52c0.96-1.14,2.4-1.86,4.01-1.86h90.5C611.37,307.23,612.81,307.95,613.77,309.09z"/>
					<path class="st14" d="M613.77,323.27h-98.52c0.96,1.14,2.4,1.86,4.01,1.86h90.5C611.37,325.13,612.81,324.41,613.77,323.27z"/>
				</g>
				<g>
					<path class="st15" d="M620.42,294.66v7.42c0,2.9-2.35,5.25-5.25,5.25h-90.5c-2.9,0-5.25-2.35-5.25-5.25v-7.42
						c0-1.29,0.46-2.47,1.24-3.39c0.96-1.14,2.4-1.86,4.01-1.86h90.5c1.61,0,3.04,0.72,4.01,1.86
						C619.95,292.19,620.42,293.37,620.42,294.66z"/>
					<rect x="524.44" y="289.42" class="st14" width="2.63" height="17.91"/>
					<rect x="535.46" y="289.42" class="st14" width="2.63" height="17.91"/>
					<rect x="546.49" y="289.42" class="st14" width="2.63" height="17.91"/>
					<rect x="557.51" y="289.42" class="st14" width="2.63" height="17.91"/>
					<rect x="568.53" y="289.42" class="st14" width="2.63" height="17.91"/>
					<rect x="579.56" y="289.42" class="st14" width="2.63" height="17.91"/>
					<rect x="590.58" y="289.42" class="st14" width="2.63" height="17.91"/>
					<rect x="601.61" y="289.42" class="st14" width="2.63" height="17.91"/>
					<rect x="612.63" y="289.42" class="st14" width="2.63" height="17.91"/>
					<path class="st14" d="M619.18,291.28h-98.52c0.96-1.14,2.4-1.86,4.01-1.86h90.5C616.78,289.42,618.21,290.14,619.18,291.28z"/>
					<path class="st14" d="M619.18,305.47h-98.52c0.96,1.14,2.4,1.86,4.01,1.86h90.5C616.78,307.33,618.21,306.6,619.18,305.47z"/>
				</g>
			</g>
			<g>
				
					<ellipse transform="matrix(0.9497 -0.3132 0.3132 0.9497 -92.7414 180.8769)" class="st14" cx="516.66" cy="379.12" rx="54.01" ry="54.01"/>
				<path class="st15" d="M558.88,392.76c-7.53,23.32-32.54,36.11-55.85,28.58c-2.43-0.79-4.75-1.76-6.95-2.91
					c-3.71-1.94-7.06-4.36-10-7.15c-1.11-1.06-2.17-2.18-3.16-3.34c-7.27-8.53-11.18-19.67-10.57-31.14c0.2-3.76,0.88-7.55,2.1-11.3
					c5.62-17.39,20.95-28.93,38.06-30.55c5.83-0.55,11.87,0.05,17.8,1.96c5.13,1.66,9.75,4.16,13.76,7.31
					c1.21,0.95,2.37,1.96,3.46,3.02c2.97,2.88,5.51,6.15,7.56,9.7C561.13,367.42,562.89,380.33,558.88,392.76z"/>
				<path class="st17" d="M544.06,344.21l-61.14,63.72c-7.27-8.53-11.18-19.67-10.57-31.14l40.15-41.85
					c5.83-0.55,11.87,0.05,17.8,1.96C535.43,338.56,540.05,341.06,544.06,344.21z"/>
				<path class="st17" d="M555.08,356.94l-59,61.5c-3.71-1.94-7.06-4.36-10-7.15l61.44-64.04
					C550.49,350.11,553.03,353.39,555.08,356.94z"/>
				<path class="st2" d="M519.64,336.95c-5.24-0.55-6.2-0.03-8.55,4.62c0.58-5.18,0.07-6.14-4.62-8.55c5.24,0.55,6.2,0.03,8.55-4.62
					C514.47,333.64,514.99,334.6,519.64,336.95z"/>
				<path class="st2" d="M501.09,420.28c-4.42-0.46-5.23-0.03-7.22,3.89c0.49-4.37,0.06-5.18-3.89-7.22
					c4.42,0.46,5.23,0.03,7.22-3.89C496.73,417.49,497.17,418.3,501.09,420.28z"/>
			</g>
		</g>
		<g>
			<path class="st14" d="M613.51,236.16l-24.87-13.38c-0.7,1.3-1.4,2.61-2.1,3.91l0,0c-1.02,1.89,3.76,6.43,10.66,10.15
				c6.91,3.71,13.33,5.19,14.35,3.3C611.63,239.97,613.51,236.16,613.51,236.16z"/>
			<path class="st15" d="M613.53,236.44c-1.02,1.89-7.44,0.41-14.35-3.3c-6.91-3.71-11.68-8.26-10.66-10.15
				c1.02-1.89,7.44-0.41,14.35,3.3C609.77,230.01,614.55,234.55,613.53,236.44z"/>
		</g>
		<g>
			<path class="st14" d="M502.99,286.42l-25.17,4.09c0.21,1.32,0.43,2.64,0.64,3.96l0,0c0.31,1.91,6.23,2.54,13.22,1.41
				c6.99-1.14,12.4-3.61,12.09-5.52C503.74,290.18,502.99,286.42,502.99,286.42z"/>
			<path class="st15" d="M503.16,286.61c0.31,1.91-5.1,4.38-12.09,5.52c-6.99,1.14-12.91,0.5-13.22-1.41
				c-0.31-1.91,5.1-4.38,12.09-5.52C496.93,284.07,502.85,284.7,503.16,286.61z"/>
		</g>
		<g>
			<path class="st14" d="M533.06,242.26l-22.88-11.27c-0.59,1.2-1.18,2.4-1.77,3.6l0,0c-0.86,1.74,3.6,5.69,9.95,8.81
				c6.35,3.13,12.2,4.26,13.05,2.52C531.49,245.76,533.06,242.26,533.06,242.26z"/>
			<path class="st15" d="M533.09,242.52c-0.86,1.74-6.7,0.61-13.05-2.52c-6.35-3.13-10.81-7.08-9.95-8.81
				c0.86-1.74,6.7-0.61,13.05,2.52C529.49,236.83,533.95,240.78,533.09,242.52z"/>
		</g>
		<g>
			<path class="st14" d="M498.96,199.76l-26.35,4.28c0.22,1.38,0.45,2.76,0.67,4.14l0,0c0.33,2,6.52,2.66,13.84,1.47
				s12.98-3.78,12.66-5.78C499.75,203.7,498.96,199.76,498.96,199.76z"/>
			<path class="st15" d="M499.14,199.96c0.33,2-5.34,4.59-12.66,5.78c-7.32,1.19-13.51,0.53-13.84-1.47
				c-0.33-2,5.34-4.59,12.66-5.78C492.62,197.29,498.82,197.95,499.14,199.96z"/>
		</g>
	</g>
	<g>
		<path class="st2" d="M159.26,454.31c8.49,15.53,2.79,35-12.74,43.5c-15.53,8.49-35,2.79-43.5-12.74
			c-8.49-15.53-2.79-35,12.74-43.5C131.3,433.08,150.77,438.78,159.26,454.31z"/>
		<g>
			<path class="st3" d="M141.24,492.44l-2.93-5.36c-3.1,1.63-6.81,2.41-9.39,2.1l-0.67-4.25c2.6,0.23,5.91-0.27,8.88-1.9
				c3.77-2.06,5.12-5.63,3.47-8.65c-1.59-2.92-4.65-3.59-9.44-3.03c-6.57,0.84-11.24,0.22-13.77-4.39c-2.41-4.4-1.1-9.45,3.34-12.92
				l-2.93-5.36l3.29-1.8l2.81,5.14c3.24-1.63,5.88-1.97,7.91-1.91l0.59,4.22c-1.46-0.03-4.27-0.01-7.67,1.85
				c-4.08,2.23-4.29,5.51-3.13,7.63c1.51,2.76,4.22,3.06,9.88,2.45c6.68-0.76,10.95,0.49,13.53,5.21c2.29,4.19,1.52,9.71-3.45,13.6
				l3.02,5.51L141.24,492.44z"/>
		</g>
	</g>
	<g>
		<path class="st2" d="M443.71,68.86c8.49,15.53,2.79,35-12.74,43.5c-15.53,8.49-35,2.79-43.5-12.74c-8.49-15.53-2.79-35,12.74-43.5
			C415.75,47.63,435.22,53.33,443.71,68.86z"/>
		<g>
			<path class="st3" d="M425.69,106.99l-2.93-5.36c-3.1,1.63-6.81,2.41-9.39,2.1l-0.67-4.25c2.6,0.23,5.91-0.27,8.88-1.9
				c3.77-2.06,5.12-5.63,3.47-8.65c-1.59-2.92-4.65-3.59-9.44-3.03c-6.57,0.84-11.24,0.22-13.77-4.39c-2.41-4.4-1.1-9.45,3.34-12.92
				l-2.93-5.36l3.29-1.8l2.81,5.14c3.24-1.63,5.88-1.97,7.91-1.91l0.59,4.22c-1.46-0.03-4.27-0.01-7.67,1.85
				c-4.08,2.23-4.29,5.51-3.13,7.63c1.51,2.76,4.22,3.06,9.88,2.45c6.68-0.76,10.95,0.49,13.53,5.21c2.29,4.19,1.52,9.71-3.45,13.6
				l3.02,5.51L425.69,106.99z"/>
		</g>
	</g>
	<g>
		<path class="st1" d="M847.32,76.46c7.13,16.2-0.21,35.11-16.41,42.25s-35.11-0.21-42.25-16.41c-7.13-16.2,0.21-35.11,16.41-42.25
			C821.27,52.92,840.18,60.26,847.32,76.46z"/>
		<g>
			<path class="st2" d="M826.11,112.92l-2.46-5.59c-3.23,1.36-6.99,1.82-9.54,1.29l-0.3-4.29c2.58,0.45,5.91,0.24,9.01-1.13
				c3.93-1.73,5.58-5.17,4.19-8.32c-1.34-3.04-4.33-3.97-9.15-3.83c-6.62,0.27-11.22-0.74-13.34-5.55
				c-2.02-4.59-0.29-9.51,4.43-12.58l-2.46-5.59l3.43-1.51l2.36,5.37c3.37-1.35,6.03-1.46,8.04-1.23l0.23,4.26
				c-1.45-0.15-4.26-0.37-7.8,1.19c-4.26,1.88-4.74,5.13-3.77,7.34c1.27,2.88,3.95,3.41,9.64,3.28c6.72-0.19,10.86,1.42,13.03,6.35
				c1.92,4.37,0.69,9.8-4.6,13.25l2.53,5.75L826.11,112.92z"/>
		</g>
	</g>
	<g>
		<path class="st1" d="M112.59,328.13l21.16-39.47c0,0,25.81,2.21,37.66,32.12c7.34,18.54,32.27,28.16,32.27,28.16l-21.27,39.68
			c0,0-32.54-8.71-40.57-30.04C133.33,336.01,112.59,328.13,112.59,328.13z"/>
		<path class="st3" d="M170.58,352.2c-7.01,5.9-18.28,4.04-25.16-4.14c-6.88-8.18-6.77-19.6,0.25-25.49
			c7.01-5.9,18.28-4.04,25.16,4.14C177.7,334.89,177.59,346.31,170.58,352.2z"/>
	</g>
	<g>
		<path class="st1" d="M590.14,71.67l-21.47-24.12c0,0,7.9-16.93,31.09-17.53c14.37-0.37,27.07-14.86,27.07-14.86l21.59,24.24
			c0,0-13.97,19.87-30.41,20.02C600.61,59.58,590.14,71.67,590.14,71.67z"/>
		<path class="st3" d="M620.82,38.37c2.25,6.21-1.8,13.38-9.05,16c-7.25,2.63-14.95-0.28-17.2-6.49c-2.25-6.21,1.8-13.38,9.05-16.01
			C610.87,29.26,618.57,32.16,620.82,38.37z"/>
	</g>
	<g>
		<path class="st12" d="M286.28,458.56c0,29.51-23.93,53.44-53.44,53.44s-53.44-23.93-53.44-53.44c0-29.51,23.93-53.44,53.44-53.44
			S286.28,429.05,286.28,458.56"/>
		<path class="st12" d="M285.78,512c29.51,0,53.44-23.93,53.44-53.44s-23.93-53.44-53.44-53.44V512z"/>
		<path class="st2" d="M205.36,458.19c0-14.72,12.08-27.51,27.51-27.51c14.46,0,26.42,11.38,27.38,24.94h-13.05
			c-1.03-6.62-6.81-11.95-14.33-11.95c-8.42,0-14.53,6.81-14.53,14.53c0,7.71,6.11,14.53,14.53,14.53c7.58,0,13.3-5.4,14.33-12.08
			h13.11c-0.96,13.63-12.92,25-27.44,25C217.45,485.63,205.36,472.91,205.36,458.19"/>
	</g>
	<g>
		<g>
			<path class="st18" d="M344.72,578.64c-4.47,0-8.47-0.82-11.99-2.45c-3.52-1.63-6.28-3.88-8.29-6.75
				c-2.01-2.87-3.02-6.13-3.02-9.8c0-1,0.08-2.32,0.23-3.96c0.15-1.63,0.35-3.46,0.6-5.47c0.25-2.01,0.54-4.08,0.87-6.22
				c0.33-2.14,0.64-4.21,0.94-6.22l11.39,1.51c-0.5,3.37-0.94,6.42-1.32,9.16c-0.38,2.74-0.67,5.05-0.87,6.94
				c-0.2,1.88-0.3,3.28-0.3,4.18c0,1.86,0.45,3.48,1.36,4.86c0.9,1.38,2.24,2.45,4,3.2c1.76,0.75,3.89,1.13,6.41,1.13
				c2.66,0,4.77-0.39,6.33-1.17c1.56-0.78,2.66-1.81,3.32-3.09c0.65-1.28,0.98-2.73,0.98-4.33v-53.23h11.54v53.23
				c0,3.72-0.96,6.96-2.87,9.73c-1.91,2.76-4.54,4.91-7.88,6.45C352.8,577.88,348.99,578.64,344.72,578.64z"/>
			<path class="st18" d="M378.65,559.95v-53h11.46v53H378.65z"/>
			<path class="st18" d="M415.44,579.4c-1.91,0-3.9-0.14-5.96-0.42c-2.06-0.28-4.22-0.67-6.48-1.17l1.73-9.2
				c2.46,0.3,4.56,0.53,6.3,0.68c1.73,0.15,3.2,0.23,4.41,0.23c3.42,0,5.88-0.6,7.39-1.81c1.51-1.21,2.26-3.04,2.26-5.5v-31.97
				l2.34,1.66h-8.37c-1.71,0-3.14,0.21-4.3,0.64c-1.16,0.43-2.02,1.31-2.6,2.64c-0.58,1.33-0.87,3.38-0.87,6.15
				c0,2.56,0.25,4.47,0.75,5.73c0.5,1.26,1.33,2.07,2.49,2.45c1.16,0.38,2.66,0.57,4.52,0.57h6.03v9.88h-6.03
				c-4.22,0-7.78-0.68-10.67-2.04c-2.89-1.36-5.05-3.42-6.48-6.18c-1.43-2.76-2.15-6.23-2.15-10.4c0-4.22,0.72-7.77,2.15-10.63
				c1.43-2.87,3.59-5.03,6.48-6.48c2.89-1.46,6.45-2.19,10.67-2.19h17.57v40.19c0,3.52-0.88,6.57-2.64,9.16
				c-1.76,2.59-4.22,4.57-7.39,5.96C423.44,578.71,419.72,579.4,415.44,579.4z M436.63,559.95v-9.88h7.84v9.88H436.63z
				 M444.47,559.95v-9.88c0.3,0,0.54,0.11,0.72,0.34c0.18,0.23,0.33,0.55,0.45,0.98c0.12,0.43,0.21,0.94,0.26,1.55
				c0.05,0.6,0.08,1.28,0.08,2.04s-0.03,1.45-0.08,2.07c-0.05,0.63-0.14,1.16-0.26,1.58c-0.13,0.43-0.28,0.75-0.45,0.98
				C445.01,559.83,444.77,559.95,444.47,559.95z"/>
			<path class="st18" d="M444.47,559.95c-0.25,0-0.48-0.11-0.68-0.34c-0.2-0.23-0.35-0.55-0.45-0.98c-0.1-0.43-0.19-0.95-0.26-1.58
				c-0.08-0.63-0.11-1.32-0.11-2.07c0-1,0.05-1.87,0.15-2.6c0.1-0.73,0.26-1.29,0.49-1.7c0.23-0.4,0.52-0.6,0.87-0.6V559.95z
				 M444.4,559.95v-9.88h38.45l-4.67,4.15v-13.04c0-2.46-0.26-4.37-0.79-5.73c-0.53-1.36-1.46-2.31-2.79-2.86
				c-1.33-0.55-3.18-0.83-5.54-0.83c-2.06,0-4.06,0.13-5.99,0.38c-1.94,0.25-3.46,0.6-4.56,1.06l7.16-6.63
				c-0.3,1.11-0.59,2.54-0.87,4.3c-0.28,1.76-0.5,3.61-0.68,5.54c-0.18,1.94-0.26,3.81-0.26,5.62c0,1.66,0.09,3.42,0.26,5.28
				c0.18,1.86,0.38,3.51,0.6,4.94c0.23,1.43,0.39,2.4,0.49,2.9l-10.93,3.09c-0.25-0.75-0.53-1.93-0.83-3.54
				c-0.3-1.61-0.55-3.51-0.75-5.69c-0.2-2.19-0.3-4.51-0.3-6.97s0.11-4.86,0.34-7.2c0.23-2.34,0.51-4.46,0.87-6.37
				c0.35-1.91,0.68-3.42,0.98-4.52c1.21-0.45,3.13-0.91,5.77-1.36c2.64-0.45,5.54-0.68,8.71-0.68c4.62,0,8.46,0.63,11.5,1.88
				c3.04,1.26,5.33,3.29,6.86,6.11c1.53,2.82,2.3,6.61,2.3,11.38v18.7H444.4z"/>
			<path class="st18" d="M497.78,559.95v-9.88h38.83l-5.43,5.43v-48.56h11.54v53H497.78z M503.73,511.54v-5.88h19.45v5.88H503.73z
				 M508.56,510.79c-1.01-1.21-1.77-2.36-2.3-3.47c-0.53-1.11-0.79-2.26-0.79-3.47c0-1.86,0.48-3.51,1.43-4.94
				c0.95-1.43,2.21-2.56,3.77-3.39c1.56-0.83,3.27-1.24,5.13-1.24c1.06,0,2.11,0.14,3.17,0.42c1.06,0.28,1.93,0.67,2.64,1.17
				l-2.71,5.05c-0.45-0.25-0.92-0.43-1.4-0.53c-0.48-0.1-0.94-0.15-1.39-0.15c-1.21,0-2.14,0.33-2.79,0.98
				c-0.65,0.65-0.98,1.48-0.98,2.49c0,0.6,0.12,1.18,0.38,1.73c0.25,0.55,0.63,1.11,1.13,1.66L508.56,510.79z M507.73,550.07v-32.65
				h11.54v32.65H507.73z"/>
			<path class="st18" d="M554.7,559.95v-53h11.46v53H554.7z"/>
			<path class="st18" d="M615.47,578.64c-4.47,0-8.47-0.82-11.99-2.45c-3.52-1.63-6.28-3.88-8.29-6.75
				c-2.01-2.87-3.02-6.13-3.02-9.8c0-1,0.08-2.32,0.23-3.96c0.15-1.63,0.35-3.46,0.6-5.47c0.25-2.01,0.54-4.08,0.87-6.22
				s0.64-4.21,0.94-6.22l11.38,1.51c-0.5,3.37-0.94,6.42-1.32,9.16c-0.38,2.74-0.67,5.05-0.87,6.94c-0.2,1.88-0.3,3.28-0.3,4.18
				c0,1.86,0.45,3.48,1.36,4.86c0.9,1.38,2.24,2.45,4,3.2c1.76,0.75,3.89,1.13,6.41,1.13c2.66,0,4.77-0.39,6.33-1.17
				c1.56-0.78,2.66-1.81,3.32-3.09c0.65-1.28,0.98-2.73,0.98-4.33v-53.23h11.54v53.23c0,3.72-0.96,6.96-2.87,9.73
				c-1.91,2.76-4.54,4.91-7.88,6.45C623.55,577.88,619.74,578.64,615.47,578.64z M637.64,559.95v-9.88h7.92v9.88H637.64z
				 M645.56,559.95v-9.88c0.25,0,0.48,0.11,0.68,0.34c0.2,0.23,0.35,0.55,0.45,0.98c0.1,0.43,0.19,0.94,0.26,1.55
				c0.08,0.6,0.11,1.28,0.11,2.04s-0.04,1.45-0.11,2.07c-0.08,0.63-0.16,1.16-0.26,1.58c-0.1,0.43-0.25,0.75-0.45,0.98
				C646.03,559.83,645.81,559.95,645.56,559.95z"/>
			<path class="st18" d="M645.55,559.95c-0.25,0-0.48-0.11-0.68-0.34c-0.2-0.23-0.35-0.55-0.45-0.98c-0.1-0.43-0.19-0.95-0.26-1.58
				c-0.08-0.63-0.11-1.32-0.11-2.07c0-1,0.05-1.87,0.15-2.6c0.1-0.73,0.26-1.29,0.49-1.7c0.23-0.4,0.52-0.6,0.87-0.6V559.95z
				 M645.55,559.95v-9.88h20.28l-7.01,5.81v-33.85h11.54v37.93H645.55z M648.19,576.83v-9.2h11.01v9.2H648.19z M663.05,576.83v-9.2
				h11.01v9.2H663.05z"/>
			<path class="st18" d="M694.34,579.4c-1.91,0-3.9-0.14-5.96-0.42c-2.06-0.28-4.22-0.67-6.48-1.17l1.73-9.2
				c2.46,0.3,4.56,0.53,6.3,0.68c1.73,0.15,3.2,0.23,4.41,0.23c3.42,0,5.88-0.6,7.39-1.81c1.51-1.21,2.26-3.04,2.26-5.5v-31.97
				l2.34,1.66h-8.37c-1.71,0-3.14,0.21-4.3,0.64c-1.16,0.43-2.02,1.31-2.6,2.64c-0.58,1.33-0.87,3.38-0.87,6.15
				c0,2.56,0.25,4.47,0.75,5.73c0.5,1.26,1.33,2.07,2.49,2.45c1.16,0.38,2.66,0.57,4.52,0.57h6.03v9.88h-6.03
				c-4.22,0-7.78-0.68-10.67-2.04c-2.89-1.36-5.05-3.42-6.48-6.18c-1.43-2.76-2.15-6.23-2.15-10.4c0-4.22,0.72-7.77,2.15-10.63
				s3.59-5.03,6.48-6.48c2.89-1.46,6.45-2.19,10.67-2.19h17.57v40.19c0,3.52-0.88,6.57-2.64,9.16c-1.76,2.59-4.22,4.57-7.39,5.96
				C702.33,578.71,698.61,579.4,694.34,579.4z M715.52,559.95v-9.88h7.84v9.88H715.52z M723.37,559.95v-9.88
				c0.3,0,0.54,0.11,0.72,0.34c0.18,0.23,0.33,0.55,0.45,0.98c0.12,0.43,0.21,0.94,0.26,1.55c0.05,0.6,0.08,1.28,0.08,2.04
				s-0.03,1.45-0.08,2.07c-0.05,0.63-0.14,1.16-0.26,1.58c-0.13,0.43-0.28,0.75-0.45,0.98C723.9,559.83,723.67,559.95,723.37,559.95
				z"/>
			<path class="st18" d="M723.37,559.95c-0.25,0-0.48-0.11-0.68-0.34c-0.2-0.23-0.35-0.55-0.45-0.98c-0.1-0.43-0.19-0.95-0.26-1.58
				c-0.08-0.63-0.11-1.32-0.11-2.07c0-1,0.05-1.87,0.15-2.6c0.1-0.73,0.26-1.29,0.49-1.7c0.23-0.4,0.52-0.6,0.87-0.6V559.95z
				 M723.37,559.95v-9.88h32.12l-4,3.09v-12.21c0-2.92-0.91-5.14-2.71-6.67s-4.73-2.3-8.75-2.3c-1.11,0-2.59,0.08-4.45,0.23
				c-1.86,0.15-3.9,0.38-6.11,0.68l-1.06-9.05c2.11-0.5,4.26-0.93,6.45-1.28c2.19-0.35,4.31-0.53,6.37-0.53
				c4.22,0,7.97,0.77,11.23,2.3c3.27,1.53,5.84,3.69,7.73,6.48s2.83,6.17,2.83,10.14v19H723.37z M763.02,559.95v-9.88h7.92v9.88
				H763.02z M770.94,559.95v-9.88c0.25,0,0.48,0.11,0.68,0.34c0.2,0.23,0.35,0.55,0.45,0.98c0.1,0.43,0.19,0.94,0.26,1.55
				c0.08,0.6,0.11,1.28,0.11,2.04s-0.04,1.45-0.11,2.07c-0.08,0.63-0.16,1.16-0.26,1.58c-0.1,0.43-0.25,0.75-0.45,0.98
				C771.42,559.83,771.19,559.95,770.94,559.95z"/>
			<path class="st18" d="M770.94,559.95c-0.25,0-0.48-0.11-0.68-0.34c-0.2-0.23-0.35-0.55-0.45-0.98c-0.1-0.43-0.19-0.95-0.26-1.58
				c-0.08-0.63-0.11-1.32-0.11-2.07c0-1,0.05-1.87,0.15-2.6c0.1-0.73,0.26-1.29,0.49-1.7c0.23-0.4,0.52-0.6,0.87-0.6V559.95z
				 M770.94,559.95v-9.88h20.28l-7.01,5.81v-33.85h11.54v37.93H770.94z M777.12,515.01v-9.2h11.01v9.2H777.12z M791.98,515.01v-9.2
				h11.01v9.2H791.98z"/>
			<path class="st18" d="M276.67,674.93c-4.22,0-7.93-0.69-11.12-2.07c-3.19-1.38-5.67-3.35-7.43-5.92
				c-1.76-2.56-2.64-5.63-2.64-9.2c0-3.57,0.88-6.63,2.64-9.2c1.76-2.56,4.23-4.54,7.43-5.92c3.19-1.38,6.9-2.07,11.12-2.07h14.4
				v9.88h-14.4c-3.37,0-5.82,0.6-7.35,1.81c-1.53,1.21-2.3,3.04-2.3,5.5c0,2.46,0.77,4.3,2.3,5.5c1.53,1.21,3.98,1.81,7.35,1.81
				c1.21,0,2.69-0.06,4.45-0.19c1.76-0.13,3.85-0.34,6.26-0.64l1.73,9.2c-2.26,0.45-4.42,0.82-6.48,1.09
				C280.57,674.79,278.58,674.93,276.67,674.93z M267.02,648.92c-2.51-2.46-4.39-5-5.62-7.62c-1.23-2.61-1.85-5.4-1.85-8.37
				c0-3.07,0.58-5.84,1.73-8.33c1.16-2.49,2.71-4.64,4.67-6.45c1.96-1.81,4.22-3.2,6.79-4.18s5.28-1.47,8.14-1.47
				c1.56,0,3.14,0.15,4.75,0.45c1.61,0.3,3.17,0.7,4.67,1.21l-3.24,9.35c-1.01-0.35-1.99-0.63-2.94-0.83
				c-0.96-0.2-1.89-0.3-2.79-0.3c-2.11,0-3.93,0.45-5.47,1.36c-1.53,0.91-2.73,2.12-3.58,3.66c-0.85,1.53-1.28,3.33-1.28,5.39
				c0,1.76,0.36,3.42,1.09,4.98c0.73,1.56,1.8,3.02,3.2,4.37L267.02,648.92z"/>
			<path class="st18" d="M314.68,669.88c-1.91,0-3.9-0.14-5.96-0.42c-2.06-0.28-4.22-0.67-6.48-1.17l1.73-9.2
				c2.46,0.3,4.56,0.53,6.3,0.68c1.73,0.15,3.2,0.23,4.41,0.23c3.42,0,5.88-0.6,7.39-1.81c1.51-1.21,2.26-3.04,2.26-5.5v-31.97
				l2.34,1.66h-8.37c-1.71,0-3.14,0.21-4.3,0.64c-1.16,0.43-2.02,1.31-2.6,2.64c-0.58,1.33-0.87,3.38-0.87,6.15
				c0,2.56,0.25,4.47,0.75,5.73c0.5,1.26,1.33,2.07,2.49,2.45c1.16,0.38,2.66,0.57,4.52,0.57h6.03v9.88h-6.03
				c-4.22,0-7.78-0.68-10.67-2.04c-2.89-1.36-5.05-3.42-6.48-6.18c-1.43-2.76-2.15-6.23-2.15-10.4c0-4.22,0.72-7.77,2.15-10.63
				c1.43-2.87,3.59-5.03,6.48-6.48c2.89-1.46,6.45-2.19,10.67-2.19h17.57v40.19c0,3.52-0.88,6.57-2.64,9.16
				c-1.76,2.59-4.22,4.57-7.39,5.96C322.67,669.18,318.95,669.88,314.68,669.88z M335.86,650.42v-9.88h7.84v9.88H335.86z
				 M343.7,650.42v-9.88c0.3,0,0.54,0.11,0.72,0.34c0.18,0.23,0.33,0.55,0.45,0.98c0.12,0.43,0.21,0.94,0.26,1.55
				c0.05,0.6,0.08,1.28,0.08,2.04s-0.03,1.45-0.08,2.07c-0.05,0.63-0.14,1.16-0.26,1.58c-0.13,0.43-0.28,0.75-0.45,0.98
				C344.24,650.31,344.01,650.42,343.7,650.42z"/>
			<path class="st18" d="M343.7,650.42c-0.3,0-0.54-0.11-0.72-0.34c-0.18-0.23-0.31-0.55-0.41-0.98c-0.1-0.43-0.19-0.95-0.26-1.58
				c-0.08-0.63-0.11-1.32-0.11-2.07c0-1,0.05-1.87,0.15-2.6c0.1-0.73,0.26-1.29,0.49-1.7c0.23-0.4,0.52-0.6,0.87-0.6V650.42z
				 M343.7,650.42v-9.88h14.85l-7.01,5.81V612.5h11.54v37.93H343.7z M351.54,667.31v-9.2h11.61v9.2H351.54z M363.08,650.42v-9.88
				H371v9.88H363.08z M371,650.42v-9.88c0.25,0,0.48,0.11,0.68,0.34c0.2,0.23,0.35,0.55,0.45,0.98c0.1,0.43,0.19,0.94,0.26,1.55
				c0.08,0.6,0.11,1.28,0.11,2.04s-0.04,1.45-0.11,2.07c-0.08,0.63-0.16,1.16-0.26,1.58c-0.1,0.43-0.25,0.75-0.45,0.98
				C371.47,650.31,371.25,650.42,371,650.42z"/>
			<path class="st18" d="M371,650.42c-0.25,0-0.48-0.11-0.68-0.34c-0.2-0.23-0.35-0.55-0.45-0.98c-0.1-0.43-0.19-0.95-0.26-1.58
				c-0.08-0.63-0.11-1.32-0.11-2.07c0-1,0.05-1.87,0.15-2.6c0.1-0.73,0.26-1.29,0.49-1.7c0.23-0.4,0.52-0.6,0.87-0.6V650.42z
				 M371,650.42v-9.88h10.93l-2.41,2.56v-22.85h11.54v30.16H371z M391.05,650.42v-9.88h5.35c1.56,0,2.75-0.24,3.58-0.72
				c0.83-0.48,1.41-1.46,1.73-2.94c0.33-1.48,0.49-3.73,0.49-6.75v-13.65h11.54v13.65c0,4.73-0.63,8.58-1.89,11.57
				c-1.26,2.99-3.15,5.19-5.69,6.6c-2.54,1.41-5.79,2.11-9.76,2.11H391.05z M416.92,650.42c-2.21,0-4.39-0.42-6.52-1.24
				c-2.14-0.83-4.11-2.05-5.92-3.66l7.01-7.24c0.9,0.75,1.81,1.32,2.71,1.7s1.81,0.57,2.71,0.57h14.4l-6.26,5.58v-16.36
				c0-0.75-0.09-1.95-0.26-3.58c-0.18-1.63-0.43-3.49-0.75-5.58c-0.33-2.08-0.69-4.21-1.09-6.37l11.31-1.73
				c0.35,1.81,0.7,3.85,1.06,6.11c0.35,2.26,0.65,4.4,0.9,6.41c0.25,2.01,0.38,3.59,0.38,4.75v20.66H416.92z"/>
			<path class="st18" d="M444.66,650.42v-9.88h38.83l-5.43,5.43v-48.56h11.54v53H444.66z M450.62,602.02v-5.88h19.45v5.88H450.62z
				 M455.44,601.26c-1.01-1.21-1.77-2.36-2.3-3.47c-0.53-1.11-0.79-2.26-0.79-3.47c0-1.86,0.48-3.51,1.43-4.94
				c0.95-1.43,2.21-2.56,3.77-3.39c1.56-0.83,3.27-1.24,5.13-1.24c1.06,0,2.11,0.14,3.17,0.42c1.06,0.28,1.93,0.67,2.64,1.17
				l-2.71,5.05c-0.45-0.25-0.92-0.43-1.4-0.53c-0.48-0.1-0.94-0.15-1.39-0.15c-1.21,0-2.14,0.33-2.79,0.98
				c-0.65,0.65-0.98,1.48-0.98,2.49c0,0.6,0.12,1.18,0.38,1.73c0.25,0.55,0.63,1.11,1.13,1.66L455.44,601.26z M454.61,640.55V607.9
				h11.54v32.65H454.61z"/>
			<path class="st18" d="M501.59,650.42v-53h11.46v53H501.59z"/>
			<path class="st18" d="M562.81,669.12c-3.37,0-6.5-0.48-9.39-1.43c-2.89-0.96-5.4-2.29-7.54-4c-2.14-1.71-3.81-3.71-5.01-5.99
				c-1.21-2.29-1.81-4.76-1.81-7.43c0-0.96,0.08-2.16,0.23-3.62s0.35-3.14,0.6-5.05c0.25-1.91,0.55-3.97,0.9-6.18l11.38,1.51
				c-0.5,3.12-0.89,5.84-1.17,8.18c-0.28,2.34-0.41,4.01-0.41,5.01c0,1.76,0.5,3.33,1.51,4.71c1,1.38,2.42,2.46,4.26,3.24
				c1.83,0.78,3.98,1.17,6.45,1.17h21.34c3.12,0,5.4-0.75,6.86-2.26c1.46-1.51,2.19-3.69,2.19-6.56v-2.94h11.54v2.87
				c0,3.67-0.85,6.91-2.56,9.73c-1.71,2.81-4.1,5.03-7.16,6.63c-3.07,1.61-6.69,2.41-10.86,2.41H562.81z M559.04,685.26v-9.2h11.01
				v9.2H559.04z M573.89,685.26v-9.2h11.01v9.2H573.89z M590.25,650.42c-2.51,0-4.9-0.29-7.16-0.87c-2.26-0.58-4.37-1.55-6.33-2.9
				l6.56-8.14c0.8,0.55,1.52,0.98,2.15,1.28s1.32,0.5,2.07,0.6c0.75,0.1,1.66,0.15,2.71,0.15h17.49v9.88H590.25z M607.75,650.42
				v-9.88c0.25,0,0.48,0.11,0.68,0.34c0.2,0.23,0.35,0.55,0.45,0.98c0.1,0.43,0.19,0.94,0.26,1.55c0.07,0.6,0.11,1.28,0.11,2.04
				s-0.04,1.45-0.11,2.07c-0.08,0.63-0.16,1.16-0.26,1.58c-0.1,0.43-0.25,0.75-0.45,0.98C608.22,650.31,608,650.42,607.75,650.42z"
				/>
			<path class="st18" d="M607.74,650.42c-0.25,0-0.48-0.11-0.68-0.34c-0.2-0.23-0.35-0.55-0.45-0.98c-0.1-0.43-0.19-0.95-0.26-1.58
				c-0.08-0.63-0.11-1.32-0.11-2.07c0-1,0.05-1.87,0.15-2.6c0.1-0.73,0.26-1.29,0.49-1.7c0.23-0.4,0.52-0.6,0.87-0.6V650.42z
				 M607.74,650.42v-9.88h34.23l-2.79,2.41v-22.54l2.34,1.96h-8.37c-1.96,0-3.51,0.26-4.64,0.79c-1.13,0.53-1.94,1.45-2.41,2.75
				c-0.48,1.31-0.72,3.17-0.72,5.58c0,2.67,0.24,4.64,0.72,5.92c0.48,1.28,1.28,2.12,2.41,2.53c1.13,0.4,2.68,0.6,4.64,0.6v9.12
				c-4.22,0-7.78-0.6-10.67-1.81c-2.89-1.21-5.05-3.15-6.48-5.84c-1.43-2.69-2.15-6.19-2.15-10.52c0-4.07,0.72-7.51,2.15-10.33
				c1.43-2.81,3.59-4.96,6.48-6.45c2.89-1.48,6.45-2.22,10.67-2.22h17.57v37.93H607.74z M628.4,605.49v-9.2h11.61v9.2H628.4z"/>
			<path class="st18" d="M698.52,669.12c-4.47,0-8.47-0.82-11.99-2.45c-3.52-1.63-6.28-3.88-8.29-6.75
				c-2.01-2.87-3.02-6.13-3.02-9.8c0-1,0.08-2.32,0.23-3.96c0.15-1.63,0.35-3.46,0.6-5.47c0.25-2.01,0.54-4.08,0.87-6.22
				s0.64-4.21,0.94-6.22l11.38,1.51c-0.5,3.37-0.94,6.42-1.32,9.16c-0.38,2.74-0.67,5.05-0.87,6.94c-0.2,1.88-0.3,3.28-0.3,4.18
				c0,1.86,0.45,3.48,1.36,4.86c0.9,1.38,2.24,2.45,4,3.2c1.76,0.75,3.89,1.13,6.41,1.13c2.66,0,4.77-0.39,6.33-1.17
				c1.56-0.78,2.66-1.81,3.32-3.09c0.65-1.28,0.98-2.73,0.98-4.33V612.5h11.54v38.15c0,3.72-0.96,6.96-2.87,9.73
				c-1.91,2.76-4.54,4.91-7.88,6.45C706.6,668.35,702.79,669.12,698.52,669.12z M692.26,608.88v-9.27h11.61v9.27H692.26z
				 M720.69,629.99v-9.95h15.76v9.95H720.69z M729.36,667.31v-9.2h11.01v9.2H729.36z M736.45,650.42V612.5h11.54v33.85l-6.94-5.81
				h16.74v9.88H736.45z M744.21,667.31v-9.2h11.01v9.2H744.21z M757.79,650.42v-9.88c0.3,0,0.54,0.11,0.72,0.34
				c0.18,0.23,0.33,0.55,0.45,0.98c0.12,0.43,0.21,0.94,0.26,1.55c0.05,0.6,0.08,1.28,0.08,2.04s-0.03,1.45-0.08,2.07
				c-0.05,0.63-0.14,1.16-0.26,1.58c-0.13,0.43-0.28,0.75-0.45,0.98C758.33,650.31,758.09,650.42,757.79,650.42z"/>
			<path class="st18" d="M757.79,650.42c-0.25,0-0.48-0.11-0.68-0.34c-0.2-0.23-0.35-0.55-0.45-0.98c-0.1-0.43-0.19-0.95-0.26-1.58
				c-0.08-0.63-0.11-1.32-0.11-2.07c0-1,0.05-1.87,0.15-2.6c0.1-0.73,0.26-1.29,0.49-1.7c0.23-0.4,0.52-0.6,0.87-0.6V650.42z
				 M757.79,650.42v-9.88h20.28l-7.01,5.81V612.5h11.54v37.93H757.79z M763.97,605.49v-9.2h11.01v9.2H763.97z M778.82,605.49v-9.2
				h11.01v9.2H778.82z"/>
			<path class="st18" d="M791.41,669.88c-0.55,0-1.23-0.04-2.04-0.11c-0.8-0.08-1.63-0.14-2.49-0.19l0.38-9.73
				c0.8,0,1.58,0.02,2.34,0.08c0.75,0.05,1.31,0.08,1.66,0.08c1.86,0,3.33-0.73,4.41-2.19c1.08-1.46,1.62-3.57,1.62-6.33V612.5
				h11.54v38.98c0,3.57-0.73,6.75-2.19,9.54c-1.46,2.79-3.49,4.96-6.11,6.52C797.92,669.1,794.88,669.88,791.41,669.88z
				 M806.94,650.42v-9.88h9.73v9.88H806.94z M816.67,650.42v-9.88c0.3,0,0.54,0.11,0.72,0.34c0.18,0.23,0.33,0.55,0.45,0.98
				c0.12,0.43,0.21,0.94,0.26,1.55c0.05,0.6,0.08,1.28,0.08,2.04s-0.03,1.45-0.08,2.07c-0.05,0.63-0.14,1.16-0.26,1.58
				c-0.13,0.43-0.28,0.75-0.45,0.98C817.21,650.31,816.97,650.42,816.67,650.42z"/>
			<path class="st18" d="M816.67,650.42c-0.25,0-0.48-0.11-0.68-0.34c-0.2-0.23-0.35-0.55-0.45-0.98c-0.1-0.43-0.19-0.95-0.26-1.58
				c-0.08-0.63-0.11-1.32-0.11-2.07c0-1,0.05-1.87,0.15-2.6c0.1-0.73,0.26-1.29,0.49-1.7c0.23-0.4,0.52-0.6,0.87-0.6V650.42z
				 M816.59,650.42v-9.88h38.45l-4.67,4.15v-13.04c0-2.46-0.26-4.37-0.79-5.73c-0.53-1.36-1.46-2.31-2.79-2.86
				c-1.33-0.55-3.18-0.83-5.54-0.83c-2.06,0-4.06,0.13-5.99,0.38c-1.94,0.25-3.46,0.6-4.56,1.06l7.16-6.63
				c-0.3,1.11-0.59,2.54-0.87,4.3c-0.28,1.76-0.5,3.61-0.68,5.54c-0.18,1.94-0.26,3.81-0.26,5.62c0,1.66,0.09,3.42,0.26,5.28
				c0.17,1.86,0.38,3.51,0.6,4.94c0.23,1.43,0.39,2.4,0.49,2.9l-10.93,3.09c-0.25-0.75-0.53-1.93-0.83-3.54
				c-0.3-1.61-0.55-3.51-0.75-5.69c-0.2-2.19-0.3-4.51-0.3-6.97s0.11-4.86,0.34-7.2c0.23-2.34,0.51-4.46,0.87-6.37
				c0.35-1.91,0.68-3.42,0.98-4.52c1.21-0.45,3.13-0.91,5.77-1.36c2.64-0.45,5.54-0.68,8.71-0.68c4.62,0,8.46,0.63,11.5,1.88
				c3.04,1.26,5.33,3.29,6.86,6.11c1.53,2.82,2.3,6.61,2.3,11.38v18.7H816.59z"/>
		</g>
	</g>
</g>
</svg>
