<svg id="Layer_1" data-name="Layer 1" xmlns="http://www.w3.org/2000/svg" viewBox="0 0 1080 768"><defs><style>.cls-1{fill:#a5a4a5;}.cls-2{fill:#fff;}.cls-3{fill:#e3eaff;}.cls-4{fill:#d82921;}.cls-5{fill:#8c8c8c;}.cls-6{fill:#c4204a;}.cls-7{fill:#e62552;}.cls-8{fill:#f99980;}.cls-9{fill:#de623c;}.cls-10{fill:#020205;}.cls-11{fill:#d84c4c;}.cls-12{fill:#faba23;}.cls-13{fill:#fad332;}.cls-14{fill:#191a1a;}.cls-15{fill:#faee6c;}</style></defs><rect class="cls-1" x="11" y="736.44" width="1058" height="25.14" rx="3.3"/><circle class="cls-1" cx="228.61" cy="124.88" r="35.17" transform="translate(90.33 345.65) rotate(-86.59)"/><path class="cls-2" d="M237.52,150.71l-2.7-6.13A19.35,19.35,0,0,1,224.35,146l-.33-4.71a17.6,17.6,0,0,0,9.89-1.24c4.31-1.9,6.13-5.67,4.6-9.13s-4.74-4.36-10-4.2c-7.26.3-12.31-.81-14.64-6.09-2.22-5-.32-10.44,4.86-13.81l-2.7-6.13L219.75,99l2.6,5.89a17.68,17.68,0,0,1,8.83-1.35l.24,4.67a16,16,0,0,0-8.55,1.31c-4.68,2.06-5.21,5.62-4.14,8,1.39,3.16,4.33,3.75,10.58,3.61,7.37-.21,11.92,1.56,14.3,7,2.11,4.8.75,10.76-5.05,14.55l2.78,6.31Z"/><path class="cls-1" d="M689.66,299.31l-24.1-27.06s8.86-19,34.88-19.67c16.13-.42,30.38-16.68,30.38-16.68L755,263.11s-15.67,22.29-34.12,22.46C701.41,285.74,689.66,299.31,689.66,299.31Z"/><path class="cls-3" d="M724.08,262c2.53,7-2,15-10.15,18s-16.77-.31-19.29-7.28,2-15,10.14-18S721.56,255,724.08,262Z"/><path class="cls-1" d="M956.55,240.6,942.2,198.35s-25.73-2-42.26,25.41c-10.25,17-36.32,22.41-36.32,22.41L878,288.64s33.41-3.24,44.8-22.9C934.88,245,956.55,240.6,956.55,240.6Z"/><path class="cls-3" d="M895.62,254.78c5.93,6.94,17.3,7,25.4,0s9.86-18.16,3.93-25.1-17.31-7-25.41,0S889.69,247.84,895.62,254.78Z"/><path class="cls-4" d="M875.42,704.16C869,731,846.21,716.22,851,733.17a3,3,0,0,0,2.84,2.14l13.4.51a6,6,0,0,0,3.64-1.05c7.07-4.84,11.87-11.66,27.14-12.49-.11-6.52.18-15.83-2-19.16Z"/><path class="cls-5" d="M910.75,516s-39,59.46-44.37,77.95,5.88,49.84,3.84,113c12.19,3.16,28.43.44,28.43.44s9.78-79.22-1.72-97.93c17.23-26.29,60.52-83.7,60.52-83.7Z"/><path class="cls-4" d="M932.37,712.8c-9.92,13.5-34.68,5.52-33.69,23.64,37.53-.6,53.13-.51,53.13-.51-.09-4.17-.93-14-1.83-17.91Z"/><path class="cls-1" d="M920.74,503.94S908.31,601,911.18,620s11.76,34,12.07,97.15c12.3,2.71,31.08,5.14,31.08,5.14s7.93-76.21-8.37-97.2c4.62-31.1,26.63-109.32,26.63-109.32Z"/><path class="cls-6" d="M857.06,461.24l-15.16-17a1.78,1.78,0,0,0-1.29-.59l-12.48-.07c-.36,0-1.46,2-1.22,2.23l10.69,9.5a.62.62,0,0,0,.19.12l18.33,6.8C856.51,462.35,857.33,461.54,857.06,461.24Z"/><path class="cls-7" d="M855.9,462.37l-14.44-16a1.82,1.82,0,0,0-1.29-.59l-12.87-.23a.41.41,0,0,0-.3.68l10.16,11.21a.41.41,0,0,0,.19.12l18.13,5.5A.41.41,0,0,0,855.9,462.37Z"/><path class="cls-8" d="M884.43,477,874,471.87s-10.3-10.42-11.83-12.75c-2.29-1.16-6.62-4.08-7.6-4.19a16.22,16.22,0,0,0-3,.19l4.84,5.5a7.77,7.77,0,0,1-5.23-1.41c-2.93-1.86-8.1-6.85-10.64-5.88l-.9.79s-1.6-1.71-3.1-1.07,1.49,8.16,10,16.13c.57,2.13,3.37,5.86,3.37,5.86l17.22,6Z"/><path class="cls-6" d="M839.11,448.77a1.25,1.25,0,1,0-.25-2A1.42,1.42,0,0,0,839.11,448.77Z"/><path class="cls-8" d="M957.48,400.26c-3.27,8.35-27.51,4-24.43,0,2-2.51,2-8.73,1.57-14.52-.5-6.29-1.61-12-1.61-12l22.11-4.73s.42,1.68.91,4.27C957.48,380.25,959.85,394.16,957.48,400.26Z"/><path class="cls-9" d="M956,373.2c-3.92,7-10.13,11.74-17.57,12.5a16.44,16.44,0,0,1-3.84,0c-.5-6.29-1.61-12-1.61-12l22.11-4.73S955.54,370.61,956,373.2Z"/><ellipse class="cls-8" cx="934.73" cy="352.86" rx="25.38" ry="32.32" transform="matrix(0.99, -0.1, 0.1, 0.99, -31.72, 99.48)"/><path d="M917.72,360.73a2.64,2.64,0,1,1-1.59-3.38A2.64,2.64,0,0,1,917.72,360.73Z"/><path d="M935.05,357a2.86,2.86,0,1,1-1.73-3.66A2.85,2.85,0,0,1,935.05,357Z"/><path class="cls-9" d="M922.77,360.18c-.56,4.16-1.34,9.28-1.34,9.28s2.73,2.89,7.27.89c-2.27.08-4.74-.36-5.11-3.25S922.77,360.18,922.77,360.18Z"/><path class="cls-10" d="M917,354.7a1,1,0,0,1-1,0,3,3,0,0,0-2.16-.18,3.31,3.31,0,0,0-1.73,2.12,1,1,0,1,1-1.9-.71,5.21,5.21,0,0,1,2.93-3.32,5,5,0,0,1,3.83.31,1,1,0,0,1,0,1.76Z"/><path class="cls-10" d="M930.13,351.81a1,1,0,0,0,1-.31,3,3,0,0,1,2-.88,3.29,3.29,0,0,1,2.33,1.43,1,1,0,0,0,1.43.14,1,1,0,0,0,.13-1.43,5.17,5.17,0,0,0-3.86-2.17,4.92,4.92,0,0,0-3.51,1.55,1,1,0,0,0,.07,1.43A.92.92,0,0,0,930.13,351.81Z"/><path class="cls-10" d="M954.79,361.48c-9.18-7.69-6.65-19.43-6.65-19.43-4.45.29-5.7,2.19-5.7,2.19-3.58-4.11-2.71-8-2.71-8-9.65-1.06-12.48,5.77-19.85,9.8-10.09,5.52-24.58,4.8-29.37-8a2.33,2.33,0,0,1,3-3,10.31,10.31,0,0,0,6.34.14,11,11,0,0,1-4-5.44A2.33,2.33,0,0,1,899,327c2.74,1.26,7.38,1.9,14.43-1.48,4.69-2.26,13.87-13.22,21.33-13.57,6.1-.29,12,3.38,15.84,9.87,0,0,14.55-2.35,20.17,12.85,5.51,14.92-15.17,38-15.17,38S957.22,363.85,954.79,361.48Z"/><path class="cls-2" d="M923.89,377.14a.78.78,0,0,1,.24-1.41,64.21,64.21,0,0,0,7-2.11,66.68,66.68,0,0,0,6.68-3,.77.77,0,0,1,1.1.9,9.7,9.7,0,0,1-15,5.64Z"/><path class="cls-8" d="M948.25,351c-3,2.94-3.45,7.32-1,9.76s6.79,2,9.78-.91,3.45-7.32,1-9.76S951.24,348.08,948.25,351Z"/><path class="cls-9" d="M951.16,359.53a.82.82,0,0,1-.36-.23,4.14,4.14,0,0,1-.91-5,4.42,4.42,0,0,1,4.62-2.22.92.92,0,0,1-.37,1.8,2.61,2.61,0,0,0-2.64,1.31,2.35,2.35,0,0,0,.63,2.86.91.91,0,0,1,0,1.29A.9.9,0,0,1,951.16,359.53Z"/><path class="cls-4" d="M906.08,523.08c17.31,3.53,48.42,9.63,64.88,3.21,6.23-8.94,7.81-59.5,7.81-59.5,1.8-52.05-4.44-59.77-18.52-77.21-5.9,2.72-20.69,5-27.19,5.08,0,0-14.73,20.45-17.6,35.3-2.91,15.05-3.24,41.82-3.51,57.16C911.65,504.14,908.28,512.36,906.08,523.08Z"/><path class="cls-11" d="M962.3,405.38c10.13,19.71,7.84,41.54-21.6,84.5-20.62-1.8-24.66-19-24.66-19s5.66-21.33,13-48.17S957.87,396.76,962.3,405.38Z"/><path class="cls-11" d="M872.3,466.79l44.14,3.52s18.93-3.45,24.26,19.57c-9.48,7.38-33.93,10.15-74.05-4.75C870.9,479.36,872.3,466.79,872.3,466.79Z"/><polygon class="cls-2" points="933.2 393.2 932.77 405.07 962.64 392.55 959.02 382.95 933.2 393.2"/><path class="cls-12" d="M269.44,272.65a39.4,39.4,0,1,1-20.28-51.89A39.39,39.39,0,0,1,269.44,272.65Z"/><path class="cls-13" d="M263,269.83c-7.78,18.26-31,25.08-47.46,14.05a32.45,32.45,0,0,1-14.18-32c3.06-21,26.06-33.28,45-24.72A32.43,32.43,0,0,1,263,269.83Z"/><path class="cls-12" d="M231.14,284.06l0-6.7A19.3,19.3,0,0,1,221,274.47l1.58-4.45a17.65,17.65,0,0,0,9.56,2.83c4.71,0,7.89-2.74,7.88-6.52s-2.61-5.9-7.52-7.88c-6.78-2.63-11-5.67-11-11.44,0-5.51,3.89-9.7,10-10.71l0-6.7h4.11l0,6.43a17.71,17.71,0,0,1,8.63,2.3l-1.65,4.38a16.06,16.06,0,0,0-8.36-2.23c-5.11,0-7,3.07-7,5.73,0,3.45,2.47,5.16,8.25,7.53,6.84,2.77,10.3,6.21,10.31,12.11,0,5.24-3.62,10.16-10.44,11.31l0,6.9Z"/><path class="cls-12" d="M371.94,157.36a39.4,39.4,0,1,1-20.29-51.89A39.41,39.41,0,0,1,371.94,157.36Z"/><path class="cls-13" d="M365.49,154.54c-7.77,18.26-31,25.08-47.45,14a32.43,32.43,0,0,1-14.19-32c3.06-21,26.07-33.28,45-24.72A32.44,32.44,0,0,1,365.49,154.54Z"/><path class="cls-12" d="M333.63,168.77l0-6.7a19.39,19.39,0,0,1-10.16-2.89l1.58-4.45a17.68,17.68,0,0,0,9.56,2.83c4.71,0,7.89-2.75,7.88-6.53s-2.6-5.89-7.52-7.87c-6.77-2.63-11-5.67-11-11.44,0-5.51,3.89-9.7,10-10.71l0-6.7h4.11l0,6.43a17.68,17.68,0,0,1,8.63,2.3l-1.64,4.38a16.1,16.1,0,0,0-8.37-2.23c-5.11,0-7,3.07-7,5.72,0,3.45,2.47,5.17,8.24,7.54,6.84,2.77,10.3,6.21,10.32,12.11,0,5.24-3.62,10.16-10.45,11.31l0,6.9Z"/><circle class="cls-12" cx="685.91" cy="107.65" r="39.4" transform="translate(-8.4 107.25) rotate(-8.89)"/><path class="cls-13" d="M715.56,120.63c-7.78,18.26-31,25.08-47.46,14.05a32.45,32.45,0,0,1-14.19-32c3.06-21,26.07-33.27,45-24.71A32.42,32.42,0,0,1,715.56,120.63Z"/><path class="cls-12" d="M683.69,134.86l0-6.7a19.17,19.17,0,0,1-10.15-2.89l1.58-4.44a17.71,17.71,0,0,0,9.56,2.82c4.71,0,7.88-2.74,7.87-6.52s-2.6-5.9-7.52-7.87c-6.77-2.64-11-5.68-11-11.45,0-5.5,3.88-9.69,10-10.71l0-6.7h4.12v6.44a17.66,17.66,0,0,1,8.63,2.29l-1.64,4.39a16,16,0,0,0-8.37-2.24c-5.1,0-7,3.08-7,5.73,0,3.45,2.47,5.17,8.25,7.54,6.84,2.76,10.3,6.2,10.31,12.11,0,5.24-3.62,10.16-10.45,11.3l0,6.9Z"/><path class="cls-12" d="M852.65,191a39.4,39.4,0,1,1-20.28-51.89A39.39,39.39,0,0,1,852.65,191Z"/><path class="cls-13" d="M846.21,188.2c-7.78,18.26-31,25.08-47.46,14.05a32.45,32.45,0,0,1-14.18-32c3.06-21,26.06-33.27,45-24.71A32.42,32.42,0,0,1,846.21,188.2Z"/><path class="cls-12" d="M814.35,202.43l0-6.7a19.3,19.3,0,0,1-10.16-2.89l1.58-4.45a17.65,17.65,0,0,0,9.56,2.83c4.71,0,7.89-2.74,7.88-6.52s-2.61-5.9-7.52-7.88c-6.78-2.63-11-5.67-11-11.44,0-5.51,3.89-9.7,10-10.71l0-6.7h4.11l0,6.43a17.82,17.82,0,0,1,8.63,2.3l-1.65,4.38a16.06,16.06,0,0,0-8.36-2.23c-5.11,0-7,3.07-7,5.73,0,3.45,2.47,5.16,8.25,7.54,6.84,2.76,10.3,6.2,10.31,12.11,0,5.24-3.61,10.16-10.44,11.3l0,6.9Z"/><path class="cls-12" d="M551.94,103.93A39.4,39.4,0,1,1,531.65,52,39.4,39.4,0,0,1,551.94,103.93Z"/><path class="cls-13" d="M545.49,101.11c-7.78,18.26-31,25.08-47.46,14a32.45,32.45,0,0,1-14.18-32c3.06-21,26.06-33.28,45-24.72A32.44,32.44,0,0,1,545.49,101.11Z"/><path class="cls-12" d="M513.63,115.34l0-6.7a19.3,19.3,0,0,1-10.16-2.89L505,101.3a17.68,17.68,0,0,0,9.56,2.83c4.71,0,7.89-2.74,7.88-6.53,0-3.64-2.61-5.89-7.52-7.87-6.77-2.63-11-5.67-11-11.44,0-5.51,3.89-9.7,10-10.71l0-6.7h4.11l0,6.43a17.71,17.71,0,0,1,8.63,2.3L525.06,74a16.1,16.1,0,0,0-8.37-2.23c-5.11,0-7,3.07-7,5.73,0,3.44,2.46,5.16,8.24,7.53,6.84,2.77,10.3,6.21,10.32,12.11,0,5.24-3.62,10.16-10.45,11.31l0,6.9Z"/><path class="cls-14" d="M842.47,371.34c-3.3,0-6-1.95-6-4.35,0-3.55-.13-7.13-.37-10.66-.17-2.4,2.36-4.45,5.65-4.57s6.1,1.72,6.27,4.13c.26,3.67.39,7.4.39,11.1C848.44,369.39,845.76,371.34,842.47,371.34Z"/><path class="cls-14" d="M839,338.55c-2.89,0-5.43-1.53-5.89-3.68a158.66,158.66,0,0,0-6.1-21.1c-.85-2.32,1-4.71,4.23-5.33s6.46.76,7.31,3.09a164.13,164.13,0,0,1,6.36,22c.51,2.38-1.72,4.6-5,5C839.59,338.53,839.28,338.55,839,338.55Zm-569.88-.18a7.54,7.54,0,0,1-.94-.06c-3.26-.37-5.48-2.6-5-5a167.28,167.28,0,0,1,6.39-22c.85-2.32,4.13-3.7,7.31-3.08s5.08,3,4.23,5.34A158.24,158.24,0,0,0,275,334.69C274.52,336.83,272,338.37,269.09,338.37Zm554.35-42.32c-2.41,0-4.67-1.07-5.58-2.8a185.57,185.57,0,0,0-12-19.71c-1.5-2.14-.34-4.76,2.6-5.85s6.53-.24,8,1.9A192.08,192.08,0,0,1,829,290.13c1.18,2.25-.36,4.77-3.44,5.63A8.16,8.16,0,0,1,823.44,296.05Zm-538.77-.17a7.88,7.88,0,0,1-2.14-.29c-3.07-.86-4.61-3.38-3.43-5.62a190.94,190.94,0,0,1,12.56-20.52c1.5-2.14,5.1-3,8-1.9s4.1,3.72,2.6,5.86a183.66,183.66,0,0,0-12,19.68C289.34,294.82,287.07,295.88,284.67,295.88Zm511.36-39a6.79,6.79,0,0,1-5-2,227.08,227.08,0,0,0-17.39-17.45c-2.08-1.87-1.69-4.61.88-6.12a7.58,7.58,0,0,1,8.4.64A235.32,235.32,0,0,1,801,250.12c1.8,2,1,4.72-1.75,6A7.69,7.69,0,0,1,796,256.85Zm-483.93-.12a7.63,7.63,0,0,1-3.26-.71c-2.76-1.31-3.54-4-1.74-6a235.51,235.51,0,0,1,18.14-18.17,7.58,7.58,0,0,1,8.4-.63c2.56,1.51,2.95,4.25.87,6.12a225.24,225.24,0,0,0-17.4,17.43A6.79,6.79,0,0,1,312.1,256.73Zm446-34.06a7.26,7.26,0,0,1-4.23-1.28c-6.94-5.07-14.34-9.93-22-14.44-2.56-1.52-3-4.26-.88-6.12a7.56,7.56,0,0,1,8.4-.64c8,4.7,15.65,9.76,22.89,15.05a3.58,3.58,0,0,1,0,6.15A7.25,7.25,0,0,1,758.06,222.67Zm-408-.1a7.25,7.25,0,0,1-4.22-1.27,3.59,3.59,0,0,1,0-6.16c7.25-5.28,15-10.34,22.91-15a7.6,7.6,0,0,1,8.4.64c2.07,1.87,1.68,4.61-.88,6.13-7.64,4.51-15,9.36-22,14.43A7.26,7.26,0,0,1,350.09,222.57ZM711.21,195a7.76,7.76,0,0,1-3.25-.7c-8.23-3.91-16.84-7.55-25.58-10.81-2.94-1.09-4.1-3.71-2.6-5.85s5.09-3,8-1.9c9.11,3.39,18.08,7.18,26.67,11.26,2.76,1.31,3.54,4,1.74,6A6.75,6.75,0,0,1,711.21,195ZM397,194.88a6.75,6.75,0,0,1-5-2c-1.8-2-1-4.71,1.75-6,8.6-4.07,17.58-7.86,26.69-11.25,2.94-1.09,6.54-.24,8,1.9s.33,4.76-2.61,5.85c-8.75,3.26-17.36,6.89-25.61,10.8A7.54,7.54,0,0,1,397,194.88ZM657.53,175a7.83,7.83,0,0,1-2.14-.29c-9.17-2.57-18.64-4.82-28.12-6.67-3.19-.62-5.08-3-4.22-5.33s4.12-3.7,7.31-3.08c9.89,1.93,19.75,4.27,29.32,6.95,3.07.86,4.61,3.38,3.43,5.63C662.19,173.9,659.93,175,657.53,175Zm-206.82-.06c-2.4,0-4.66-1.07-5.57-2.8-1.18-2.24.36-4.76,3.43-5.62,9.57-2.68,19.44-5,29.34-6.94,3.19-.62,6.46.76,7.31,3.09s-1,4.7-4.23,5.32c-9.49,1.85-19,4.09-28.14,6.66A8.18,8.18,0,0,1,450.71,174.9Zm148.57-11.32c-.31,0-.62,0-.94-.05-9.68-1.11-19.58-1.87-29.41-2.24-3.3-.13-5.83-2.17-5.66-4.57s3-4.25,6.28-4.13c10.24.39,20.56,1.18,30.65,2.34,3.26.37,5.48,2.6,5,5C604.71,162.05,602.17,163.58,599.28,163.58Zm-90.29,0c-2.89,0-5.43-1.53-5.89-3.68-.51-2.37,1.72-4.6,5-5,10.1-1.15,20.41-1.93,30.66-2.32,3.3-.11,6.1,1.73,6.27,4.13s-2.37,4.45-5.66,4.57c-9.84.37-19.73,1.11-29.42,2.22A7.25,7.25,0,0,1,509,163.55Z"/><path class="cls-14" d="M265.56,371.34c-3.3,0-6-1.95-6-4.35,0-3.69.13-7.43.39-11.1.17-2.41,3-4.26,6.27-4.13s5.83,2.17,5.66,4.57c-.25,3.53-.37,7.11-.37,10.66C271.53,369.39,268.85,371.34,265.56,371.34Z"/><path class="cls-14" d="M875.32,367.12a5,5,0,0,0-3.33-1.27,5.1,5.1,0,0,0-4.11,2.11l-25.44,34.51-25.65-37.69a5.12,5.12,0,0,0-4.22-2.28,5,5,0,0,0-3.18,1.14,5.64,5.64,0,0,0-1,7.5l29.72,43.65a5.15,5.15,0,0,0,4.16,2.29h.06a5.13,5.13,0,0,0,4.11-2.11l29.7-40.3A5.66,5.66,0,0,0,875.32,367.12Z"/><path class="cls-13" d="M615.7,409.48v7.38a5.23,5.23,0,0,1-5.23,5.23H520.29a5.23,5.23,0,0,1-5.23-5.23v-7.38a5.23,5.23,0,0,1,5.23-5.23h90.18a5.21,5.21,0,0,1,5.23,5.23Z"/><rect class="cls-12" x="520.06" y="404.25" width="2.62" height="17.84"/><rect class="cls-12" x="531.05" y="404.25" width="2.62" height="17.84"/><rect class="cls-12" x="542.03" y="404.25" width="2.62" height="17.84"/><rect class="cls-12" x="553.02" y="404.25" width="2.62" height="17.84"/><rect class="cls-12" x="564" y="404.25" width="2.62" height="17.84"/><rect class="cls-12" x="574.99" y="404.25" width="2.62" height="17.84"/><rect class="cls-12" x="585.97" y="404.25" width="2.62" height="17.84"/><rect class="cls-12" x="596.96" y="404.25" width="2.62" height="17.84"/><rect class="cls-12" x="607.94" y="404.25" width="2.62" height="17.84"/><path class="cls-12" d="M614.47,406.1H516.3a5.22,5.22,0,0,1,4-1.85h90.18A5.24,5.24,0,0,1,614.47,406.1Z"/><path class="cls-12" d="M614.47,420.24H516.3a5.22,5.22,0,0,0,4,1.85h90.18A5.24,5.24,0,0,0,614.47,420.24Z"/><path class="cls-13" d="M622,391.63V399a5.23,5.23,0,0,1-5.23,5.23H526.6a5.23,5.23,0,0,1-5.23-5.23v-7.39a5.25,5.25,0,0,1,5.23-5.23h90.18a5.23,5.23,0,0,1,5.23,5.23Z"/><rect class="cls-12" x="526.37" y="386.4" width="2.62" height="17.84"/><rect class="cls-12" x="537.36" y="386.4" width="2.62" height="17.84"/><rect class="cls-12" x="548.34" y="386.4" width="2.62" height="17.84"/><rect class="cls-12" x="559.33" y="386.4" width="2.62" height="17.84"/><rect class="cls-12" x="570.31" y="386.4" width="2.62" height="17.84"/><rect class="cls-12" x="581.29" y="386.4" width="2.62" height="17.84"/><rect class="cls-12" x="592.28" y="386.4" width="2.62" height="17.84"/><rect class="cls-12" x="603.26" y="386.4" width="2.62" height="17.84"/><rect class="cls-12" x="614.25" y="386.4" width="2.62" height="17.84"/><path class="cls-12" d="M620.78,388.26H522.61a5.2,5.2,0,0,1,4-1.86h90.18A5.23,5.23,0,0,1,620.78,388.26Z"/><path class="cls-12" d="M620.78,402.39H522.61a5.2,5.2,0,0,0,4,1.86h90.18A5.23,5.23,0,0,0,620.78,402.39Z"/><path class="cls-13" d="M617.12,373.82v7.39a5.23,5.23,0,0,1-5.23,5.22H521.71a5.23,5.23,0,0,1-5.23-5.22v-7.39a5.23,5.23,0,0,1,5.23-5.23h90.18a5.23,5.23,0,0,1,5.23,5.23Z"/><rect class="cls-12" x="521.48" y="368.59" width="2.62" height="17.84"/><rect class="cls-12" x="532.46" y="368.59" width="2.62" height="17.84"/><rect class="cls-12" x="543.45" y="368.59" width="2.62" height="17.84"/><rect class="cls-12" x="554.43" y="368.59" width="2.62" height="17.84"/><rect class="cls-12" x="565.42" y="368.59" width="2.62" height="17.84"/><rect class="cls-12" x="576.4" y="368.59" width="2.62" height="17.84"/><rect class="cls-12" x="587.39" y="368.59" width="2.62" height="17.84"/><rect class="cls-12" x="598.37" y="368.59" width="2.62" height="17.84"/><rect class="cls-12" x="609.36" y="368.59" width="2.62" height="17.84"/><path class="cls-12" d="M615.88,370.44H517.72a5.22,5.22,0,0,1,4-1.85h90.18A5.22,5.22,0,0,1,615.88,370.44Z"/><path class="cls-12" d="M615.88,384.58H517.72a5.22,5.22,0,0,0,4,1.85h90.18A5.22,5.22,0,0,0,615.88,384.58Z"/><path class="cls-13" d="M619.13,356.33v7.39A5.23,5.23,0,0,1,613.9,369H523.72a5.24,5.24,0,0,1-5.23-5.23v-7.39a5.23,5.23,0,0,1,5.23-5.23H613.9a5.21,5.21,0,0,1,5.23,5.23Z"/><rect class="cls-12" x="523.49" y="351.1" width="2.62" height="17.84"/><rect class="cls-12" x="534.48" y="351.1" width="2.62" height="17.84"/><rect class="cls-12" x="545.46" y="351.1" width="2.62" height="17.84"/><rect class="cls-12" x="556.45" y="351.1" width="2.62" height="17.84"/><rect class="cls-12" x="567.43" y="351.1" width="2.62" height="17.84"/><rect class="cls-12" x="578.42" y="351.1" width="2.62" height="17.84"/><rect class="cls-12" x="589.4" y="351.1" width="2.62" height="17.84"/><rect class="cls-12" x="600.39" y="351.1" width="2.62" height="17.84"/><rect class="cls-12" x="611.37" y="351.1" width="2.62" height="17.84"/><path class="cls-12" d="M617.9,353H519.73a5.22,5.22,0,0,1,4-1.85H613.9A5.24,5.24,0,0,1,617.9,353Z"/><path class="cls-12" d="M617.9,367.09H519.73a5.2,5.2,0,0,0,4,1.86H613.9A5.22,5.22,0,0,0,617.9,367.09Z"/><path class="cls-13" d="M607.89,338.22v7.39a5.23,5.23,0,0,1-5.23,5.22H512.48a5.23,5.23,0,0,1-5.23-5.22v-7.39a5.23,5.23,0,0,1,5.23-5.23h90.18a5.21,5.21,0,0,1,5.23,5.23Z"/><rect class="cls-12" x="512.25" y="332.99" width="2.62" height="17.84"/><rect class="cls-12" x="523.24" y="332.99" width="2.62" height="17.84"/><rect class="cls-12" x="534.22" y="332.99" width="2.62" height="17.84"/><rect class="cls-12" x="545.21" y="332.99" width="2.62" height="17.84"/><rect class="cls-12" x="556.19" y="332.99" width="2.62" height="17.84"/><rect class="cls-12" x="567.17" y="332.99" width="2.62" height="17.84"/><rect class="cls-12" x="578.16" y="332.99" width="2.62" height="17.84"/><rect class="cls-12" x="589.14" y="332.99" width="2.62" height="17.84"/><rect class="cls-12" x="600.13" y="332.99" width="2.62" height="17.84"/><path class="cls-12" d="M606.66,334.84H508.49a5.22,5.22,0,0,1,4-1.85h90.18A5.26,5.26,0,0,1,606.66,334.84Z"/><path class="cls-12" d="M606.66,349H508.49a5.22,5.22,0,0,0,4,1.85h90.18A5.26,5.26,0,0,0,606.66,349Z"/><path class="cls-13" d="M619,320.58V328a5.23,5.23,0,0,1-5.23,5.23H523.54a5.23,5.23,0,0,1-5.22-5.23v-7.39a5.23,5.23,0,0,1,5.22-5.23h90.18a5.23,5.23,0,0,1,5.23,5.23Z"/><rect class="cls-12" x="523.31" y="315.35" width="2.62" height="17.84"/><rect class="cls-12" x="534.3" y="315.35" width="2.62" height="17.84"/><rect class="cls-12" x="545.28" y="315.35" width="2.62" height="17.84"/><rect class="cls-12" x="556.27" y="315.35" width="2.62" height="17.84"/><rect class="cls-12" x="567.25" y="315.35" width="2.62" height="17.84"/><rect class="cls-12" x="578.24" y="315.35" width="2.62" height="17.84"/><rect class="cls-12" x="589.22" y="315.35" width="2.62" height="17.84"/><rect class="cls-12" x="600.21" y="315.35" width="2.62" height="17.84"/><rect class="cls-12" x="611.19" y="315.35" width="2.62" height="17.84"/><path class="cls-12" d="M617.72,317.21H519.55a5.2,5.2,0,0,1,4-1.86h90.18A5.22,5.22,0,0,1,617.72,317.21Z"/><path class="cls-12" d="M617.72,331.34H519.55a5.2,5.2,0,0,0,4,1.86h90.18A5.22,5.22,0,0,0,617.72,331.34Z"/><path class="cls-13" d="M615,302.68v7.39a5.23,5.23,0,0,1-5.23,5.23H519.62a5.23,5.23,0,0,1-5.23-5.23v-7.39a5.23,5.23,0,0,1,5.23-5.22H609.8a5.23,5.23,0,0,1,5.23,5.22Z"/><rect class="cls-12" x="519.39" y="297.46" width="2.62" height="17.84"/><rect class="cls-12" x="530.37" y="297.46" width="2.62" height="17.84"/><rect class="cls-12" x="541.36" y="297.46" width="2.62" height="17.84"/><rect class="cls-12" x="552.34" y="297.46" width="2.62" height="17.84"/><rect class="cls-12" x="563.33" y="297.46" width="2.62" height="17.84"/><rect class="cls-12" x="574.31" y="297.46" width="2.62" height="17.84"/><rect class="cls-12" x="585.3" y="297.46" width="2.62" height="17.84"/><rect class="cls-12" x="596.28" y="297.46" width="2.62" height="17.84"/><rect class="cls-12" x="607.27" y="297.46" width="2.62" height="17.84"/><path class="cls-12" d="M613.79,299.31H515.63a5.19,5.19,0,0,1,4-1.85H609.8A5.19,5.19,0,0,1,613.79,299.31Z"/><path class="cls-12" d="M613.79,313.45H515.63a5.22,5.22,0,0,0,4,1.85H609.8A5.22,5.22,0,0,0,613.79,313.45Z"/><path class="cls-13" d="M620.42,284.94v7.39a5.23,5.23,0,0,1-5.23,5.22H525a5.23,5.23,0,0,1-5.23-5.22v-7.39a5.17,5.17,0,0,1,1.24-3.38,5.22,5.22,0,0,1,4-1.85h90.18a5.23,5.23,0,0,1,5.23,5.23Z"/><rect class="cls-12" x="524.78" y="279.71" width="2.62" height="17.84"/><rect class="cls-12" x="535.76" y="279.71" width="2.62" height="17.84"/><rect class="cls-12" x="546.75" y="279.71" width="2.62" height="17.84"/><rect class="cls-12" x="557.73" y="279.71" width="2.62" height="17.84"/><rect class="cls-12" x="568.72" y="279.71" width="2.62" height="17.84"/><rect class="cls-12" x="579.7" y="279.71" width="2.62" height="17.84"/><rect class="cls-12" x="590.69" y="279.71" width="2.62" height="17.84"/><rect class="cls-12" x="601.67" y="279.71" width="2.62" height="17.84"/><rect class="cls-12" x="612.66" y="279.71" width="2.62" height="17.84"/><path class="cls-12" d="M619.18,281.56H521a5.22,5.22,0,0,1,4-1.85h90.18A5.22,5.22,0,0,1,619.18,281.56Z"/><path class="cls-12" d="M619.18,295.7H521a5.22,5.22,0,0,0,4,1.85h90.18A5.22,5.22,0,0,0,619.18,295.7Z"/><circle class="cls-12" cx="517.03" cy="369.1" r="53.82" transform="matrix(0.95, -0.31, 0.31, 0.95, -89.58, 180.49)"/><path class="cls-13" d="M559.1,382.68a44.22,44.22,0,0,1-55.66,28.49,45.66,45.66,0,0,1-6.92-2.9,43.86,43.86,0,0,1-10-7.13,44.82,44.82,0,0,1-3.14-3.33,44.22,44.22,0,0,1,60.92-63.5q1.8,1.43,3.45,3a44.3,44.3,0,0,1,11.32,45.36Z"/><path class="cls-15" d="M544.33,334.31l-60.92,63.5a44.27,44.27,0,0,1-10.54-31l40-41.71a44.44,44.44,0,0,1,31.45,9.24Z"/><path class="cls-15" d="M555.31,347l-58.79,61.28a43.86,43.86,0,0,1-10-7.13l61.23-63.82A44.23,44.23,0,0,1,555.31,347Z"/><path class="cls-2" d="M520,327.08c-5.22-.55-6.17,0-8.52,4.6.58-5.16.07-6.12-4.6-8.53,5.23.55,6.18,0,8.52-4.59C514.85,323.78,515.36,324.73,520,327.08Z"/><path class="cls-2" d="M501.51,410.11c-4.41-.46-5.21,0-7.19,3.88.49-4.35.06-5.15-3.88-7.19,4.41.47,5.21,0,7.19-3.88C497.17,407.33,497.6,408.13,501.51,410.11Z"/><path class="cls-12" d="M613.53,226.64l-24.78-13.33-2.1,3.9h0c-1,1.88,3.75,6.41,10.63,10.11s13.28,5.17,14.29,3.29C611.67,230.44,613.53,226.64,613.53,226.64Z"/><path class="cls-13" d="M613.56,226.92c-1,1.88-7.42.41-14.3-3.29s-11.64-8.23-10.63-10.11,7.42-.41,14.3,3.29S614.57,225,613.56,226.92Z"/><path class="cls-12" d="M503.4,276.72l-25.08,4.08c.21,1.31.43,2.63.64,3.94h0c.31,1.91,6.21,2.54,13.17,1.41s12.36-3.6,12.05-5.5C504.15,280.47,503.4,276.72,503.4,276.72Z"/><path class="cls-13" d="M503.58,276.91c.31,1.91-5.09,4.37-12.05,5.5s-12.87.51-13.18-1.4,5.09-4.37,12-5.5S503.27,275,503.58,276.91Z"/><path class="cls-12" d="M533.37,232.72l-22.8-11.23c-.59,1.2-1.18,2.39-1.76,3.59h0c-.86,1.73,3.58,5.66,9.91,8.78s12.16,4.24,13,2.51C531.81,236.21,533.37,232.72,533.37,232.72Z"/><path class="cls-13" d="M533.4,233c-.85,1.73-6.68.61-13-2.51s-10.77-7.05-9.91-8.78,6.67-.61,13,2.5S534.26,231.24,533.4,233Z"/><path class="cls-12" d="M499.39,190.37l-26.26,4.26c.23,1.38.45,2.76.67,4.13h0c.33,2,6.5,2.66,13.79,1.47s12.94-3.76,12.62-5.76C500.18,194.29,499.39,190.37,499.39,190.37Z"/><path class="cls-13" d="M499.57,190.57c.32,2-5.32,4.57-12.61,5.75s-13.47.53-13.79-1.47,5.32-4.57,12.61-5.75S499.25,188.57,499.57,190.57Z"/><path class="cls-2" d="M160.89,444a31.94,31.94,0,1,1-43.34-12.7A31.93,31.93,0,0,1,160.89,444Z"/><path class="cls-1" d="M142.94,482,140,476.68a17.6,17.6,0,0,1-9.36,2.1l-.67-4.24a16,16,0,0,0,8.86-1.89c3.75-2,5.1-5.6,3.45-8.61s-4.63-3.58-9.41-3c-6.54.84-11.2.23-13.72-4.37-2.39-4.39-1.1-9.42,3.33-12.87l-2.92-5.34,3.28-1.79,2.8,5.13a16.07,16.07,0,0,1,7.88-1.91l.59,4.21a14.5,14.5,0,0,0-7.64,1.84c-4.07,2.23-4.27,5.5-3.12,7.61,1.5,2.75,4.21,3.05,9.85,2.44,6.65-.76,10.9.49,13.48,5.19,2.28,4.18,1.51,9.68-3.44,13.55l3,5.5Z"/><path class="cls-2" d="M444.34,59.93A31.94,31.94,0,1,1,401,47.24,32,32,0,0,1,444.34,59.93Z"/><path class="cls-1" d="M426.38,97.93l-2.92-5.34a17.45,17.45,0,0,1-9.35,2.1l-.67-4.23a16.2,16.2,0,0,0,8.85-1.89c3.75-2,5.1-5.61,3.46-8.62s-4.64-3.58-9.41-3c-6.55.83-11.21.22-13.72-4.38-2.4-4.38-1.1-9.42,3.33-12.87L403,54.34l3.27-1.79,2.81,5.13A16,16,0,0,1,417,55.77l.58,4.21a14.57,14.57,0,0,0-7.64,1.85c-4.07,2.22-4.27,5.49-3.11,7.6,1.5,2.75,4.21,3.06,9.84,2.44,6.66-.75,10.91.49,13.48,5.2,2.29,4.17,1.52,9.67-3.43,13.54l3,5.5Z"/><path class="cls-1" d="M846.52,67.51a31.94,31.94,0,1,1-42.1-16.36A31.94,31.94,0,0,1,846.52,67.51Z"/><path class="cls-2" d="M825.38,103.83l-2.45-5.57a17.46,17.46,0,0,1-9.5,1.29l-.31-4.27a16,16,0,0,0,9-1.13c3.92-1.72,5.57-5.15,4.18-8.29s-4.31-4-9.11-3.81c-6.6.27-11.18-.74-13.3-5.53-2-4.58-.29-9.48,4.42-12.54l-2.45-5.57,3.41-1.51,2.36,5.35a16,16,0,0,1,8-1.23l.23,4.25a14.59,14.59,0,0,0-7.77,1.18c-4.25,1.87-4.73,5.11-3.76,7.32,1.26,2.86,3.94,3.4,9.6,3.27,6.7-.19,10.83,1.42,13,6.32,1.92,4.36.68,9.77-4.58,13.21l2.52,5.73Z"/><path class="cls-1" d="M114.39,318.29,135.47,279s25.72,2.2,37.52,32c7.32,18.48,32.16,28.06,32.16,28.06L184,378.56s-32.42-8.68-40.43-29.94C135.05,326.14,114.39,318.29,114.39,318.29Z"/><path class="cls-3" d="M172.17,342.27c-7,5.88-18.21,4-25.07-4.12s-6.74-19.53.25-25.41,18.21-4,25.06,4.13S179.16,336.4,172.17,342.27Z"/><path class="cls-1" d="M590.24,62.73l-21.4-24s7.88-16.86,31-17.46c14.33-.37,27-14.81,27-14.81l21.51,24.16S634.39,50.38,618,50.52A39.69,39.69,0,0,0,590.24,62.73Z"/><path class="cls-3" d="M620.82,29.55c2.24,6.19-1.79,13.33-9,16s-14.9-.28-17.14-6.47,1.79-13.33,9-15.94S618.57,23.36,620.82,29.55Z"/><path class="cls-4" d="M287.46,448.25A53.25,53.25,0,1,1,234.21,395a53.25,53.25,0,0,1,53.25,53.25"/><path class="cls-4" d="M287,501.51A53.26,53.26,0,1,0,287,395Z"/><path class="cls-2" d="M206.83,447.88a27.57,27.57,0,0,1,27.41-27.41c14.41,0,26.33,11.34,27.29,24.85h-13a14.22,14.22,0,0,0-14.28-11.91,14.48,14.48,0,0,0,0,28.95,14.23,14.23,0,0,0,14.28-12h13.07c-1,13.57-12.87,24.91-27.35,24.91a27.51,27.51,0,0,1-27.41-27.35"/><path class="cls-14" d="M345.7,567.92a28,28,0,0,1-11.95-2.45,20.23,20.23,0,0,1-8.26-6.72,16.56,16.56,0,0,1-3-9.77c0-1,.08-2.31.23-3.94s.35-3.45.6-5.45.54-4.07.86-6.2.64-4.19.94-6.2l11.35,1.51c-.5,3.35-.94,6.4-1.32,9.13s-.66,5-.86,6.91-.3,3.27-.3,4.17a8.28,8.28,0,0,0,5.33,8,16.21,16.21,0,0,0,6.39,1.12,14.22,14.22,0,0,0,6.31-1.16,7.1,7.1,0,0,0,3.3-3.08,9.28,9.28,0,0,0,1-4.32v-53h11.5v53a16.65,16.65,0,0,1-2.86,9.69,18.72,18.72,0,0,1-7.85,6.42A27,27,0,0,1,345.7,567.92Z"/><path class="cls-14" d="M379.51,549.28V496.47h11.42v52.81Z"/><path class="cls-14" d="M416.17,568.67a43.87,43.87,0,0,1-5.93-.42c-2.06-.27-4.21-.66-6.47-1.16l1.73-9.17q3.69.45,6.28.68c1.72.15,3.19.23,4.39.23,3.41,0,5.86-.61,7.36-1.81a6.58,6.58,0,0,0,2.26-5.48V519.68l2.33,1.65h-8.34a12.64,12.64,0,0,0-4.29.64,4.59,4.59,0,0,0-2.59,2.63,22.2,22.2,0,0,0-.11,11.84,4,4,0,0,0,2.48,2.44,15.05,15.05,0,0,0,4.51.56h6v9.84h-6a24.79,24.79,0,0,1-10.63-2,13.54,13.54,0,0,1-6.47-6.16,22.47,22.47,0,0,1-2.14-10.36,23.69,23.69,0,0,1,2.14-10.6,14.2,14.2,0,0,1,6.47-6.46,23.46,23.46,0,0,1,10.63-2.18h17.5v40a15.84,15.84,0,0,1-2.63,9.13,16.7,16.7,0,0,1-7.36,5.93A27.58,27.58,0,0,1,416.17,568.67Zm21.11-19.39v-9.84h7.82v9.84Zm7.82,0v-9.84a.85.85,0,0,1,.71.34,2.72,2.72,0,0,1,.45,1,7.44,7.44,0,0,1,.26,1.54c.05.6.08,1.27.08,2s0,1.44-.08,2.07a7.64,7.64,0,0,1-.26,1.58,2.89,2.89,0,0,1-.45,1A.86.86,0,0,1,445.1,549.28Z"/><path class="cls-14" d="M445.1,549.28a.91.91,0,0,1-.68-.33,2.29,2.29,0,0,1-.45-1,13.67,13.67,0,0,1-.26-1.58,16.38,16.38,0,0,1-.12-2.07,19.34,19.34,0,0,1,.15-2.59,5,5,0,0,1,.49-1.69,1,1,0,0,1,.87-.6Zm-.08,0v-9.84h38.32l-4.66,4.13v-13a16.2,16.2,0,0,0-.79-5.71,4.84,4.84,0,0,0-2.78-2.86,14.84,14.84,0,0,0-5.52-.83,46.2,46.2,0,0,0-6,.38,18.84,18.84,0,0,0-4.55,1.05l7.14-6.61a42.18,42.18,0,0,0-.87,4.28c-.27,1.76-.5,3.6-.67,5.52s-.26,3.8-.26,5.6.08,3.41.26,5.26.37,3.49.6,4.92.39,2.39.49,2.89l-10.9,3.08A29.11,29.11,0,0,1,454,544q-.45-2.4-.75-5.67c-.21-2.18-.31-4.49-.31-7s.12-4.84.34-7.17.52-4.45.87-6.35.67-3.41,1-4.51a34.79,34.79,0,0,1,5.75-1.35,51.56,51.56,0,0,1,8.68-.68,30.24,30.24,0,0,1,11.46,1.88,13.27,13.27,0,0,1,6.83,6.09q2.3,4.2,2.3,11.34v18.63Z"/><path class="cls-14" d="M498.21,549.28v-9.84h38.7l-5.41,5.41V496.47H543v52.81Zm5.94-48.23v-5.86h19.38v5.86Zm4.81-.75a16.89,16.89,0,0,1-2.29-3.46,7.86,7.86,0,0,1-.79-3.46,8.68,8.68,0,0,1,1.42-4.92,10.38,10.38,0,0,1,3.76-3.38,10.78,10.78,0,0,1,5.11-1.24,12.31,12.31,0,0,1,3.16.42,8,8,0,0,1,2.63,1.16l-2.71,5a4.92,4.92,0,0,0-1.39-.53,6.79,6.79,0,0,0-1.39-.15,3.77,3.77,0,0,0-2.78,1,3.35,3.35,0,0,0-1,2.47,4.12,4.12,0,0,0,.38,1.73,6.53,6.53,0,0,0,1.13,1.66Zm-.83,39.14V506.91h11.5v32.53Z"/><path class="cls-14" d="M554.94,549.28V496.47h11.42v52.81Z"/><path class="cls-14" d="M615.49,567.92a28,28,0,0,1-11.94-2.45,20.26,20.26,0,0,1-8.27-6.72,16.62,16.62,0,0,1-3-9.77c0-1,.07-2.31.22-3.94s.35-3.45.6-5.45.54-4.07.87-6.2.64-4.19.94-6.2l11.34,1.51c-.5,3.35-.94,6.4-1.31,9.13s-.67,5-.87,6.91-.3,3.27-.3,4.17a8.27,8.27,0,0,0,5.34,8,16.19,16.19,0,0,0,6.38,1.12,14.19,14.19,0,0,0,6.31-1.16,7.08,7.08,0,0,0,3.31-3.08,9.41,9.41,0,0,0,1-4.32v-53h11.49v53a16.64,16.64,0,0,1-2.85,9.69,18.78,18.78,0,0,1-7.85,6.42A27,27,0,0,1,615.49,567.92Zm22.09-18.64v-9.84h7.89v9.84Zm7.89,0v-9.84a.88.88,0,0,1,.68.34,2.18,2.18,0,0,1,.45,1,13.57,13.57,0,0,1,.26,1.54,15.47,15.47,0,0,1,.11,2,16.49,16.49,0,0,1-.11,2.07,13.67,13.67,0,0,1-.26,1.58,2.29,2.29,0,0,1-.45,1A.91.91,0,0,1,645.47,549.28Z"/><path class="cls-14" d="M645.47,549.28a.91.91,0,0,1-.68-.33,2.29,2.29,0,0,1-.45-1,13.67,13.67,0,0,1-.26-1.58,16.49,16.49,0,0,1-.11-2.07,19.34,19.34,0,0,1,.15-2.59,5,5,0,0,1,.48-1.69,1,1,0,0,1,.87-.6Zm0,0v-9.84h20.21l-7,5.79V511.49h11.5v37.79Zm2.63,16.83V557h11v9.16Zm14.8,0V557h11v9.16Z"/><path class="cls-14" d="M694.08,568.67a44,44,0,0,1-5.94-.42q-3.07-.4-6.46-1.16l1.73-9.17c2.45.3,4.55.53,6.27.68s3.2.23,4.4.23c3.4,0,5.86-.61,7.36-1.81a6.6,6.6,0,0,0,2.26-5.48V519.68l2.32,1.65h-8.34a12.57,12.57,0,0,0-4.28.64,4.56,4.56,0,0,0-2.59,2.63,22.2,22.2,0,0,0-.11,11.84,3.93,3.93,0,0,0,2.48,2.44,15,15,0,0,0,4.5.56h6v9.84h-6a24.83,24.83,0,0,1-10.63-2,13.52,13.52,0,0,1-6.46-6.16,22.35,22.35,0,0,1-2.14-10.36,23.55,23.55,0,0,1,2.14-10.6,14.18,14.18,0,0,1,6.46-6.46,23.49,23.49,0,0,1,10.63-2.18h17.51v40a15.91,15.91,0,0,1-2.63,9.13,16.76,16.76,0,0,1-7.36,5.93A27.62,27.62,0,0,1,694.08,568.67Zm21.11-19.39v-9.84H723v9.84Zm7.81,0v-9.84a.86.86,0,0,1,.72.34,3.1,3.1,0,0,1,.45,1,8.18,8.18,0,0,1,.26,1.54c.05.6.08,1.27.08,2s0,1.44-.08,2.07a8.37,8.37,0,0,1-.26,1.58,3.33,3.33,0,0,1-.45,1A.88.88,0,0,1,723,549.28Z"/><path class="cls-14" d="M723,549.28a.89.89,0,0,1-.67-.33,2.29,2.29,0,0,1-.45-1,15.92,15.92,0,0,1-.27-1.58,18.63,18.63,0,0,1-.11-2.07,19.34,19.34,0,0,1,.15-2.59,4.8,4.8,0,0,1,.49-1.69,1,1,0,0,1,.86-.6Zm0,0v-9.84h32l-4,3.08V530.35a8.22,8.22,0,0,0-2.71-6.65c-1.8-1.53-4.71-2.29-8.71-2.29-1.1,0-2.58.07-4.44.22s-3.88.38-6.08.68l-1.05-9q3.15-.75,6.42-1.27a40.1,40.1,0,0,1,6.35-.53A26.13,26.13,0,0,1,752,513.78a18.57,18.57,0,0,1,7.71,6.47,17.64,17.64,0,0,1,2.81,10.1v18.93Zm39.52,0v-9.84h7.89v9.84Zm7.89,0v-9.84a.88.88,0,0,1,.68.34,2.18,2.18,0,0,1,.45,1,13.57,13.57,0,0,1,.26,1.54,15.35,15.35,0,0,1,.12,2,16.38,16.38,0,0,1-.12,2.07,13.67,13.67,0,0,1-.26,1.58,2.29,2.29,0,0,1-.45,1A.91.91,0,0,1,770.41,549.28Z"/><path class="cls-14" d="M770.41,549.28a.89.89,0,0,1-.67-.33,2.29,2.29,0,0,1-.45-1,15.92,15.92,0,0,1-.27-1.58,18.63,18.63,0,0,1-.11-2.07,19.34,19.34,0,0,1,.15-2.59,4.8,4.8,0,0,1,.49-1.69,1,1,0,0,1,.86-.6Zm0,0v-9.84h20.21l-7,5.79V511.49h11.49v37.79Zm6.16-44.78v-9.16h11v9.16Zm14.8,0v-9.16h11v9.16Z"/><path class="cls-14" d="M286.53,663.86a27.62,27.62,0,0,1-11.08-2.07,16.76,16.76,0,0,1-7.4-5.89,17.3,17.3,0,0,1,0-18.34,16.76,16.76,0,0,1,7.4-5.89,27.62,27.62,0,0,1,11.08-2.07h14.35v9.84H286.53c-3.35,0-5.8.6-7.32,1.8a7.69,7.69,0,0,0,0,11c1.52,1.21,4,1.81,7.32,1.81,1.2,0,2.68-.07,4.43-.19s3.84-.34,6.24-.64l1.73,9.17q-3.39.67-6.46,1.09A45.77,45.77,0,0,1,286.53,663.86Zm-9.62-25.92a26.46,26.46,0,0,1-5.59-7.59,19.25,19.25,0,0,1-1.84-8.34,19.5,19.5,0,0,1,1.72-8.3,20.39,20.39,0,0,1,4.66-6.42,20.71,20.71,0,0,1,6.76-4.17,22.49,22.49,0,0,1,8.12-1.47,25.65,25.65,0,0,1,4.73.45,35.34,35.34,0,0,1,4.66,1.2l-3.23,9.32a23.67,23.67,0,0,0-2.93-.83,13.5,13.5,0,0,0-2.78-.3,10.57,10.57,0,0,0-5.45,1.35,9.62,9.62,0,0,0-3.57,3.65,10.88,10.88,0,0,0-1.27,5.37,11.51,11.51,0,0,0,1.09,5,14.83,14.83,0,0,0,3.19,4.36Z"/><path class="cls-14" d="M324.4,658.83a44,44,0,0,1-5.94-.42c-2-.27-4.21-.66-6.46-1.16l1.73-9.17q3.67.45,6.27.68c1.73.15,3.2.22,4.4.22,3.4,0,5.86-.6,7.36-1.8A6.6,6.6,0,0,0,334,641.7V609.84l2.33,1.65H328a12.57,12.57,0,0,0-4.28.64,4.53,4.53,0,0,0-2.59,2.63,22.16,22.16,0,0,0-.11,11.83A3.92,3.92,0,0,0,323.5,629a15,15,0,0,0,4.5.56h6v9.84h-6a24.83,24.83,0,0,1-10.63-2,13.52,13.52,0,0,1-6.46-6.16,22.36,22.36,0,0,1-2.14-10.37,23.54,23.54,0,0,1,2.14-10.59,14.18,14.18,0,0,1,6.46-6.46A23.49,23.49,0,0,1,328,601.65h17.51V641.7a15.86,15.86,0,0,1-2.63,9.12,16.77,16.77,0,0,1-7.36,5.94A27.62,27.62,0,0,1,324.4,658.83Zm21.11-19.39V629.6h7.81v9.84Zm7.81,0V629.6a.86.86,0,0,1,.72.34,3.15,3.15,0,0,1,.45,1,8.33,8.33,0,0,1,.26,1.54c.05.61.08,1.28.08,2s0,1.44-.08,2.07a8.37,8.37,0,0,1-.26,1.58,3.15,3.15,0,0,1-.45,1A.86.86,0,0,1,353.32,639.44Z"/><path class="cls-14" d="M353.32,639.44a.85.85,0,0,1-.71-.34,2.44,2.44,0,0,1-.41-1,15.92,15.92,0,0,1-.27-1.58,18.76,18.76,0,0,1-.11-2.07,19.34,19.34,0,0,1,.15-2.59,4.8,4.8,0,0,1,.49-1.69,1,1,0,0,1,.86-.6Zm0,0V629.6h14.8l-7,5.78V601.65h11.49v37.79Zm7.82,16.83V647.1h11.57v9.17Zm11.49-16.83V629.6h7.89v9.84Zm7.89,0V629.6a.88.88,0,0,1,.68.34,2.19,2.19,0,0,1,.45,1,14,14,0,0,1,.26,1.54,15.73,15.73,0,0,1,.11,2,16.59,16.59,0,0,1-.11,2.07,13.67,13.67,0,0,1-.26,1.58,2.19,2.19,0,0,1-.45,1A.88.88,0,0,1,380.52,639.44Z"/><path class="cls-14" d="M380.52,639.44a.88.88,0,0,1-.68-.34,2.19,2.19,0,0,1-.45-1c-.1-.43-.18-1-.26-1.58a18.76,18.76,0,0,1-.11-2.07,19.34,19.34,0,0,1,.15-2.59,4.8,4.8,0,0,1,.49-1.69,1,1,0,0,1,.86-.6Zm0,0V629.6h10.89l-2.4,2.55V609.39h11.5v30.05Zm20,0V629.6h5.33a7.34,7.34,0,0,0,3.57-.71,4.24,4.24,0,0,0,1.73-2.93,34.55,34.55,0,0,0,.48-6.73v-13.6h11.5v13.6a30.09,30.09,0,0,1-1.88,11.53,12.93,12.93,0,0,1-5.67,6.58,20,20,0,0,1-9.73,2.1Zm25.77,0a17.73,17.73,0,0,1-6.5-1.24,19.29,19.29,0,0,1-5.9-3.64l7-7.22a10.59,10.59,0,0,0,2.7,1.7,7.07,7.07,0,0,0,2.71.56h14.35l-6.24,5.56v-16.3c0-.76-.09-1.94-.26-3.57s-.43-3.48-.75-5.56-.69-4.2-1.09-6.35l11.27-1.73q.53,2.7,1.05,6.09t.9,6.38a40.84,40.84,0,0,1,.38,4.74v20.58Z"/><path class="cls-14" d="M453.92,639.44V629.6h38.7L487.21,635V586.62H498.7v52.82Zm5.94-48.23v-5.86h19.38v5.86Zm4.81-.75a16.89,16.89,0,0,1-2.29-3.46,7.86,7.86,0,0,1-.79-3.46,8.61,8.61,0,0,1,1.43-4.92,10.18,10.18,0,0,1,3.75-3.38,10.78,10.78,0,0,1,5.11-1.24,12.31,12.31,0,0,1,3.16.42,8,8,0,0,1,2.63,1.16l-2.71,5a4.89,4.89,0,0,0-1.39-.52,6.79,6.79,0,0,0-1.39-.15,3.76,3.76,0,0,0-2.78,1,3.38,3.38,0,0,0-1,2.48,4.15,4.15,0,0,0,.38,1.73,6.48,6.48,0,0,0,1.13,1.65Zm-.83,39.14V597.07h11.5V629.6Z"/><path class="cls-14" d="M510.65,639.44V586.62h11.42v52.82Z"/><path class="cls-14" d="M571.65,658.07a29.69,29.69,0,0,1-9.35-1.42,24,24,0,0,1-7.51-4,19,19,0,0,1-5-6,15.63,15.63,0,0,1-1.8-7.4c0-.95.07-2.15.22-3.61s.35-3.13.6-5,.55-4,.9-6.16l11.35,1.5q-.75,4.66-1.16,8.15a48,48,0,0,0-.42,5,7.82,7.82,0,0,0,1.5,4.7,10,10,0,0,0,4.25,3.23,16.46,16.46,0,0,0,6.42,1.16h21.27q4.65,0,6.83-2.25c1.46-1.5,2.18-3.68,2.18-6.54v-2.93h11.5v2.86a18.35,18.35,0,0,1-2.56,9.69,17.82,17.82,0,0,1-7.14,6.61,23,23,0,0,1-10.81,2.4Zm-3.75,16.08V665h11v9.16Zm14.8,0V665h11v9.16ZM599,639.44a29.1,29.1,0,0,1-7.14-.86,19.53,19.53,0,0,1-6.31-2.9l6.54-8.11a16.2,16.2,0,0,0,2.14,1.28,6.82,6.82,0,0,0,2.07.6,20.81,20.81,0,0,0,2.7.15h17.43v9.84Zm17.43,0V629.6a.88.88,0,0,1,.68.34,2.19,2.19,0,0,1,.45,1,14,14,0,0,1,.26,1.54,15.73,15.73,0,0,1,.11,2,16.59,16.59,0,0,1-.11,2.07,13.67,13.67,0,0,1-.26,1.58,2.19,2.19,0,0,1-.45,1A.88.88,0,0,1,616.43,639.44Z"/><path class="cls-14" d="M599.15,639.44a.87.87,0,0,1-.67-.34,2.2,2.2,0,0,1-.46-1c-.1-.43-.18-1-.26-1.58a18.76,18.76,0,0,1-.11-2.07,19.34,19.34,0,0,1,.15-2.59,4.8,4.8,0,0,1,.49-1.69,1,1,0,0,1,.86-.6Zm0,0V629.6h34.11l-2.78,2.4V609.54l2.33,2h-8.34a11.07,11.07,0,0,0-4.62.79,4.59,4.59,0,0,0-2.4,2.74,16.81,16.81,0,0,0-.72,5.56,17.92,17.92,0,0,0,.72,5.9,3.92,3.92,0,0,0,2.4,2.52,14.28,14.28,0,0,0,4.62.6v9.09a27.67,27.67,0,0,1-10.63-1.8,12.62,12.62,0,0,1-6.46-5.83,22.2,22.2,0,0,1-2.14-10.48,22.5,22.5,0,0,1,2.14-10.29,14.44,14.44,0,0,1,6.46-6.42,23.06,23.06,0,0,1,10.63-2.22H642v37.79Zm20.59-44.78V585.5h11.57v9.16Z"/><path class="cls-14" d="M689.61,658.07a28,28,0,0,1-12-2.44,20.31,20.31,0,0,1-8.26-6.72,16.56,16.56,0,0,1-3-9.77c0-1,.08-2.32.23-3.94s.35-3.45.6-5.45.54-4.07.86-6.2.64-4.19.94-6.2l11.35,1.51q-.75,5-1.32,9.12t-.86,6.92q-.3,2.8-.3,4.17a8.26,8.26,0,0,0,5.33,8,16.06,16.06,0,0,0,6.39,1.13,14.36,14.36,0,0,0,6.31-1.16,7.22,7.22,0,0,0,3.31-3.08,9.4,9.4,0,0,0,1-4.32v-38h11.5v38a16.6,16.6,0,0,1-2.86,9.69,18.87,18.87,0,0,1-7.85,6.42A27,27,0,0,1,689.61,658.07Zm-6.24-60V588.8h11.57V598Zm28.33,21v-9.92h15.7v9.92Zm8.64,37.19V647.1h11v9.17Zm7.06-16.83V601.65h11.5v33.73L732,629.6h16.68v9.84Zm7.74,16.83V647.1h11v9.17Zm13.52-16.83V629.6a.86.86,0,0,1,.72.34,3.15,3.15,0,0,1,.45,1,8.33,8.33,0,0,1,.26,1.54c0,.61.08,1.28.08,2s0,1.44-.08,2.07a8.37,8.37,0,0,1-.26,1.58,3.15,3.15,0,0,1-.45,1A.86.86,0,0,1,748.66,639.44Z"/><path class="cls-14" d="M748.66,639.44a.87.87,0,0,1-.67-.34,2.19,2.19,0,0,1-.45-1,15.92,15.92,0,0,1-.27-1.58,18.76,18.76,0,0,1-.11-2.07,19.34,19.34,0,0,1,.15-2.59,4.8,4.8,0,0,1,.49-1.69,1,1,0,0,1,.86-.6Zm0,0V629.6h20.21l-7,5.78V601.65h11.49v37.79Zm6.16-44.78V585.5h11v9.16Zm14.8,0V585.5h11v9.16Z"/><path class="cls-14" d="M782.17,658.83c-.55,0-1.23,0-2-.12s-1.63-.14-2.48-.18l.38-9.7c.8,0,1.58,0,2.33.08s1.3.07,1.65.07a5.18,5.18,0,0,0,4.4-2.18,10.51,10.51,0,0,0,1.61-6.31V601.65h11.5v38.84a20.26,20.26,0,0,1-2.18,9.51,16.18,16.18,0,0,1-6.09,6.5A17.42,17.42,0,0,1,782.17,658.83Zm15.48-19.39V629.6h9.69v9.84Zm9.69,0V629.6a.83.83,0,0,1,.71.34,2.74,2.74,0,0,1,.45,1,7.51,7.51,0,0,1,.27,1.54c.05.61.07,1.28.07,2s0,1.44-.07,2.07a7.57,7.57,0,0,1-.27,1.58,2.74,2.74,0,0,1-.45,1A.83.83,0,0,1,807.34,639.44Z"/><path class="cls-14" d="M807.34,639.44a.88.88,0,0,1-.68-.34,2.19,2.19,0,0,1-.45-1,13.67,13.67,0,0,1-.26-1.58,16.5,16.5,0,0,1-.12-2.07,19.18,19.18,0,0,1,.16-2.59,5,5,0,0,1,.48-1.69,1,1,0,0,1,.87-.6Zm-.08,0V629.6h38.32l-4.66,4.13v-13a16.27,16.27,0,0,0-.79-5.71,4.85,4.85,0,0,0-2.78-2.85,14.8,14.8,0,0,0-5.52-.83,46.43,46.43,0,0,0-6,.38,18.84,18.84,0,0,0-4.55,1l7.14-6.61a39.9,39.9,0,0,0-.86,4.28c-.28,1.75-.51,3.6-.68,5.52s-.26,3.8-.26,5.6.08,3.41.26,5.26.38,3.49.6,4.92.39,2.39.49,2.89l-10.89,3.08a26.94,26.94,0,0,1-.83-3.53q-.45-2.4-.75-5.67t-.3-7c0-2.45.11-4.85.33-7.18s.52-4.44.87-6.34.68-3.41,1-4.51a34.36,34.36,0,0,1,5.74-1.35,51.65,51.65,0,0,1,8.68-.68,30.24,30.24,0,0,1,11.46,1.88,13.36,13.36,0,0,1,6.84,6.08q2.28,4.21,2.29,11.35v18.63Z"/></svg>