<svg id="Layer_1" data-name="Layer 1" xmlns="http://www.w3.org/2000/svg" xmlns:xlink="http://www.w3.org/1999/xlink" viewBox="0 0 1080 768"><defs><style>.cls-1,.cls-19,.cls-27,.cls-29,.cls-33,.cls-35,.cls-5,.cls-9{fill:none;}.cls-2{fill:#191a1a;}.cls-3{fill:#c1c6d7;}.cls-4{fill:#a5a4a5;}.cls-35,.cls-5{stroke:#fff;}.cls-33,.cls-5{stroke-linecap:round;stroke-linejoin:round;}.cls-5{stroke-width:0.86px;}.cls-6{fill:#d82921;}.cls-7{fill:#a6a6a6;}.cls-8{fill:#8a8a8a;}.cls-9{stroke:#d46b2b;stroke-width:2.08px;opacity:0.51;}.cls-19,.cls-27,.cls-29,.cls-35,.cls-9{stroke-miterlimit:10;}.cls-10,.cls-12{fill:#fff;}.cls-11{fill:#ffa463;}.cls-12{opacity:0.41;}.cls-13{fill:#f8695c;}.cls-14{fill:#00add1;}.cls-15{fill:#00cef8;}.cls-16{clip-path:url(#clip-path);}.cls-17{fill:#ff989f;}.cls-18{fill:#0083a0;}.cls-19{stroke:#625b5a;stroke-width:2.22px;}.cls-20{fill:#ffb2b8;}.cls-21{fill:#00438c;}.cls-22{fill:#ff8e3c;}.cls-23{fill:#5c83ef;}.cls-24{fill:#d2bfff;}.cls-25{fill:#625b5a;}.cls-26{fill:#3757c0;}.cls-27{stroke:#8a8a8a;}.cls-28{fill:#72aabe;}.cls-29{stroke:#ffa463;stroke-width:1.89px;}.cls-30{fill:#ef6256;}.cls-31{fill:#eb523d;}.cls-32{fill:#5c78d9;}.cls-33{stroke:#0083a0;stroke-width:0.83px;}.cls-34{fill:#d84c4c;}</style><clipPath id="clip-path"><path class="cls-1" d="M741.56,400.64a10.24,10.24,0,0,1-10.23-10.23V324a10.24,10.24,0,0,1,10.23-10.22H768.9A82.16,82.16,0,0,1,808.76,324c20.68,11.51,49.87,32,71.43,64.17a8,8,0,0,1-6.62,12.5Z"/></clipPath></defs><path class="cls-2" d="M807.47,593.35c-51.42-4.5-103.18-6.4-154.43-12.48-36.44-4.32-86.82-14.17-120.38,6.8,20.76,8.38,43.93,8.21,64.64,17.44,3.47,1.55,3.39,7.49,0,9.06-25.21,11.66-57.76,10.32-84.82,10.93-86.12,1.92-172.25-3.22-258.36-.17-34.92,1.24-70.86,2.91-104.9,11.48C199.91,720.84,318.49,770,602.39,765.89c228-3.29,391.76-35.17,467-150.5C982,610.09,894.76,601,807.47,593.35Z"/><path class="cls-3" d="M1072.31,617.12H125.54a3.62,3.62,0,0,1-3.69-3.53h0a3.62,3.62,0,0,1,3.69-3.53h946.77a3.61,3.61,0,0,1,3.69,3.53h0A3.61,3.61,0,0,1,1072.31,617.12Z"/><path class="cls-4" d="M1058.26,253.86h-54.91a16.2,16.2,0,0,0-14.11,8.32V130.05a8.45,8.45,0,0,0-8.45-8.45H923.25a8.45,8.45,0,0,0-8.45,8.45V239.32H899V32a6.75,6.75,0,0,0-6.75-6.75H855.1A6.76,6.76,0,0,0,848.34,32V239.32H835.93v14.86a16.44,16.44,0,0,0-3.16-.32H777.85a16.18,16.18,0,0,0-14.1,8.32V130.05a8.45,8.45,0,0,0-8.45-8.45H697.76a8.45,8.45,0,0,0-8.45,8.45V239.32H673.49V161.37a6.76,6.76,0,0,0-6.76-6.75H629.6a6.75,6.75,0,0,0-6.75,6.75v77.95h-36V130.05a8.45,8.45,0,0,0-8.45-8.45H520.86a8.45,8.45,0,0,0-8.45,8.45V254.18a16.21,16.21,0,0,0-3.13-.32H454.36a16.16,16.16,0,0,0-9.13,2.81V206.45A16.26,16.26,0,0,0,429,190.2H374.06a16.26,16.26,0,0,0-16.25,16.25v52.13a16.16,16.16,0,0,0-11.44-4.72H291.45a16.15,16.15,0,0,0-11.8,5.14V54.29a6.76,6.76,0,0,0-6.76-6.75H235.76A6.75,6.75,0,0,0,229,54.29v96.63H175.52a16.24,16.24,0,0,0-16.25,16.25V485.61H275.21v1h87.41v-6.74h75.49v6.74H575v4.26h47.84v6.56h50.64v-6.56h24.36v-4.26H835.93v4.26h87.42v-4.26h151.16V270.11A16.25,16.25,0,0,0,1058.26,253.86Z"/><path class="cls-5" d="M965.62,531.76s8,12.25,42.06,7.78"/><path class="cls-5" d="M1000.69,500.76s9.72,13.57-1.16,30"/><path class="cls-6" d="M1026.67,453.68c-.05-12.79-8.26-24.54-21.4-30.65L925,386.82,808.53,303.65l-65.28-42a58.92,58.92,0,0,0-33.61-10.47H321.23a32.14,32.14,0,0,0-32.15,32.15V525.47a32.14,32.14,0,0,0,32.15,32.15H768.87v0H992.52A34.44,34.44,0,0,0,1027,523Z"/><rect class="cls-7" x="987.79" y="531.95" width="41.02" height="25.72" rx="1.71"/><path class="cls-8" d="M873.57,404.22h-132a13.82,13.82,0,0,1-13.81-13.81V324a13.81,13.81,0,0,1,13.81-13.8H768.9a85.57,85.57,0,0,1,41.6,10.66C830.82,332.15,861,353,883.17,386.15A11.6,11.6,0,0,1,873.57,404.22Z"/><path class="cls-7" d="M741.56,400.64a10.24,10.24,0,0,1-10.23-10.23V324a10.24,10.24,0,0,1,10.23-10.22H768.9A82.16,82.16,0,0,1,808.76,324c20.68,11.51,49.87,32,71.43,64.17a8,8,0,0,1-6.62,12.5Z"/><path class="cls-9" d="M699.12,558.07V293.23H511.05v149.7S529,510.74,529,558.71"/><polygon class="cls-7" points="835.94 541.53 465.5 541.53 465.5 558.07 769.02 558.07 769.02 558.04 835.94 558.04 835.94 541.53"/><path class="cls-10" d="M312.58,306.83H788s-7.67-9.12-30.22-14.88H315.45Z"/><path class="cls-7" d="M818.75,528.49,550,516.62a5.74,5.74,0,0,1-4.46-2.46l-4.71-6.81a5.72,5.72,0,0,1,5-9l242,12.38c11.54.59,22.59,5.93,29.33,15.32C817.71,526.85,818.24,527.65,818.75,528.49Z"/><path class="cls-7" d="M505.78,455H340.51a3,3,0,0,1-3-3h0a3,3,0,0,1,3-3H505.78a3,3,0,0,1,3,3h0A3,3,0,0,1,505.78,455Z"/><path class="cls-11" d="M867.53,396.94a4.14,4.14,0,0,1,5.08-3.62c2.34.53,4.93,1.72,6.19,4.31,2.36,4.87,2.72,16.42-3.78,24.11a5.18,5.18,0,0,1-5,1.65l-1.28-.28a4.11,4.11,0,0,1-3.24-4.41Z"/><path class="cls-12" d="M971.65,454.14l-7.16-10.74S542,411.19,317.42,414.77v9.54S808.2,436.24,971.65,454.14Z"/><path class="cls-13" d="M981.21,558a77.22,77.22,0,0,0-154.43,0Z"/><path class="cls-13" d="M480.47,558A77.22,77.22,0,0,0,326,558Z"/><path class="cls-8" d="M684.45,414H652.71a2.85,2.85,0,0,1-2.85-2.84h0a2.85,2.85,0,0,1,2.85-2.84h31.74a2.84,2.84,0,0,1,2.84,2.84h0A2.84,2.84,0,0,1,684.45,414Z"/><path class="cls-8" d="M746.58,414H714.84a2.84,2.84,0,0,1-2.84-2.84h0a2.84,2.84,0,0,1,2.84-2.84h31.74a2.84,2.84,0,0,1,2.84,2.84h0A2.84,2.84,0,0,1,746.58,414Z"/><path class="cls-14" d="M961.66,417s27.33,6.35,38.29,10c0,0,15.46,4.89,19.24,24.51a4.77,4.77,0,0,1-5.46,5.62L994.62,454a4.79,4.79,0,0,1-3.27-2.2A154.34,154.34,0,0,0,961.66,417Z"/><path class="cls-15" d="M1004.5,431.66c-3.58-2.8-12.12-5.41-15.7-5.41,9.28,4.8,20.06,19.84,21.92,26.85C1019.52,450,1011.65,437,1004.5,431.66Z"/><g class="cls-16"><path class="cls-17" d="M764.37,391.53a3.93,3.93,0,0,0,1.49-.1c.78.43,3.73-2.92,2.85-4.41a3.74,3.74,0,0,0-.43-1.27,4.16,4.16,0,0,0-.62-.83l-.12-.13a2,2,0,0,0-.27-.22,2.27,2.27,0,0,0-.23-.17l-.07,0,.11.07.39.2.89.44c.62.29,1.27.57,1.92.86,1.31.56,2.64,1.1,4,1.66,2.69,1.09,5.42,2.11,8.16,3.14s5.5,2,8.28,3L799,396.6l-.51-.09a52.09,52.09,0,0,0,9.78.58,32,32,0,0,0,9.35-2.09,74.44,74.44,0,0,0,9.06-4.27c3-1.6,5.88-3.39,8.78-5.19l1.52,2.2c-2.79,2.05-5.58,4.09-8.52,6a71.24,71.24,0,0,1-9.22,5.18,36.09,36.09,0,0,1-10.5,3.08A56.31,56.31,0,0,1,798,402h-.15l-.35-.08c-2.89-.71-5.78-1.42-8.65-2.2s-5.75-1.57-8.62-2.41-5.72-1.75-8.57-2.72c-1.43-.48-2.86-1-4.29-1.55-.71-.28-1.43-.56-2.16-.87l-1.12-.49-.61-.29-.38-.2-.31-.18-.34-.24a3.47,3.47,0,0,1-.29-.25l-.14-.13a4.61,4.61,0,0,1-.62-.85,3.81,3.81,0,0,1-.45-1.29c-.87-1.49,2.09-4.85,2.87-4.41a4.09,4.09,0,0,1,1.52-.11Z"/><path class="cls-18" d="M767,377.47c3.3,1.3,24.14,7.74,32.23,13.36l.11,17.29c-16.88-.3-36.57-9.66-39.95-11.47Z"/><path class="cls-17" d="M834.21,383.56s3.18-5.7,4.55-6.37,7.84,2,9.11,4.7-3.18,8.38-10,7.15S834.21,383.56,834.21,383.56Z"/><path class="cls-19" d="M859.78,391.56C854.63,403,846.27,410,841.1,407.21s-5.19-14.38-.05-25.84,13.51-18.46,18.68-15.64S864.92,380.11,859.78,391.56Z"/><path class="cls-17" d="M845.39,379.42a6,6,0,0,0-1.53-.94,6.38,6.38,0,0,0-1.75-.51,7.31,7.31,0,0,0-1.81,0,9.09,9.09,0,0,0-1.77.41h0a.75.75,0,0,1-1-.49.76.76,0,0,1,.49-1h.05a10.07,10.07,0,0,1,2.12-.33,8.15,8.15,0,0,1,2.14.17,7.5,7.5,0,0,1,2,.73,6.86,6.86,0,0,1,1.75,1.27.49.49,0,0,1,0,.69.5.5,0,0,1-.66,0Z"/><path class="cls-17" d="M846.1,383a5.72,5.72,0,0,0-1-.92,6.24,6.24,0,0,0-1.19-.71,6.47,6.47,0,0,0-2.72-.6h0a.5.5,0,0,1-.5-.51.51.51,0,0,1,.48-.5,7.52,7.52,0,0,1,4.67,1.29,7,7,0,0,1,1.29,1.11.67.67,0,1,1-1,.9l0,0Z"/><path class="cls-17" d="M845.59,384.7a5.36,5.36,0,0,0-1.09-.75,6.14,6.14,0,0,0-1.28-.52,6.46,6.46,0,0,0-2.77-.15h0a.49.49,0,0,1-.57-.42.51.51,0,0,1,.39-.57,7.53,7.53,0,0,1,3.24,0,6.68,6.68,0,0,1,1.56.53,6.59,6.59,0,0,1,1.45.89.68.68,0,0,1,.09,1,.67.67,0,0,1-1,.09l0,0Z"/><path class="cls-17" d="M844.82,387.28l-5.64-1.4h0a.62.62,0,0,1,.29-1.2l5.76,1.31a.67.67,0,1,1-.3,1.31h-.06Z"/><path class="cls-17" d="M843.27,390.13l-5.68-1.56a.57.57,0,0,1-.4-.71.57.57,0,0,1,.67-.42h0l5.74,1.16h0a.79.79,0,0,1-.31,1.54Z"/><path class="cls-20" d="M776.24,372.24s-2.23,3.17-3.57,10.05a3.34,3.34,0,0,1-3.34,2.73,16.27,16.27,0,0,1-7-1.57A3.3,3.3,0,0,1,761,379c2.82-5.56,5.89-15.48,5.89-15.48Z"/><path class="cls-20" d="M768,363.56l1.94,6.5s10.73,6,12.92,5.46c1.93-.48,4-6.87,5.49-9.92,1.42-2.82,4.16-3.26,3.26-4.82s-2.33-2.56-3.37-5,.83-8.23-1.9-12.36c-3.69-5.57-11.76-10.12-23.61-1.29C754.63,348.15,756.82,364.9,768,363.56Z"/><path class="cls-21" d="M774.33,354.6l-.46,4a1.46,1.46,0,0,1-1.47,1.3h-1.61a11.1,11.1,0,0,0-1.91,4.86,5,5,0,0,1-3.8,4l-.74.16s-7.2-5-6.84-19.34,21.51-18.59,29.84-8c0,0,1.55,4.77-8.28,7.51A6.45,6.45,0,0,0,774.33,354.6Z"/><path class="cls-22" d="M757.64,349.35a12.11,12.11,0,0,1,.06-12.26c3.23-5.8,16.46-9.48,21.22-7.91,7.53,2.48,10.2,9.66,9.35,10.37C786,341.44,771.11,348.52,757.64,349.35Z"/><path class="cls-23" d="M765.3,347.17c.38.3.79.59,1.19.86a56.3,56.3,0,0,1-8.85,1.32,9.76,9.76,0,0,1-.65-1.05A28.86,28.86,0,0,0,765.3,347.17Z"/><path class="cls-23" d="M765.41,348.21s14.11,1.85,24.14-1.78a30.1,30.1,0,0,0,5-2.36c5.31-3.11,6.86-4.49,7-5.05a2.24,2.24,0,0,0-.57-1.58c-.95-.89-3.94.1-10.34,3.73-8.28,4.7-25.76,6.06-25.76,6.06Z"/><path class="cls-24" d="M764.92,347.23s14.11,1.85,24.14-1.78a30.57,30.57,0,0,0,5.05-2.36c5.3-3.11,6.85-4.49,7-5,.51-2-5.57-1.08-12.85.31C788.26,338.35,783.78,343.26,764.92,347.23Z"/><path class="cls-24" d="M765.73,331.36l.32-.12a2.43,2.43,0,0,1,1.09-.72,2.87,2.87,0,0,1,1.36-.17l.32-.11.18.36h0l0,0c.18.36-.37.9-1.22,1.21s-1.69.27-1.87-.09a0,0,0,0,1,0,0h0Z"/><path class="cls-23" d="M765.73,331.36c.18.36,1,.4,1.87.09s1.4-.85,1.22-1.21-1-.41-1.87-.1S765.55,331,765.73,331.36Z"/><path class="cls-20" d="M770.4,355.79a5,5,0,0,0-3.26-1,3.33,3.33,0,0,0-3,4.13,6.38,6.38,0,0,0,4.37,4.93c1,.32,2.09.28,2.56-.44C771.1,362.91,770.79,359.93,770.4,355.79Z"/><path class="cls-14" d="M780.5,416.16A52.55,52.55,0,0,0,783,400.29c-.57-3.58-3.68-9.53-7.45-17.3a13.14,13.14,0,0,0-7.08-6.7c-7.21-2.68-15.15,1.62-20,12.27-3.31,7.26-12.26,48.61-11,76.25.17,3.91,2.4,7.35,6.31,7.31a111.83,111.83,0,0,0,35.45-6.4,7.72,7.72,0,0,0,4.77-9.77C781.32,448.19,776.19,430.41,780.5,416.16Z"/><path class="cls-20" d="M849.52,401.58c-3.57,1.36-7.16,2.7-10.79,3.95s-7.32,2.32-11.06,3.31-7.56,1.76-11.4,2.38q-2.88.45-5.76.8l-2.87.33c-1,.1-2,.18-3,.23A32.45,32.45,0,0,1,792.23,411a42.48,42.48,0,0,1-10.73-5.92c-6.31-4.55-12.14-9.12-18.4-13.28a3.24,3.24,0,0,1,3.55-5.43h0c3.24,2.09,6.44,4.27,9.56,6.52s6.13,4.63,9.13,6.8a41.78,41.78,0,0,0,9,5.33,26.14,26.14,0,0,0,10,1.57c.89,0,1.79-.06,2.69-.11l2.82-.19q2.81-.19,5.58-.5c3.7-.4,7.37-1,11.05-1.71s7.37-1.51,11-2.41,7.34-1.84,11-2.76h0a1.39,1.39,0,0,1,1.69,1A1.4,1.4,0,0,1,849.52,401.58Z"/><path class="cls-20" d="M860.15,401.71l1.63-3.2a1,1,0,0,0-.17-1.15l-3.84-4q-.62-.16-1.26-.3a8.87,8.87,0,0,0-10.33,6.43c-.83,3.09-1.36,6.37.23,6.41,2.81.07,7.15.27,9.61-1.1A21,21,0,0,0,860.15,401.71Z"/><path class="cls-20" d="M856.79,388.08a11.08,11.08,0,0,0-2.07,2.09,10.41,10.41,0,0,0-1.43,2.53,9.17,9.17,0,0,0-.68,2.75,10.93,10.93,0,0,0,.07,2.8v.08a1.39,1.39,0,0,1-1.22,1.54,1.37,1.37,0,0,1-1.53-1.21,1.15,1.15,0,0,1,0-.18,13.7,13.7,0,0,1,.38-3.44,11.6,11.6,0,0,1,1.26-3.19,12.37,12.37,0,0,1,2-2.66,11.93,11.93,0,0,1,2.64-2,.53.53,0,0,1,.72.2.52.52,0,0,1-.14.68Z"/><path class="cls-20" d="M854.64,399.85a9.23,9.23,0,0,0,2.22,0,11.79,11.79,0,0,0,2.24-.54,11.43,11.43,0,0,0,2.1-1,13.76,13.76,0,0,0,1.9-1.36l0,0a.53.53,0,0,1,.7.8,15.24,15.24,0,0,1-2,1.59,12.56,12.56,0,0,1-4.74,1.94,10,10,0,0,1-2.65.19.79.79,0,0,1-.74-.84.8.8,0,0,1,.84-.75h.1Z"/><path class="cls-20" d="M855.28,396.8a2.91,2.91,0,0,0,2.11.92,4.54,4.54,0,0,0,2.45-.87,11.77,11.77,0,0,0,2.12-2,26.26,26.26,0,0,0,1.79-2.37l0,0a.53.53,0,0,1,.88.59,26.17,26.17,0,0,1-1.78,2.57,13.12,13.12,0,0,1-2.26,2.27,6,6,0,0,1-3.18,1.25,4.25,4.25,0,0,1-1.8-.31,4.32,4.32,0,0,1-1.56-1,.8.8,0,1,1,1.14-1.11l0,0Z"/><path class="cls-20" d="M854.46,394.15a3.54,3.54,0,0,0,1.45,0,5.94,5.94,0,0,0,1.56-.51,10.21,10.21,0,0,0,2.8-2c.44-.39.81-.86,1.21-1.29s.75-.93,1.09-1.43.68-1,1-1.5l.91-1.57v0a.53.53,0,0,1,.93.51l-.88,1.65c-.3.55-.65,1.08-1,1.61s-.72,1-1.09,1.55-.79,1-1.25,1.44a11.55,11.55,0,0,1-3.1,2.37,7.72,7.72,0,0,1-1.9.7,5,5,0,0,1-2.2,0,.8.8,0,1,1,.32-1.56h0Z"/><path class="cls-20" d="M853.59,394.88a7.43,7.43,0,0,0,3.39.57,6.82,6.82,0,0,0,3.29-1.1,9.61,9.61,0,0,0,2.5-2.58c.33-.51.62-1.06.93-1.6l.74-1.73,0-.05a.53.53,0,0,1,1,.4l-.72,1.86c-.31.59-.6,1.19-1,1.77a10.84,10.84,0,0,1-2.75,3,8.32,8.32,0,0,1-3.92,1.46,9,9,0,0,1-4.18-.58.8.8,0,0,1,.58-1.49h0Z"/><path class="cls-14" d="M755,393.84c1.35,12.49,31,21.08,31,21.08,2.68-12.88,7.76-15.81,7.76-15.81-9.11-12.4-16.42-16.53-21-19.69a9.63,9.63,0,0,0-11,.07C758.06,382.09,754.19,386.6,755,393.84Z"/><path class="cls-25" d="M745.12,412.08H718.73V372.3a13.19,13.19,0,0,1,13.19-13.2h0a13.2,13.2,0,0,1,13.2,13.2Z"/></g><circle class="cls-4" cx="904" cy="558.31" r="53.1" transform="translate(-145.79 394.41) rotate(-22.83)"/><circle class="cls-2" cx="904" cy="558.31" r="30.91" transform="translate(-145.4 391.9) rotate(-22.69)"/><path class="cls-10" d="M918.51,558.31A14.52,14.52,0,1,1,904,543.8,14.51,14.51,0,0,1,918.51,558.31Z"/><circle class="cls-4" cx="403.25" cy="558.31" r="53.1" transform="translate(-276.67 448.67) rotate(-45)"/><circle class="cls-2" cx="403.25" cy="558.31" r="30.91" transform="translate(-276.67 448.67) rotate(-45)"/><path class="cls-10" d="M417.77,558.31a14.52,14.52,0,1,1-14.52-14.51A14.52,14.52,0,0,1,417.77,558.31Z"/><path class="cls-22" d="M686.43,634c2.11.72,2.41,4.57.18,4.72h-.05l-29.65.18a2.49,2.49,0,0,1-2.63-2.34s1.35-7.86,3.87-8l12.14.34C670.37,628.88,681.27,632.18,686.43,634Z"/><path class="cls-26" d="M664.46,528.06c-.72-9-8.22-19.73-17.1-22.95-23.08-8.36-81.69-22.36-85.62-23l-6.07,49c3.27.14,69.57.7,78.34,8.14,6.88,5.85,9,45.28,12,55,.83,2.66,9.56,35.45,11.39,35.33l10.77-.69C668.68,604.52,665.82,545.19,664.46,528.06Z"/><line class="cls-27" x1="456.79" y1="571.37" x2="425.32" y2="523.04"/><path class="cls-4" d="M616.35,534.75a28.84,28.84,0,0,1,19.26,7.18c8.82,7.84,23.19,29.06,18.94,37.55s-8.81,14-21.22,10.78S531.13,555,467.13,563.81a63.7,63.7,0,0,1-3.22-27.67,6.37,6.37,0,0,1,6.34-5.63H518a22.22,22.22,0,0,1,7.74,1.36C536.13,535.73,568.43,542.52,616.35,534.75Z"/><rect class="cls-8" x="398.95" y="530.66" width="71.57" height="6.62" rx="0.73"/><circle class="cls-4" cx="813.89" cy="686.58" r="60.24" transform="translate(-199.11 358.5) rotate(-22.2)"/><path class="cls-2" d="M846.64,686.58a32.75,32.75,0,1,1-32.75-32.75A32.76,32.76,0,0,1,846.64,686.58Z"/><path class="cls-28" d="M825.6,686.58a11.72,11.72,0,1,1-11.71-11.72A11.71,11.71,0,0,1,825.6,686.58Z"/><path class="cls-6" d="M825.32,634.1l34.84-2.29c-9.8-24-34.24-41-62.87-41-37.27,0-67.48,28.78-67.48,64.27a61.48,61.48,0,0,0,2.06,15.79h23.25l9.1-9.11A95.26,95.26,0,0,1,825.32,634.1Z"/><path class="cls-17" d="M597.81,412.28a4.15,4.15,0,0,0,5.39-.74,3.9,3.9,0,0,0,.67-1.06,2.58,2.58,0,0,0,.19-.55,3.85,3.85,0,0,0,.13-.79,2.06,2.06,0,0,0,0-.39c0-.1,0-.08,0-.05a2,2,0,0,0,.12.42,9.91,9.91,0,0,0,.53,1.23,23.89,23.89,0,0,0,1.62,2.71,55,55,0,0,0,4.29,5.36,112,112,0,0,0,10.38,9.88c3.69,3.14,7.56,6.12,11.52,9,2,1.43,4,2.86,6,4.26s4.07,2.81,6.06,4a56.16,56.16,0,0,0,13,5.62,76.39,76.39,0,0,0,14.19,2.63,179.83,179.83,0,0,0,29.44-.15l.25,2.28a169.85,169.85,0,0,1-30,2,81.76,81.76,0,0,1-15.17-2,61.66,61.66,0,0,1-14.52-5.5c-2.3-1.27-4.43-2.52-6.59-3.82s-4.28-2.6-6.39-4c-4.22-2.74-8.37-5.61-12.41-8.7a105.14,105.14,0,0,1-11.59-10.15,52.39,52.39,0,0,1-5.17-6.11,29.89,29.89,0,0,1-2.27-3.63,19.87,19.87,0,0,1-1-2.16,12.36,12.36,0,0,1-.42-1.36,9.15,9.15,0,0,1-.17-1,6,6,0,0,1,0-.85,4.6,4.6,0,0,1,.16-1,5.23,5.23,0,0,1,.2-.6,4.23,4.23,0,0,1,3.43-2.53,4.13,4.13,0,0,1,2.77.67Z"/><path class="cls-17" d="M722.34,451.84l-9.94,3-3.1,3.42-7.77.09-2.1-6.69,16.2-5C717.43,446.12,724.14,451.32,722.34,451.84Z"/><path class="cls-17" d="M717.64,454.73a2.6,2.6,0,0,0,1.81.89,6,6,0,0,0,2.34-.16,4.31,4.31,0,0,0,1.94-1,2,2,0,0,0,.6-1.72,4.83,4.83,0,0,0-.68-2.08,2.74,2.74,0,0,0-1.59-1.15,8.12,8.12,0,0,0-4.66.51l-.06,0a.88.88,0,0,1-.67-1.62,12.32,12.32,0,0,1,2.82-.89,7.58,7.58,0,0,1,3.1.09,4.6,4.6,0,0,1,2.7,2,6.49,6.49,0,0,1,1,3,4,4,0,0,1-1.24,3.19,5.73,5.73,0,0,1-2.83,1.42,7.59,7.59,0,0,1-3,0,4,4,0,0,1-2.72-1.8.69.69,0,0,1,.27-.93.67.67,0,0,1,.9.22Z"/><path class="cls-17" d="M709.93,453.84c0-.22,0-.12,0-.14s0,0,0,.07a.61.61,0,0,0,.15.22,2.6,2.6,0,0,0,.66.51,8.05,8.05,0,0,0,2,.71,24,24,0,0,0,4.7.44h0a.88.88,0,0,1,.06,1.75,25.38,25.38,0,0,1-5.16,0,10.1,10.1,0,0,1-2.72-.67,5.26,5.26,0,0,1-1.39-.86,3.39,3.39,0,0,1-.63-.71,3.12,3.12,0,0,1-.26-.48,2,2,0,0,1-.19-.74,1.38,1.38,0,0,1,2.75-.13Z"/><path class="cls-18" d="M608.39,398.57c3.18,3.46,24.38,23.24,30.83,34.45l-9.7,19.59c-19.95-10.47-38.12-32.88-41.12-36.94Z"/><path class="cls-22" d="M722.42,453a2.22,2.22,0,0,1-2,2.52,2.55,2.55,0,0,1-2.55-2.37,2.23,2.23,0,0,1,2.12-2.55A2.56,2.56,0,0,1,722.42,453Z"/><polygon class="cls-22" points="718.67 451.09 705.5 459.79 716.14 461.5 721.95 454.73 718.67 451.09"/><path class="cls-17" d="M719.93,458.72a3.86,3.86,0,0,0,2.72-2.05,2.76,2.76,0,0,0,0-1.61,4.38,4.38,0,0,0-.71-1.65,4.74,4.74,0,0,0-3.07-1.75,11.68,11.68,0,0,0-4,0h-.06a.88.88,0,0,1-1-.7.89.89,0,0,1,.67-1,12,12,0,0,1,4.74-.23,7.39,7.39,0,0,1,2.38.78,5.8,5.8,0,0,1,2,1.73,6.4,6.4,0,0,1,1,2.36,4.35,4.35,0,0,1-.16,2.72,4.09,4.09,0,0,1-1.84,2,6.08,6.08,0,0,1-2.37.72.69.69,0,0,1-.77-.6.68.68,0,0,1,.5-.74Z"/><line class="cls-29" x1="703.69" y1="462.76" x2="694.39" y2="437.04"/><path class="cls-30" d="M691.46,410.4a4.17,4.17,0,0,0-1.55.32v33.15a4,4,0,0,0,1.55.32c4.46,0,8.08-7.56,8.08-16.89S695.92,410.4,691.46,410.4Z"/><circle class="cls-4" cx="471.05" cy="686.58" r="60.24" transform="translate(-133.79 114.35) rotate(-12.13)"/><path class="cls-2" d="M503.8,686.58a32.75,32.75,0,1,1-32.75-32.75A32.75,32.75,0,0,1,503.8,686.58Z"/><path class="cls-28" d="M482.77,686.58a11.72,11.72,0,1,1-11.72-11.72A11.72,11.72,0,0,1,482.77,686.58Z"/><path class="cls-6" d="M565.09,689s-14.7,20.57-45.55,16.16-83.26-23.51-83.75-29.39,15.67-30.36,40.16-20.08S523.46,691.48,565.09,689Z"/><path class="cls-22" d="M705.19,478c.42,3.05-1,5.77-3.24,6.09s-4.36-1.91-4.78-5,1-5.77,3.23-6.08S704.76,475,705.19,478Z"/><path class="cls-30" d="M414.87,575.71h13.82a0,0,0,0,1,0,0v44.73a0,0,0,0,1,0,0H414.87a3.89,3.89,0,0,1-3.89-3.89v-37a3.89,3.89,0,0,1,3.89-3.89Z" transform="translate(390.96 -132.08) rotate(32.8)"/><path class="cls-14" d="M746.65,465.19c4.63,9.07,3.76,18.79-1.95,21.71s-14.09-2.08-18.72-11.15S722.21,457,727.92,454,742,456.12,746.65,465.19Z"/><path class="cls-30" d="M700.26,458h0a38.82,38.82,0,0,1,30-9.14L745,485a4.39,4.39,0,0,1-3.81,6.05l-15.43.94Z"/><path class="cls-6" d="M702.71,460.8l-13.53,8.63a11.65,11.65,0,0,0-3.75,15.75l22.67,38.31,18.61-19.1-1-12.41Z"/><path class="cls-6" d="M547.31,656.8h39a0,0,0,0,1,0,0v38a0,0,0,0,1,0,0h-31.8a7.17,7.17,0,0,1-7.17-7.17V656.8A0,0,0,0,1,547.31,656.8Z"/><path class="cls-6" d="M726.71,504.39l7.84-9.8s36.06,28.77,63.57,79.87A9.85,9.85,0,0,1,793.6,588c-6.11,2.9-13.8,8.78-19.38,20.71-10.78,23-43.1,72-43.1,72s-7.35,16.65-37.71,16.65H584.19l-10.78-20.08,2.94-3.91-20.08-14.7S430.4,645.93,407.38,628.3c0,0,12.25-46.53,57.3-65.63,0,0,64.65-17.14,170.44,25,0,0,3.92,5.38-2.94,18.12s-4.4,38.2,23.51,43.1,54.86,9.79,63.18-26.94c0,0-2.93-12.73-2.93-20.57s1-58.28-7.84-77.87Z"/><rect class="cls-10" x="480.58" y="594.3" width="53.65" height="1.07"/><rect class="cls-10" x="478.5" y="599.92" width="55.73" height="1.07"/><rect class="cls-10" x="477.47" y="605.53" width="56.77" height="1.07"/><rect class="cls-10" x="475.8" y="611.15" width="58.43" height="1.07"/><rect class="cls-10" x="474.14" y="616.76" width="60.09" height="1.07"/><rect class="cls-10" x="474.14" y="622.37" width="60.09" height="1.07"/><path class="cls-30" d="M693.41,697.35c30.36,0,37.71-16.65,37.71-16.65s32.32-49,43.1-72c5.58-11.93,13.27-17.81,19.38-20.71a9.85,9.85,0,0,0,4.52-13.54c-27.51-51.1-63.57-79.87-63.57-79.87l-1.47,8.6a43.93,43.93,0,0,0,4.24,27.43l19.32,37.54a35,35,0,0,1,0,32.11l-29,56.23a38.34,38.34,0,0,1-34.09,20.77H573.41l10.78,20.08Z"/><path class="cls-6" d="M564.27,668.29a18.45,18.45,0,1,1-18.45-18.44A18.45,18.45,0,0,1,564.27,668.29Z"/><path class="cls-6" d="M693.34,489.11c1.61,4.26,0,8.81-3.53,10.16s-7.75-1-9.36-5.29,0-8.81,3.53-10.15S691.73,484.85,693.34,489.11Z"/><polygon class="cls-31" points="683.98 483.83 705.73 472.13 711.48 481.66 689.81 499.27 683.98 483.83"/><path class="cls-32" d="M651.23,515.9a51.2,51.2,0,0,0-20.41-12.31c-10.3-3-20-5.73-30.21-9-7.12-2.24-15.08-2.61-21.26-5.35,0,0-26.87-2-32.65,10.2-7.12,15,4.79,40,17.23,39.33,19.11,1,43.49-2.43,62.56-.85,2.08.17,4.15.42,6.22.66a1.08,1.08,0,0,1,.59.18,1.29,1.29,0,0,1,.26.42,40.7,40.7,0,0,1,3.08,9.29c1.6,6.69,2.82,13.86,3.88,21.08s1.92,14.6,2.61,22c1.37,14.78,3,28.56,3,43.42l11.05.56c.18-2.62,4.4-46.16,4.64-51.75q.35-7.86.39-15.72c.06-14.35-.13-30.79-5.67-44.25A23.08,23.08,0,0,0,651.23,515.9Z"/><path class="cls-22" d="M674.32,640.68c2.1.75,2.35,4.6.12,4.72h-.05l-29.65-.19a2.49,2.49,0,0,1-2.6-2.38s1.84-8.63,4.36-8.73l11.75,1.28C658.32,635.4,669.18,638.84,674.32,640.68Z"/><path class="cls-20" d="M619.88,393.77s-3.87,3-8,10.83a4.23,4.23,0,0,1-5.05,2.06,20.68,20.68,0,0,1-7.85-4.48,4.16,4.16,0,0,1-.06-5.85c5.46-5.68,12.85-16.54,12.85-16.54Z"/><path class="cls-20" d="M613.19,380.24l-.07,8.58s10.74,11.24,13.6,11.39c2.51.13,7.34-6.85,10.32-10,2.75-2.89,6.23-2.4,5.72-4.62s-1.88-3.95-2.22-7.34,4.06-9.64,2.29-15.65c-2.39-8.1-10.48-16.59-28.07-10.3C602.68,356.65,599.13,377.71,613.19,380.24Z"/><path class="cls-21" d="M624.1,371.74l-2.05,4.71a1.84,1.84,0,0,1-2.25,1l-1.95-.61a14.14,14.14,0,0,0-4.11,5.16,6.26,6.26,0,0,1-6.07,3.43l-1-.08s-6.83-8.75-1.1-25.92,32.89-14.51,39,1.41c0,0,.11,6.34-12.8,6A8.15,8.15,0,0,0,624.1,371.74Z"/><path class="cls-20" d="M618.91,371.72a6.28,6.28,0,0,0-3.57-2.37c-2.73-.4-4.78.89-5.21,3.86a8.07,8.07,0,0,0,3.46,7.58c1.15.77,2.42,1.11,3.25.41C617.12,380.59,617.85,376.87,618.91,371.72Z"/><path class="cls-22" d="M605.87,359.21a15.3,15.3,0,0,1,4.62-14.81c6-5.8,23.4-5.35,28.58-1.7,8.18,5.79,8.75,15.46,7.46,16C643.13,360.16,622.46,363.2,605.87,359.21Z"/><path class="cls-23" d="M615.94,359.41c.35.51.73,1,1.11,1.48a71.44,71.44,0,0,1-11.18-1.68,13.54,13.54,0,0,1-.4-1.51A36.08,36.08,0,0,0,615.94,359.41Z"/><path class="cls-23" d="M615.69,360.7s16.37,7.48,29.84,6.8a37.74,37.74,0,0,0,7-1c7.57-1.8,10-2.89,10.34-3.52a2.86,2.86,0,0,0-.12-2.12c-.81-1.42-4.79-1.33-13.88.69-11.75,2.61-33.38-2.22-33.38-2.22Z"/><path class="cls-24" d="M615.46,359.34s16.37,7.47,29.84,6.79a38.67,38.67,0,0,0,7-1c7.57-1.8,10-2.9,10.33-3.52,1.36-2.25-6.33-3.37-15.65-4.38C647,357.25,639.73,361.53,615.46,359.34Z"/><path class="cls-24" d="M622.31,340.45l.43,0a3.06,3.06,0,0,1,1.59-.47,3.59,3.59,0,0,1,1.71.31l.43,0,.08.5h0v0c.09.51-.77,1-1.92,1s-2.15-.31-2.23-.81v0h0Z"/><path class="cls-23" d="M622.31,340.45c.09.51,1.08.87,2.23.81s2-.51,1.93-1-1.09-.87-2.23-.82S622.23,340,622.31,340.45Z"/><path class="cls-14" d="M608.77,448.45a66.38,66.38,0,0,0,8.86-18.28c.64-4.54-.92-12.88-2.6-23.67A16.62,16.62,0,0,0,609,395.78c-7.73-5.91-18.92-3.65-28.74,7.43-6.68,7.54-32.8,54.22-41.56,88.1-1.24,4.78.18,9.76,4.92,11.17,9.24,2.73,31.7-.33,51.75-1.11a9.77,9.77,0,0,0,9.38-10.05C604.42,481,598.28,464.07,608.77,448.45Z"/><path class="cls-20" d="M683.44,484.74c-5.11-.83-10.19-1.83-15.27-2.85s-10.12-2.26-15.16-3.54-10-2.74-15-4.42c-2.48-.85-5-1.75-7.43-2.8a39.91,39.91,0,0,1-7.41-3.91c-.3-.23-.65-.49-.92-.71l-.76-.65c-.51-.42-1-.86-1.52-1.31-1-.89-2-1.81-3-2.77a44.63,44.63,0,0,1-12.2-21.3c-1.45-5.13-2.56-10.17-3.77-15.16s-2.34-10-3.66-14.9a3.35,3.35,0,0,1,6.44-1.84v.05c1.52,5,2.79,10,4,15.07s2.26,10.1,3.59,14.9,2.91,9.28,5.55,13.19a41,41,0,0,0,4.5,5.61c.82.89,1.7,1.75,2.6,2.6.45.43.9.85,1.37,1.27l.69.62.59.5a35.33,35.33,0,0,0,6.13,3.52c2.25,1.06,4.58,2,6.94,2.94,4.73,1.83,9.6,3.41,14.46,5s9.8,3.05,14.75,4.46,9.9,2.82,14.86,4.23h0a1.11,1.11,0,0,1-.48,2.17Z"/><path class="cls-20" d="M697,479.66a13.51,13.51,0,0,0-3.74-.36,23.38,23.38,0,0,0-3.82.42,30.47,30.47,0,0,0-3.73,1c-.61.19-1.21.42-1.82.63l-1.79.73-.06,0a1.43,1.43,0,0,1-1.08-2.65l.15-.05,2-.57c.68-.15,1.34-.32,2-.46a33,33,0,0,1,4.09-.58,25.76,25.76,0,0,1,4.12,0,14.64,14.64,0,0,1,4.1.89.54.54,0,0,1,.31.7.56.56,0,0,1-.65.33Z"/><path class="cls-20" d="M684.51,485.35a12.68,12.68,0,0,1,3.66-.39,8.83,8.83,0,0,1,3.61.84,6.11,6.11,0,0,1,2.73,2.59,7.93,7.93,0,0,1,.73,1.7c.17.59.24,1.19.36,1.78a.54.54,0,0,1-.43.64.53.53,0,0,1-.63-.39l0-.1c-.13-.53-.21-1.08-.38-1.58a6.41,6.41,0,0,0-.68-1.42,4.81,4.81,0,0,0-2.25-2,7.68,7.68,0,0,0-3.06-.58,11.76,11.76,0,0,0-3.15.46l0,0a.82.82,0,0,1-.47-1.58Z"/><path class="cls-20" d="M687.57,482.81a16.49,16.49,0,0,1,3.93.4,12.91,12.91,0,0,1,3.7,1.41,8.54,8.54,0,0,1,2.86,2.84,8.85,8.85,0,0,1,1.16,3.81.55.55,0,0,1-1.08.17v-.07a7.77,7.77,0,0,0-1.12-3.26,7.05,7.05,0,0,0-2.49-2.3,11.53,11.53,0,0,0-3.32-1.13,15,15,0,0,0-3.52-.23h0a.82.82,0,0,1-.1-1.64Z"/><path class="cls-20" d="M688.23,480.4a9.49,9.49,0,0,1,4.88-1.38,8.53,8.53,0,0,1,4.81,1.48,12.89,12.89,0,0,1,3.38,3.57c.39.7.82,1.39,1.17,2.11l1,2.19a.55.55,0,0,1-.28.72.54.54,0,0,1-.71-.27l0,0-1-2.08c-.36-.67-.78-1.3-1.16-1.95a11.61,11.61,0,0,0-3.11-3.1,7.1,7.1,0,0,0-4-1.13,8.15,8.15,0,0,0-4,1.24l-.07,0a.82.82,0,0,1-1.13-.25.83.83,0,0,1,.25-1.14Z"/><path class="cls-20" d="M689,482a12.39,12.39,0,0,1,4.11-.61,8.29,8.29,0,0,1,4,1.08,7.29,7.29,0,0,1,2.85,3,4.38,4.38,0,0,1,.44.93l.36,1c.18.65.31,1.31.46,2a.54.54,0,0,1-1.05.27l0-.08c-.17-.59-.31-1.2-.49-1.79l-.36-.84a3.18,3.18,0,0,0-.41-.8,6.08,6.08,0,0,0-2.45-2.45,7,7,0,0,0-3.39-.77,11.12,11.12,0,0,0-3.5.64l0,0a.82.82,0,0,1-.58-1.54Z"/><path class="cls-14" d="M586.09,407.64c-7.46,14,15.5,44.84,15.5,44.84,11.95-11.57,19.8-9.39,19.8-9.39-.73-19.44-3.94-31.35-6.51-37.93a12.14,12.14,0,0,0-11.58-7.75C597.65,397.54,590.4,399.52,586.09,407.64Z"/><path class="cls-33" d="M586.09,407.64c-7.46,14,15.5,44.84,15.5,44.84"/><rect class="cls-34" x="388.23" y="408.38" width="140.61" height="122.28" rx="3.67"/><rect class="cls-10" x="407.59" y="418.52" width="101.9" height="4.5" rx="0.49"/><rect class="cls-35" x="408.09" y="441.17" width="100.9" height="73.93" rx="1.9"/><path class="cls-6" d="M244,284.76H81.41c-3.31,0-6,4.6-6,10.26s2.68,10.27,6,10.27H244c3.31,0,6-4.6,6-10.27S247.31,284.76,244,284.76Z"/><path class="cls-6" d="M176,465.66H42.23a10.27,10.27,0,0,0,0,20.53H176a10.27,10.27,0,0,0,0-20.53Z"/><path class="cls-6" d="M199,330.64H31.08c-4.65,0-8.41,4.59-8.41,10.26s3.76,10.26,8.41,10.26H199c4.65,0,8.42-4.59,8.42-10.26S203.63,330.64,199,330.64Z"/><path class="cls-6" d="M141.86,376.51H10.49C6.91,376.51,4,381.1,4,386.77S6.91,397,10.49,397H141.86c3.58,0,6.49-4.59,6.49-10.26S145.44,376.51,141.86,376.51Z"/><path class="cls-6" d="M253.11,415H67.69c-3.59,0-6.5,4.59-6.5,10.26s2.91,10.26,6.5,10.26H253.11c3.59,0,6.5-4.59,6.5-10.26S256.7,415,253.11,415Z"/><path class="cls-6" d="M351.09,600.21H163.8a5.81,5.81,0,0,0,0,11.61H351.09a5.81,5.81,0,0,0,0-11.61Z"/><path class="cls-6" d="M315.06,702.53H127.78a5.81,5.81,0,0,0,0,11.61H315.06a5.81,5.81,0,1,0,0-11.61Z"/><path class="cls-6" d="M290.91,626.15H137.28c-2.63,0-4.76,2.6-4.76,5.81s2.13,5.81,4.76,5.81H290.91c2.63,0,4.76-2.6,4.76-5.81S293.54,626.15,290.91,626.15Z"/><path class="cls-6" d="M295.73,652.1H177.21c-2,0-3.67,2.6-3.67,5.81s1.64,5.8,3.67,5.8H295.73c2,0,3.67-2.6,3.67-5.8S297.76,652.1,295.73,652.1Z"/><path class="cls-6" d="M358.66,673.86H240.14c-2,0-3.67,2.6-3.67,5.81s1.64,5.8,3.67,5.8H358.66c2,0,3.67-2.6,3.67-5.8S360.69,673.86,358.66,673.86Z"/><path class="cls-2" d="M374.16,77.89l1.94,10.39c-2.53.51-5,.91-7.26,1.22a50.16,50.16,0,0,1-6.67.47,31.26,31.26,0,0,1-12.46-2.32A18.9,18.9,0,0,1,341.39,81a17.8,17.8,0,0,1-3-10.31,18.45,18.45,0,0,1,2.5-9.67,19.51,19.51,0,0,1,7-6.84,25.92,25.92,0,0,1,10.39-3.34l.26-.59a19.42,19.42,0,0,0,4.56-1.94,29.13,29.13,0,0,0,4.52-3.21,26.59,26.59,0,0,0,3.84-4.1,19.67,19.67,0,0,0,2.66-4.77,14.25,14.25,0,0,0,1-5.15V25.52l6.08,10.22a39.29,39.29,0,0,0-8.74-3.46,31.13,31.13,0,0,0-17,0,39.48,39.48,0,0,0-8.74,3.46l6.08-10.22V31.1a14.32,14.32,0,0,0,1.1,5.23,26.19,26.19,0,0,0,3,5.45,26.66,26.66,0,0,0,4.35,4.86,21.13,21.13,0,0,0,5.44,3.5,14.57,14.57,0,0,0,6,1.31H391.9V62.52H377.46a35.66,35.66,0,0,1-12.34-2.11,39.9,39.9,0,0,1-10.38-5.62,44.35,44.35,0,0,1-8-7.69,36.3,36.3,0,0,1-5.11-8.36,19.79,19.79,0,0,1-1.77-7.64V26.37a47,47,0,0,1,7.85-3.46,54.61,54.61,0,0,1,8.45-2.16,46.58,46.58,0,0,1,7.77-.72,45.76,45.76,0,0,1,7.73.72,56.39,56.39,0,0,1,8.45,2.16A46.33,46.33,0,0,1,388,26.37V31.1a19.32,19.32,0,0,1-1.81,8.11,31.77,31.77,0,0,1-4.94,7.56,43.1,43.1,0,0,1-7.14,6.5,46.69,46.69,0,0,1-8.4,4.86c-.46.22-1.1.5-2,.84s-1.7.68-2.57,1l-2.33.89a8.11,8.11,0,0,0-1.26.55,15.68,15.68,0,0,0-3,1.94,8.7,8.7,0,0,0-2.32,3,10.34,10.34,0,0,0-.89,4.48,7.1,7.1,0,0,0,2.66,6c1.78,1.38,4.46,2.07,8.07,2.07,1.29,0,2.94-.08,4.94-.25S371.46,78.23,374.16,77.89ZM391.9,62.52V51.45a1,1,0,0,1,.76.38,2.68,2.68,0,0,1,.51,1.1,16.72,16.72,0,0,1,.29,1.73,17.54,17.54,0,0,1,.13,2.28,18.57,18.57,0,0,1-.13,2.33,16.34,16.34,0,0,1-.29,1.77,2.62,2.62,0,0,1-.51,1.1A1,1,0,0,1,391.9,62.52Z"/><path class="cls-2" d="M391.9,62.52a1,1,0,0,1-.76-.38,2.4,2.4,0,0,1-.51-1.1,16.34,16.34,0,0,1-.29-1.77,18.57,18.57,0,0,1-.13-2.33,22.15,22.15,0,0,1,.17-2.91,5.25,5.25,0,0,1,.55-1.9,1.11,1.11,0,0,1,1-.68Zm0,0V51.45h22.72L406.76,58V20h12.93V62.52Zm3,18.92V71.13h12.34V81.44Zm16.64,0V71.13h12.34V81.44Z"/><path class="cls-2" d="M434.55,84.31c-.62,0-1.38,0-2.28-.13s-1.83-.15-2.79-.21l.42-10.89c.9,0,1.78,0,2.62.08s1.47.09,1.86.09a5.83,5.83,0,0,0,4.94-2.45c1.21-1.64,1.82-4,1.82-7.1V20h12.92V63.7a22.79,22.79,0,0,1-2.45,10.69,18,18,0,0,1-6.84,7.3A19.53,19.53,0,0,1,434.55,84.31Zm19.51-44.68V28.48h17.65V39.63Zm17.65,22.89V20h12.84V62.52Zm12.84,0V51.45h6a8.33,8.33,0,0,0,4.05-.8,4.66,4.66,0,0,0,2-3.29,38.57,38.57,0,0,0,.55-7.56V24.51h12.92V39.8q0,7.94-2.11,13a14.49,14.49,0,0,1-6.42,7.39,22.61,22.61,0,0,1-11,2.37Zm29.06,0a20,20,0,0,1-7.31-1.4A21.74,21.74,0,0,1,499.67,57l7.86-8.11a12.39,12.39,0,0,0,3,1.9,7.83,7.83,0,0,0,3.09.63h16.13l-7.09,6.25V39.38q0-1.27-.3-4t-.8-6.25Q521,25.62,520.28,22L533,20q.6,3,1.14,6.84c.37,2.54.69,4.93,1,7.18a45.93,45.93,0,0,1,.42,5.33V62.52Z"/><path class="cls-2" d="M589.12,83.47a31.51,31.51,0,0,1-13.43-2.75,22.76,22.76,0,0,1-9.29-7.56,18.6,18.6,0,0,1-3.38-11c0-1.12.08-2.6.25-4.43s.39-3.87.68-6.13.6-4.57,1-7,.72-4.71,1.05-7l12.76,1.69q-.86,5.65-1.48,10.26c-.42,3.07-.75,5.66-1,7.77s-.34,3.67-.34,4.69a9.29,9.29,0,0,0,6,9,18.09,18.09,0,0,0,7.18,1.27,16.07,16.07,0,0,0,7.09-1.31,8,8,0,0,0,3.72-3.46,10.6,10.6,0,0,0,1.1-4.86V3.14H614V62.77a18.7,18.7,0,0,1-3.21,10.9,21.23,21.23,0,0,1-8.83,7.22A30.31,30.31,0,0,1,589.12,83.47ZM614,62.52V51.45h8.87V62.52Zm8.87,0V51.45a1,1,0,0,1,.76.38,2.56,2.56,0,0,1,.5,1.1,16.48,16.48,0,0,1,.3,1.73,19.5,19.5,0,0,1,.13,2.28,20.68,20.68,0,0,1-.13,2.33,16.08,16.08,0,0,1-.3,1.77,2.5,2.5,0,0,1-.5,1.1A1,1,0,0,1,622.82,62.52Z"/><path class="cls-2" d="M622.82,62.52a1,1,0,0,1-.81-.38,2.91,2.91,0,0,1-.46-1.1q-.16-.72-.3-1.77a20.81,20.81,0,0,1-.12-2.33A20.54,20.54,0,0,1,621.3,54a5.48,5.48,0,0,1,.54-1.9,1.13,1.13,0,0,1,1-.68Zm0,0V51.45h22.72L637.68,58V20H650.6V62.52Zm2.95,18.92V71.13H638.1V81.44Zm16.64,0V71.13h12.33V81.44Zm8.19-18.92V51.45h11V62.52Zm11,0V51.45a1,1,0,0,1,.81.38,3.55,3.55,0,0,1,.5,1.1,9.2,9.2,0,0,1,.3,1.73c.06.68.08,1.44.08,2.28s0,1.62-.08,2.33a9.24,9.24,0,0,1-.3,1.77,3.44,3.44,0,0,1-.5,1.1A1,1,0,0,1,661.58,62.52Z"/><path class="cls-2" d="M661.58,62.52a1,1,0,0,1-.75-.38,2.4,2.4,0,0,1-.51-1.1q-.17-.72-.3-1.77a20.81,20.81,0,0,1-.12-2.33,22.31,22.31,0,0,1,.16-2.91,5.69,5.69,0,0,1,.55-1.9,1.13,1.13,0,0,1,1-.68Zm0,0V51.45H726l-10.73,9.21V43.6A17.86,17.86,0,0,0,714,36.33a8.3,8.3,0,0,0-3.42-4,10.23,10.23,0,0,0-5.23-1.27,16,16,0,0,0-6.89,1.52,28.2,28.2,0,0,0-6.08,3.88,50.29,50.29,0,0,0-5.24,5.07q-2.4,2.7-4.22,5.15c-1.21,1.64-2.24,2.93-3.08,3.89l-2.62-8.78,6.42-8.07c1.86-2.34,3.6-4.36,5.24-6.08a28.57,28.57,0,0,1,5-4.27,19.83,19.83,0,0,1,5.7-2.53,28.5,28.5,0,0,1,7.35-.85,22.39,22.39,0,0,1,9.5,1.86A17.65,17.65,0,0,1,723,27a22.71,22.71,0,0,1,3.85,7.56,31.67,31.67,0,0,1,1.26,9V62.52ZM671.8,51.45V20h12.93V51.45Z"/><path class="cls-2" d="M754.75,84.31a51.72,51.72,0,0,1-6.67-.46c-2.31-.31-4.74-.75-7.27-1.31l1.94-10.31q4.14.51,7.06.76c1.94.17,3.59.26,4.94.26q5.75,0,8.28-2c1.68-1.35,2.53-3.41,2.53-6.17V29.24l2.62,1.86H758.8a13.93,13.93,0,0,0-4.81.72,5.11,5.11,0,0,0-2.92,3,18.51,18.51,0,0,0-1,6.89,18.16,18.16,0,0,0,.85,6.42,4.42,4.42,0,0,0,2.78,2.74,16.87,16.87,0,0,0,5.07.63h6.76V62.52H758.8a28,28,0,0,1-11.95-2.28,15.18,15.18,0,0,1-7.26-6.93,25.09,25.09,0,0,1-2.41-11.65,26.41,26.41,0,0,1,2.41-11.91,15.93,15.93,0,0,1,7.26-7.27A26.39,26.39,0,0,1,758.8,20h19.68v45a17.81,17.81,0,0,1-3,10.26A18.89,18.89,0,0,1,767.25,82,31.05,31.05,0,0,1,754.75,84.31Zm23.73-21.79V51.45h8.79V62.52Zm8.79,0V51.45a1,1,0,0,1,.8.38,3.78,3.78,0,0,1,.51,1.1,10.17,10.17,0,0,1,.29,1.73q.09,1,.09,2.28c0,.85,0,1.62-.09,2.33a10.19,10.19,0,0,1-.29,1.77,3.66,3.66,0,0,1-.51,1.1A1,1,0,0,1,787.27,62.52Z"/><path class="cls-2" d="M787.27,62.52a1,1,0,0,1-.76-.38A2.4,2.4,0,0,1,786,61q-.16-.72-.3-1.77a20.81,20.81,0,0,1-.12-2.33,20.54,20.54,0,0,1,.17-2.91,5.48,5.48,0,0,1,.54-1.9,1.13,1.13,0,0,1,1-.68Zm0,0V51.45H810L802.13,58V20h12.92V62.52Zm6.92-50.34V1.87h12.33V12.18Zm16.64,0V1.87h12.33V12.18Z"/></svg>