<?xml version="1.0" encoding="utf-8"?>
<!-- Generator: Adobe Illustrator 24.3.0, SVG Export Plug-In . SVG Version: 6.00 Build 0)  -->
<svg version="1.1" id="Layer_1" xmlns="http://www.w3.org/2000/svg" xmlns:xlink="http://www.w3.org/1999/xlink" x="0px" y="0px"
	 viewBox="0 0 1080 788" style="enable-background:new 0 0 1080 788;" xml:space="preserve">
<style type="text/css">
	.st0{fill:#DCDCDC;}
	.st1{fill:#C1C6D7;}
	.st2{opacity:0.48;fill:#8A8A8A;}
	.st3{fill:none;stroke:#FFFFFF;stroke-width:0.8588;stroke-linecap:round;stroke-linejoin:round;stroke-miterlimit:10;}
	.st4{fill:#EB523D;}
	.st5{fill:#A6A6A6;}
	.st6{fill:#8A8A8A;}
	.st7{opacity:0.51;fill:none;stroke:#D46B2B;stroke-width:2.0763;stroke-miterlimit:10;}
	.st8{fill:#FFA463;}
	.st9{opacity:0.41;fill:#FFFFFF;}
	.st10{fill:#F8695C;}
	.st11{fill:#00ADD1;}
	.st12{fill:#00CEF8;}
	.st13{clip-path:url(#SVGID_2_);}
	.st14{fill:#FF989F;}
	.st15{fill:#0083A0;}
	.st16{fill:none;stroke:#625B5A;stroke-width:2.2171;stroke-miterlimit:10;}
	.st17{fill:#FFB2B8;}
	.st18{fill:#00438C;}
	.st19{fill:#FF8E3C;}
	.st20{fill:#5C83EF;}
	.st21{fill:#D2BFFF;}
	.st22{clip-path:url(#SVGID_2_);fill:#625B5A;}
	.st23{fill:#625B5A;}
	.st24{fill:#FFFFFF;}
	.st25{fill:#3757C0;}
	.st26{fill:none;stroke:#8A8A8A;stroke-miterlimit:10;}
	.st27{fill:#72AABE;}
	.st28{fill:none;stroke:#FFA463;stroke-width:1.8944;stroke-miterlimit:10;}
	.st29{fill:#EF6256;}
	.st30{fill:#5C78D9;}
	.st31{fill:none;stroke:#0083A0;stroke-width:0.8298;stroke-linecap:round;stroke-linejoin:round;stroke-miterlimit:10;}
	.st32{fill:none;stroke:#FFFFFF;stroke-miterlimit:10;}
	.st33{fill:#616161;}
</style>
<g>
	<g>
		<path class="st0" d="M802.34,605.03c-50.49-4.41-101.31-6.29-151.64-12.25c-35.78-4.24-85.24-13.91-118.2,6.68
			c20.39,8.23,43.14,8.06,63.47,17.13c3.41,1.52,3.34,7.35,0,8.9c-24.75,11.45-56.71,10.13-83.28,10.72
			c-84.55,1.89-169.12-3.16-253.68-0.16c-34.28,1.22-69.57,2.85-103,11.27c49.77,82.89,166.2,131.15,444.95,127.13
			c223.88-3.23,384.67-34.53,458.57-147.77C973.67,621.47,888.04,612.51,802.34,605.03z"/>
		<path class="st1" d="M1062.38,628.37H132.77c-2,0-3.62-1.55-3.62-3.47l0,0c0-1.91,1.62-3.47,3.62-3.47h929.61
			c2,0,3.62,1.55,3.62,3.47l0,0C1066,626.82,1064.38,628.37,1062.38,628.37z"/>
		<path class="st2" d="M1048.59,271.69h-53.92c-5.97,0-11.11,3.32-13.85,8.17V150.13c0-4.58-3.71-8.3-8.3-8.3h-56.5
			c-4.58,0-8.3,3.71-8.3,8.3v107.28h-15.53V53.8c0-3.66-2.97-6.63-6.63-6.63H849.1c-3.66,0-6.63,2.97-6.63,6.63v203.61h-12.19V272
			c-1-0.2-2.04-0.31-3.1-0.31h-53.92c-5.97,0-11.11,3.32-13.85,8.17V150.13c0-4.58-3.71-8.3-8.3-8.3h-56.5c-4.58,0-8.3,3.71-8.3,8.3
			v107.28h-15.53v-76.53c0-3.66-2.97-6.63-6.63-6.63h-36.46c-3.66,0-6.63,2.97-6.63,6.63v76.53h-35.35V150.13
			c0-4.58-3.71-8.3-8.3-8.3h-56.5c-4.58,0-8.3,3.71-8.3,8.3V272c-1-0.19-2.02-0.31-3.07-0.31h-53.92c-3.33,0-6.41,1.02-8.97,2.76
			v-49.31c0-8.81-7.14-15.96-15.95-15.96h-53.92c-8.81,0-15.96,7.14-15.96,15.96v51.18c-2.88-2.86-6.85-4.63-11.23-4.63h-53.92
			c-4.58,0-8.68,1.96-11.59,5.05v-201c0-3.66-2.97-6.63-6.63-6.63h-36.46c-3.66,0-6.63,2.97-6.63,6.63v94.88h-52.53
			c-8.81,0-15.95,7.14-15.95,15.95v312.67h68.48h17.35h28v0.99h85.83v-6.62h74.12v6.62h72.95h12.88h48.59v4.18h46.98v6.44h49.72
			v-6.44h23.92v-4.18h62.59h2.11h70.87v4.18h85.83v-4.18h62.59h2.11h83.72V287.65C1064.54,278.83,1057.4,271.69,1048.59,271.69z"/>
		<path class="st3" d="M957.62,544.55c0,0,7.8,12.03,41.3,7.64"/>
		<path class="st3" d="M992.05,514.11c0,0,9.55,13.33-1.14,29.47"/>
		<g>
			<g>
				<path class="st4" d="M1017.57,467.89c-0.05-12.56-8.11-24.1-21.02-30.09l-78.85-35.56l-114.32-81.66l-64.1-41.23
					c-9.38-6.48-20.75-10.28-33.01-10.28H324.91c-17.43,0-31.57,14.13-31.57,31.57v237.74c0,17.43,14.13,31.57,31.57,31.57h439.52
					v-0.03h219.6c18.74,0,33.91-15.23,33.83-33.97L1017.57,467.89z"/>
				<path class="st5" d="M1017.95,570H981.1c-0.94,0-1.71-0.77-1.71-1.71v-21.83c0-0.94,0.77-1.71,1.71-1.71h36.86
					c0.94,0,1.71,0.77,1.71,1.71v21.83C1019.66,569.23,1018.9,570,1017.95,570z"/>
				<path class="st6" d="M867.24,419.32H737.62c-7.49,0-13.56-6.07-13.56-13.56v-65.22c0-7.49,6.07-13.56,13.56-13.56h26.84
					c14.28,0,28.36,3.53,40.85,10.47c19.95,11.1,49.56,31.59,71.35,64.12C881.73,409.15,876.34,419.32,867.24,419.32z"/>
				<path class="st5" d="M737.62,415.81c-5.54,0-10.04-4.5-10.04-10.04v-65.22c0-5.54,4.5-10.04,10.04-10.04h26.84
					c13.81,0,27.35,3.47,39.14,10.03c20.31,11.3,48.97,31.4,70.14,63.01c1.65,2.47,1.81,5.5,0.41,8.12
					c-1.39,2.6-3.97,4.15-6.91,4.15H737.62z"/>
				<path class="st7" d="M695.95,570.39V310.35H511.29v146.98c0,0,17.59,66.58,17.59,113.69"/>
				<polygon class="st5" points="830.29,554.15 466.57,554.15 466.57,570.39 764.58,570.39 764.58,570.36 830.29,570.36 				"/>
				<path class="st5" d="M316.41,323.7h466.85c0,0-7.54-8.95-29.68-14.6H319.24L316.41,323.7z"/>
				<path class="st5" d="M813.41,541.34l-263.85-11.65c-1.76-0.08-3.37-0.97-4.37-2.42l-4.63-6.68c-2.66-3.84,0.25-9.05,4.91-8.81
					l237.58,12.16c11.33,0.58,22.18,5.82,28.79,15.04C812.39,539.73,812.91,540.52,813.41,541.34z"/>
				<path class="st5" d="M506.12,469.22H343.84c-1.61,0-2.91-1.3-2.91-2.91l0,0c0-1.61,1.3-2.91,2.91-2.91h162.28
					c1.61,0,2.91,1.3,2.91,2.91l0,0C509.03,467.91,507.73,469.22,506.12,469.22z"/>
				<path class="st8" d="M861.31,412.18c0.23-2.46,2.58-4.11,4.99-3.56c2.3,0.52,4.84,1.69,6.08,4.24
					c2.32,4.78,2.66,16.12-3.72,23.67c-1.19,1.41-3.11,2-4.91,1.62l-1.26-0.27c-2.01-0.43-3.38-2.29-3.19-4.33L861.31,412.18z"/>
				<path class="st9" d="M963.54,468.34l-7.03-10.54c0,0-414.83-31.63-635.35-28.11v9.37C321.16,439.06,803.06,450.77,963.54,468.34
					z"/>
				<path class="st10" d="M972.93,570.36c-0.14-41.76-34.02-75.57-75.82-75.57c-41.79,0-75.67,33.81-75.82,75.57H972.93z"/>
				<path class="st10" d="M481.26,570.36c-0.14-41.76-34.02-75.57-75.82-75.57c-41.79,0-75.67,33.81-75.82,75.57H481.26z"/>
				<path class="st6" d="M681.54,428.95h-31.17c-1.54,0-2.79-1.25-2.79-2.79l0,0c0-1.54,1.25-2.79,2.79-2.79h31.17
					c1.54,0,2.79,1.25,2.79,2.79l0,0C684.33,427.7,683.08,428.95,681.54,428.95z"/>
				<path class="st6" d="M742.55,428.95h-31.17c-1.54,0-2.79-1.25-2.79-2.79l0,0c0-1.54,1.25-2.79,2.79-2.79h31.17
					c1.54,0,2.79,1.25,2.79,2.79l0,0C745.34,427.7,744.09,428.95,742.55,428.95z"/>
			</g>
			<g>
				<path class="st11" d="M953.73,431.92c0,0,26.83,6.24,37.6,9.83c0,0,15.17,4.8,18.89,24.07c0.62,3.21-2.14,6.06-5.36,5.52
					l-18.77-3.15c-1.33-0.22-2.5-1.01-3.21-2.16C979.69,460.82,969.49,445.36,953.73,431.92z"/>
				<path class="st12" d="M995.79,446.27c-3.51-2.75-11.9-5.31-15.41-5.31c9.11,4.71,19.69,19.47,21.53,26.36
					C1010.55,464.24,1002.82,451.54,995.79,446.27z"/>
			</g>
			<g>
				<defs>
					<path id="SVGID_1_" d="M737.62,415.81c-5.54,0-10.04-4.5-10.04-10.04v-65.22c0-5.54,4.5-10.04,10.04-10.04h26.84
						c13.81,0,27.35,3.47,39.14,10.03c20.31,11.3,48.97,31.4,70.14,63.01c1.65,2.47,1.81,5.5,0.41,8.12
						c-1.39,2.6-3.97,4.15-6.91,4.15H737.62z"/>
				</defs>
				<clipPath id="SVGID_2_">
					<use xlink:href="#SVGID_1_"  style="overflow:visible;"/>
				</clipPath>
				<g class="st13">
					<g>
						<g>
							<g>
								<g>
									<path class="st14" d="M760.01,406.94c0.48,0.06,1.01,0.03,1.49-0.11c0.78,0.43,3.73-2.91,2.86-4.4
										c-0.08-0.47-0.21-0.87-0.44-1.28c-0.14-0.32-0.69-0.92-0.61-0.83l-0.12-0.12c-0.08-0.08-0.17-0.16-0.27-0.23
										c-0.11-0.09-0.22-0.16-0.23-0.16c-0.08-0.05-0.07-0.04-0.07-0.04c0,0,0.06,0.04,0.1,0.06l0.37,0.2l0.88,0.43
										c0.61,0.29,1.24,0.57,1.88,0.85c1.28,0.56,2.59,1.09,3.91,1.63c2.63,1.08,5.32,2.08,8.01,3.09
										c2.69,1.01,5.4,1.99,8.12,2.94l8.19,2.84l-0.5-0.1c3.31,0.41,6.5,0.79,9.59,0.58c3.09-0.2,6.15-0.9,9.17-2.04
										c3.02-1.12,5.97-2.62,8.89-4.19c2.93-1.56,5.78-3.32,8.63-5.08l1.51,2.2c-2.73,2.01-5.48,4.02-8.36,5.87
										c-2.87,1.87-5.85,3.63-9.05,5.09c-3.19,1.47-6.69,2.58-10.32,3.04c-3.63,0.47-7.2,0.24-10.59,0.04l-0.15-0.01l-0.36-0.09
										c-2.83-0.69-5.67-1.38-8.5-2.15c-2.82-0.76-5.65-1.54-8.46-2.36c-2.82-0.82-5.62-1.72-8.42-2.67
										c-1.41-0.47-2.8-0.98-4.21-1.52c-0.7-0.27-1.41-0.55-2.13-0.85l-1.1-0.48l-0.6-0.29l-0.38-0.2l-0.31-0.18
										c-0.05-0.03-0.2-0.13-0.34-0.24c-0.1-0.08-0.2-0.16-0.29-0.25l-0.14-0.13c0.07,0.09-0.48-0.52-0.62-0.84
										c-0.23-0.42-0.37-0.81-0.45-1.29c-0.88-1.49,2.09-4.85,2.87-4.42c0.48-0.13,1.03-0.17,1.52-0.11L760.01,406.94z"/>
								</g>
							</g>
							<g>
								<path class="st15" d="M762.55,393.06c3.24,1.28,23.7,7.6,31.65,13.12l0.11,16.98c-16.57-0.3-35.91-9.49-39.23-11.26
									L762.55,393.06z"/>
							</g>
						</g>
						<path class="st14" d="M828.59,399.04c0,0,3.12-5.6,4.47-6.26c1.35-0.66,7.7,1.98,8.94,4.61c1.25,2.64-3.12,8.24-9.78,7.03
							S828.59,399.04,828.59,399.04z"/>
						<path class="st16" d="M853.7,406.9c-5.05,11.25-13.26,18.13-18.34,15.36c-5.08-2.76-5.1-14.12-0.05-25.37
							c5.05-11.25,13.26-18.13,18.34-15.36C858.72,384.29,858.75,395.65,853.7,406.9z"/>
						<g>
							<path class="st14" d="M839.56,394.98c-0.41-0.36-0.96-0.69-1.5-0.93c-0.55-0.24-1.13-0.41-1.72-0.49
								c-0.59-0.07-1.18-0.1-1.77-0.02c-0.59,0.06-1.17,0.22-1.74,0.4l-0.04,0.01c-0.4,0.13-0.83-0.1-0.95-0.5
								c-0.13-0.4,0.1-0.83,0.5-0.95c0.02,0,0.03-0.01,0.05-0.01c0.68-0.17,1.37-0.3,2.08-0.33c0.7-0.05,1.41,0.03,2.1,0.17
								c0.69,0.14,1.35,0.4,1.97,0.72c0.63,0.33,1.18,0.71,1.71,1.25c0.19,0.19,0.19,0.5-0.01,0.69c-0.18,0.18-0.47,0.19-0.66,0.02
								L839.56,394.98z"/>
						</g>
						<g>
							<path class="st14" d="M840.26,398.49c-0.24-0.3-0.6-0.64-0.95-0.9c-0.36-0.28-0.75-0.51-1.17-0.7
								c-0.82-0.39-1.74-0.58-2.66-0.58l-0.01,0c-0.28,0-0.5-0.23-0.5-0.51c0-0.27,0.21-0.49,0.48-0.5c1.06-0.06,2.16,0.1,3.16,0.51
								c0.5,0.2,0.99,0.45,1.43,0.76c0.46,0.31,0.86,0.63,1.27,1.09c0.25,0.28,0.23,0.7-0.05,0.95c-0.28,0.25-0.7,0.23-0.95-0.05
								c-0.01-0.01-0.02-0.02-0.02-0.03L840.26,398.49z"/>
						</g>
						<g>
							<path class="st14" d="M839.76,400.17c-0.27-0.25-0.68-0.53-1.07-0.74c-0.4-0.21-0.82-0.39-1.26-0.51
								c-0.87-0.25-1.8-0.29-2.71-0.15l-0.01,0c-0.27,0.04-0.53-0.14-0.58-0.42c-0.04-0.26,0.13-0.51,0.39-0.57
								c1.04-0.23,2.14-0.25,3.19-0.01c0.53,0.11,1.04,0.29,1.53,0.52c0.5,0.24,0.94,0.49,1.42,0.88c0.29,0.24,0.33,0.66,0.09,0.95
								s-0.66,0.33-0.95,0.09c-0.01-0.01-0.02-0.02-0.03-0.03L839.76,400.17z"/>
						</g>
						<g>
							<path class="st14" d="M839.01,402.7l-5.54-1.38l-0.04-0.01c-0.33-0.08-0.53-0.41-0.45-0.74c0.08-0.32,0.41-0.52,0.73-0.45
								l5.66,1.28c0.36,0.08,0.59,0.44,0.51,0.81c-0.08,0.36-0.44,0.59-0.81,0.51c0,0-0.01,0-0.01,0L839.01,402.7z"/>
						</g>
						<g>
							<path class="st14" d="M837.48,405.5l-5.57-1.53c-0.31-0.08-0.49-0.4-0.41-0.71c0.08-0.3,0.38-0.47,0.67-0.42l0.01,0
								l5.63,1.13l0.02,0c0.42,0.09,0.7,0.5,0.61,0.92c-0.09,0.42-0.5,0.7-0.92,0.61C837.52,405.51,837.5,405.51,837.48,405.5z"/>
						</g>
					</g>
					<g>
						<path class="st17" d="M771.67,387.93c0,0-2.19,3.11-3.51,9.87c-0.31,1.57-1.68,2.71-3.28,2.68c-1.96-0.05-4.61-0.36-6.85-1.54
							c-1.56-0.82-2.17-2.75-1.38-4.33c2.77-5.46,5.78-15.21,5.78-15.21L771.67,387.93z"/>
						<path class="st17" d="M763.62,379.4l1.91,6.38c0,0,10.53,5.9,12.68,5.36c1.89-0.47,3.89-6.75,5.39-9.75
							c1.39-2.77,4.08-3.2,3.2-4.73c-0.88-1.53-2.29-2.51-3.31-4.95c-1.02-2.44,0.82-8.08-1.86-12.14
							c-3.62-5.47-11.55-9.94-23.18-1.27C750.46,364.27,752.61,380.72,763.62,379.4z"/>
						<path class="st18" d="M769.8,370.61l-0.45,3.97c-0.08,0.73-0.71,1.28-1.44,1.28l-1.58-0.01c0,0-1.32,1.59-1.88,4.77
							c-0.34,1.94-1.81,3.5-3.73,3.92l-0.73,0.16c0,0-7.06-4.94-6.71-18.99c0.35-14.05,21.12-18.25,29.3-7.83
							c0,0,1.52,4.68-8.13,7.38C771.94,365.94,770.09,368.03,769.8,370.61z"/>
						<g>
							<path class="st19" d="M753.41,365.45c0,0-3.64-5.41,0.06-12.04c3.17-5.69,16.16-9.3,20.84-7.76
								c7.39,2.43,10.01,9.49,9.18,10.19C781.29,357.68,766.63,364.64,753.41,365.45z"/>
							<path class="st20" d="M760.93,363.31c0.37,0.3,0.77,0.58,1.16,0.85c-2.87,0.64-5.81,1.12-8.69,1.3c0,0-0.28-0.38-0.64-1.03
								C754.84,364.58,757.74,364.11,760.93,363.31z"/>
							<g>
								<path class="st20" d="M761.04,364.33c0,0,13.85,1.82,23.7-1.74c1.65-0.6,3.32-1.36,4.95-2.32c5.21-3.06,6.73-4.41,6.87-4.96
									c0.11-0.45-0.29-1.29-0.57-1.55c-0.93-0.87-3.86,0.1-10.15,3.67c-8.13,4.61-25.29,5.94-25.29,5.94L761.04,364.33z"/>
								<path class="st21" d="M760.56,363.37c0,0,13.85,1.82,23.7-1.74c1.65-0.6,3.32-1.36,4.95-2.32c5.21-3.06,6.73-4.41,6.87-4.96
									c0.5-1.97-5.47-1.06-12.61,0.31C783.47,354.65,779.08,359.47,760.56,363.37z"/>
							</g>
							<g>
								<path class="st21" d="M761.35,347.78l0.31-0.11c0.2-0.26,0.57-0.52,1.07-0.71c0.5-0.18,0.98-0.22,1.34-0.16l0.31-0.11
									l0.18,0.36l-0.01,0c0,0.01,0.01,0.01,0.02,0.01c0.18,0.36-0.36,0.89-1.2,1.19s-1.66,0.26-1.84-0.1c0-0.01,0-0.01,0-0.02
									l-0.01,0L761.35,347.78z"/>
								<path class="st20" d="M761.35,347.78c0.18,0.36,1,0.4,1.84,0.1c0.84-0.3,1.38-0.84,1.2-1.19c-0.18-0.36-1-0.4-1.84-0.1
									C761.71,346.89,761.17,347.43,761.35,347.78z"/>
							</g>
						</g>
						<path class="st17" d="M765.94,371.77c-0.79-0.59-2.18-1.1-3.2-0.95c-2.12,0.32-3.34,1.75-2.99,4.05
							c0.35,2.3,2.24,4.23,4.29,4.84c1.03,0.31,2.05,0.27,2.51-0.43C766.62,378.76,766.32,375.84,765.94,371.77z"/>
					</g>
					<g>
						<path class="st11" d="M775.86,431.05c1.53-5.07,2.49-10.3,2.43-15.59c-0.56-3.51-3.61-9.35-7.32-16.99
							c-1.44-2.96-3.86-5.43-6.95-6.58c-7.08-2.63-14.88,1.59-19.64,12.05c-3.25,7.12-12.03,47.72-10.82,74.87
							c0.17,3.84,2.36,7.21,6.19,7.17c7.48-0.07,20.11-1.14,34.81-6.28c3.93-1.37,6.01-5.66,4.68-9.6
							C776.67,462.5,771.62,445.04,775.86,431.05z"/>
					</g>
					<g>
						<g>
							<g>
								<g>
									<g>
										<path class="st17" d="M843.64,416.76c-3.51,1.34-7.03,2.66-10.59,3.88c-3.58,1.18-7.19,2.28-10.87,3.26
											c-3.67,0.97-7.42,1.73-11.19,2.34c-1.88,0.3-3.78,0.56-5.65,0.79l-2.82,0.33c-0.98,0.09-1.96,0.18-2.95,0.22
											c-3.95,0.2-8.21-0.12-12.21-1.54c-4.02-1.38-7.44-3.61-10.55-5.82c-6.21-4.46-11.92-8.95-18.06-13.04
											c-1.49-0.99-1.89-3.01-0.9-4.49c0.98-1.48,2.97-1.89,4.45-0.93l0.01,0.01c3.19,2.06,6.33,4.2,9.4,6.4
											c3.06,2.21,6.01,4.55,8.96,6.68c2.96,2.11,5.83,4.07,8.86,5.22c3.02,1.19,6.34,1.6,9.84,1.54
											c0.87-0.01,1.75-0.06,2.64-0.11l2.76-0.18c1.84-0.13,3.66-0.29,5.48-0.49c3.63-0.39,7.24-0.99,10.85-1.67
											c3.62-0.67,7.23-1.48,10.83-2.36c3.62-0.84,7.21-1.8,10.84-2.7l0.04-0.01c0.75-0.18,1.51,0.27,1.69,1.02
											C844.66,415.81,844.29,416.51,843.64,416.76z"/>
									</g>
								</g>
							</g>
							<g>
								<path class="st17" d="M854.06,416.86l1.6-3.14c0.19-0.37,0.12-0.83-0.17-1.13l-3.77-3.96c-0.4-0.11-0.82-0.21-1.24-0.3
									c-4.5-0.96-8.93,1.88-10.14,6.32c-0.82,3.03-1.34,6.26,0.22,6.29c2.76,0.07,7.02,0.27,9.43-1.09
									C851.44,419.06,852.77,418.08,854.06,416.86z"/>
								<g>
									<path class="st17" d="M850.77,403.49c-0.74,0.56-1.45,1.29-2.02,2.05c-0.59,0.77-1.06,1.61-1.41,2.48
										c-0.35,0.87-0.59,1.78-0.66,2.7c-0.12,0.91-0.03,1.84,0.07,2.75l0.01,0.08c0.09,0.76-0.45,1.45-1.21,1.54
										c-0.76,0.09-1.45-0.45-1.54-1.21c-0.01-0.06-0.01-0.12-0.01-0.18c0.02-1.14,0.08-2.28,0.38-3.38
										c0.25-1.11,0.69-2.16,1.25-3.13c0.55-0.97,1.23-1.85,2.01-2.62c0.78-0.77,1.61-1.43,2.6-1.98c0.25-0.14,0.58-0.05,0.72,0.2
										c0.13,0.23,0.07,0.52-0.14,0.68L850.77,403.49z"/>
								</g>
								<g>
									<path class="st17" d="M848.65,415.03c0.64,0.08,1.45,0.05,2.17-0.05c0.74-0.1,1.48-0.27,2.19-0.52
										c0.71-0.26,1.41-0.56,2.06-0.96c0.66-0.38,1.27-0.85,1.87-1.33l0.02-0.02c0.23-0.19,0.56-0.15,0.74,0.07
										c0.18,0.22,0.15,0.54-0.05,0.72c-0.61,0.56-1.24,1.11-1.95,1.57c-0.69,0.48-1.45,0.86-2.22,1.19
										c-0.78,0.33-1.6,0.56-2.43,0.72c-0.85,0.16-1.66,0.25-2.61,0.19c-0.44-0.03-0.77-0.41-0.74-0.85s0.41-0.77,0.85-0.74
										c0.01,0,0.03,0,0.04,0L848.65,415.03z"/>
								</g>
								<g>
									<path class="st17" d="M849.3,412.03c0.46,0.5,1.28,0.93,2.06,0.9c0.8-0.01,1.64-0.34,2.4-0.85
										c0.75-0.53,1.45-1.18,2.08-1.91c0.64-0.72,1.2-1.53,1.76-2.33l0.02-0.03c0.17-0.24,0.5-0.3,0.74-0.13
										c0.23,0.16,0.29,0.48,0.14,0.72c-0.55,0.86-1.09,1.73-1.74,2.53c-0.64,0.81-1.37,1.57-2.23,2.23
										c-0.86,0.64-1.92,1.16-3.13,1.23c-0.6,0.02-1.21-0.07-1.77-0.3c-0.57-0.24-1.05-0.52-1.54-1.03
										c-0.3-0.32-0.3-0.82,0.02-1.12c0.32-0.3,0.82-0.3,1.12,0.02c0,0,0.01,0.01,0.01,0.01L849.3,412.03z"/>
								</g>
								<g>
									<path class="st17" d="M848.48,409.43c0.32,0.08,0.93,0.1,1.42-0.01c0.52-0.1,1.03-0.26,1.53-0.5
										c0.99-0.48,1.93-1.14,2.74-1.96c0.43-0.39,0.79-0.84,1.19-1.27c0.35-0.47,0.73-0.91,1.07-1.4
										c0.32-0.49,0.67-0.97,0.97-1.48l0.89-1.54l0.02-0.03c0.15-0.25,0.47-0.34,0.72-0.19c0.25,0.14,0.33,0.46,0.2,0.71
										l-0.86,1.62c-0.3,0.54-0.64,1.05-0.96,1.58c-0.33,0.52-0.71,1.01-1.07,1.52c-0.41,0.47-0.78,0.97-1.23,1.42
										c-0.85,0.92-1.88,1.72-3.04,2.33c-0.58,0.31-1.21,0.54-1.87,0.69c-0.69,0.14-1.31,0.22-2.17,0.04
										c-0.43-0.09-0.71-0.51-0.62-0.94c0.09-0.43,0.51-0.71,0.94-0.62c0.01,0,0.02,0,0.03,0.01L848.48,409.43z"/>
								</g>
								<g>
									<path class="st17" d="M847.63,410.15c0.97,0.42,2.2,0.65,3.32,0.56c1.14-0.07,2.25-0.45,3.22-1.08
										c0.97-0.64,1.76-1.55,2.45-2.53c0.32-0.51,0.61-1.05,0.91-1.58l0.73-1.69l0.02-0.05c0.12-0.27,0.43-0.39,0.69-0.28
										c0.26,0.11,0.39,0.41,0.28,0.68l-0.71,1.82c-0.3,0.58-0.59,1.18-0.93,1.74c-0.73,1.11-1.58,2.17-2.71,2.98
										c-1.12,0.79-2.47,1.3-3.85,1.44c-1.4,0.13-2.74-0.04-4.11-0.57c-0.41-0.16-0.61-0.62-0.45-1.03
										c0.16-0.41,0.62-0.61,1.03-0.45c0.01,0,0.02,0.01,0.02,0.01L847.63,410.15z"/>
								</g>
							</g>
						</g>
						<path class="st11" d="M750.79,409.13c1.33,12.27,30.45,20.7,30.45,20.7c2.63-12.65,7.61-15.52,7.61-15.52
							c-8.95-12.18-16.12-16.23-20.64-19.33c-3.27-2.25-7.59-2.23-10.82,0.07C753.82,397.6,750.03,402.03,750.79,409.13z"/>
					</g>
				</g>
				<path class="st22" d="M741.12,427.05H715.2v-39.07c0-7.16,5.8-12.96,12.96-12.96l0,0c7.16,0,12.96,5.8,12.96,12.96V427.05z"/>
			</g>
			<g>
				
					<ellipse transform="matrix(0.9217 -0.3879 0.3879 0.9217 -151.107 392.7024)" class="st6" cx="897.11" cy="570.62" rx="52.13" ry="52.13"/>
				
					<ellipse transform="matrix(0.9226 -0.3857 0.3857 0.9226 -150.6785 390.1959)" class="st23" cx="897.11" cy="570.62" rx="30.35" ry="30.34"/>
				<path class="st24" d="M911.36,570.62c0,7.87-6.38,14.25-14.25,14.25c-7.87,0-14.25-6.38-14.25-14.25
					c0-7.87,6.38-14.25,14.25-14.25C904.98,556.37,911.36,562.75,911.36,570.62z"/>
			</g>
			<g>
				
					<ellipse transform="matrix(0.7071 -0.7071 0.7071 0.7071 -284.7376 453.8257)" class="st6" cx="405.45" cy="570.62" rx="52.13" ry="52.13"/>
				
					<ellipse transform="matrix(0.7071 -0.7071 0.7071 0.7071 -284.7376 453.8257)" class="st23" cx="405.45" cy="570.62" rx="30.35" ry="30.34"/>
				<path class="st24" d="M419.7,570.62c0,7.87-6.38,14.25-14.25,14.25c-7.87,0-14.25-6.38-14.25-14.25
					c0-7.87,6.38-14.25,14.25-14.25C413.32,556.37,419.7,562.75,419.7,570.62z"/>
			</g>
		</g>
		<g>
			<g>
				<g>
					<path class="st19" d="M683.49,644.89c2.07,0.71,2.37,4.48,0.18,4.64c-0.02,0-0.03,0-0.05,0l-29.12,0.18
						c-1.35,0.08-2.5-0.95-2.58-2.3c0,0,1.33-7.72,3.8-7.85l11.92,0.33C667.72,639.91,678.42,643.16,683.49,644.89z"/>
				</g>
				<path class="st25" d="M661.92,540.92c-0.7-8.83-8.07-19.37-16.78-22.53c-22.67-8.21-80.22-21.95-84.07-22.56l-5.96,48.08
					c3.2,0.14,68.31,0.69,76.92,8c6.76,5.74,8.8,44.45,11.79,54.03c0.81,2.61,9.38,34.8,11.18,34.69c0,0,10.58-0.68,10.58-0.68
					C666.06,616,663.26,557.74,661.92,540.92z"/>
			</g>
			<g>
				<line class="st26" x1="458.01" y1="583.44" x2="427.11" y2="535.99"/>
				<path class="st6" d="M614.68,547.49c0,0,10.26-0.64,18.92,7.05c8.66,7.69,22.76,28.53,18.59,36.87
					c-4.17,8.34-8.66,13.79-20.84,10.58c-12.18-3.21-100.35-34.62-163.18-25.97c0,0-4.85-12.24-3.16-27.17
					c0.35-3.15,3.05-5.53,6.22-5.53h46.84c2.59,0,5.17,0.44,7.6,1.33C535.91,548.45,567.63,555.12,614.68,547.49z"/>
				<path class="st6" d="M470.77,549.97h-68.82c-0.4,0-0.73-0.33-0.73-0.73v-5.04c0-0.4,0.33-0.73,0.73-0.73h68.82
					c0.4,0,0.73,0.33,0.73,0.73v5.05C471.5,549.64,471.17,549.97,470.77,549.97z"/>
			</g>
			<g>
				<g>
					
						<ellipse transform="matrix(0.9258 -0.3779 0.3779 0.9258 -203.2745 357.2521)" class="st6" cx="808.64" cy="696.57" rx="59.15" ry="59.15"/>
					<path class="st23" d="M840.79,696.57c0,17.76-14.4,32.15-32.15,32.15c-17.76,0-32.15-14.4-32.15-32.15
						c0-17.76,14.4-32.15,32.15-32.15C826.4,664.41,840.79,678.81,840.79,696.57z"/>
					<path class="st27" d="M820.14,696.57c0,6.35-5.15,11.5-11.5,11.5c-6.35,0-11.5-5.15-11.5-11.5c0-6.35,5.15-11.5,11.5-11.5
						C814.99,685.07,820.14,690.22,820.14,696.57z"/>
				</g>
				<path class="st4" d="M819.86,645.04l34.21-2.25c-9.62-23.53-33.63-40.22-61.74-40.22c-36.59,0-66.25,28.25-66.25,63.11
					c0,5.35,0.7,10.54,2.02,15.5h22.83l8.94-8.94C775.91,656.2,797.23,646.53,819.86,645.04z"/>
			</g>
			<g>
				<g>
					<g>
						<path class="st14" d="M596.44,427.3c0.5,0.34,1.38,0.76,2.71,0.66c1.38-0.14,2.3-0.95,2.68-1.39c0.43-0.51,0.55-0.8,0.67-1.07
							c0.1-0.24,0.14-0.38,0.19-0.55c0.13-0.51,0.11-0.65,0.12-0.8c0.01-0.26-0.01-0.33-0.01-0.39c-0.01-0.1-0.02-0.08-0.01-0.05
							c0.01,0.07,0.06,0.23,0.12,0.4c0.12,0.35,0.3,0.77,0.52,1.2c0.43,0.86,0.98,1.76,1.59,2.65c1.22,1.79,2.67,3.54,4.2,5.25
							c3.08,3.43,6.58,6.61,10.19,9.7c3.62,3.08,7.41,6.01,11.3,8.84c1.94,1.41,3.9,2.82,5.88,4.19c1.98,1.37,4,2.76,5.95,3.94
							c3.98,2.37,8.25,4.21,12.74,5.52c4.48,1.33,9.18,2.12,13.92,2.59c9.52,0.86,19.23,0.59,28.9-0.13l0.25,2.28
							c-9.68,1.36-19.49,2.36-29.43,1.99c-4.96-0.22-9.97-0.74-14.9-1.92c-4.92-1.18-9.76-2.98-14.27-5.39
							c-2.27-1.26-4.36-2.48-6.47-3.75c-2.11-1.27-4.21-2.56-6.29-3.9c-4.14-2.69-8.22-5.51-12.19-8.53
							c-3.97-3.02-7.79-6.3-11.39-9.97c-1.8-1.84-3.51-3.81-5.09-6.01c-0.79-1.1-1.54-2.26-2.23-3.57
							c-0.34-0.66-0.67-1.34-0.97-2.14c-0.15-0.4-0.29-0.82-0.42-1.34c-0.06-0.27-0.12-0.55-0.17-0.95
							c-0.02-0.21-0.05-0.43-0.03-0.85c0.02-0.22,0.01-0.44,0.15-1.03c0.05-0.18,0.1-0.35,0.21-0.6c0.13-0.28,0.26-0.59,0.7-1.11
							c0.39-0.46,1.33-1.28,2.73-1.42c1.35-0.1,2.25,0.32,2.77,0.67L596.44,427.3z"/>
					</g>
					<g>
						<path class="st14" d="M718.75,466.08l-9.76,2.93l-3.04,3.36l-7.63,0.09l-2.06-6.57l15.91-4.92
							C713.93,460.47,720.52,465.57,718.75,466.08z"/>
						<g>
							<path class="st14" d="M714.15,468.92c0.31,0.47,1.02,0.77,1.77,0.86c0.75,0.1,1.56,0.05,2.3-0.15
								c0.74-0.2,1.43-0.54,1.89-1.01c0.46-0.47,0.65-1.03,0.59-1.67c-0.08-0.7-0.3-1.5-0.67-2.04c-0.37-0.56-0.89-0.93-1.55-1.12
								c-1.33-0.38-3.1-0.05-4.57,0.5l-0.06,0.02c-0.45,0.17-0.96-0.06-1.13-0.52c-0.16-0.43,0.05-0.91,0.46-1.1
								c0.92-0.42,1.8-0.69,2.77-0.88c0.96-0.15,2-0.19,3.05,0.08c1.06,0.25,2.07,1,2.67,1.93c0.61,0.96,0.86,1.92,0.96,2.98
								c0.1,1.13-0.39,2.39-1.22,3.14c-0.82,0.77-1.81,1.19-2.79,1.4c-0.99,0.2-1.99,0.22-2.99,0.02c-0.96-0.22-2.06-0.67-2.67-1.77
								c-0.18-0.33-0.06-0.75,0.27-0.93c0.31-0.17,0.71-0.08,0.9,0.22L714.15,468.92z"/>
						</g>
						<g>
							<path class="st14" d="M706.59,468.05c-0.03-0.23-0.03-0.13-0.03-0.15c0.01,0.01,0,0.03,0.02,0.06
								c0.02,0.06,0.07,0.14,0.15,0.22c0.13,0.17,0.38,0.33,0.64,0.5c0.55,0.31,1.25,0.52,1.97,0.69c1.46,0.32,3.03,0.42,4.61,0.44
								l0.02,0c0.48,0.01,0.87,0.4,0.87,0.89c-0.01,0.45-0.36,0.82-0.8,0.86c-1.65,0.15-3.33,0.23-5.07,0.04
								c-0.87-0.12-1.76-0.27-2.68-0.66c-0.46-0.22-0.92-0.45-1.37-0.85c-0.22-0.19-0.44-0.42-0.63-0.71
								c-0.1-0.13-0.18-0.3-0.26-0.47c-0.08-0.21-0.14-0.3-0.19-0.74c-0.03-0.76,0.56-1.41,1.32-1.44
								C705.91,466.7,706.56,467.29,706.59,468.05z"/>
						</g>
					</g>
				</g>
				<g>
					<path class="st15" d="M606.86,413.78c3.13,3.39,23.95,22.81,30.28,33.82l-9.53,19.24c-19.59-10.29-37.43-32.28-40.37-36.28
						L606.86,413.78z"/>
				</g>
				<g>
					<path class="st19" d="M718.83,467.24c0.11,1.3-0.76,2.4-1.97,2.47c-1.24,0.07-2.38-0.97-2.5-2.33
						c-0.13-1.37,0.82-2.49,2.08-2.5C717.66,464.87,718.72,465.93,718.83,467.24z"/>
					<polygon class="st19" points="715.15,465.35 702.21,473.89 712.67,475.57 718.36,468.92 					"/>
				</g>
				<g>
					<path class="st14" d="M716.38,472.83c1.25-0.34,2.36-1.09,2.66-2.01c0.16-0.48,0.13-0.92-0.02-1.57
						c-0.14-0.6-0.36-1.16-0.69-1.61c-1.32-1.88-4.39-2.12-6.92-1.68l-0.07,0.01c-0.48,0.08-0.93-0.24-1.01-0.71
						c-0.08-0.46,0.22-0.9,0.67-1c1.55-0.36,3.06-0.49,4.66-0.24c0.79,0.13,1.59,0.37,2.35,0.77c0.75,0.4,1.43,1,1.93,1.71
						c0.51,0.71,0.82,1.52,1,2.33c0.19,0.74,0.22,1.81-0.16,2.68c-0.36,0.9-1.08,1.56-1.82,1.97c-0.74,0.43-1.55,0.61-2.34,0.71
						c-0.38,0.05-0.72-0.22-0.76-0.6c-0.04-0.34,0.18-0.66,0.5-0.74L716.38,472.83z"/>
				</g>
			</g>
			<g>
				<line class="st28" x1="700.44" y1="476.8" x2="691.3" y2="451.55"/>
				<path class="st29" d="M688.43,425.39c-0.52,0-1.03,0.11-1.52,0.32v32.55c0.49,0.2,1,0.32,1.52,0.32c4.38,0,7.93-7.43,7.93-16.59
					C696.37,432.82,692.81,425.39,688.43,425.39z"/>
			</g>
			<g>
				<g>
					
						<ellipse transform="matrix(0.9777 -0.2102 0.2102 0.9777 -135.87 114.7771)" class="st6" cx="472.02" cy="696.57" rx="59.15" ry="59.15"/>
					<path class="st23" d="M504.17,696.57c0,17.76-14.4,32.15-32.15,32.15c-17.76,0-32.15-14.4-32.15-32.15
						c0-17.76,14.4-32.15,32.15-32.15C489.77,664.41,504.17,678.81,504.17,696.57z"/>
					<path class="st27" d="M483.52,696.57c0,6.35-5.15,11.5-11.5,11.5c-6.35,0-11.5-5.15-11.5-11.5c0-6.35,5.15-11.5,11.5-11.5
						C478.37,685.07,483.52,690.22,483.52,696.57z"/>
				</g>
				<path class="st4" d="M564.35,698.97c0,0-14.43,20.2-44.72,15.87c-30.3-4.33-81.75-23.08-82.23-28.85
					c-0.48-5.77,15.39-29.82,39.43-19.72C500.87,676.37,523.47,701.38,564.35,698.97z"/>
			</g>
			<path class="st19" d="M701.91,491.79c0.42,2.99-1,5.67-3.18,5.97c-2.17,0.31-4.28-1.87-4.7-4.86c-0.42-2.99,1-5.67,3.18-5.97
				C699.38,486.62,701.49,488.8,701.91,491.79z"/>
			<g>
				<path class="st29" d="M417.14,632.84l-11.35-7.31c-1.81-1.16-2.33-3.57-1.16-5.38l19.58-30.38c1.16-1.81,3.57-2.33,5.38-1.16
					l11.35,7.32L417.14,632.84z"/>
				<g>
					<path class="st11" d="M742.61,479.19c4.55,8.91,3.7,18.45-1.91,21.31c-5.6,2.86-13.84-2.04-18.39-10.95
						c-4.55-8.91-3.7-18.45,1.91-21.31C729.83,465.38,738.06,470.28,742.61,479.19z"/>
					<path class="st29" d="M697.07,472.15L697.07,472.15c13.95-11.86,29.49-8.98,29.49-8.98l14.41,35.46
						c1.11,2.74-0.79,5.76-3.74,5.94l-15.15,0.92L697.07,472.15z"/>
				</g>
				<path class="st4" d="M699.48,474.88l-13.29,8.48c-5.2,3.32-6.83,10.15-3.69,15.46l22.26,37.62l18.27-18.75l-0.96-12.18
					L699.48,474.88z"/>
				<path class="st4" d="M546.89,667.32h38.26v37.29h-31.09c-3.96,0-7.17-3.21-7.17-7.17V667.32z"/>
				<path class="st4" d="M723.04,517.68l7.69-9.62c0,0,35.41,28.25,62.42,78.42c2.62,4.87,0.56,10.93-4.44,13.3
					c-6,2.84-13.55,8.61-19.04,20.33c-10.58,22.6-42.32,70.69-42.32,70.69s-7.21,16.35-37.03,16.35c-29.82,0-107.24,0-107.24,0
					l-10.58-19.72l2.89-3.85l-19.72-14.43c0,0-123.59-12.5-146.19-29.82c0,0,12.02-45.68,56.26-64.44c0,0,63.48-16.83,167.35,24.53
					c0,0,3.85,5.29-2.89,17.79c-6.73,12.5-4.33,37.51,23.08,42.32c27.41,4.81,53.86,9.62,62.03-26.45c0,0-2.89-12.5-2.89-20.2
					c0-7.69,0.96-57.23-7.69-76.46L723.04,517.68z"/>
				<g>
					<g>
						<rect x="481.37" y="605.96" class="st24" width="52.68" height="1.05"/>
					</g>
					<g>
						<rect x="479.33" y="611.48" class="st24" width="54.72" height="1.05"/>
					</g>
					<g>
						<rect x="478.31" y="616.99" class="st24" width="55.74" height="1.05"/>
					</g>
					<g>
						<rect x="476.68" y="622.5" class="st24" width="57.37" height="1.05"/>
					</g>
					<g>
						<rect x="475.05" y="628.02" class="st24" width="59.01" height="1.05"/>
					</g>
					<g>
						<rect x="475.05" y="633.53" class="st24" width="59.01" height="1.05"/>
					</g>
				</g>
				<path class="st29" d="M690.34,707.15c29.82,0,37.03-16.35,37.03-16.35s31.74-48.09,42.32-70.69
					c5.48-11.71,13.03-17.49,19.04-20.33c5-2.37,7.06-8.43,4.44-13.3c-27.01-50.17-62.42-78.42-62.42-78.42l-1.44,8.44
					c-1.56,9.19-0.1,18.64,4.16,26.93l18.97,36.86c5.09,9.9,5.09,21.64-0.01,31.54l-28.48,55.21c-6.46,12.53-19.37,20.4-33.47,20.4
					H572.52l10.58,19.72C583.1,707.15,660.52,707.15,690.34,707.15z"/>
				<path class="st4" d="M563.54,678.61c0,10-8.11,18.11-18.11,18.11s-18.11-8.11-18.11-18.11c0-10,8.11-18.11,18.11-18.11
					S563.54,668.61,563.54,678.61z"/>
				<g>
					<path class="st4" d="M690.28,502.68c1.58,4.19,0.03,8.65-3.47,9.97c-3.5,1.32-7.61-1-9.19-5.19c-1.58-4.19-0.03-8.65,3.47-9.97
						C684.58,496.17,688.7,498.49,690.28,502.68z"/>
					<polygon class="st4" points="681.09,497.49 702.44,486.01 708.09,495.36 686.81,512.65 					"/>
				</g>
			</g>
			<g>
				<g>
					<path class="st30" d="M648.93,528.98c-5.52-5.37-12.81-9.99-20.04-12.08c-10.11-2.93-19.64-5.63-29.66-8.84
						c-6.99-2.2-14.8-2.57-20.87-5.26c0,0-26.38-1.94-32.06,10.02c-6.99,14.71,4.7,39.27,16.92,38.62
						c18.76,0.96,42.7-2.39,61.42-0.84c2.04,0.17,4.07,0.41,6.11,0.64c0.2,0.02,0.42,0.05,0.58,0.18c0.12,0.1,0.19,0.26,0.25,0.41
						c1.23,2.88,2.54,6.01,3.03,9.12c1.57,6.57,2.76,13.61,3.81,20.7c1.05,7.11,1.89,14.33,2.57,21.58
						c1.34,14.51,2.93,28.05,2.98,42.64c0,0,10.85,0.55,10.85,0.55c0.18-2.57,4.33-45.33,4.56-50.82
						c0.22-5.14,0.35-10.29,0.38-15.44c0.07-14.09-0.13-30.23-5.56-43.45C652.91,533.64,651.1,531.1,648.93,528.98z"/>
					<g>
						<path class="st19" d="M671.6,651.5c2.06,0.74,2.31,4.51,0.12,4.64c-0.02,0-0.03,0-0.05,0l-29.12-0.18
							c-1.35,0.06-2.49-0.98-2.55-2.33c0,0,1.81-8.48,4.28-8.57l11.53,1.26C655.89,646.32,666.55,649.7,671.6,651.5z"/>
					</g>
				</g>
				<g>
					<g>
						<path class="st17" d="M618.15,409.07c0,0-3.8,2.95-7.9,10.63c-0.95,1.79-3.03,2.66-4.96,2.02c-2.35-0.78-5.43-2.15-7.71-4.39
							c-1.59-1.57-1.61-4.13-0.06-5.74c5.37-5.58,12.62-16.24,12.62-16.24L618.15,409.07z"/>
						<path class="st17" d="M611.57,395.78l-0.06,8.42c0,0,10.54,11.04,13.35,11.18c2.46,0.13,7.2-6.72,10.13-9.79
							c2.7-2.83,6.12-2.35,5.62-4.54c-0.5-2.18-1.84-3.88-2.18-7.21c-0.33-3.33,3.99-9.46,2.24-15.36
							c-2.35-7.95-10.29-16.29-27.56-10.12C601.26,372.61,597.77,393.3,611.57,395.78z"/>
						<path class="st18" d="M622.29,387.43l-2.01,4.63c-0.37,0.85-1.33,1.29-2.22,1.01l-1.91-0.6c0,0-2.18,1.44-4.03,5.07
							c-1.13,2.22-3.48,3.56-5.97,3.36l-0.94-0.08c0,0-6.71-8.59-1.08-25.45c5.63-16.86,32.29-14.25,38.32,1.39
							c0,0,0.11,6.23-12.57,5.91C626.62,382.59,623.6,384.43,622.29,387.43z"/>
						<path class="st17" d="M617.2,387.41c-0.74-1.01-2.23-2.14-3.51-2.33c-2.68-0.39-4.69,0.88-5.11,3.79
							c-0.43,2.91,1.14,5.94,3.4,7.44c1.13,0.75,2.38,1.09,3.19,0.4C615.44,396.12,616.16,392.47,617.2,387.41z"/>
						<g>
							<path class="st19" d="M604.39,375.13c0,0-2.39-7.88,4.53-14.54c5.94-5.7,22.98-5.26,28.07-1.67
								c8.04,5.68,8.59,15.18,7.33,15.71C640.98,376.06,620.68,379.05,604.39,375.13z"/>
							<path class="st20" d="M614.28,375.32c0.34,0.5,0.72,0.99,1.09,1.46c-3.71-0.29-7.44-0.8-10.98-1.65c0,0-0.2-0.56-0.39-1.48
								C606.44,374.61,610.12,375.11,614.28,375.32z"/>
							<g>
								<path class="st20" d="M614.03,376.6c0,0,16.07,7.34,29.3,6.67c2.22-0.11,4.51-0.41,6.85-0.97
									c7.43-1.77,9.77-2.84,10.15-3.46c0.3-0.5,0.12-1.67-0.11-2.08c-0.8-1.4-4.71-1.31-13.63,0.67
									c-11.54,2.57-32.77-2.18-32.77-2.18L614.03,376.6z"/>
								<path class="st21" d="M613.81,375.26c0,0,16.07,7.34,29.3,6.67c2.22-0.11,4.51-0.41,6.85-0.97
									c7.43-1.77,9.77-2.84,10.15-3.46c1.34-2.2-6.22-3.3-15.36-4.3C644.74,373.21,637.64,377.41,613.81,375.26z"/>
							</g>
							<g>
								<path class="st21" d="M620.54,356.71l0.42-0.02c0.33-0.24,0.88-0.42,1.56-0.46c0.68-0.03,1.27,0.09,1.68,0.3l0.42-0.02
									l0.08,0.5l-0.01,0c0,0.01,0.01,0.01,0.01,0.02c0.08,0.5-0.76,0.94-1.89,1c-1.13,0.06-2.11-0.3-2.19-0.8
									c0-0.01,0.01-0.02,0.01-0.02l-0.01,0L620.54,356.71z"/>
								<path class="st20" d="M620.54,356.71c0.08,0.5,1.06,0.85,2.19,0.8c1.13-0.06,1.97-0.5,1.89-1c-0.08-0.5-1.06-0.85-2.19-0.8
									C621.3,355.77,620.45,356.22,620.54,356.71z"/>
							</g>
						</g>
					</g>
					<path class="st11" d="M607.24,462.75c3.73-5.56,6.83-11.52,8.71-17.95c0.62-4.46-0.9-12.65-2.56-23.25
						c-0.64-4.12-2.66-7.99-5.96-10.52c-7.59-5.8-18.58-3.59-28.21,7.29c-6.56,7.41-32.21,53.24-40.81,86.5
						c-1.21,4.7,0.18,9.59,4.83,10.96c9.07,2.68,31.12-0.32,50.81-1.08c5.25-0.2,9.36-4.61,9.21-9.87
						C602.96,494.69,596.94,478.09,607.24,462.75z"/>
					<g>
						<g>
							<g>
								<g>
									<g>
										<path class="st17" d="M680.55,498.41c-5.02-0.81-10-1.79-14.99-2.79c-4.98-1.05-9.94-2.21-14.88-3.46
											c-4.95-1.24-9.86-2.69-14.74-4.34c-2.44-0.83-4.88-1.72-7.3-2.74c-2.43-1.05-4.83-2.12-7.29-3.84
											c-0.3-0.23-0.64-0.49-0.91-0.7l-0.75-0.63c-0.5-0.42-1-0.85-1.49-1.29c-0.99-0.87-1.96-1.77-2.9-2.72
											c-1.89-1.89-3.7-3.93-5.28-6.19c-3.21-4.51-5.34-9.72-6.72-14.75c-1.43-5.04-2.51-9.99-3.7-14.89
											c-1.11-4.91-2.3-9.78-3.59-14.63c-0.48-1.79,0.58-3.62,2.37-4.1c1.75-0.47,3.54,0.54,4.07,2.25l0.01,0.05
											c1.49,4.89,2.74,9.86,3.97,14.8c1.17,4.95,2.22,9.91,3.52,14.63c1.32,4.72,2.86,9.1,5.45,12.94
											c1.26,1.94,2.77,3.75,4.4,5.5c0.81,0.88,1.67,1.72,2.56,2.56c0.44,0.42,0.88,0.83,1.34,1.24l0.68,0.61l0.57,0.49
											c1.64,1.27,3.83,2.42,6.01,3.46c2.2,1.04,4.49,1.99,6.81,2.89c4.64,1.8,9.42,3.35,14.19,4.94c4.79,1.56,9.62,3,14.47,4.4
											c4.84,1.46,9.72,2.77,14.59,4.16l0.01,0c0.59,0.17,0.94,0.79,0.77,1.38C681.64,498.17,681.1,498.5,680.55,498.41z"/>
									</g>
								</g>
							</g>
							<g>
								<g>
									<path class="st17" d="M693.83,493.41c-1.12-0.3-2.44-0.38-3.67-0.35c-1.26,0.03-2.51,0.19-3.75,0.42
										c-1.24,0.22-2.46,0.57-3.66,0.94c-0.6,0.19-1.19,0.42-1.79,0.63l-1.75,0.72l-0.06,0.02c-0.73,0.3-1.57-0.05-1.86-0.78
										c-0.3-0.73,0.05-1.57,0.78-1.86c0.05-0.02,0.1-0.04,0.15-0.05l1.95-0.55c0.66-0.15,1.31-0.32,1.97-0.45
										c1.33-0.25,2.66-0.48,4.01-0.56c1.35-0.1,2.7-0.12,4.06,0c1.36,0.14,2.67,0.34,4.03,0.87c0.28,0.11,0.42,0.43,0.31,0.71
										c-0.1,0.26-0.38,0.4-0.65,0.33L693.83,493.41z"/>
								</g>
								<g>
									<path class="st17" d="M681.6,498.97c1.22-0.31,2.38-0.42,3.59-0.39c1.2,0.04,2.43,0.28,3.56,0.83
										c1.14,0.53,2.09,1.47,2.68,2.54c0.35,0.52,0.51,1.11,0.71,1.68c0.17,0.58,0.24,1.17,0.35,1.75
										c0.06,0.29-0.13,0.58-0.42,0.64c-0.28,0.06-0.56-0.12-0.63-0.4l-0.03-0.1c-0.13-0.51-0.21-1.05-0.38-1.54
										c-0.2-0.48-0.35-0.98-0.66-1.39c-0.52-0.87-1.28-1.56-2.21-1.94c-0.92-0.4-1.95-0.57-2.99-0.56
										c-1.03,0.01-2.14,0.17-3.09,0.45l-0.04,0.01c-0.43,0.13-0.89-0.11-1.03-0.55c-0.13-0.43,0.11-0.89,0.55-1.03
										C681.58,498.98,681.59,498.98,681.6,498.97z"/>
								</g>
								<g>
									<path class="st17" d="M684.61,496.48c1.35-0.03,2.59,0.12,3.86,0.39c1.26,0.28,2.5,0.73,3.64,1.39
										c1.13,0.69,2.12,1.65,2.81,2.79c0.74,1.13,0.97,2.47,1.14,3.75c0.04,0.3-0.17,0.57-0.47,0.61
										c-0.29,0.04-0.56-0.16-0.61-0.44l-0.01-0.07c-0.2-1.13-0.43-2.28-1.1-3.2c-0.61-0.93-1.46-1.7-2.45-2.25
										c-1-0.54-2.11-0.89-3.25-1.1c-1.13-0.21-2.35-0.3-3.45-0.23l-0.04,0c-0.45,0.03-0.84-0.32-0.87-0.77
										c-0.03-0.45,0.32-0.84,0.77-0.87C684.59,496.48,684.6,496.48,684.61,496.48z"/>
								</g>
								<g>
									<path class="st17" d="M685.25,494.11c1.51-0.89,3.1-1.34,4.8-1.36c1.68-0.02,3.36,0.53,4.73,1.46
										c1.42,0.9,2.39,2.22,3.32,3.51c0.38,0.69,0.8,1.37,1.15,2.07l0.94,2.16c0.12,0.28-0.01,0.6-0.28,0.72
										c-0.27,0.12-0.59,0-0.71-0.27l-0.02-0.05l-0.96-2.03c-0.35-0.66-0.76-1.27-1.14-1.91c-0.89-1.16-1.82-2.33-3.05-3.04
										c-1.19-0.76-2.56-1.15-3.95-1.1c-1.37,0.03-2.81,0.52-3.91,1.21l-0.07,0.04c-0.38,0.24-0.89,0.13-1.13-0.26
										c-0.24-0.38-0.13-0.89,0.26-1.13C685.23,494.12,685.24,494.12,685.25,494.11z"/>
								</g>
								<g>
									<path class="st17" d="M685.96,495.68c1.35-0.45,2.66-0.62,4.04-0.6c1.36,0.03,2.76,0.35,3.97,1.07
										c1.19,0.72,2.23,1.76,2.81,2.98c0.19,0.29,0.32,0.6,0.43,0.92l0.36,0.94c0.18,0.64,0.3,1.29,0.45,1.93
										c0.07,0.29-0.11,0.59-0.41,0.65c-0.29,0.07-0.57-0.1-0.65-0.38l-0.02-0.08c-0.16-0.59-0.3-1.18-0.48-1.76l-0.35-0.83
										c-0.11-0.28-0.23-0.55-0.4-0.79c-0.54-1.06-1.43-1.84-2.41-2.39c-0.99-0.54-2.15-0.77-3.32-0.76
										c-1.15,0.02-2.39,0.24-3.43,0.63l-0.05,0.02c-0.43,0.16-0.9-0.06-1.06-0.48s0.06-0.9,0.48-1.06
										C685.94,495.69,685.95,495.69,685.96,495.68z"/>
								</g>
							</g>
						</g>
						<path class="st11" d="M584.97,422.69c-7.32,13.77,15.23,44.03,15.23,44.03c11.73-11.36,19.44-9.22,19.44-9.22
							c-0.71-19.09-3.86-30.79-6.39-37.24c-1.83-4.67-6.36-7.73-11.37-7.61C596.32,412.77,589.21,414.71,584.97,422.69z"/>
						<path class="st31" d="M584.97,422.69c-7.32,13.77,15.23,44.03,15.23,44.03"/>
					</g>
				</g>
			</g>
			<g>
				<path class="st29" d="M525.09,543.47H394.37c-2.03,0-3.67-1.64-3.67-3.67V427.08c0-2.03,1.64-3.67,3.67-3.67h130.72
					c2.03,0,3.67,1.64,3.67,3.67V539.8C528.76,541.83,527.12,543.47,525.09,543.47z"/>
				<path class="st24" d="M509.26,437.78H410.2c-0.27,0-0.49-0.22-0.49-0.49v-3.43c0-0.27,0.22-0.49,0.49-0.49h99.07
					c0.27,0,0.49,0.22,0.49,0.49v3.43C509.76,437.56,509.53,437.78,509.26,437.78z"/>
				<path class="st32" d="M507.37,528.19h-95.27c-1.05,0-1.9-0.85-1.9-1.9v-68.79c0-1.05,0.85-1.9,1.9-1.9h95.27
					c1.05,0,1.9,0.85,1.9,1.9v68.79C509.26,527.34,508.41,528.19,507.37,528.19z"/>
			</g>
		</g>
		<path class="st4" d="M249.08,302.03H89.43c-3.25,0-5.88,4.51-5.88,10.08c0,5.57,2.63,10.08,5.88,10.08h159.65
			c3.25,0,5.88-4.51,5.88-10.08C254.96,306.54,252.33,302.03,249.08,302.03z"/>
		<path class="st4" d="M182.35,479.66H50.96c-5.57,0-10.08,4.51-10.08,10.08s4.51,10.08,10.08,10.08h131.39
			c5.57,0,10.08-4.51,10.08-10.08S187.92,479.66,182.35,479.66z"/>
		<path class="st4" d="M204.87,347.08H40.02c-4.57,0-8.27,4.51-8.27,10.08s3.7,10.08,8.27,10.08h164.85c4.57,0,8.27-4.51,8.27-10.08
			S209.44,347.08,204.87,347.08z"/>
		<path class="st4" d="M148.79,392.12H19.81c-3.52,0-6.38,4.51-6.38,10.08c0,5.57,2.85,10.08,6.38,10.08h128.98
			c3.52,0,6.38-4.51,6.38-10.08C155.16,396.63,152.31,392.12,148.79,392.12z"/>
		<path class="st4" d="M258.03,429.89H75.96c-3.52,0-6.38,4.51-6.38,10.08c0,5.57,2.85,10.08,6.38,10.08h182.06
			c3.52,0,6.38-4.51,6.38-10.08C264.4,434.4,261.55,429.89,258.03,429.89z"/>
		<path class="st4" d="M354.23,611.76H170.34c-3.15,0-5.7,2.55-5.7,5.7c0,3.15,2.55,5.7,5.7,5.7h183.89c3.15,0,5.7-2.55,5.7-5.7
			C359.93,614.31,357.37,611.76,354.23,611.76z"/>
		<path class="st4" d="M318.85,712.23H134.97c-3.15,0-5.7,2.55-5.7,5.7c0,3.15,2.55,5.7,5.7,5.7h183.89c3.15,0,5.7-2.55,5.7-5.7
			C324.55,714.79,322,712.23,318.85,712.23z"/>
		<path class="st4" d="M295.14,637.24H144.29c-2.58,0-4.68,2.55-4.68,5.7c0,3.15,2.09,5.7,4.68,5.7h150.85
			c2.58,0,4.68-2.55,4.68-5.7C299.81,639.79,297.72,637.24,295.14,637.24z"/>
		<path class="st4" d="M299.87,662.72H183.5c-1.99,0-3.61,2.55-3.61,5.7s1.61,5.7,3.61,5.7h116.37c1.99,0,3.61-2.55,3.61-5.7
			S301.86,662.72,299.87,662.72z"/>
		<path class="st4" d="M361.66,684.08H245.29c-1.99,0-3.61,2.55-3.61,5.7c0,3.15,1.61,5.7,3.61,5.7h116.37
			c1.99,0,3.61-2.55,3.61-5.7C365.27,686.63,363.65,684.08,361.66,684.08z"/>
	</g>
	<g>
		<g>
			<path class="st33" d="M379.33,98.91l1.91,10.2c-2.49,0.5-4.87,0.9-7.13,1.2c-2.27,0.3-4.45,0.46-6.55,0.46
				c-4.64,0-8.72-0.76-12.23-2.28c-3.51-1.52-6.23-3.69-8.17-6.51c-1.94-2.82-2.9-6.19-2.9-10.12c0-3.59,0.81-6.76,2.45-9.5
				c1.63-2.74,3.91-4.98,6.84-6.72c2.93-1.74,6.33-2.83,10.2-3.28l0.25-0.58c1.44-0.39,2.93-1.02,4.48-1.91
				c1.55-0.88,3.03-1.93,4.44-3.15c1.41-1.22,2.67-2.56,3.77-4.02c1.1-1.46,1.98-3.03,2.61-4.69c0.63-1.66,0.95-3.34,0.95-5.06
				v-5.47l5.97,10.03c-2.77-1.49-5.63-2.63-8.58-3.4c-2.96-0.77-5.74-1.16-8.33-1.16c-2.6,0-5.38,0.39-8.33,1.16
				c-2.96,0.77-5.82,1.91-8.58,3.4l5.97-10.03v5.47c0,1.6,0.36,3.32,1.08,5.14c0.72,1.82,1.69,3.61,2.9,5.35
				c1.22,1.74,2.64,3.33,4.27,4.77c1.63,1.44,3.41,2.58,5.35,3.44c1.93,0.86,3.9,1.29,5.89,1.29h18.91v10.86h-14.18
				c-4.31,0-8.35-0.69-12.11-2.07c-3.76-1.38-7.16-3.22-10.2-5.52c-3.04-2.29-5.65-4.81-7.84-7.55c-2.19-2.74-3.86-5.47-5.02-8.21
				c-1.16-2.74-1.74-5.24-1.74-7.51v-4.64c2.38-1.33,4.95-2.46,7.71-3.4c2.76-0.94,5.53-1.64,8.29-2.11c2.76-0.47,5.31-0.7,7.63-0.7
				c2.32,0,4.85,0.24,7.59,0.7c2.74,0.47,5.5,1.18,8.29,2.11c2.79,0.94,5.38,2.07,7.75,3.4v4.64c0,2.71-0.59,5.36-1.78,7.96
				c-1.19,2.6-2.81,5.07-4.85,7.42c-2.05,2.35-4.38,4.48-7.01,6.39c-2.63,1.91-5.38,3.5-8.25,4.77c-0.44,0.22-1.08,0.5-1.91,0.83
				c-0.83,0.33-1.67,0.66-2.53,1c-0.86,0.33-1.62,0.62-2.28,0.87c-0.66,0.25-1.08,0.43-1.24,0.54c-1,0.5-1.96,1.13-2.9,1.91
				c-0.94,0.77-1.7,1.77-2.28,2.99c-0.58,1.22-0.87,2.68-0.87,4.4c0,2.54,0.87,4.49,2.61,5.85c1.74,1.35,4.38,2.03,7.92,2.03
				c1.27,0,2.89-0.08,4.85-0.25C374.37,99.49,376.68,99.24,379.33,98.91z M396.75,83.82V72.95c0.28,0,0.52,0.12,0.75,0.37
				c0.22,0.25,0.39,0.61,0.5,1.08c0.11,0.47,0.21,1.04,0.29,1.7c0.08,0.66,0.12,1.41,0.12,2.24c0,0.83-0.04,1.59-0.12,2.28
				c-0.08,0.69-0.18,1.27-0.29,1.74c-0.11,0.47-0.28,0.83-0.5,1.08C397.27,83.69,397.02,83.82,396.75,83.82z"/>
			<path class="st33" d="M396.74,83.82c-0.28,0-0.52-0.12-0.75-0.37c-0.22-0.25-0.39-0.61-0.5-1.08c-0.11-0.47-0.21-1.05-0.29-1.74
				c-0.08-0.69-0.12-1.45-0.12-2.28c0-1.11,0.06-2.06,0.17-2.86c0.11-0.8,0.29-1.42,0.54-1.87c0.25-0.44,0.57-0.66,0.95-0.66V83.82z
				 M396.74,83.82V72.95h22.31l-7.71,6.39V42.1h12.69v41.71H396.74z M399.65,102.4V92.28h12.11v10.12H399.65z M415.98,102.4V92.28
				h12.11v10.12H415.98z"/>
			<path class="st33" d="M433.73,105.21c-0.61,0-1.36-0.04-2.24-0.12c-0.89-0.08-1.8-0.15-2.74-0.21l0.41-10.7
				c0.88,0,1.74,0.03,2.57,0.08c0.83,0.05,1.44,0.08,1.82,0.08c2.04,0,3.66-0.8,4.85-2.4c1.19-1.6,1.78-3.93,1.78-6.97V42.1h12.69
				v42.88c0,3.92-0.8,7.42-2.4,10.49c-1.6,3.07-3.84,5.46-6.72,7.17C440.89,104.36,437.55,105.21,433.73,105.21z M452.89,61.34V50.4
				h17.33v10.95H452.89z M470.22,83.82V42.1h12.61v41.71H470.22z M482.83,83.82V72.95h5.89c1.71,0,3.04-0.26,3.98-0.79
				c0.94-0.52,1.59-1.6,1.95-3.23c0.36-1.63,0.54-4.11,0.54-7.42V46.5h12.69v15.01c0,5.2-0.69,9.44-2.07,12.73
				c-1.38,3.29-3.48,5.71-6.3,7.26c-2.82,1.55-6.41,2.32-10.78,2.32H482.83z M511.36,83.82c-2.43,0-4.82-0.46-7.17-1.37
				c-2.35-0.91-4.52-2.25-6.51-4.02l7.71-7.96c1,0.83,1.98,1.45,2.94,1.87c0.97,0.42,1.98,0.62,3.03,0.62h15.84l-6.97,6.14v-18
				c0-0.83-0.1-2.14-0.29-3.94c-0.19-1.8-0.46-3.84-0.79-6.14c-0.33-2.29-0.75-4.63-1.24-7.01l12.52-1.91
				c0.39,1.99,0.76,4.23,1.12,6.72c0.36,2.49,0.68,4.84,0.95,7.05c0.28,2.21,0.41,3.95,0.41,5.22v22.72H511.36z"/>
			<path class="st33" d="M585.5,104.39c-4.92,0-9.32-0.9-13.19-2.7c-3.87-1.8-6.91-4.27-9.12-7.42c-2.21-3.15-3.32-6.75-3.32-10.78
				c0-1.11,0.08-2.56,0.25-4.35c0.17-1.8,0.39-3.8,0.66-6.01c0.28-2.21,0.59-4.49,0.95-6.84c0.36-2.35,0.71-4.63,1.04-6.84
				l12.52,1.66c-0.55,3.71-1.04,7.06-1.45,10.08c-0.41,3.01-0.73,5.56-0.95,7.63c-0.22,2.07-0.33,3.61-0.33,4.6
				c0,2.04,0.5,3.83,1.49,5.35c1,1.52,2.46,2.7,4.4,3.52c1.93,0.83,4.28,1.24,7.05,1.24c2.93,0,5.25-0.43,6.97-1.29
				c1.71-0.86,2.93-1.99,3.65-3.4c0.72-1.41,1.08-3,1.08-4.77V25.52h12.69v58.55c0,4.09-1.05,7.66-3.15,10.7
				c-2.1,3.04-4.99,5.4-8.67,7.09C594.38,103.54,590.19,104.39,585.5,104.39z M609.88,83.82V72.95h8.71v10.86H609.88z M618.59,83.82
				V72.95c0.28,0,0.53,0.12,0.75,0.37c0.22,0.25,0.39,0.61,0.5,1.08c0.11,0.47,0.21,1.04,0.29,1.7c0.08,0.66,0.12,1.41,0.12,2.24
				c0,0.83-0.04,1.59-0.12,2.28c-0.08,0.69-0.18,1.27-0.29,1.74c-0.11,0.47-0.28,0.83-0.5,1.08
				C619.11,83.69,618.86,83.82,618.59,83.82z"/>
			<path class="st33" d="M618.58,83.82c-0.33,0-0.59-0.12-0.79-0.37c-0.19-0.25-0.34-0.61-0.46-1.08c-0.11-0.47-0.21-1.05-0.29-1.74
				c-0.08-0.69-0.12-1.45-0.12-2.28c0-1.11,0.06-2.06,0.17-2.86c0.11-0.8,0.29-1.42,0.54-1.87c0.25-0.44,0.57-0.66,0.95-0.66V83.82z
				 M618.58,83.82V72.95h22.31l-7.71,6.39V42.1h12.69v41.71H618.58z M621.49,102.4V92.28h12.11v10.12H621.49z M637.83,102.4V92.28
				h12.11v10.12H637.83z M645.87,83.82V72.95h10.78v10.86H645.87z M656.65,83.82V72.95c0.33,0,0.59,0.12,0.79,0.37
				c0.19,0.25,0.36,0.61,0.5,1.08c0.14,0.47,0.23,1.04,0.29,1.7c0.05,0.66,0.08,1.41,0.08,2.24c0,0.83-0.03,1.59-0.08,2.28
				c-0.06,0.69-0.15,1.27-0.29,1.74c-0.14,0.47-0.3,0.83-0.5,1.08C657.24,83.69,656.98,83.82,656.65,83.82z"/>
			<path class="st33" d="M656.65,83.82c-0.28,0-0.52-0.12-0.75-0.37c-0.22-0.25-0.39-0.61-0.5-1.08c-0.11-0.47-0.21-1.05-0.29-1.74
				c-0.08-0.69-0.12-1.45-0.12-2.28c0-1.11,0.06-2.06,0.17-2.86c0.11-0.8,0.29-1.42,0.54-1.87c0.25-0.44,0.57-0.66,0.95-0.66V83.82z
				 M656.65,83.82V72.95h63.19l-10.53,9.04V65.24c0-2.99-0.4-5.36-1.2-7.13c-0.8-1.77-1.92-3.07-3.36-3.9
				c-1.44-0.83-3.15-1.24-5.14-1.24c-2.38,0-4.63,0.5-6.76,1.49c-2.13,1-4.12,2.27-5.97,3.81c-1.85,1.55-3.57,3.21-5.14,4.98
				c-1.58,1.77-2.96,3.46-4.15,5.06c-1.19,1.6-2.2,2.88-3.03,3.81l-2.57-8.62c2.38-2.99,4.48-5.63,6.3-7.92
				c1.82-2.29,3.54-4.28,5.14-5.97c1.6-1.69,3.25-3.08,4.93-4.19c1.69-1.1,3.55-1.93,5.6-2.49c2.04-0.55,4.45-0.83,7.22-0.83
				c3.59,0,6.7,0.61,9.33,1.82c2.63,1.22,4.78,2.9,6.47,5.06s2.94,4.63,3.77,7.42c0.83,2.79,1.24,5.74,1.24,8.83v18.58H656.65z
				 M666.69,72.95V42.1h12.69v30.85H666.69z"/>
			<path class="st33" d="M748.12,105.21c-2.1,0-4.29-0.15-6.55-0.46c-2.27-0.3-4.64-0.73-7.13-1.29l1.91-10.12
				c2.71,0.33,5.02,0.58,6.92,0.75s3.52,0.25,4.85,0.25c3.76,0,6.47-0.66,8.13-1.99c1.66-1.33,2.49-3.35,2.49-6.05V51.14l2.57,1.82
				h-9.21c-1.88,0-3.46,0.24-4.73,0.71c-1.27,0.47-2.23,1.44-2.86,2.9c-0.64,1.47-0.95,3.72-0.95,6.76c0,2.82,0.28,4.92,0.83,6.3
				c0.55,1.38,1.46,2.28,2.74,2.7c1.27,0.42,2.93,0.62,4.98,0.62h6.63v10.86h-6.63c-4.64,0-8.56-0.75-11.73-2.24
				c-3.18-1.49-5.56-3.76-7.13-6.8c-1.58-3.04-2.36-6.85-2.36-11.44c0-4.64,0.79-8.54,2.36-11.69c1.58-3.15,3.95-5.53,7.13-7.13
				c3.18-1.6,7.09-2.4,11.73-2.4h19.32v44.2c0,3.87-0.97,7.23-2.9,10.08c-1.94,2.85-4.64,5.03-8.13,6.55
				C756.92,104.45,752.82,105.21,748.12,105.21z M771.43,83.82V72.95h8.62v10.86H771.43z M780.05,83.82V72.95
				c0.33,0,0.59,0.12,0.79,0.37c0.19,0.25,0.36,0.61,0.5,1.08c0.14,0.47,0.24,1.04,0.29,1.7c0.05,0.66,0.08,1.41,0.08,2.24
				c0,0.83-0.03,1.59-0.08,2.28c-0.06,0.69-0.15,1.27-0.29,1.74c-0.14,0.47-0.3,0.83-0.5,1.08
				C780.65,83.69,780.39,83.82,780.05,83.82z"/>
			<path class="st33" d="M780.05,83.82c-0.28,0-0.52-0.12-0.75-0.37c-0.22-0.25-0.39-0.61-0.5-1.08c-0.11-0.47-0.21-1.05-0.29-1.74
				c-0.08-0.69-0.12-1.45-0.12-2.28c0-1.11,0.06-2.06,0.17-2.86c0.11-0.8,0.29-1.42,0.54-1.87c0.25-0.44,0.57-0.66,0.95-0.66V83.82z
				 M780.05,83.82V72.95h22.31l-7.71,6.39V42.1h12.69v41.71H780.05z M786.85,34.39V24.27h12.11v10.12H786.85z M803.19,34.39V24.27
				h12.11v10.12H803.19z"/>
		</g>
	</g>
</g>
</svg>
