<svg xmlns="http://www.w3.org/2000/svg" xmlns:xlink="http://www.w3.org/1999/xlink" viewBox="0 0 1080 508"><defs><style>.cls-1{isolation:isolate;}.cls-2,.cls-8{fill:#191a1a;}.cls-14,.cls-15,.cls-2,.cls-21,.cls-27,.cls-28,.cls-29,.cls-3,.cls-32,.cls-33,.cls-34,.cls-35,.cls-36,.cls-40,.cls-41,.cls-7,.cls-9{fill-rule:evenodd;}.cls-3,.cls-6{fill:#a5a4a5;}.cls-4,.cls-7{fill:#d82921;}.cls-5{fill:#154d57;}.cls-5,.cls-9{opacity:0.3;}.cls-21,.cls-32,.cls-34,.cls-35,.cls-36,.cls-5{mix-blend-mode:multiply;}.cls-10,.cls-14{fill:#dedede;}.cls-11{fill:#bcbcbc;}.cls-12{fill:#cfcfcf;}.cls-13{fill:#f4f4f4;}.cls-15{opacity:0.15;}.cls-16,.cls-41{fill:#fff;}.cls-17{fill:#847c58;}.cls-18{fill:#a49360;}.cls-19{fill:#c6b579;}.cls-20{fill:#b0b0b0;}.cls-21,.cls-32,.cls-34,.cls-35,.cls-36{opacity:0.5;}.cls-21{fill:url(#GradientFill_1);}.cls-22{fill:#d8bd76;}.cls-23{fill:#c4aa68;}.cls-24{fill:#e7d691;}.cls-25{fill:#dfe9f2;}.cls-26{fill:#818286;}.cls-27{fill:#454a4d;}.cls-28{fill:#ce5a4e;}.cls-29{fill:#eaf4f7;}.cls-30{fill:#f7fbfa;}.cls-31{fill:#bbbcbe;}.cls-32{fill:url(#GradientFill_1-2);}.cls-33{fill:#545c61;}.cls-34{fill:url(#GradientFill_1-3);}.cls-35{fill:url(#GradientFill_1-4);}.cls-36{fill:url(#GradientFill_1-5);}.cls-37{fill:#2d3133;}.cls-38{fill:#393e40;}.cls-39{fill:#232728;}.cls-40{fill:#6c7275;}</style><linearGradient id="GradientFill_1" x1="285.95" y1="398.93" x2="370.92" y2="766.96" gradientUnits="userSpaceOnUse"><stop offset="0" stop-color="#555859"/><stop offset="0.12" stop-color="#5f6263"/><stop offset="0.31" stop-color="#7a7c7d"/><stop offset="0.57" stop-color="#a6a7a8"/><stop offset="0.87" stop-color="#e2e3e3"/><stop offset="1" stop-color="#fff"/></linearGradient><linearGradient id="GradientFill_1-2" x1="794.81" y1="450.06" x2="806.55" y2="500.92" xlink:href="#GradientFill_1"/><linearGradient id="GradientFill_1-3" x1="640.11" y1="452.01" x2="650.95" y2="498.96" xlink:href="#GradientFill_1"/><linearGradient id="GradientFill_1-4" x1="883.91" y1="450.06" x2="895.66" y2="500.93" xlink:href="#GradientFill_1"/><linearGradient id="GradientFill_1-5" x1="510.17" y1="435.31" x2="528.11" y2="513.02" xlink:href="#GradientFill_1"/></defs><g class="cls-1"><g id="Layer_1" data-name="Layer 1"><path class="cls-2" d="M54.46,385.69h971.07c28.31,0,51.47,20.82,51.47,46.26h0c0,25.44-23.16,46.26-51.47,46.26H54.46C26.16,478.22,3,457.4,3,432H3C3,406.51,26.16,385.69,54.46,385.69Z"/><path class="cls-3" d="M117.38,417.18H962.61c24.64,0,44.8,19.63,44.8,43.62h0c0,24-20.16,43.62-44.8,43.62H117.38c-24.63,0-44.79-19.63-44.79-43.62h0C72.59,436.81,92.75,417.18,117.38,417.18Z"/><rect class="cls-4" x="128.77" y="162.21" width="839.64" height="256.24"/><rect class="cls-4" x="756.9" y="162.21" width="211.5" height="256.24"/><rect class="cls-5" x="258.8" y="162.21" width="579.58" height="256.24"/><rect class="cls-6" x="116.82" y="141.09" width="863.53" height="21.11"/><polygon class="cls-7" points="275.31 132.24 547.88 15.26 820.45 132.24 820.46 418.45 275.31 418.45 275.31 132.24"/><polygon class="cls-7" points="275.31 133.18 542.33 17.94 547.18 15.86 552.02 17.94 820.45 133.23 820.45 144.52 806.54 144.52 547.18 33.21 287.82 144.52 275.31 144.52 275.31 133.18"/><rect class="cls-5" x="401.42" y="206.6" width="293.26" height="194.37"/><rect class="cls-8" x="410.28" y="212.48" width="275.53" height="182.62"/><polygon class="cls-3" points="249.73 132.24 543.03 5.66 547.88 3.58 552.73 5.66 847.44 132.24 807.24 132.24 547.88 20.93 288.52 132.24 249.73 132.24"/><polygon class="cls-9" points="410.28 212.62 592.76 395.1 685.82 395.1 685.82 212.48 410.28 212.48 410.28 212.62"/><rect class="cls-8" x="706.16" y="206.6" width="97.53" height="191.19"/><rect class="cls-10" x="710.06" y="211.27" width="27.31" height="32.64"/><rect class="cls-11" x="710.06" y="248.57" width="27.31" height="32.64"/><rect class="cls-10" x="710.06" y="285.87" width="27.31" height="32.64"/><rect class="cls-12" x="710.06" y="323.18" width="27.31" height="32.64"/><rect class="cls-10" x="710.06" y="360.49" width="27.31" height="32.64"/><rect class="cls-10" x="741.27" y="211.27" width="27.31" height="32.64"/><rect class="cls-13" x="741.27" y="248.57" width="27.31" height="32.64"/><rect class="cls-10" x="741.27" y="285.87" width="27.31" height="32.64"/><rect class="cls-13" x="741.27" y="323.18" width="27.31" height="32.64"/><rect class="cls-11" x="741.27" y="360.49" width="27.31" height="32.64"/><rect class="cls-13" x="772.48" y="211.27" width="27.31" height="32.64"/><rect class="cls-10" x="772.48" y="248.57" width="27.31" height="32.64"/><rect class="cls-12" x="772.48" y="285.87" width="27.31" height="32.64"/><rect class="cls-10" x="772.48" y="323.18" width="27.31" height="32.64"/><rect class="cls-10" x="772.48" y="360.49" width="27.31" height="32.64"/><rect class="cls-13" x="410.28" y="212.48" width="275.53" height="44.26"/><path class="cls-14" d="M425.57,233.64h114v4.74h-114v-4.74Zm114,6.19v4.87h-114v-4.87Zm0,6.32v4.73h-114v-4.73Zm17-12.51h114v4.74h-114v-4.74Zm114,6.19v4.87h-114v-4.87Zm0,6.32v4.73h-114v-4.73Z"/><path class="cls-14" d="M425.57,214.74h114v4.74h-114v-4.74Zm114,6.19v4.87h-114v-4.87Zm0,6.31V232h-114v-4.74Zm17-12.5h114v4.74h-114v-4.74Zm114,6.19v4.87h-114v-4.87Zm0,6.31V232h-114v-4.74Z"/><polygon class="cls-15" points="410.28 212.62 454.4 256.74 685.82 256.74 685.82 212.48 410.28 212.48 410.28 212.62"/><rect class="cls-16" x="396.18" y="195.17" width="303.75" height="20"/><rect class="cls-8" x="291.72" y="206.6" width="97.53" height="191.19"/><rect class="cls-10" x="295.63" y="211.27" width="27.31" height="32.64"/><rect class="cls-12" x="295.63" y="248.57" width="27.31" height="32.64"/><rect class="cls-10" x="295.63" y="285.87" width="27.31" height="32.64"/><rect class="cls-11" x="295.63" y="323.18" width="27.31" height="32.64"/><rect class="cls-10" x="295.63" y="360.49" width="27.31" height="32.64"/><rect class="cls-13" x="326.83" y="211.27" width="27.31" height="32.64"/><rect class="cls-10" x="326.83" y="248.57" width="27.31" height="32.64"/><rect class="cls-10" x="326.83" y="285.87" width="27.31" height="32.64"/><rect class="cls-13" x="326.83" y="323.18" width="27.31" height="32.64"/><rect class="cls-10" x="326.83" y="360.49" width="27.31" height="32.64"/><rect class="cls-11" x="358.04" y="211.27" width="27.31" height="32.64"/><rect class="cls-13" x="358.04" y="248.57" width="27.31" height="32.64"/><rect class="cls-10" x="358.04" y="285.87" width="27.31" height="32.64"/><rect class="cls-12" x="358.04" y="323.18" width="27.31" height="32.64"/><rect class="cls-11" x="358.04" y="360.49" width="27.31" height="32.64"/><rect class="cls-17" x="461.92" y="279.31" width="46.89" height="39.79"/><rect class="cls-18" x="461.92" y="279.31" width="46.97" height="8.77"/><rect class="cls-19" x="460.76" y="278.68" width="49.21" height="7.05"/><rect class="cls-17" x="411.77" y="279.31" width="46.89" height="39.79"/><rect class="cls-18" x="411.77" y="279.31" width="46.97" height="8.77"/><rect class="cls-19" x="410.61" y="278.68" width="49.21" height="7.05"/><rect class="cls-17" x="461.92" y="317.68" width="46.89" height="39.78"/><rect class="cls-18" x="461.92" y="317.68" width="46.97" height="8.77"/><rect class="cls-19" x="460.76" y="317.06" width="49.21" height="7.05"/><rect class="cls-17" x="411.77" y="317.68" width="46.89" height="39.78"/><rect class="cls-18" x="411.77" y="317.68" width="46.97" height="8.77"/><rect class="cls-19" x="410.61" y="317.06" width="49.21" height="7.05"/><rect class="cls-17" x="461.92" y="355.28" width="46.89" height="39.79"/><rect class="cls-18" x="461.92" y="355.28" width="46.97" height="8.77"/><rect class="cls-19" x="460.76" y="354.65" width="49.21" height="7.05"/><rect class="cls-17" x="411.77" y="355.28" width="46.89" height="39.79"/><rect class="cls-18" x="411.77" y="355.28" width="46.97" height="8.77"/><rect class="cls-19" x="410.61" y="354.65" width="49.21" height="7.05"/><rect class="cls-8" x="851.51" y="195.97" width="97.53" height="191.19"/><rect class="cls-12" x="855.41" y="200.63" width="27.31" height="32.64"/><rect class="cls-11" x="855.41" y="237.93" width="27.31" height="32.64"/><rect class="cls-20" x="855.41" y="275.24" width="27.31" height="32.64"/><rect class="cls-12" x="855.41" y="312.54" width="27.31" height="32.64"/><rect class="cls-20" x="855.41" y="349.85" width="27.31" height="32.64"/><rect class="cls-20" x="886.61" y="200.63" width="27.31" height="32.64"/><rect class="cls-12" x="886.61" y="237.93" width="27.31" height="32.64"/><rect class="cls-10" x="886.61" y="275.24" width="27.31" height="32.64"/><rect class="cls-12" x="886.61" y="312.54" width="27.31" height="32.64"/><rect class="cls-11" x="886.61" y="349.85" width="27.31" height="32.64"/><rect class="cls-12" x="917.83" y="200.63" width="27.31" height="32.64"/><rect class="cls-10" x="917.83" y="237.93" width="27.31" height="32.64"/><rect class="cls-12" x="917.83" y="275.24" width="27.31" height="32.64"/><rect class="cls-20" x="917.83" y="312.54" width="27.31" height="32.64"/><rect class="cls-12" x="917.83" y="349.85" width="27.31" height="32.64"/><rect class="cls-8" x="148.14" y="195.97" width="97.53" height="191.19"/><rect class="cls-12" x="214.46" y="349.85" width="27.31" height="32.64"/><rect class="cls-11" x="214.46" y="312.54" width="27.31" height="32.64"/><rect class="cls-20" x="214.46" y="275.24" width="27.31" height="32.64"/><rect class="cls-12" x="214.46" y="237.93" width="27.31" height="32.64"/><rect class="cls-20" x="214.46" y="200.63" width="27.31" height="32.64"/><rect class="cls-20" x="183.25" y="349.85" width="27.31" height="32.64"/><rect class="cls-12" x="183.25" y="312.54" width="27.31" height="32.64"/><rect class="cls-10" x="183.25" y="275.24" width="27.31" height="32.64"/><rect class="cls-12" x="183.25" y="237.93" width="27.31" height="32.64"/><rect class="cls-11" x="183.25" y="200.63" width="27.31" height="32.64"/><rect class="cls-12" x="152.04" y="349.85" width="27.31" height="32.64"/><rect class="cls-10" x="152.04" y="312.54" width="27.31" height="32.64"/><rect class="cls-12" x="152.04" y="275.24" width="27.31" height="32.64"/><rect class="cls-20" x="152.04" y="237.93" width="27.31" height="32.64"/><rect class="cls-12" x="152.04" y="200.63" width="27.31" height="32.64"/><polygon class="cls-21" points="322.68 452.5 195.33 454.18 189.84 470.83 189.93 470.92 415.27 470.92 352.63 408.42 340.37 422.02 322.68 452.5"/><rect class="cls-22" x="189.84" y="452.64" width="18.28" height="18.28"/><rect class="cls-23" x="189.84" y="452.64" width="18.28" height="10.59"/><rect class="cls-22" x="334.52" y="452.64" width="18.28" height="18.28"/><rect class="cls-23" x="334.52" y="452.64" width="18.28" height="10.59"/><rect class="cls-24" x="189.84" y="452.64" width="162.96" height="7.8"/><rect class="cls-22" x="245.84" y="409.13" width="50.96" height="43.24"/><rect class="cls-23" x="245.84" y="409.13" width="51.04" height="9.54"/><rect class="cls-24" x="244.58" y="408.45" width="53.48" height="7.66"/><rect class="cls-25" x="276.51" y="419.64" width="17.36" height="7.87"/><rect class="cls-26" x="277.78" y="420.65" width="1.85" height="5.85"/><rect class="cls-26" x="281.07" y="420.65" width="1.84" height="5.85"/><rect class="cls-26" x="284.47" y="420.65" width="1.85" height="5.85"/><rect class="cls-26" x="287.59" y="420.65" width="1.85" height="5.85"/><rect class="cls-26" x="290.75" y="420.65" width="1.85" height="5.85"/><rect class="cls-22" x="300.34" y="409.13" width="50.96" height="43.24"/><rect class="cls-23" x="300.34" y="409.13" width="51.04" height="9.54"/><rect class="cls-24" x="299.08" y="408.45" width="53.47" height="7.66"/><rect class="cls-25" x="331.01" y="419.64" width="17.36" height="7.87"/><rect class="cls-26" x="332.27" y="420.65" width="1.85" height="5.85"/><rect class="cls-26" x="335.57" y="420.65" width="1.84" height="5.85"/><rect class="cls-26" x="338.97" y="420.65" width="1.85" height="5.85"/><rect class="cls-26" x="342.09" y="420.65" width="1.84" height="5.85"/><rect class="cls-26" x="345.25" y="420.65" width="1.84" height="5.85"/><rect class="cls-22" x="191.35" y="409.13" width="50.96" height="43.24"/><rect class="cls-23" x="191.34" y="409.13" width="51.04" height="9.54"/><rect class="cls-24" x="190.09" y="408.45" width="53.47" height="7.66"/><rect class="cls-25" x="222.01" y="419.64" width="17.36" height="7.87"/><rect class="cls-26" x="223.28" y="420.65" width="1.84" height="5.85"/><rect class="cls-26" x="226.57" y="420.65" width="1.85" height="5.85"/><rect class="cls-26" x="229.98" y="420.65" width="1.85" height="5.85"/><rect class="cls-26" x="233.09" y="420.65" width="1.85" height="5.85"/><rect class="cls-26" x="236.26" y="420.65" width="1.84" height="5.85"/><rect class="cls-22" x="245.84" y="364.81" width="50.96" height="43.24"/><rect class="cls-23" x="245.84" y="364.81" width="51.04" height="9.53"/><rect class="cls-24" x="244.58" y="364.14" width="53.48" height="7.66"/><rect class="cls-25" x="276.51" y="375.33" width="17.36" height="7.87"/><rect class="cls-26" x="277.78" y="376.33" width="1.85" height="5.86"/><rect class="cls-26" x="281.07" y="376.33" width="1.84" height="5.86"/><rect class="cls-26" x="284.47" y="376.33" width="1.85" height="5.86"/><rect class="cls-26" x="287.59" y="376.33" width="1.85" height="5.86"/><rect class="cls-26" x="290.75" y="376.33" width="1.85" height="5.86"/><rect class="cls-22" x="300.34" y="364.81" width="50.96" height="43.24"/><rect class="cls-23" x="300.34" y="364.81" width="51.04" height="9.53"/><rect class="cls-24" x="299.08" y="364.14" width="53.47" height="7.66"/><rect class="cls-25" x="331.01" y="375.33" width="17.36" height="7.87"/><rect class="cls-26" x="332.27" y="376.33" width="1.85" height="5.86"/><rect class="cls-26" x="335.57" y="376.33" width="1.84" height="5.86"/><rect class="cls-26" x="338.97" y="376.33" width="1.85" height="5.86"/><rect class="cls-26" x="342.09" y="376.33" width="1.84" height="5.86"/><rect class="cls-26" x="345.25" y="376.33" width="1.84" height="5.86"/><rect class="cls-22" x="191.35" y="364.81" width="50.96" height="43.24"/><rect class="cls-23" x="191.34" y="364.81" width="51.04" height="9.53"/><rect class="cls-24" x="190.09" y="364.14" width="53.47" height="7.66"/><rect class="cls-25" x="222.01" y="375.33" width="17.36" height="7.87"/><rect class="cls-26" x="223.28" y="376.33" width="1.84" height="5.86"/><rect class="cls-26" x="226.57" y="376.33" width="1.85" height="5.86"/><rect class="cls-26" x="229.98" y="376.33" width="1.85" height="5.86"/><rect class="cls-26" x="233.09" y="376.33" width="1.85" height="5.86"/><rect class="cls-26" x="236.26" y="376.33" width="1.84" height="5.86"/><rect class="cls-17" x="638.56" y="316.91" width="46.89" height="39.79"/><rect class="cls-18" x="638.56" y="316.91" width="46.97" height="8.77"/><rect class="cls-19" x="637.4" y="316.29" width="49.21" height="7.04"/><rect class="cls-17" x="588.41" y="316.91" width="46.89" height="39.79"/><rect class="cls-18" x="588.41" y="316.91" width="46.97" height="8.77"/><rect class="cls-19" x="587.25" y="316.29" width="49.21" height="7.04"/><rect class="cls-17" x="638.56" y="355.28" width="46.89" height="39.79"/><rect class="cls-18" x="638.56" y="355.28" width="46.97" height="8.77"/><rect class="cls-19" x="637.4" y="354.65" width="49.21" height="7.05"/><rect class="cls-17" x="588.41" y="355.28" width="46.89" height="39.79"/><rect class="cls-18" x="588.41" y="355.28" width="46.97" height="8.77"/><rect class="cls-19" x="587.25" y="354.65" width="49.21" height="7.05"/><rect class="cls-22" x="643.46" y="389.95" width="44.88" height="38.07"/><rect class="cls-23" x="643.46" y="389.95" width="44.95" height="8.39"/><rect class="cls-24" x="642.35" y="389.35" width="47.09" height="6.74"/><rect class="cls-25" x="670.47" y="399.21" width="15.29" height="6.94"/><rect class="cls-26" x="671.58" y="400.1" width="1.63" height="5.16"/><rect class="cls-26" x="674.48" y="400.1" width="1.63" height="5.16"/><rect class="cls-26" x="677.48" y="400.1" width="1.63" height="5.16"/><rect class="cls-26" x="680.23" y="400.1" width="1.63" height="5.16"/><rect class="cls-26" x="683.01" y="400.1" width="1.63" height="5.16"/><rect class="cls-22" x="691.45" y="389.95" width="44.88" height="38.07"/><rect class="cls-23" x="691.45" y="389.95" width="44.95" height="8.39"/><rect class="cls-24" x="690.34" y="389.35" width="47.09" height="6.74"/><rect class="cls-25" x="718.46" y="399.21" width="15.29" height="6.94"/><rect class="cls-26" x="719.58" y="400.1" width="1.63" height="5.16"/><rect class="cls-26" x="722.48" y="400.1" width="1.63" height="5.16"/><rect class="cls-26" x="725.47" y="400.1" width="1.62" height="5.16"/><rect class="cls-26" x="728.22" y="400.1" width="1.62" height="5.16"/><rect class="cls-26" x="731" y="400.1" width="1.62" height="5.16"/><rect class="cls-22" x="595.46" y="389.95" width="44.88" height="38.07"/><rect class="cls-23" x="595.46" y="389.95" width="44.95" height="8.39"/><rect class="cls-24" x="594.36" y="389.35" width="47.09" height="6.74"/><rect class="cls-25" x="622.47" y="399.21" width="15.29" height="6.94"/><rect class="cls-26" x="623.59" y="400.1" width="1.63" height="5.16"/><rect class="cls-26" x="626.49" y="400.1" width="1.63" height="5.16"/><rect class="cls-26" x="629.49" y="400.1" width="1.62" height="5.16"/><rect class="cls-26" x="632.23" y="400.1" width="1.62" height="5.16"/><rect class="cls-26" x="635.02" y="400.1" width="1.62" height="5.16"/><rect class="cls-22" x="643.46" y="350.92" width="44.88" height="38.08"/><rect class="cls-23" x="643.46" y="350.92" width="44.95" height="8.4"/><rect class="cls-24" x="642.35" y="350.33" width="47.09" height="6.74"/><rect class="cls-25" x="670.47" y="360.18" width="15.29" height="6.93"/><rect class="cls-26" x="671.58" y="361.07" width="1.63" height="5.16"/><rect class="cls-26" x="674.48" y="361.07" width="1.63" height="5.16"/><rect class="cls-26" x="677.48" y="361.07" width="1.63" height="5.16"/><rect class="cls-26" x="680.23" y="361.07" width="1.63" height="5.16"/><rect class="cls-26" x="683.01" y="361.07" width="1.63" height="5.16"/><rect class="cls-22" x="691.45" y="350.92" width="44.88" height="38.08"/><rect class="cls-23" x="691.45" y="350.92" width="44.95" height="8.4"/><rect class="cls-24" x="690.34" y="350.33" width="47.09" height="6.74"/><rect class="cls-25" x="718.46" y="360.18" width="15.29" height="6.93"/><rect class="cls-26" x="719.58" y="361.07" width="1.63" height="5.16"/><rect class="cls-26" x="722.48" y="361.07" width="1.63" height="5.16"/><rect class="cls-26" x="725.47" y="361.07" width="1.62" height="5.16"/><rect class="cls-26" x="728.22" y="361.07" width="1.62" height="5.16"/><rect class="cls-26" x="731" y="361.07" width="1.62" height="5.16"/><rect class="cls-22" x="595.46" y="350.92" width="44.88" height="38.08"/><rect class="cls-23" x="595.46" y="350.92" width="44.95" height="8.4"/><rect class="cls-24" x="594.36" y="350.33" width="47.09" height="6.74"/><rect class="cls-25" x="622.47" y="360.18" width="15.29" height="6.93"/><rect class="cls-26" x="623.59" y="361.07" width="1.63" height="5.16"/><rect class="cls-26" x="626.49" y="361.07" width="1.63" height="5.16"/><rect class="cls-26" x="629.49" y="361.07" width="1.62" height="5.16"/><rect class="cls-26" x="632.23" y="361.07" width="1.62" height="5.16"/><rect class="cls-26" x="635.02" y="361.07" width="1.62" height="5.16"/><path class="cls-7" d="M833.13,359.57l30.94.19c10.87.06,14.49,9.54,14.49,16.45v2.52c0,9.15-12.41,16.63-27.59,16.63H833.13Z"/><path class="cls-27" d="M589.2,428.28H912.32c2.75,0,5,1.67,5,3.71v26.38c0,2-2.24,3.7-5,3.7H589.2c-2.74,0-5-1.67-5-3.7V432C584.21,430,586.46,428.28,589.2,428.28Z"/><path class="cls-2" d="M917.31,445.17v13.2c0,2-2.24,3.7-5,3.7H589.2c-2.74,0-5-1.67-5-3.7v-13.2Z"/><path class="cls-7" d="M919.66,420.94v15a6.27,6.27,0,0,1-6.24,6.25h-19.5l-8.27-9.84a5.75,5.75,0,0,0-4.34-1.79H833.13v-61h65.25a21.34,21.34,0,0,1,21.28,21.29Z"/><path class="cls-28" d="M919.66,420.94v15a6.27,6.27,0,0,1-6.24,6.25h-19.5l-8.27-9.84a5.75,5.75,0,0,0-4.34-1.79H833.13V405.9h86.53Z"/><path class="cls-7" d="M906.18,372.45H916a3.34,3.34,0,0,1,3.33,3.34v3.4a3.33,3.33,0,0,1-3.33,3.33h-9.86a3.34,3.34,0,0,1-3.33-3.33v-3.4A3.34,3.34,0,0,1,906.18,372.45Z"/><path class="cls-29" d="M879.17,379.52H904a2.66,2.66,0,0,1,2.66,2.65v23.61c0,1.46-1.22,2.91-2.66,2.66l-24.87-4.37a2.88,2.88,0,0,1-2.66-2.67V382.17A2.66,2.66,0,0,1,879.17,379.52Z"/><path class="cls-29" d="M913.3,381.94h4.39a21,21,0,0,1,2,8.92v16.75l-6.36-1.12a2.86,2.86,0,0,1-2.66-2.66V384.6A2.67,2.67,0,0,1,913.3,381.94Z"/><rect class="cls-30" x="588.7" y="390.65" width="232.36" height="37.45"/><rect class="cls-31" x="588.7" y="409.38" width="232.36" height="18.73"/><polygon class="cls-32" points="757.75 444.99 771.33 435.6 792.78 434.83 808.07 444.41 843.12 479.32 773.01 479.32 756.11 462.42 757.75 444.99"/><path class="cls-2" d="M782.08,438.77a20.28,20.28,0,1,1-20.28,20.28A20.27,20.27,0,0,1,782.08,438.77Z"/><path class="cls-33" d="M782.08,451.06a8,8,0,1,1-8,8A8,8,0,0,1,782.08,451.06Z"/><polygon class="cls-33" points="755.98 462.38 755.98 445.15 756.1 444.31 756.74 443.78 769.48 433.14 770.09 432.64 770.88 432.64 793.27 432.64 794.07 432.64 794.67 433.14 807.41 443.78 808.05 444.31 808.18 445.15 808.18 462.38 803.85 462.99 803.98 446.59 792.48 436.99 771.68 436.99 760.18 446.59 760.3 462.99 755.98 462.38"/><polygon class="cls-34" points="602.61 444.99 616.18 435.6 637.64 434.83 652.93 444.41 687.97 479.32 617.86 479.32 600.96 462.42 602.61 444.99"/><path class="cls-2" d="M626.93,438.77a20.28,20.28,0,1,1-20.28,20.28A20.28,20.28,0,0,1,626.93,438.77Z"/><path class="cls-33" d="M626.93,451.06a8,8,0,1,1-8,8A8,8,0,0,1,626.93,451.06Z"/><polygon class="cls-33" points="600.83 462.38 600.83 445.15 600.95 444.31 601.59 443.78 614.34 433.14 614.94 432.64 615.74 432.64 638.13 432.64 638.92 432.64 639.53 433.14 652.27 443.78 652.91 444.31 653.03 445.15 653.03 462.38 648.71 462.99 648.83 446.59 637.33 436.99 616.53 436.99 605.03 446.59 605.15 462.99 600.83 462.38"/><polygon class="cls-35" points="846.86 444.99 860.44 435.6 881.89 434.83 897.18 444.41 932.22 479.32 862.11 479.32 845.21 462.42 846.86 444.99"/><circle class="cls-8" cx="871.18" cy="459.05" r="20.28"/><path class="cls-33" d="M871.18,451.06a8,8,0,1,1-8,8A8,8,0,0,1,871.18,451.06Z"/><polygon class="cls-33" points="845.09 462.38 845.09 445.15 845.21 444.31 845.85 443.78 858.59 433.14 859.19 432.64 859.99 432.64 882.38 432.64 883.18 432.64 883.78 433.14 896.52 443.78 897.16 444.31 897.28 445.15 897.28 462.38 892.96 462.99 893.08 446.59 881.58 436.99 860.78 436.99 849.29 446.59 849.41 462.99 845.09 462.38"/><polygon class="cls-36" points="515.99 420.94 455.99 456.42 452.85 465.93 452.9 465.98 581.64 465.98 528.59 411.92 515.99 420.94"/><path class="cls-7" d="M477.85,359h31.64c6.69,0,11.72,5.8,12.17,12.84l4,60.64H461.73l3.94-60.64c.39-7.05,5.48-12.84,12.18-12.84Zm1.83,3.91c-5.84,0-9.51,5.1-9.92,11.37L466.33,427l54.53.15-3.58-53.38c-.42-6.27-3.41-10.92-9.25-10.92Z"/><rect class="cls-4" x="461.22" y="415.6" width="64.9" height="37.07" rx="4.52"/><rect class="cls-37" x="473.67" y="419.49" width="41.56" height="36.54"/><rect class="cls-38" x="483.62" y="442.06" width="21.67" height="4.8"/><rect class="cls-39" x="459.06" y="451.58" width="70.79" height="3.22"/><rect class="cls-22" x="496.88" y="379.59" width="40.23" height="34.14"/><rect class="cls-23" x="496.88" y="379.59" width="40.3" height="7.53"/><rect class="cls-24" x="495.88" y="379.05" width="42.22" height="6.05"/><rect class="cls-25" x="521.09" y="387.89" width="13.7" height="6.22"/><rect class="cls-26" x="522.09" y="388.69" width="1.46" height="4.62"/><rect class="cls-26" x="524.69" y="388.69" width="1.46" height="4.62"/><rect class="cls-26" x="527.38" y="388.69" width="1.46" height="4.62"/><rect class="cls-26" x="529.84" y="388.69" width="1.46" height="4.62"/><rect class="cls-26" x="532.34" y="388.69" width="1.46" height="4.62"/><rect class="cls-22" x="453.85" y="379.59" width="40.23" height="34.14"/><rect class="cls-23" x="453.85" y="379.59" width="40.3" height="7.53"/><rect class="cls-24" x="452.85" y="379.05" width="42.22" height="6.05"/><rect class="cls-25" x="478.06" y="387.89" width="13.7" height="6.22"/><rect class="cls-26" x="479.06" y="388.69" width="1.46" height="4.62"/><rect class="cls-26" x="481.66" y="388.69" width="1.46" height="4.62"/><rect class="cls-26" x="484.35" y="388.69" width="1.46" height="4.62"/><rect class="cls-26" x="486.81" y="388.69" width="1.46" height="4.62"/><rect class="cls-26" x="489.31" y="388.69" width="1.46" height="4.62"/><rect class="cls-38" x="475.92" y="416.37" width="6.64" height="42.42"/><rect class="cls-38" x="506.35" y="416.37" width="6.64" height="42.42"/><path class="cls-37" d="M456.81,440.41h4.45A2.55,2.55,0,0,1,463.8,443v20.47a2.55,2.55,0,0,1-2.55,2.55h-4.44a2.55,2.55,0,0,1-2.55-2.55V443A2.54,2.54,0,0,1,456.81,440.41Z"/><path class="cls-37" d="M467.27,440.41h4.45a2.55,2.55,0,0,1,2.55,2.55v20.47a2.54,2.54,0,0,1-2.54,2.54h-4.45a2.55,2.55,0,0,1-2.55-2.55V443a2.54,2.54,0,0,1,2.54-2.54Z"/><path class="cls-37" d="M517.19,440.41h4.44a2.55,2.55,0,0,1,2.55,2.55v20.47a2.55,2.55,0,0,1-2.55,2.55h-4.45a2.54,2.54,0,0,1-2.54-2.54V443A2.55,2.55,0,0,1,517.19,440.41Z"/><path class="cls-37" d="M527.65,440.41h4.45a2.55,2.55,0,0,1,2.55,2.55v20.47A2.54,2.54,0,0,1,532.1,466h-4.45a2.55,2.55,0,0,1-2.55-2.55V443A2.54,2.54,0,0,1,527.65,440.41Z"/><rect class="cls-38" x="483.62" y="432.59" width="21.67" height="5.45"/><rect class="cls-38" x="483.62" y="423.12" width="21.67" height="5.71"/><polygon class="cls-40" points="475.92 416.37 482.56 416.37 485.12 421.17 473.2 421.32 475.92 416.37"/><polygon class="cls-40" points="506.35 416.37 512.99 416.37 515.44 421.24 504.06 421.32 506.35 416.37"/><rect class="cls-22" x="453.17" y="415.48" width="9.51" height="9.51"/><rect class="cls-23" x="453.17" y="415.48" width="9.51" height="5.51"/><rect class="cls-22" x="528.48" y="415.48" width="9.52" height="9.51"/><rect class="cls-23" x="528.48" y="415.48" width="9.52" height="5.51"/><rect class="cls-24" x="453.17" y="413.78" width="84.82" height="5.76"/><polygon class="cls-41" points="304.22 141 547.18 36.73 790.13 141 304.22 141"/><path class="cls-4" d="M561.69,93.43a28.76,28.76,0,1,1-28.76-28.75,28.76,28.76,0,0,1,28.76,28.75"/><path class="cls-4" d="M561.42,122.18a28.75,28.75,0,0,0,0-57.5Z"/><path class="cls-16" d="M518.15,93.23a14.8,14.8,0,0,1,29.53-1.38h-7A7.68,7.68,0,0,0,533,85.41a7.82,7.82,0,0,0,0,15.64,7.69,7.69,0,0,0,7.71-6.51h7.06a14.82,14.82,0,0,1-29.57-1.31"/></g></g></svg>