<?xml version="1.0" encoding="utf-8"?>
<!-- Generator: Adobe Illustrator 24.3.0, SVG Export Plug-In . SVG Version: 6.00 Build 0)  -->
<svg version="1.1" id="Layer_1" xmlns="http://www.w3.org/2000/svg" xmlns:xlink="http://www.w3.org/1999/xlink" x="0px" y="0px"
	 viewBox="0 0 1080 538" style="enable-background:new 0 0 1080 538;" xml:space="preserve">
<style type="text/css">
	.st0{fill-rule:evenodd;clip-rule:evenodd;fill:#8C8C8C;}
	.st1{fill-rule:evenodd;clip-rule:evenodd;fill:#A8A8A8;}
	.st2{fill-rule:evenodd;clip-rule:evenodd;fill:#ED523D;}
	.st3{opacity:0.3;fill-rule:evenodd;clip-rule:evenodd;fill:#154D57;}
	.st4{fill-rule:evenodd;clip-rule:evenodd;fill:#DEDEDE;}
	.st5{fill-rule:evenodd;clip-rule:evenodd;fill:#061D21;}
	.st6{opacity:0.3;fill-rule:evenodd;clip-rule:evenodd;}
	.st7{fill-rule:evenodd;clip-rule:evenodd;fill:#154D57;}
	.st8{fill-rule:evenodd;clip-rule:evenodd;fill:#BCBCBC;}
	.st9{fill-rule:evenodd;clip-rule:evenodd;fill:#CFCFCF;}
	.st10{fill-rule:evenodd;clip-rule:evenodd;fill:#F4F4F4;}
	.st11{opacity:0.15;fill-rule:evenodd;clip-rule:evenodd;}
	.st12{fill-rule:evenodd;clip-rule:evenodd;fill:#FFFFFF;}
	.st13{fill-rule:evenodd;clip-rule:evenodd;fill:#847C58;}
	.st14{fill-rule:evenodd;clip-rule:evenodd;fill:#A49360;}
	.st15{fill-rule:evenodd;clip-rule:evenodd;fill:#C6B579;}
	.st16{fill-rule:evenodd;clip-rule:evenodd;fill:#0C343B;}
	.st17{fill-rule:evenodd;clip-rule:evenodd;fill:#B0B0B0;}
	.st18{opacity:0.5;fill-rule:evenodd;clip-rule:evenodd;fill:url(#SVGID_1_);}
	.st19{fill-rule:evenodd;clip-rule:evenodd;fill:#D8BD76;}
	.st20{fill-rule:evenodd;clip-rule:evenodd;fill:#C4AA68;}
	.st21{fill-rule:evenodd;clip-rule:evenodd;fill:#E7D691;}
	.st22{fill-rule:evenodd;clip-rule:evenodd;fill:#DFE9F2;}
	.st23{fill-rule:evenodd;clip-rule:evenodd;fill:#818286;}
	.st24{fill-rule:evenodd;clip-rule:evenodd;fill:#F47D71;}
	.st25{fill-rule:evenodd;clip-rule:evenodd;fill:#454A4D;}
	.st26{fill-rule:evenodd;clip-rule:evenodd;fill:#2D3133;}
	.st27{fill-rule:evenodd;clip-rule:evenodd;fill:#CE5A4E;}
	.st28{fill-rule:evenodd;clip-rule:evenodd;fill:#EAF4F7;}
	.st29{fill-rule:evenodd;clip-rule:evenodd;fill:#F7FBFA;}
	.st30{fill-rule:evenodd;clip-rule:evenodd;fill:#BBBCBE;}
	.st31{opacity:0.5;fill-rule:evenodd;clip-rule:evenodd;fill:url(#SVGID_2_);}
	.st32{fill-rule:evenodd;clip-rule:evenodd;fill:#545C61;}
	.st33{opacity:0.5;fill-rule:evenodd;clip-rule:evenodd;fill:url(#SVGID_3_);}
	.st34{opacity:0.5;fill-rule:evenodd;clip-rule:evenodd;fill:url(#SVGID_4_);}
	.st35{opacity:0.5;fill-rule:evenodd;clip-rule:evenodd;fill:url(#SVGID_5_);}
	.st36{fill-rule:evenodd;clip-rule:evenodd;fill:#0A434D;}
	.st37{fill-rule:evenodd;clip-rule:evenodd;fill:#393E40;}
	.st38{fill-rule:evenodd;clip-rule:evenodd;fill:#232728;}
	.st39{fill-rule:evenodd;clip-rule:evenodd;fill:#6C7275;}
	.st40{fill:#ED523D;}
	.st41{fill:#FFFFFF;}
</style>
<g>
	<path class="st0" d="M57.54,399.85h964.35c28.11,0,51.11,20.68,51.11,45.95v0c0,25.26-23,45.95-51.11,45.95H57.54
		c-28.11,0-51.11-20.68-51.11-45.95v0C6.43,420.53,29.43,399.85,57.54,399.85z"/>
	<path class="st1" d="M120.02,431.13H959.4c24.47,0,44.49,19.5,44.49,43.31v0c0,23.82-20.02,43.31-44.49,43.31H120.02
		c-24.46,0-44.49-19.49-44.49-43.31v0C75.54,450.62,95.55,431.13,120.02,431.13z"/>
	<rect x="131.33" y="177.92" class="st2" width="833.83" height="254.47"/>
	<rect x="755.11" y="177.92" class="st2" width="210.04" height="254.47"/>
	<rect x="260.46" y="177.92" class="st3" width="575.57" height="254.47"/>
	<rect x="119.46" y="156.95" class="st4" width="857.56" height="20.97"/>
	<g>
		<polygon class="st2" points="276.85,148.16 547.54,31.99 818.22,148.16 818.23,432.39 276.85,432.39 		"/>
		<polygon class="st2" points="276.85,149.09 542.02,34.65 546.84,32.59 551.66,34.65 818.22,149.14 818.22,160.36 804.41,160.36 
			546.84,49.81 289.27,160.36 276.85,160.36 		"/>
		<rect x="402.09" y="222.01" class="st3" width="291.23" height="193.02"/>
		<rect x="410.9" y="227.84" class="st5" width="273.63" height="181.36"/>
		<polygon class="st4" points="251.45,148.16 542.73,22.46 547.54,20.39 552.36,22.46 845.03,148.16 805.11,148.16 547.54,37.62 
			289.97,148.16 		"/>
		<polygon class="st6" points="410.9,227.98 592.11,409.2 684.52,409.2 684.52,227.84 410.9,227.84 		"/>
		<g>
			<rect x="704.73" y="222.01" class="st7" width="96.85" height="189.86"/>
			<g>
				<rect x="708.6" y="226.64" class="st4" width="27.12" height="32.42"/>
				<rect x="708.6" y="263.69" class="st8" width="27.12" height="32.42"/>
				<rect x="708.6" y="300.73" class="st4" width="27.12" height="32.42"/>
				<rect x="708.6" y="337.78" class="st9" width="27.12" height="32.41"/>
				<rect x="708.6" y="374.83" class="st4" width="27.12" height="32.42"/>
				<rect x="739.59" y="226.64" class="st4" width="27.12" height="32.42"/>
				<rect x="739.59" y="263.69" class="st10" width="27.12" height="32.42"/>
				<rect x="739.59" y="300.73" class="st4" width="27.12" height="32.42"/>
				<rect x="739.59" y="337.78" class="st10" width="27.12" height="32.41"/>
				<rect x="739.59" y="374.83" class="st8" width="27.12" height="32.42"/>
				<rect x="770.59" y="226.64" class="st10" width="27.12" height="32.42"/>
				<rect x="770.59" y="263.69" class="st4" width="27.12" height="32.42"/>
				<rect x="770.59" y="300.73" class="st9" width="27.12" height="32.42"/>
				<rect x="770.59" y="337.78" class="st4" width="27.12" height="32.41"/>
				<rect x="770.59" y="374.83" class="st4" width="27.12" height="32.42"/>
			</g>
		</g>
		<rect x="410.9" y="227.84" class="st10" width="273.63" height="43.95"/>
		<g>
			<path class="st4" d="M426.07,248.86h113.18v4.7H426.07V248.86L426.07,248.86z M539.25,255.01v4.83H426.07v-4.83H539.25
				L539.25,255.01z M539.25,261.28v4.7H426.07v-4.7H539.25L539.25,261.28z M556.17,248.86h113.18v4.7H556.17V248.86L556.17,248.86z
				 M669.34,255.01v4.83H556.17v-4.83H669.34L669.34,255.01z M669.34,261.28v4.7H556.17v-4.7H669.34z"/>
			<path class="st4" d="M426.07,230.09h113.18v4.7H426.07V230.09L426.07,230.09z M539.25,236.23v4.84H426.07v-4.84H539.25
				L539.25,236.23z M539.25,242.51v4.7H426.07v-4.7H539.25L539.25,242.51z M556.17,230.09h113.18v4.7H556.17V230.09L556.17,230.09z
				 M669.34,236.23v4.84H556.17v-4.84H669.34L669.34,236.23z M669.34,242.51v4.7H556.17v-4.7H669.34z"/>
		</g>
		<polygon class="st11" points="410.9,227.98 454.71,271.8 684.52,271.8 684.52,227.84 410.9,227.84 		"/>
		<rect x="396.89" y="210.65" class="st12" width="301.65" height="19.87"/>
		<g>
			<rect x="293.16" y="222.01" class="st7" width="96.85" height="189.86"/>
			<g>
				<rect x="297.03" y="226.64" class="st4" width="27.12" height="32.42"/>
				<rect x="297.03" y="263.69" class="st9" width="27.12" height="32.42"/>
				<rect x="297.03" y="300.73" class="st4" width="27.12" height="32.42"/>
				<rect x="297.03" y="337.78" class="st8" width="27.12" height="32.41"/>
				<rect x="297.03" y="374.83" class="st4" width="27.12" height="32.42"/>
				<rect x="328.02" y="226.64" class="st10" width="27.12" height="32.42"/>
				<rect x="328.02" y="263.69" class="st4" width="27.12" height="32.42"/>
				<rect x="328.02" y="300.73" class="st4" width="27.12" height="32.42"/>
				<rect x="328.02" y="337.78" class="st10" width="27.12" height="32.41"/>
				<rect x="328.02" y="374.83" class="st4" width="27.12" height="32.42"/>
				<rect x="359.02" y="226.64" class="st8" width="27.12" height="32.42"/>
				<rect x="359.02" y="263.69" class="st10" width="27.12" height="32.42"/>
				<rect x="359.02" y="300.73" class="st4" width="27.12" height="32.42"/>
				<rect x="359.02" y="337.78" class="st9" width="27.12" height="32.41"/>
				<rect x="359.02" y="374.83" class="st8" width="27.12" height="32.42"/>
			</g>
		</g>
	</g>
	<g>
		<g>
			<g>
				<rect x="462.17" y="294.21" class="st13" width="46.57" height="39.51"/>
				<rect x="462.17" y="294.21" class="st14" width="46.65" height="8.71"/>
				<rect x="461.02" y="293.59" class="st15" width="48.87" height="7"/>
			</g>
			<g>
				<rect x="412.37" y="294.21" class="st13" width="46.57" height="39.51"/>
				<rect x="412.37" y="294.21" class="st14" width="46.65" height="8.71"/>
				<rect x="411.22" y="293.59" class="st15" width="48.87" height="7"/>
			</g>
		</g>
		<g>
			<g>
				<rect x="462.17" y="332.32" class="st13" width="46.57" height="39.51"/>
				<rect x="462.17" y="332.32" class="st14" width="46.65" height="8.71"/>
				<rect x="461.02" y="331.7" class="st15" width="48.87" height="7"/>
			</g>
			<g>
				<rect x="412.37" y="332.32" class="st13" width="46.57" height="39.51"/>
				<rect x="412.37" y="332.32" class="st14" width="46.65" height="8.71"/>
				<rect x="411.22" y="331.7" class="st15" width="48.87" height="7"/>
			</g>
		</g>
		<g>
			<rect x="462.17" y="369.66" class="st13" width="46.57" height="39.51"/>
			<rect x="462.17" y="369.66" class="st14" width="46.65" height="8.71"/>
			<rect x="461.02" y="369.04" class="st15" width="48.87" height="7"/>
		</g>
		<g>
			<rect x="412.37" y="369.66" class="st13" width="46.57" height="39.51"/>
			<rect x="412.37" y="369.66" class="st14" width="46.65" height="8.71"/>
			<rect x="411.22" y="369.04" class="st15" width="48.87" height="7"/>
		</g>
	</g>
	<g>
		<g>
			<rect x="849.07" y="211.44" class="st16" width="96.85" height="189.86"/>
			<g>
				<rect x="852.94" y="216.08" class="st9" width="27.12" height="32.41"/>
				<rect x="852.94" y="253.12" class="st8" width="27.12" height="32.42"/>
				<rect x="852.94" y="290.17" class="st17" width="27.12" height="32.41"/>
				<rect x="852.94" y="327.22" class="st9" width="27.12" height="32.41"/>
				<rect x="852.94" y="364.26" class="st17" width="27.12" height="32.42"/>
				<rect x="883.93" y="216.08" class="st17" width="27.12" height="32.41"/>
				<rect x="883.93" y="253.12" class="st9" width="27.12" height="32.42"/>
				<rect x="883.93" y="290.17" class="st4" width="27.12" height="32.41"/>
				<rect x="883.93" y="327.22" class="st9" width="27.12" height="32.41"/>
				<rect x="883.93" y="364.26" class="st8" width="27.12" height="32.42"/>
				<rect x="914.93" y="216.08" class="st9" width="27.12" height="32.41"/>
				<rect x="914.93" y="253.12" class="st4" width="27.12" height="32.42"/>
				<rect x="914.93" y="290.17" class="st9" width="27.12" height="32.41"/>
				<rect x="914.93" y="327.22" class="st17" width="27.12" height="32.41"/>
				<rect x="914.93" y="364.26" class="st9" width="27.12" height="32.42"/>
			</g>
		</g>
		<g>
			<rect x="150.57" y="211.44" class="st16" width="96.85" height="189.86"/>
			<g>
				<rect x="216.42" y="364.26" class="st9" width="27.12" height="32.42"/>
				<rect x="216.42" y="327.22" class="st8" width="27.12" height="32.41"/>
				<rect x="216.42" y="290.17" class="st17" width="27.12" height="32.41"/>
				<rect x="216.42" y="253.12" class="st9" width="27.12" height="32.42"/>
				<rect x="216.42" y="216.08" class="st17" width="27.12" height="32.41"/>
				<rect x="185.43" y="364.26" class="st17" width="27.12" height="32.42"/>
				<rect x="185.43" y="327.22" class="st9" width="27.12" height="32.41"/>
				<rect x="185.43" y="290.17" class="st4" width="27.12" height="32.41"/>
				<rect x="185.43" y="253.12" class="st9" width="27.12" height="32.42"/>
				<rect x="185.43" y="216.08" class="st8" width="27.12" height="32.41"/>
				<rect x="154.44" y="364.26" class="st9" width="27.12" height="32.42"/>
				<rect x="154.44" y="327.22" class="st4" width="27.12" height="32.41"/>
				<rect x="154.44" y="290.17" class="st9" width="27.12" height="32.41"/>
				<rect x="154.44" y="253.12" class="st17" width="27.12" height="32.42"/>
				<rect x="154.44" y="216.08" class="st9" width="27.12" height="32.41"/>
			</g>
		</g>
	</g>
	<g>
		<linearGradient id="SVGID_1_" gradientUnits="userSpaceOnUse" x1="287.4203" y1="413.0046" x2="371.8002" y2="778.4939">
			<stop  offset="0" style="stop-color:#555859"/>
			<stop  offset="0.1159" style="stop-color:#5F6263"/>
			<stop  offset="0.3134" style="stop-color:#7A7C7D"/>
			<stop  offset="0.5683" style="stop-color:#A6A7A8"/>
			<stop  offset="0.8678" style="stop-color:#E2E3E3"/>
			<stop  offset="1" style="stop-color:#FFFFFF"/>
		</linearGradient>
		<polygon class="st18" points="323.9,466.2 197.43,467.88 191.98,484.41 192.07,484.5 415.85,484.5 353.64,422.43 341.47,435.93 		
			"/>
		<g>
			<g>
				<g>
					<rect x="191.98" y="466.35" class="st19" width="18.15" height="18.15"/>
					<rect x="191.98" y="466.35" class="st20" width="18.15" height="10.51"/>
				</g>
				<g>
					<rect x="335.66" y="466.35" class="st19" width="18.15" height="18.15"/>
					<rect x="335.66" y="466.35" class="st20" width="18.15" height="10.51"/>
				</g>
				<rect x="191.98" y="466.34" class="st21" width="161.83" height="7.74"/>
			</g>
			<g>
				<g>
					<g>
						<rect x="247.59" y="423.13" class="st19" width="50.61" height="42.94"/>
						<rect x="247.59" y="423.13" class="st20" width="50.69" height="9.47"/>
						<rect x="246.34" y="422.46" class="st21" width="53.11" height="7.61"/>
					</g>
					<g>
						<rect x="278.04" y="433.58" class="st22" width="17.24" height="7.82"/>
						<g>
							<rect x="279.31" y="434.58" class="st23" width="1.83" height="5.81"/>
							<rect x="282.58" y="434.58" class="st23" width="1.83" height="5.81"/>
							<rect x="285.96" y="434.58" class="st23" width="1.83" height="5.81"/>
							<rect x="289.05" y="434.58" class="st23" width="1.83" height="5.81"/>
							<rect x="292.19" y="434.58" class="st23" width="1.83" height="5.81"/>
						</g>
					</g>
				</g>
				<g>
					<g>
						<rect x="301.71" y="423.13" class="st19" width="50.61" height="42.94"/>
						<rect x="301.71" y="423.13" class="st20" width="50.69" height="9.47"/>
						<rect x="300.46" y="422.46" class="st21" width="53.1" height="7.61"/>
					</g>
					<g>
						<rect x="332.17" y="433.58" class="st22" width="17.24" height="7.82"/>
						<g>
							<rect x="333.43" y="434.58" class="st23" width="1.83" height="5.81"/>
							<rect x="336.7" y="434.58" class="st23" width="1.83" height="5.81"/>
							<rect x="340.07" y="434.58" class="st23" width="1.83" height="5.81"/>
							<rect x="343.17" y="434.58" class="st23" width="1.83" height="5.81"/>
							<rect x="346.31" y="434.58" class="st23" width="1.83" height="5.81"/>
						</g>
					</g>
				</g>
				<g>
					<g>
						<rect x="193.47" y="423.13" class="st19" width="50.6" height="42.94"/>
						<rect x="193.47" y="423.13" class="st20" width="50.69" height="9.47"/>
						<rect x="192.22" y="422.46" class="st21" width="53.1" height="7.61"/>
					</g>
					<g>
						<rect x="223.93" y="433.58" class="st22" width="17.24" height="7.82"/>
						<g>
							<rect x="225.19" y="434.58" class="st23" width="1.83" height="5.81"/>
							<rect x="228.46" y="434.58" class="st23" width="1.83" height="5.81"/>
							<rect x="231.84" y="434.58" class="st23" width="1.83" height="5.81"/>
							<rect x="234.93" y="434.58" class="st23" width="1.83" height="5.81"/>
							<rect x="238.07" y="434.58" class="st23" width="1.83" height="5.81"/>
						</g>
					</g>
				</g>
			</g>
			<g>
				<g>
					<g>
						<rect x="247.59" y="379.13" class="st19" width="50.61" height="42.94"/>
						<rect x="247.59" y="379.13" class="st20" width="50.69" height="9.47"/>
						<rect x="246.34" y="378.45" class="st21" width="53.11" height="7.61"/>
					</g>
					<g>
						<rect x="278.04" y="389.57" class="st22" width="17.24" height="7.82"/>
						<g>
							<rect x="279.31" y="390.57" class="st23" width="1.83" height="5.82"/>
							<rect x="282.58" y="390.57" class="st23" width="1.83" height="5.82"/>
							<rect x="285.96" y="390.57" class="st23" width="1.83" height="5.82"/>
							<rect x="289.05" y="390.57" class="st23" width="1.83" height="5.82"/>
							<rect x="292.19" y="390.57" class="st23" width="1.83" height="5.82"/>
						</g>
					</g>
				</g>
				<g>
					<g>
						<rect x="301.71" y="379.13" class="st19" width="50.61" height="42.94"/>
						<rect x="301.71" y="379.13" class="st20" width="50.69" height="9.47"/>
						<rect x="300.46" y="378.45" class="st21" width="53.1" height="7.61"/>
					</g>
					<g>
						<rect x="332.17" y="389.57" class="st22" width="17.24" height="7.82"/>
						<g>
							<rect x="333.43" y="390.57" class="st23" width="1.83" height="5.82"/>
							<rect x="336.7" y="390.57" class="st23" width="1.83" height="5.82"/>
							<rect x="340.07" y="390.57" class="st23" width="1.83" height="5.82"/>
							<rect x="343.17" y="390.57" class="st23" width="1.83" height="5.82"/>
							<rect x="346.31" y="390.57" class="st23" width="1.83" height="5.82"/>
						</g>
					</g>
				</g>
				<g>
					<g>
						<rect x="193.47" y="379.13" class="st19" width="50.6" height="42.94"/>
						<rect x="193.47" y="379.13" class="st20" width="50.69" height="9.47"/>
						<rect x="192.22" y="378.45" class="st21" width="53.1" height="7.61"/>
					</g>
					<g>
						<rect x="223.93" y="389.57" class="st22" width="17.24" height="7.82"/>
						<g>
							<rect x="225.19" y="390.57" class="st23" width="1.83" height="5.82"/>
							<rect x="228.46" y="390.57" class="st23" width="1.83" height="5.82"/>
							<rect x="231.84" y="390.57" class="st23" width="1.83" height="5.82"/>
							<rect x="234.93" y="390.57" class="st23" width="1.83" height="5.82"/>
							<rect x="238.07" y="390.57" class="st23" width="1.83" height="5.82"/>
						</g>
					</g>
				</g>
			</g>
		</g>
	</g>
	<g>
		<g>
			<g>
				<rect x="637.59" y="331.55" class="st13" width="46.57" height="39.51"/>
				<rect x="637.59" y="331.55" class="st14" width="46.65" height="8.71"/>
				<rect x="636.44" y="330.93" class="st15" width="48.87" height="6.99"/>
			</g>
			<g>
				<rect x="587.79" y="331.55" class="st13" width="46.57" height="39.51"/>
				<rect x="587.79" y="331.55" class="st14" width="46.65" height="8.71"/>
				<rect x="586.64" y="330.93" class="st15" width="48.87" height="6.99"/>
			</g>
		</g>
		<g>
			<g>
				<rect x="637.59" y="369.66" class="st13" width="46.57" height="39.51"/>
				<rect x="637.59" y="369.66" class="st14" width="46.65" height="8.71"/>
				<rect x="636.44" y="369.04" class="st15" width="48.87" height="7"/>
			</g>
			<g>
				<rect x="587.79" y="369.66" class="st13" width="46.57" height="39.51"/>
				<rect x="587.79" y="369.66" class="st14" width="46.65" height="8.71"/>
				<rect x="586.64" y="369.04" class="st15" width="48.87" height="7"/>
			</g>
		</g>
	</g>
	<g>
		<g>
			<g>
				<g>
					<g>
						<rect x="642.46" y="404.09" class="st19" width="44.57" height="37.81"/>
						<rect x="642.46" y="404.09" class="st20" width="44.64" height="8.33"/>
						<rect x="641.36" y="403.5" class="st21" width="46.76" height="6.69"/>
					</g>
					<g>
						<rect x="669.28" y="413.28" class="st22" width="15.18" height="6.89"/>
						<g>
							<rect x="670.39" y="414.17" class="st23" width="1.61" height="5.12"/>
							<rect x="673.27" y="414.17" class="st23" width="1.61" height="5.12"/>
							<rect x="676.24" y="414.17" class="st23" width="1.61" height="5.12"/>
							<rect x="678.97" y="414.17" class="st23" width="1.61" height="5.12"/>
							<rect x="681.73" y="414.17" class="st23" width="1.61" height="5.12"/>
						</g>
					</g>
				</g>
				<g>
					<g>
						<rect x="690.12" y="404.09" class="st19" width="44.57" height="37.81"/>
						<rect x="690.12" y="404.09" class="st20" width="44.64" height="8.33"/>
						<rect x="689.02" y="403.5" class="st21" width="46.77" height="6.69"/>
					</g>
					<g>
						<rect x="716.94" y="413.28" class="st22" width="15.18" height="6.89"/>
						<g>
							<rect x="718.05" y="414.17" class="st23" width="1.61" height="5.12"/>
							<rect x="720.93" y="414.17" class="st23" width="1.61" height="5.12"/>
							<rect x="723.9" y="414.17" class="st23" width="1.61" height="5.12"/>
							<rect x="726.63" y="414.17" class="st23" width="1.61" height="5.12"/>
							<rect x="729.4" y="414.17" class="st23" width="1.61" height="5.12"/>
						</g>
					</g>
				</g>
				<g>
					<g>
						<rect x="594.8" y="404.09" class="st19" width="44.57" height="37.81"/>
						<rect x="594.8" y="404.09" class="st20" width="44.64" height="8.33"/>
						<rect x="593.7" y="403.5" class="st21" width="46.77" height="6.69"/>
					</g>
					<g>
						<rect x="621.62" y="413.28" class="st22" width="15.18" height="6.89"/>
						<g>
							<rect x="622.73" y="414.17" class="st23" width="1.61" height="5.12"/>
							<rect x="625.61" y="414.17" class="st23" width="1.61" height="5.12"/>
							<rect x="628.58" y="414.17" class="st23" width="1.61" height="5.12"/>
							<rect x="631.31" y="414.17" class="st23" width="1.61" height="5.12"/>
							<rect x="634.08" y="414.17" class="st23" width="1.61" height="5.12"/>
						</g>
					</g>
				</g>
			</g>
			<g>
				<g>
					<g>
						<rect x="642.46" y="365.33" class="st19" width="44.57" height="37.81"/>
						<rect x="642.46" y="365.33" class="st20" width="44.64" height="8.34"/>
						<rect x="641.36" y="364.74" class="st21" width="46.76" height="6.7"/>
					</g>
					<g>
						<rect x="669.28" y="374.53" class="st22" width="15.18" height="6.88"/>
						<g>
							<rect x="670.39" y="375.41" class="st23" width="1.61" height="5.13"/>
							<rect x="673.27" y="375.41" class="st23" width="1.61" height="5.13"/>
							<rect x="676.24" y="375.41" class="st23" width="1.61" height="5.13"/>
							<rect x="678.97" y="375.41" class="st23" width="1.61" height="5.13"/>
							<rect x="681.73" y="375.41" class="st23" width="1.61" height="5.13"/>
						</g>
					</g>
				</g>
				<g>
					<g>
						<rect x="690.12" y="365.33" class="st19" width="44.57" height="37.81"/>
						<rect x="690.12" y="365.33" class="st20" width="44.64" height="8.34"/>
						<rect x="689.02" y="364.74" class="st21" width="46.77" height="6.7"/>
					</g>
					<g>
						<rect x="716.94" y="374.53" class="st22" width="15.18" height="6.88"/>
						<g>
							<rect x="718.05" y="375.41" class="st23" width="1.61" height="5.13"/>
							<rect x="720.93" y="375.41" class="st23" width="1.61" height="5.13"/>
							<rect x="723.9" y="375.41" class="st23" width="1.61" height="5.13"/>
							<rect x="726.63" y="375.41" class="st23" width="1.61" height="5.13"/>
							<rect x="729.4" y="375.41" class="st23" width="1.61" height="5.13"/>
						</g>
					</g>
				</g>
				<g>
					<g>
						<rect x="594.8" y="365.33" class="st19" width="44.57" height="37.81"/>
						<rect x="594.8" y="365.33" class="st20" width="44.64" height="8.34"/>
						<rect x="593.7" y="364.74" class="st21" width="46.77" height="6.7"/>
					</g>
					<g>
						<rect x="621.62" y="374.53" class="st22" width="15.18" height="6.88"/>
						<g>
							<rect x="622.73" y="375.41" class="st23" width="1.61" height="5.13"/>
							<rect x="625.61" y="375.41" class="st23" width="1.61" height="5.13"/>
							<rect x="628.58" y="375.41" class="st23" width="1.61" height="5.13"/>
							<rect x="631.31" y="375.41" class="st23" width="1.61" height="5.13"/>
							<rect x="634.08" y="375.41" class="st23" width="1.61" height="5.13"/>
						</g>
					</g>
				</g>
			</g>
		</g>
		<path class="st24" d="M830.81,373.92l30.73,0.18c10.8,0.07,14.39,9.48,14.39,16.34v2.5c0,9.09-12.33,16.52-27.4,16.52h-17.72
			V373.92z"/>
		<path class="st25" d="M588.58,442.16h320.88c2.73,0,4.96,1.66,4.96,3.68v26.19c0,2.02-2.23,3.67-4.96,3.67H588.58
			c-2.73,0-4.96-1.65-4.96-3.67v-26.19C583.62,443.81,585.85,442.16,588.58,442.16z"/>
		<path class="st26" d="M914.42,458.93v13.1c0,2.02-2.23,3.67-4.96,3.67H588.58c-2.73,0-4.96-1.65-4.96-3.67v-13.1H914.42z"/>
		<path class="st24" d="M916.75,434.86v14.94c0,3.41-2.79,6.21-6.2,6.21h-19.36l-8.21-9.77c-1.02-1.21-2.73-1.78-4.31-1.78h-47.85
			v-60.61c21.6,0,43.2,0,64.8,0c11.63,0,21.14,9.51,21.14,21.14C916.75,414.95,916.75,424.9,916.75,434.86z"/>
		<path class="st27" d="M916.75,434.86v14.94c0,3.41-2.79,6.21-6.2,6.21h-19.36l-8.21-9.77c-1.02-1.21-2.73-1.78-4.31-1.78h-47.85
			v-24.53h85.94V434.86z"/>
		<path class="st24" d="M903.36,386.71h9.79c1.82,0,3.31,1.49,3.31,3.31v3.38c0,1.82-1.49,3.31-3.31,3.31h-9.79
			c-1.82,0-3.31-1.49-3.31-3.31v-3.38C900.06,388.2,901.55,386.71,903.36,386.71z"/>
		<path class="st28" d="M876.54,393.73h24.7c1.45,0,2.64,1.19,2.64,2.64v23.44c0,1.45-1.21,2.9-2.64,2.64l-24.7-4.34
			c-1.43-0.25-2.64-1.19-2.64-2.64v-19.09C873.9,394.91,875.08,393.73,876.54,393.73z"/>
		<path class="st28" d="M910.43,396.14h4.36c1.25,2.69,1.96,5.69,1.96,8.85v16.64l-6.32-1.11c-1.43-0.25-2.64-1.19-2.64-2.64v-19.09
			C907.79,397.33,908.98,396.14,910.43,396.14z"/>
		<g>
			<rect x="588.08" y="404.78" class="st29" width="230.75" height="37.2"/>
			<rect x="588.08" y="423.38" class="st30" width="230.75" height="18.6"/>
		</g>
		<g>
			<linearGradient id="SVGID_2_" gradientUnits="userSpaceOnUse" x1="792.7576" y1="463.7771" x2="804.42" y2="514.2925">
				<stop  offset="0" style="stop-color:#555859"/>
				<stop  offset="0.1159" style="stop-color:#5F6263"/>
				<stop  offset="0.3134" style="stop-color:#7A7C7D"/>
				<stop  offset="0.5683" style="stop-color:#A6A7A8"/>
				<stop  offset="0.8678" style="stop-color:#E2E3E3"/>
				<stop  offset="1" style="stop-color:#FFFFFF"/>
			</linearGradient>
			<polygon class="st31" points="755.96,458.74 769.44,449.42 790.75,448.66 805.93,458.17 840.73,492.84 771.11,492.84 
				754.33,476.06 			"/>
			<path class="st26" d="M780.12,452.57c11.12,0,20.13,9.01,20.13,20.13c0,11.12-9.01,20.13-20.13,20.13
				c-11.12,0-20.14-9.01-20.14-20.13C759.98,461.59,769,452.57,780.12,452.57z"/>
			<path class="st32" d="M780.12,464.78c4.38,0,7.93,3.55,7.93,7.93s-3.55,7.93-7.93,7.93c-4.38,0-7.93-3.55-7.93-7.93
				S775.74,464.78,780.12,464.78z"/>
			<polygon class="st32" points="754.2,476.01 754.2,458.9 754.32,458.07 754.95,457.54 767.61,446.98 768.21,446.48 769,446.48 
				791.24,446.48 792.03,446.48 792.63,446.98 805.28,457.54 805.92,458.07 806.04,458.9 806.04,476.01 801.74,476.63 
				801.86,460.34 790.45,450.81 769.79,450.81 758.37,460.34 758.49,476.63 			"/>
		</g>
		<g>
			<linearGradient id="SVGID_3_" gradientUnits="userSpaceOnUse" x1="639.133" y1="465.7214" x2="649.8976" y2="512.348">
				<stop  offset="0" style="stop-color:#555859"/>
				<stop  offset="0.1159" style="stop-color:#5F6263"/>
				<stop  offset="0.3134" style="stop-color:#7A7C7D"/>
				<stop  offset="0.5683" style="stop-color:#A6A7A8"/>
				<stop  offset="0.8678" style="stop-color:#E2E3E3"/>
				<stop  offset="1" style="stop-color:#FFFFFF"/>
			</linearGradient>
			<polygon class="st33" points="601.89,458.74 615.37,449.42 636.68,448.66 651.86,458.17 686.66,492.84 617.04,492.84 
				600.26,476.06 			"/>
			<path class="st26" d="M626.04,452.57c11.12,0,20.14,9.01,20.14,20.13c0,11.12-9.02,20.13-20.14,20.13
				c-11.12,0-20.14-9.01-20.14-20.13C605.91,461.59,614.92,452.57,626.04,452.57z"/>
			<path class="st32" d="M626.04,464.78c4.38,0,7.93,3.55,7.93,7.93s-3.55,7.93-7.93,7.93c-4.38,0-7.93-3.55-7.93-7.93
				S621.66,464.78,626.04,464.78z"/>
			<polygon class="st32" points="600.13,476.01 600.13,458.9 600.25,458.07 600.88,457.54 613.53,446.98 614.13,446.48 
				614.93,446.48 637.16,446.48 637.96,446.48 638.55,446.98 651.2,457.54 651.84,458.07 651.96,458.9 651.96,476.01 647.67,476.63 
				647.79,460.34 636.37,450.81 615.72,450.81 604.3,460.34 604.42,476.63 			"/>
		</g>
		<g>
			<linearGradient id="SVGID_4_" gradientUnits="userSpaceOnUse" x1="881.2495" y1="463.783" x2="892.9119" y2="514.2985">
				<stop  offset="0" style="stop-color:#555859"/>
				<stop  offset="0.1159" style="stop-color:#5F6263"/>
				<stop  offset="0.3134" style="stop-color:#7A7C7D"/>
				<stop  offset="0.5683" style="stop-color:#A6A7A8"/>
				<stop  offset="0.8678" style="stop-color:#E2E3E3"/>
				<stop  offset="1" style="stop-color:#FFFFFF"/>
			</linearGradient>
			<polygon class="st34" points="844.45,458.74 857.93,449.42 879.24,448.66 894.42,458.17 929.23,492.84 859.6,492.84 
				842.82,476.06 			"/>
			<ellipse class="st26" cx="868.61" cy="472.71" rx="20.14" ry="20.13"/>
			<path class="st32" d="M868.61,464.78c4.38,0,7.93,3.55,7.93,7.93s-3.55,7.93-7.93,7.93s-7.93-3.55-7.93-7.93
				S864.23,464.78,868.61,464.78z"/>
			<polygon class="st32" points="842.69,476.01 842.69,458.9 842.81,458.07 843.45,457.54 856.1,446.98 856.7,446.48 857.49,446.48 
				879.73,446.48 880.52,446.48 881.12,446.98 893.77,457.54 894.41,458.07 894.53,458.9 894.53,476.01 890.24,476.63 
				890.35,460.34 878.93,450.81 858.28,450.81 846.86,460.34 846.98,476.63 			"/>
		</g>
	</g>
	<g>
		<linearGradient id="SVGID_5_" gradientUnits="userSpaceOnUse" x1="510.0902" y1="449.1317" x2="527.907" y2="526.3048">
			<stop  offset="0" style="stop-color:#555859"/>
			<stop  offset="0.1159" style="stop-color:#5F6263"/>
			<stop  offset="0.3134" style="stop-color:#7A7C7D"/>
			<stop  offset="0.5683" style="stop-color:#A6A7A8"/>
			<stop  offset="0.8678" style="stop-color:#E2E3E3"/>
			<stop  offset="1" style="stop-color:#FFFFFF"/>
		</linearGradient>
		<polygon class="st35" points="515.87,434.86 456.28,470.1 453.17,479.54 453.22,479.59 581.06,479.59 528.38,425.91 		"/>
		<g>
			<path class="st7" d="M478,373.3h31.41c6.65,0,11.64,5.76,12.09,12.75l3.92,60.23h-63.44l3.92-60.23
				C466.29,379.05,471.34,373.3,478,373.3L478,373.3z M479.81,377.19c-5.8,0-9.44,5.06-9.85,11.29l-3.41,52.41l54.16,0.15
				l-3.56-53.02c-0.42-6.23-3.38-10.84-9.18-10.84H479.81z"/>
			<path class="st36" d="M465.97,429.56h55.47c2.47,0,4.49,2.02,4.49,4.49v27.84c0,2.47-2.02,4.49-4.49,4.49h-55.47
				c-2.47,0-4.49-2.02-4.49-4.49v-27.84C461.48,431.58,463.5,429.56,465.97,429.56z"/>
			<rect x="473.85" y="433.42" class="st26" width="41.27" height="36.28"/>
			<rect x="483.73" y="455.83" class="st37" width="21.52" height="4.76"/>
			<rect x="459.33" y="465.3" class="st38" width="70.3" height="3.2"/>
			<g>
				<g>
					<g>
						<rect x="496.89" y="393.8" class="st19" width="39.96" height="33.9"/>
						<rect x="496.89" y="393.8" class="st20" width="40.02" height="7.48"/>
						<rect x="495.9" y="393.27" class="st21" width="41.93" height="6.01"/>
					</g>
					<g>
						<rect x="520.94" y="402.04" class="st22" width="13.61" height="6.17"/>
						<g>
							<rect x="521.93" y="402.84" class="st23" width="1.45" height="4.59"/>
							<rect x="524.51" y="402.84" class="st23" width="1.45" height="4.59"/>
							<rect x="527.18" y="402.84" class="st23" width="1.45" height="4.59"/>
							<rect x="529.62" y="402.84" class="st23" width="1.45" height="4.59"/>
							<rect x="532.1" y="402.84" class="st23" width="1.45" height="4.59"/>
						</g>
					</g>
				</g>
				<g>
					<g>
						<rect x="454.16" y="393.8" class="st19" width="39.96" height="33.9"/>
						<rect x="454.16" y="393.8" class="st20" width="40.02" height="7.48"/>
						<rect x="453.17" y="393.27" class="st21" width="41.93" height="6.01"/>
					</g>
					<g>
						<rect x="478.2" y="402.04" class="st22" width="13.61" height="6.17"/>
						<g>
							<rect x="479.2" y="402.84" class="st23" width="1.45" height="4.59"/>
							<rect x="481.78" y="402.84" class="st23" width="1.45" height="4.59"/>
							<rect x="484.45" y="402.84" class="st23" width="1.45" height="4.59"/>
							<rect x="486.89" y="402.84" class="st23" width="1.45" height="4.59"/>
							<rect x="489.37" y="402.84" class="st23" width="1.45" height="4.59"/>
						</g>
					</g>
				</g>
			</g>
			<g>
				<rect x="476.08" y="430.32" class="st37" width="6.59" height="42.12"/>
				<rect x="506.3" y="430.32" class="st37" width="6.59" height="42.12"/>
			</g>
			<g>
				<g>
					<path class="st26" d="M457.1,454.2h4.41c1.39,0,2.53,1.14,2.53,2.53v20.34c0,1.39-1.14,2.53-2.53,2.53h-4.41
						c-1.39,0-2.53-1.14-2.53-2.53v-20.34C454.57,455.34,455.71,454.2,457.1,454.2z"/>
					<path class="st26" d="M467.49,454.2h4.41c1.39,0,2.53,1.14,2.53,2.53v20.34c0,1.39-1.14,2.53-2.53,2.53h-4.41
						c-1.39,0-2.53-1.14-2.53-2.53v-20.34C464.96,455.34,466.1,454.2,467.49,454.2z"/>
				</g>
				<g>
					<path class="st26" d="M517.06,454.2h4.41c1.39,0,2.53,1.14,2.53,2.53v20.34c0,1.39-1.14,2.53-2.53,2.53h-4.41
						c-1.39,0-2.53-1.14-2.53-2.53v-20.34C514.54,455.34,515.67,454.2,517.06,454.2z"/>
					<path class="st26" d="M527.45,454.2h4.41c1.39,0,2.53,1.14,2.53,2.53v20.34c0,1.39-1.14,2.53-2.53,2.53h-4.41
						c-1.39,0-2.53-1.14-2.53-2.53v-20.34C524.92,455.34,526.06,454.2,527.45,454.2z"/>
				</g>
			</g>
			<rect x="483.73" y="446.43" class="st37" width="21.52" height="5.41"/>
			<rect x="483.73" y="437.03" class="st37" width="21.52" height="5.67"/>
			<g>
				<polygon class="st39" points="476.08,430.32 482.67,430.32 485.21,435.09 473.38,435.24 				"/>
				<polygon class="st39" points="506.3,430.32 512.89,430.32 515.32,435.16 504.02,435.24 				"/>
			</g>
			<g>
				<g>
					<rect x="453.49" y="429.44" class="st19" width="9.45" height="9.45"/>
					<rect x="453.49" y="429.44" class="st20" width="9.45" height="5.47"/>
				</g>
				<g>
					<rect x="528.28" y="429.44" class="st19" width="9.45" height="9.45"/>
					<rect x="528.28" y="429.44" class="st20" width="9.45" height="5.47"/>
				</g>
				<rect x="453.49" y="427.75" class="st21" width="84.24" height="5.72"/>
			</g>
		</g>
	</g>
	<polygon class="st12" points="305.57,156.86 546.84,53.31 788.11,156.86 	"/>
	<g>
		<g>
			<path class="st40" d="M561.25,109.62c0,15.77-12.78,28.55-28.55,28.55s-28.55-12.78-28.55-28.55c0-15.77,12.78-28.55,28.55-28.55
				S561.25,93.85,561.25,109.62"/>
			<path class="st40" d="M560.98,138.17c15.77,0,28.55-12.78,28.55-28.55c0-15.77-12.78-28.55-28.55-28.55V138.17z"/>
			<path class="st41" d="M518.02,109.42c0-7.86,6.46-14.7,14.7-14.7c7.73,0,14.11,6.08,14.63,13.32h-6.97
				c-0.55-3.54-3.64-6.39-7.66-6.39c-4.5,0-7.76,3.64-7.76,7.76c0,4.12,3.26,7.76,7.76,7.76c4.05,0,7.11-2.88,7.66-6.46h7.01
				c-0.52,7.28-6.9,13.36-14.66,13.36C524.47,124.08,518.02,117.28,518.02,109.42"/>
		</g>
	</g>
</g>
</svg>
