<svg id="Layer_1" data-name="Layer 1" xmlns="http://www.w3.org/2000/svg" viewBox="0 0 1524 922"><defs><style>.cls-1{font-size:44.36px;}.cls-1,.cls-7{fill:#d82921;}.cls-1,.cls-2{font-family:Cairo-ExtraBold, Cairo;font-weight:800;}.cls-2{font-size:32.11px;}.cls-2,.cls-3{fill:#191a1a;}.cls-4{fill:#fff;}.cls-5{fill:#a5a4a5;}.cls-6{fill:#ff7f3e;}.cls-8{fill:#eda37a;}.cls-9{fill:#f6c343;}.cls-10{fill:#e7f1ff;}.cls-11{fill:#1ebe61;}.cls-12{fill:#2e86ff;}.cls-13{fill:none;stroke:#a6a6a6;stroke-miterlimit:10;stroke-width:4px;stroke-dasharray:11;}</style></defs><text class="cls-1" transform="translate(783.51 360.32)"><tspan xml:space="preserve"> نم ثكأ</tspan><tspan x="-211.28" y="53.23">تلاجملا عيمج يف</tspan></text><text class="cls-2" transform="translate(633.38 899.07)">... يثكلاو يثكلاو</text><path class="cls-3" d="M1020.33,368.46a10.59,10.59,0,0,1-4.54-.87A5.83,5.83,0,0,1,1013,365a9.61,9.61,0,0,1-.92-4.44A10.05,10.05,0,0,1,1013,356a6,6,0,0,1,2.76-2.76,10,10,0,0,1,4.54-.93h7.48v13.87h-4.91v-10.5l1,.83h-3.57a5.35,5.35,0,0,0-1.83.27,2,2,0,0,0-1.11,1.13,9.46,9.46,0,0,0,0,5.06,1.71,1.71,0,0,0,1.06,1,6.45,6.45,0,0,0,1.93.24h10.82v4.21ZM1015,349.32V345.4h4.69v3.92Zm6.33,0V345.4H1026v3.92Zm9.82,19.14v-4.21a.37.37,0,0,1,.31.15,1.21,1.21,0,0,1,.19.41,3.48,3.48,0,0,1,.11.66q0,.39,0,.87c0,.32,0,.61,0,.88a3.71,3.71,0,0,1-.11.68,1.21,1.21,0,0,1-.19.41A.37.37,0,0,1,1031.15,368.46Z"/><path class="cls-3" d="M1031.15,368.46a.4.4,0,0,1-.29-.15.92.92,0,0,1-.19-.41c0-.19-.08-.41-.11-.68a7.89,7.89,0,0,1,0-.88,8.83,8.83,0,0,1,.06-1.11,2.39,2.39,0,0,1,.21-.72.43.43,0,0,1,.37-.26Zm0,0v-4.21h14.58l-1.19,1v-9.6l1,.83H1042a4.65,4.65,0,0,0-2,.34,1.94,1.94,0,0,0-1,1.17,7.37,7.37,0,0,0-.3,2.38,7.87,7.87,0,0,0,.3,2.52,1.69,1.69,0,0,0,1,1.07,6.09,6.09,0,0,0,2,.26v3.89a11.7,11.7,0,0,1-4.54-.78,5.36,5.36,0,0,1-2.76-2.48,11.17,11.17,0,0,1,0-8.88,6.17,6.17,0,0,1,2.76-2.75,9.9,9.9,0,0,1,4.54-.94h7.49v16.15Zm5.81-19.14V345.4h4.69v3.92Zm6.33,0V345.4H1048v3.92Z"/><path class="cls-3" d="M1054.46,368.46V345.88h4.88v22.58Zm4.88,0v-4.21h3.57v4.21Zm3.57,0v-4.21a.34.34,0,0,1,.3.15,1.2,1.2,0,0,1,.2.41,3.48,3.48,0,0,1,.11.66q0,.39,0,.87c0,.32,0,.61,0,.88a3.71,3.71,0,0,1-.11.68,1.2,1.2,0,0,1-.2.41A.34.34,0,0,1,1062.91,368.46Z"/><path class="cls-3" d="M1062.91,368.46a.37.37,0,0,1-.31-.15,1.05,1.05,0,0,1-.17-.41,6.65,6.65,0,0,1-.12-.68,8,8,0,0,1,0-.88,8.83,8.83,0,0,1,.06-1.11,1.93,1.93,0,0,1,.21-.72.43.43,0,0,1,.37-.26Zm0,0v-4.21h8.64l-3,2.47V352.31h4.91v16.15Zm1.12,7.19v-3.92h4.69v3.92Zm6.33,0v-3.92h4.69v3.92Zm3.11-7.19v-4.21h4.18v4.21Zm4.18,0v-4.21a.34.34,0,0,1,.3.15,1,1,0,0,1,.19.41,2.79,2.79,0,0,1,.12.66q0,.39,0,.87c0,.32,0,.61,0,.88a3,3,0,0,1-.12.68,1,1,0,0,1-.19.41A.34.34,0,0,1,1077.65,368.46Z"/><path class="cls-3" d="M1077.65,368.46a.36.36,0,0,1-.29-.15.83.83,0,0,1-.19-.41,6.65,6.65,0,0,1-.12-.68,7.89,7.89,0,0,1,0-.88,8.64,8.64,0,0,1,.07-1.11,1.93,1.93,0,0,1,.21-.72.43.43,0,0,1,.37-.26Zm0,0v-4.21h3.56v4.21Zm3.56,0V345.88h4.91v22.58Zm4.91,0v-4.21h3.34v4.21Zm3.34,0v-4.21a.37.37,0,0,1,.31.15,1.21,1.21,0,0,1,.19.41,3.48,3.48,0,0,1,.11.66,7.71,7.71,0,0,1,0,.87,8,8,0,0,1,0,.88,3.71,3.71,0,0,1-.11.68,1.21,1.21,0,0,1-.19.41A.37.37,0,0,1,1089.46,368.46Z"/><path class="cls-3" d="M1089.46,368.46a.4.4,0,0,1-.29-.15,1,1,0,0,1-.19-.41c0-.19-.08-.41-.11-.68a7.89,7.89,0,0,1,0-.88,7.14,7.14,0,0,1,.07-1.11,2.16,2.16,0,0,1,.2-.72.43.43,0,0,1,.37-.26Zm0,0v-4.21H1093v4.21Zm3.57,0V345.88h4.91v22.58Z"/><path class="cls-3" d="M1102.92,368.46V345.88h4.88v22.58Z"/><path class="cls-3" d="M1118.59,376.74a18.73,18.73,0,0,1-2.54-.18c-.88-.11-1.8-.28-2.76-.49l.74-3.92c1,.13,1.94.22,2.68.29s1.36.09,1.88.09a5,5,0,0,0,3.14-.77,2.79,2.79,0,0,0,1-2.34V355.81l1,.7h-3.56a5.35,5.35,0,0,0-1.83.27,2,2,0,0,0-1.11,1.13,6.87,6.87,0,0,0-.37,2.61,7.12,7.12,0,0,0,.32,2.45,1.71,1.71,0,0,0,1.06,1,6.4,6.4,0,0,0,1.93.24h2.57v4.21h-2.57a10.67,10.67,0,0,1-4.55-.87,5.83,5.83,0,0,1-2.76-2.63,9.62,9.62,0,0,1-.91-4.44,10.06,10.06,0,0,1,.91-4.52,6,6,0,0,1,2.76-2.76,10.08,10.08,0,0,1,4.55-.93h7.48v17.11a6.75,6.75,0,0,1-1.12,3.9,7.2,7.2,0,0,1-3.15,2.54A11.77,11.77,0,0,1,1118.59,376.74Z"/><path class="cls-3" d="M1146.23,368.46a10.63,10.63,0,0,1-4.54-.87,5.83,5.83,0,0,1-2.76-2.63,9.61,9.61,0,0,1-.92-4.44,10.05,10.05,0,0,1,.92-4.52,6,6,0,0,1,2.76-2.76,10,10,0,0,1,4.54-.93h7.49v13.87h-4.92v-10.5l1,.83h-3.57a5.43,5.43,0,0,0-1.83.27,2,2,0,0,0-1.1,1.13,9.46,9.46,0,0,0,0,5.06,1.66,1.66,0,0,0,1.06,1,6.33,6.33,0,0,0,1.92.24h10.83v4.21Zm-5.33-19.14V345.4h4.69v3.92Zm6.33,0V345.4h4.69v3.92Zm9.83,19.14v-4.21a.36.36,0,0,1,.3.15,1,1,0,0,1,.19.41,3.41,3.41,0,0,1,.12.66q0,.39,0,.87c0,.32,0,.61,0,.88a3.64,3.64,0,0,1-.12.68,1,1,0,0,1-.19.41A.36.36,0,0,1,1157.06,368.46Z"/><path class="cls-3" d="M1157.06,368.46a.36.36,0,0,1-.29-.15.92.92,0,0,1-.2-.41c0-.19-.08-.41-.11-.68a7.89,7.89,0,0,1,0-.88,7.14,7.14,0,0,1,.07-1.11,1.93,1.93,0,0,1,.21-.72.42.42,0,0,1,.37-.26Zm0,0v-4.21h13.67l-1.7,1.32v-5.21a3.52,3.52,0,0,0-1.15-2.84,5.76,5.76,0,0,0-3.73-1c-.47,0-1.1,0-1.89.1s-1.66.16-2.6.29l-.45-3.85c.9-.22,1.81-.4,2.74-.55a17.08,17.08,0,0,1,2.72-.22,11.18,11.18,0,0,1,4.78,1,8,8,0,0,1,3.29,2.77,7.51,7.51,0,0,1,1.21,4.31v8.1Zm16.89,0v-4.21h3.37v4.21Zm3.37,0v-4.21a.4.4,0,0,1,.29.15.92.92,0,0,1,.19.41,6.44,6.44,0,0,1,.11.66,7.57,7.57,0,0,1,0,.87,7.89,7.89,0,0,1,0,.88c0,.27-.07.49-.11.68a.92.92,0,0,1-.19.41A.4.4,0,0,1,1177.32,368.46Z"/><path class="cls-3" d="M1177.32,368.46a.36.36,0,0,1-.29-.15.92.92,0,0,1-.2-.41c0-.19-.08-.41-.11-.68a7.89,7.89,0,0,1,0-.88,8.64,8.64,0,0,1,.07-1.11,1.93,1.93,0,0,1,.21-.72.42.42,0,0,1,.37-.26Zm0,0v-4.21h24.46l-4.07,3.5v-6.49a6.82,6.82,0,0,0-.47-2.76,3.19,3.19,0,0,0-1.3-1.51,3.94,3.94,0,0,0-2-.48,6.07,6.07,0,0,0-2.62.58,10.91,10.91,0,0,0-2.31,1.48,19.05,19.05,0,0,0-2,1.92c-.61.69-1.15,1.34-1.61,2s-.85,1.11-1.17,1.48l-1-3.34,2.44-3.07c.7-.88,1.37-1.66,2-2.31a11.19,11.19,0,0,1,1.91-1.62,7.21,7.21,0,0,1,2.17-1,10.49,10.49,0,0,1,2.79-.32,8.52,8.52,0,0,1,3.61.7,6.78,6.78,0,0,1,2.51,2,8.65,8.65,0,0,1,1.46,2.87,12,12,0,0,1,.48,3.42v7.2Zm3.88-4.21V352.31h4.91v11.94Zm21.42,4.21v-4.21H1206v4.21Zm3.34,0v-4.21a.38.38,0,0,1,.29.15.92.92,0,0,1,.19.41,6.44,6.44,0,0,1,.11.66,7.57,7.57,0,0,1,0,.87,7.89,7.89,0,0,1,0,.88c0,.27-.07.49-.11.68a.92.92,0,0,1-.19.41A.38.38,0,0,1,1206,368.46Z"/><path class="cls-3" d="M1206,368.46a.38.38,0,0,1-.29-.15.83.83,0,0,1-.19-.41,4.84,4.84,0,0,1-.11-.68,6.05,6.05,0,0,1,0-.88,8.83,8.83,0,0,1,.06-1.11,1.93,1.93,0,0,1,.21-.72.43.43,0,0,1,.37-.26Zm0,0v-4.21h3.56v4.21Zm3.56,0V345.88h4.92v22.58Z"/><path class="cls-3" d="M1219.41,368.46V345.88h4.88v22.58Z"/><text class="cls-2" transform="translate(151.43 706.27)">تارهوجملاو تاراوسسكلا</text><text class="cls-2" transform="translate(626.08 706.27)">روكيدلاو لنملا</text><path class="cls-3" d="M1295.68,510.27a10.64,10.64,0,0,1-4.55-.87,5.74,5.74,0,0,1-2.76-2.63,9.57,9.57,0,0,1-.91-4.43,10.07,10.07,0,0,1,.91-4.53,6,6,0,0,1,2.76-2.76,10.05,10.05,0,0,1,4.55-.93h7.48V508h-4.91v-10.5l1,.83h-3.56a5.33,5.33,0,0,0-1.83.28,1.89,1.89,0,0,0-1.11,1.12,6.89,6.89,0,0,0-.37,2.62,7.09,7.09,0,0,0,.32,2.44,1.68,1.68,0,0,0,1.06,1,6.36,6.36,0,0,0,1.93.24h10.82v4.21Zm-5.33-19.14v-3.92H1295v3.92Zm6.32,0v-3.92h4.69v3.92Zm9.83,19.14v-4.21a.34.34,0,0,1,.3.15,1.2,1.2,0,0,1,.2.41,3.78,3.78,0,0,1,.11.66q0,.39,0,.87c0,.32,0,.62,0,.88a3.57,3.57,0,0,1-.11.68,1.2,1.2,0,0,1-.2.41A.34.34,0,0,1,1306.5,510.27Z"/><path class="cls-3" d="M1306.5,510.27a.36.36,0,0,1-.29-.15.83.83,0,0,1-.19-.41,6.18,6.18,0,0,1-.12-.68,7.9,7.9,0,0,1,0-.88,8.83,8.83,0,0,1,.06-1.11,1.93,1.93,0,0,1,.21-.72.43.43,0,0,1,.37-.26Zm0,0v-4.21H1331l-4.08,3.5v-6.48a6.75,6.75,0,0,0-.47-2.76,3.15,3.15,0,0,0-1.3-1.51,3.91,3.91,0,0,0-2-.49,6.22,6.22,0,0,0-2.62.58,10.91,10.91,0,0,0-2.31,1.48,18.17,18.17,0,0,0-2,1.93c-.61.68-1.14,1.33-1.6,1.95s-.86,1.12-1.18,1.48l-1-3.34c.92-1.15,1.73-2.18,2.44-3.06s1.37-1.66,2-2.32a11.19,11.19,0,0,1,1.91-1.62,7.33,7.33,0,0,1,2.17-1,10.92,10.92,0,0,1,2.79-.32,8.52,8.52,0,0,1,3.61.7,6.81,6.81,0,0,1,2.51,2,8.7,8.7,0,0,1,1.46,2.88,12,12,0,0,1,.48,3.42v7.19Zm3.88-4.21V494.12h4.92v11.94Zm8.64-14.9v-3.91h5v3.91Z"/><path class="cls-3" d="M1336.78,510.27V487.7h4.88v22.57Zm4.88,0v-4.21h3.56v4.21Zm3.56,0v-4.21a.37.37,0,0,1,.31.15,1.21,1.21,0,0,1,.19.41,3.78,3.78,0,0,1,.11.66c0,.26,0,.55,0,.87s0,.62,0,.88a3.57,3.57,0,0,1-.11.68,1.21,1.21,0,0,1-.19.41A.37.37,0,0,1,1345.22,510.27Z"/><path class="cls-3" d="M1345.22,510.27a.4.4,0,0,1-.29-.15.92.92,0,0,1-.19-.41,6.47,6.47,0,0,1-.11-.68,7.75,7.75,0,0,1-.05-.88,8.83,8.83,0,0,1,.06-1.11,2.39,2.39,0,0,1,.21-.72.43.43,0,0,1,.37-.26Zm0,0v-4.21h8.64l-3,2.48V494.12h4.92v16.15Zm1.13,7.19v-3.92H1351v3.92Zm6.32,0v-3.92h4.69v3.92Z"/><path class="cls-3" d="M1361.44,518.55c-.24,0-.53,0-.87,0s-.69-.06-1.06-.08l.16-4.15c.34,0,.68,0,1,0l.7,0a2.21,2.21,0,0,0,1.88-.93,4.48,4.48,0,0,0,.69-2.7v-16.6h4.92v16.6a8.65,8.65,0,0,1-.94,4.06,6.78,6.78,0,0,1-2.6,2.78A7.44,7.44,0,0,1,1361.44,518.55Zm6.61-8.28v-4.21h4.15v4.21Zm4.15,0v-4.21a.37.37,0,0,1,.3.15,1,1,0,0,1,.19.41,3,3,0,0,1,.11.66,7.71,7.71,0,0,1,0,.87,7.9,7.9,0,0,1,0,.88,2.92,2.92,0,0,1-.11.68,1,1,0,0,1-.19.41A.37.37,0,0,1,1372.2,510.27Z"/><path class="cls-3" d="M1372.19,510.27a.36.36,0,0,1-.28-.15.92.92,0,0,1-.2-.41,6.47,6.47,0,0,1-.11-.68,7.75,7.75,0,0,1,0-.88,7.14,7.14,0,0,1,.07-1.11,1.93,1.93,0,0,1,.21-.72.41.41,0,0,1,.36-.26Zm0,0v-4.21h3.57v4.21Zm3.57,0V487.7h4.91v22.57Z"/><path class="cls-3" d="M1385.65,510.27V487.7h4.88v22.57Z"/><text class="cls-2" transform="translate(1392.41 318.96)">لافطلا</text><text class="cls-2" transform="translate(1013.76 706.27)">ةفيللا تاناويحلا تامزلتسم</text><text class="cls-2" transform="translate(2.89 228.96)">ةيئاذغلا تلمكملا</text><text class="cls-2" transform="translate(243.85 362.96)">جلوكيبلا تاودأ</text><text class="cls-2" transform="translate(411.93 151.27)">تاينوتكللا</text><path class="cls-3" d="M1184.28,170.46a16.61,16.61,0,0,1-6-1,7.56,7.56,0,0,1-3.69-2.81,8,8,0,0,1-1.26-4.59,15.11,15.11,0,0,1,.1-1.61c.06-.55.14-1.09.22-1.6s.18-1,.26-1.37.15-.7.19-.91l4.79.93c-.07.32-.15.74-.26,1.25s-.2,1-.27,1.62a11.61,11.61,0,0,0-.11,1.62,4.62,4.62,0,0,0,.41,2.07,3.18,3.18,0,0,0,1.22,1.3,5.14,5.14,0,0,0,2,.66,17.75,17.75,0,0,0,2.68.18h8.28V154.3h4.92v16.16Zm-4.17-17.18v-3.92h4.68v3.92Zm6.32,0v-3.92h4.69v3.92Z"/><path class="cls-3" d="M1202.36,170.46V147.88h4.88v22.58Z"/><path class="cls-3" d="M1211.58,178.74c-.24,0-.53,0-.87-.05l-1.06-.08.16-4.14q.51,0,1,0l.71,0a2.22,2.22,0,0,0,1.88-.93,4.47,4.47,0,0,0,.69-2.69V154.3H1219v16.61a8.65,8.65,0,0,1-.93,4.06,6.91,6.91,0,0,1-2.6,2.78A7.46,7.46,0,0,1,1211.58,178.74Z"/><path class="cls-3" d="M1223.9,170.46V147.88h4.89v22.58Zm4.89,0v-4.21h3.56v4.21Zm3.56,0v-4.21a.36.36,0,0,1,.3.14,1.37,1.37,0,0,1,.2.42,3.48,3.48,0,0,1,.11.66q0,.39,0,.87c0,.32,0,.61,0,.88a3.46,3.46,0,0,1-.11.67,1.17,1.17,0,0,1-.2.42A.34.34,0,0,1,1232.35,170.46Z"/><path class="cls-3" d="M1232.35,170.46a.37.37,0,0,1-.31-.15,1,1,0,0,1-.17-.42,6.23,6.23,0,0,1-.11-.67,6.05,6.05,0,0,1,0-.88,8.83,8.83,0,0,1,.06-1.11,2.14,2.14,0,0,1,.21-.72.43.43,0,0,1,.37-.26Zm0,0v-4.21H1241l-3,2.47V154.3h4.91v16.16Zm1.12,7.19v-3.92h4.69v3.92Zm6.33,0v-3.92h4.69v3.92Zm3.11-7.19v-4.21h4.18v4.21Zm4.18,0v-4.21a.36.36,0,0,1,.3.14,1.37,1.37,0,0,1,.2.42,3.48,3.48,0,0,1,.11.66q0,.39,0,.87c0,.32,0,.61,0,.88a3.46,3.46,0,0,1-.11.67,1.17,1.17,0,0,1-.2.42A.34.34,0,0,1,1247.09,170.46Z"/><path class="cls-3" d="M1247.09,170.46a.38.38,0,0,1-.29-.15.82.82,0,0,1-.19-.42,6,6,0,0,1-.12-.67,8,8,0,0,1,0-.88,8.83,8.83,0,0,1,.06-1.11,1.93,1.93,0,0,1,.21-.72.43.43,0,0,1,.37-.26Zm0,0v-4.21h4.66l-1,1.09v-9.73h4.91v12.85Zm8.54,0v-4.21h2.28a3.07,3.07,0,0,0,1.53-.31,1.8,1.8,0,0,0,.73-1.25,14.39,14.39,0,0,0,.21-2.87V156h4.91v5.81a12.8,12.8,0,0,1-.8,4.93,5.52,5.52,0,0,1-2.42,2.81,8.52,8.52,0,0,1-4.16.9Zm11,0a7.65,7.65,0,0,1-2.77-.53,8.53,8.53,0,0,1-2.52-1.56l3-3.08a4.59,4.59,0,0,0,1.16.72,3,3,0,0,0,1.15.24h6.14l-2.67,2.38v-7c0-.32,0-.83-.11-1.53s-.18-1.48-.32-2.37-.3-1.8-.47-2.72l4.82-.74c.15.78.3,1.64.45,2.61s.28,1.87.38,2.72a16.84,16.84,0,0,1,.16,2v8.8Zm8.38,0v-4.21h3.34v4.21Zm3.34,0v-4.21a.38.38,0,0,1,.29.14,1,1,0,0,1,.2.42,6.44,6.44,0,0,1,.11.66,7.57,7.57,0,0,1,0,.87,7.89,7.89,0,0,1,0,.88,6.23,6.23,0,0,1-.11.67.91.91,0,0,1-.2.42A.36.36,0,0,1,1278.36,170.46Z"/><path class="cls-3" d="M1278.36,170.46a.36.36,0,0,1-.28-.15.91.91,0,0,1-.2-.42,6.23,6.23,0,0,1-.11-.67,7.89,7.89,0,0,1,0-.88,7.14,7.14,0,0,1,.07-1.11,1.93,1.93,0,0,1,.21-.72.41.41,0,0,1,.36-.26Zm0,0v-4.21h3.57v4.21Zm3.57,0V147.88h4.91v22.58Z"/><path class="cls-3" d="M1291.82,170.46V147.88h4.88v22.58Z"/><path class="cls-3" d="M130.21,548.17l.74,3.92c-1,.19-1.89.35-2.77.47a20.28,20.28,0,0,1-2.53.17,11.83,11.83,0,0,1-4.74-.88,7.2,7.2,0,0,1-3.16-2.52,7.36,7.36,0,0,1,0-7.84,7.2,7.2,0,0,1,3.16-2.52,11.83,11.83,0,0,1,4.74-.88h2.82v4.21h-2.82a5,5,0,0,0-3.13.77,3.28,3.28,0,0,0,0,4.68,5,5,0,0,0,3.13.78c.51,0,1.14,0,1.89-.08S129.18,548.3,130.21,548.17Zm-11.5-17.34-.48-3.82c1-.26,2-.46,3-.63a17.64,17.64,0,0,1,2.87-.24,11.27,11.27,0,0,1,4.82,1,8,8,0,0,1,3.29,2.76,7.57,7.57,0,0,1,1.21,4.32v8.1h-4.92v-8.1a3.5,3.5,0,0,0-1.17-2.84,5.82,5.82,0,0,0-3.74-1c-.51,0-1.19,0-2,.12S119.76,530.68,118.71,530.83Zm2.89-7.38v-3.92h5v3.92Zm11.79,18.85v-4.21h3.34v4.21Zm3.34,0v-4.21a.38.38,0,0,1,.28.14,1,1,0,0,1,.2.42,6.44,6.44,0,0,1,.11.66,7.57,7.57,0,0,1,.05.87,7.89,7.89,0,0,1-.05.88,6.23,6.23,0,0,1-.11.67,1,1,0,0,1-.2.42A.36.36,0,0,1,136.73,542.3Z"/><path class="cls-3" d="M136.73,542.3a.37.37,0,0,1-.31-.15,1.28,1.28,0,0,1-.18-.42,6.23,6.23,0,0,1-.11-.67,7.89,7.89,0,0,1,0-.88,7.14,7.14,0,0,1,.07-1.11,1.93,1.93,0,0,1,.21-.72.41.41,0,0,1,.37-.26Zm0,0v-4.21h6.32l-3,2.47V526.14H145V542.3Zm3.33,7.19v-3.92H145v3.92ZM145,542.3v-4.21h3.37v4.21Zm3.37,0v-4.21a.4.4,0,0,1,.29.14,1,1,0,0,1,.19.42,6.44,6.44,0,0,1,.11.66,5.83,5.83,0,0,1,.05.87,6.05,6.05,0,0,1-.05.88,6.23,6.23,0,0,1-.11.67,1,1,0,0,1-.19.42A.38.38,0,0,1,148.35,542.3Z"/><path class="cls-3" d="M148.35,542.3a.38.38,0,0,1-.29-.15.86.86,0,0,1-.19-.42,6,6,0,0,1-.12-.67,8,8,0,0,1,0-.88,8.83,8.83,0,0,1,.06-1.11,1.93,1.93,0,0,1,.21-.72.42.42,0,0,1,.37-.26Zm0,0v-4.21h22.8l-4.08,3.5V535.1a6.82,6.82,0,0,0-.47-2.76,3.19,3.19,0,0,0-1.3-1.51,3.91,3.91,0,0,0-2-.48,6,6,0,0,0-2.61.58,10.36,10.36,0,0,0-2.32,1.48,18.84,18.84,0,0,0-2,1.92c-.6.69-1.14,1.34-1.61,2s-.85,1.11-1.15,1.48l-1-3.34c.94-1.24,1.81-2.37,2.6-3.37a20,20,0,0,1,2.44-2.62,9.2,9.2,0,0,1,2.75-1.7,9.34,9.34,0,0,1,3.51-.6,8.59,8.59,0,0,1,3.62.71,6.88,6.88,0,0,1,2.52,2,8.2,8.2,0,0,1,1.46,2.87,12.34,12.34,0,0,1,.46,3.42v7.2Zm2.25-4.21V519.72h4.91v18.37Zm20.74,4.21v-4.21h3.37v4.21Zm3.37,0v-4.21a.38.38,0,0,1,.29.14.91.91,0,0,1,.19.42,6.17,6.17,0,0,1,.12.66,7.71,7.71,0,0,1,0,.87,8,8,0,0,1,0,.88,6,6,0,0,1-.12.67.86.86,0,0,1-.19.42A.36.36,0,0,1,174.71,542.3Z"/><path class="cls-3" d="M174.71,542.3a.38.38,0,0,1-.29-.15,1,1,0,0,1-.19-.42,6.23,6.23,0,0,1-.11-.67,7.89,7.89,0,0,1-.05-.88,8.83,8.83,0,0,1,.06-1.11,2.39,2.39,0,0,1,.21-.72.42.42,0,0,1,.37-.26Zm0,0v-4.21h16.38l-2,1.77V534.3a7.12,7.12,0,0,0-.33-2.44,2.1,2.1,0,0,0-1.19-1.22,6.24,6.24,0,0,0-2.36-.35,19.18,19.18,0,0,0-2.55.16,7.4,7.4,0,0,0-1.95.45l3-2.83a18,18,0,0,0-.36,1.83c-.12.75-.22,1.54-.29,2.36s-.12,1.62-.12,2.39a22.37,22.37,0,0,0,.12,2.25c.07.79.16,1.49.25,2.1s.17,1,.21,1.24l-4.65,1.32a12.19,12.19,0,0,1-.36-1.51c-.13-.69-.23-1.5-.32-2.43s-.13-1.92-.13-3a30.59,30.59,0,0,1,.15-3.06c.09-1,.22-1.9.37-2.72s.29-1.45.41-1.92a14,14,0,0,1,2.46-.58,22.26,22.26,0,0,1,3.71-.29,13,13,0,0,1,4.9.8,5.76,5.76,0,0,1,2.92,2.6,10.23,10.23,0,0,1,1,4.85v8Z"/><circle class="cls-4" cx="506.17" cy="60.04" r="50.3"/><path class="cls-5" d="M528.94,56.15a22.33,22.33,0,0,0-10.77-15.71,23.29,23.29,0,0,0-16.06-2.85A21.69,21.69,0,0,0,488,45.8a22.8,22.8,0,0,0-4.81,17.38c.15,1.29.49,2.56.74,3.84h.19a3.87,3.87,0,0,0,.71-2.2,9.94,9.94,0,0,1,1.46-4.4.86.86,0,0,0,.13-.41c0-.63,0-1.25.1-1.87a14.49,14.49,0,0,1,1.86-6.28,1,1,0,0,1,.81-.55,4.62,4.62,0,0,0,3.33-1.77,16,16,0,0,1,5.56-4.47c4.24-2,8.67-2,13.12-1.07a15.11,15.11,0,0,1,8.6,5.58,4.21,4.21,0,0,0,2.91,1.67,1.59,1.59,0,0,1,1.46,1.09c.07.15.15.29.22.44a16.79,16.79,0,0,1,1.47,7,1.47,1.47,0,0,0,.16.7,9,9,0,0,1,1.25,3.24c.14.76.23,1.53.4,2.28a5.8,5.8,0,0,0,.45,1.07c.16-.12.2-.19.22-.27A22.39,22.39,0,0,0,528.94,56.15Z"/><path class="cls-3" d="M498.22,66.75c-1-2.42-2-4.84-3.08-7.25a2.48,2.48,0,0,0-3-1.57c-1.17.36-2.28.9-3.45,1.37l10,23.53,2.79-1.18a2.65,2.65,0,0,0,1.5-3.79Z"/><path class="cls-3" d="M520.91,58.15a2.64,2.64,0,0,0-3.81,1.53l-3.93,9.25q-1.9,4.51-3.82,9a2.52,2.52,0,0,0,.9,3.34c1.08.61,2.26,1,3.42,1.56,3.34-7.88,6.66-15.69,10-23.53Z"/><path class="cls-5" d="M487.15,61.11a8.31,8.31,0,0,0-1.22,3.55,5.17,5.17,0,0,1-1,3,1.11,1.11,0,0,0-.19,1.31q2.11,5,4.21,9.93a1.19,1.19,0,0,0,1,.76,5.32,5.32,0,0,1,1.57.49,16.19,16.19,0,0,1,1.72,1.16,7.86,7.86,0,0,0,2.8,1.29,13.74,13.74,0,0,0,1.41.18l-9.6-22.64A11,11,0,0,0,487.15,61.11Z"/><path class="cls-5" d="M526.57,65.83c-.16-.89-.27-1.79-.49-2.66a5.8,5.8,0,0,0-1.67-3c-3.19,7.54-6.36,15-9.55,22.53a3.45,3.45,0,0,0,.8,0,8.51,8.51,0,0,0,1.88-.56,23.45,23.45,0,0,0,2.38-1.47,4.33,4.33,0,0,1,2.21-1,1.29,1.29,0,0,0,1.34-1,5.32,5.32,0,0,1,.21-.5c1.29-3,2.57-6.07,3.87-9.11a1.07,1.07,0,0,0-.07-1.28A3.72,3.72,0,0,1,526.57,65.83Z"/><path class="cls-3" d="M722.54,149.27a10.59,10.59,0,0,1-4.54-.87,5.76,5.76,0,0,1-2.77-2.63,9.57,9.57,0,0,1-.91-4.43,10.07,10.07,0,0,1,.91-4.53,6,6,0,0,1,2.77-2.76,10,10,0,0,1,4.54-.93H730V147h-4.91v-10.5l1,.83h-3.56a5.33,5.33,0,0,0-1.83.28,1.94,1.94,0,0,0-1.11,1.12,6.89,6.89,0,0,0-.37,2.62,7.09,7.09,0,0,0,.32,2.44,1.71,1.71,0,0,0,1.06,1,6.4,6.4,0,0,0,1.93.24h10.82v4.21Zm-5.33-19.14v-3.92h4.69v3.92Zm6.32,0v-3.92h4.69v3.92Zm9.83,19.14v-4.21a.37.37,0,0,1,.31.15,1.44,1.44,0,0,1,.19.41,3.78,3.78,0,0,1,.11.66q0,.39,0,.87c0,.32,0,.62,0,.88a3.57,3.57,0,0,1-.11.68,1.44,1.44,0,0,1-.19.41A.37.37,0,0,1,733.36,149.27Z"/><path class="cls-3" d="M733.36,149.27a.34.34,0,0,1-.3-.15.92.92,0,0,1-.18-.41,6.47,6.47,0,0,1-.11-.68,6,6,0,0,1,0-.88,8.83,8.83,0,0,1,.06-1.11,2.14,2.14,0,0,1,.21-.72.43.43,0,0,1,.37-.26Zm0,0v-4.21H742l-3,2.48V133.12h4.91v16.15Zm1.12,7.19v-3.92h4.69v3.92Zm6.33,0v-3.92h4.69v3.92Zm3.11-7.19v-4.21h4.18v4.21Zm4.18,0v-4.21a.34.34,0,0,1,.3.15,1.2,1.2,0,0,1,.2.41,3.78,3.78,0,0,1,.11.66q0,.39,0,.87c0,.32,0,.62,0,.88a3.57,3.57,0,0,1-.11.68,1.2,1.2,0,0,1-.2.41A.34.34,0,0,1,748.1,149.27Z"/><path class="cls-3" d="M748.1,149.27a.38.38,0,0,1-.29-.15.83.83,0,0,1-.19-.41,6.18,6.18,0,0,1-.12-.68,7.9,7.9,0,0,1,0-.88,8.83,8.83,0,0,1,.06-1.11,1.93,1.93,0,0,1,.21-.72.43.43,0,0,1,.37-.26Zm0,0v-4.21h24.47l-4.08,3.5v-6.48a6.75,6.75,0,0,0-.47-2.76,3.15,3.15,0,0,0-1.3-1.51,3.81,3.81,0,0,0-2-.49,6.14,6.14,0,0,0-2.61.58,10.73,10.73,0,0,0-2.32,1.48,18.17,18.17,0,0,0-2,1.93c-.61.68-1.14,1.33-1.6,1.95a17.69,17.69,0,0,1-1.18,1.48l-1-3.34c.92-1.15,1.73-2.18,2.44-3.06s1.37-1.66,2-2.32a11.19,11.19,0,0,1,1.91-1.62,7.33,7.33,0,0,1,2.17-1,10.92,10.92,0,0,1,2.79-.32,8.52,8.52,0,0,1,3.61.7,6.81,6.81,0,0,1,2.51,2,8.7,8.7,0,0,1,1.46,2.88,12,12,0,0,1,.48,3.42v7.19Zm3.88-4.21V133.12h4.92v11.94Zm21.42,4.21v-4.21h3.34v4.21Zm3.34,0v-4.21a.38.38,0,0,1,.29.15.83.83,0,0,1,.19.41,5,5,0,0,1,.11.66,5.83,5.83,0,0,1,0,.87,6,6,0,0,1,0,.88,4.6,4.6,0,0,1-.11.68.83.83,0,0,1-.19.41A.38.38,0,0,1,776.74,149.27Z"/><path class="cls-3" d="M776.74,149.27a.38.38,0,0,1-.29-.15.92.92,0,0,1-.19-.41,6.47,6.47,0,0,1-.11-.68,7.75,7.75,0,0,1,0-.88,8.83,8.83,0,0,1,.06-1.11,2.39,2.39,0,0,1,.21-.72.43.43,0,0,1,.37-.26Zm0,0v-4.21h13.68l-1.7,1.32v-5.2a3.52,3.52,0,0,0-1.16-2.84,5.67,5.67,0,0,0-3.72-1c-.47,0-1.11,0-1.9.09s-1.66.16-2.6.29l-.45-3.85c.9-.22,1.82-.4,2.75-.55a17,17,0,0,1,2.71-.22,11.08,11.08,0,0,1,4.79,1,8,8,0,0,1,3.29,2.76,7.56,7.56,0,0,1,1.2,4.32v8.09Zm5.14-18.79v-3.91h4.94v3.91Zm11.75,18.79v-4.21H797v4.21Zm3.37,0v-4.21a.36.36,0,0,1,.29.15.83.83,0,0,1,.19.41c0,.19.08.41.12.66a7.57,7.57,0,0,1,0,.87,7.75,7.75,0,0,1,0,.88,6.18,6.18,0,0,1-.12.68.83.83,0,0,1-.19.41A.36.36,0,0,1,797,149.27Z"/><path class="cls-3" d="M797,149.27a.4.4,0,0,1-.29-.15.92.92,0,0,1-.19-.41,6.47,6.47,0,0,1-.11-.68,7.75,7.75,0,0,1,0-.88,8.83,8.83,0,0,1,.06-1.11,2.39,2.39,0,0,1,.21-.72.43.43,0,0,1,.37-.26Zm0,0v-4.21h4.66l-1,1.09v-9.72h4.91v12.84Zm8.54,0v-4.21h2.28a3.14,3.14,0,0,0,1.53-.3,1.83,1.83,0,0,0,.74-1.25,14.5,14.5,0,0,0,.21-2.88v-5.81h4.91v5.81a13,13,0,0,1-.8,4.93,5.59,5.59,0,0,1-2.43,2.81,8.52,8.52,0,0,1-4.16.9Zm1.74-19.14v-3.92H812v3.92Zm3.4-5.1v-3.41h4.21V125Zm5.88,24.24a7.71,7.71,0,0,1-2.78-.53,8.14,8.14,0,0,1-2.52-1.56l3-3.08a4.54,4.54,0,0,0,1.15.72,3,3,0,0,0,1.16.24h6.13L820,147.44v-7a14.79,14.79,0,0,0-.12-1.52c-.07-.7-.18-1.49-.32-2.38s-.29-1.79-.46-2.71l4.81-.74c.15.77.3,1.64.45,2.6s.28,1.87.39,2.73a16.55,16.55,0,0,1,.16,2v8.8Zm-3-19.14v-3.92h4.69v3.92Zm11.34,19.14v-4.21h3.34v4.21Zm3.34,0v-4.21a.38.38,0,0,1,.29.15.92.92,0,0,1,.19.41c0,.19.08.41.11.66a7.57,7.57,0,0,1,0,.87,7.75,7.75,0,0,1,0,.88,6.47,6.47,0,0,1-.11.68.92.92,0,0,1-.19.41A.38.38,0,0,1,828.28,149.27Z"/><path class="cls-3" d="M828.28,149.27a.38.38,0,0,1-.29-.15.83.83,0,0,1-.19-.41,6.18,6.18,0,0,1-.12-.68,7.9,7.9,0,0,1,0-.88,8.83,8.83,0,0,1,.06-1.11,1.93,1.93,0,0,1,.21-.72.43.43,0,0,1,.37-.26Zm0,0v-4.21h3.56v4.21Zm3.56,0V126.7h4.92v22.57Z"/><path class="cls-3" d="M841.73,149.27V126.7h4.88v22.57Z"/><path class="cls-3" d="M865.91,149.27a10.59,10.59,0,0,1-4.54-.87,5.78,5.78,0,0,1-2.76-2.63,9.57,9.57,0,0,1-.92-4.43,10.07,10.07,0,0,1,.92-4.53,6,6,0,0,1,2.76-2.76,10,10,0,0,1,4.54-.93h7.48V147h-4.91v-10.5l1,.83h-3.57a5.33,5.33,0,0,0-1.83.28,1.94,1.94,0,0,0-1.11,1.12,9.46,9.46,0,0,0-.05,5.06,1.71,1.71,0,0,0,1.06,1,6.45,6.45,0,0,0,1.93.24h10.82v4.21Zm-5.33-19.14v-3.92h4.69v3.92Zm6.33,0v-3.92h4.68v3.92Zm9.82,19.14v-4.21a.37.37,0,0,1,.31.15,1.21,1.21,0,0,1,.19.41,3.78,3.78,0,0,1,.11.66q0,.39,0,.87c0,.32,0,.62,0,.88a3.57,3.57,0,0,1-.11.68,1.21,1.21,0,0,1-.19.41A.37.37,0,0,1,876.73,149.27Z"/><path class="cls-3" d="M876.73,149.27a.4.4,0,0,1-.29-.15.92.92,0,0,1-.19-.41,6.47,6.47,0,0,1-.11-.68,7.75,7.75,0,0,1,0-.88,8.83,8.83,0,0,1,.06-1.11,2.39,2.39,0,0,1,.21-.72.43.43,0,0,1,.37-.26Zm0,0v-4.21h8.64l-3,2.48V133.12h4.92v16.15Zm1.13,7.19v-3.92h4.68v3.92Zm6.32,0v-3.92h4.69v3.92Z"/><path class="cls-3" d="M892.37,149.27V126.7h4.88v22.57Zm4.88,0v-4.21h3.56v4.21Zm3.56,0v-4.21a.37.37,0,0,1,.31.15,1.21,1.21,0,0,1,.19.41,3,3,0,0,1,.11.66,7.71,7.71,0,0,1,0,.87,7.9,7.9,0,0,1,0,.88,2.92,2.92,0,0,1-.11.68,1.21,1.21,0,0,1-.19.41A.37.37,0,0,1,900.81,149.27Z"/><path class="cls-3" d="M900.81,149.27a.36.36,0,0,1-.3-.15,1,1,0,0,1-.18-.41,6.47,6.47,0,0,1-.11-.68,7.75,7.75,0,0,1-.05-.88,7.14,7.14,0,0,1,.07-1.11,1.93,1.93,0,0,1,.21-.72.42.42,0,0,1,.36-.26Zm0,0v-4.21h6.33l-3,2.48V133.12h4.92v16.15Zm3.34-19.14v-3.92h5v3.92Zm4.92,19.14v-4.21h3.37v4.21Zm3.37,0v-4.21a.4.4,0,0,1,.29.15.92.92,0,0,1,.19.41c0,.19.08.41.11.66a7.57,7.57,0,0,1,.05.87,7.75,7.75,0,0,1-.05.88,6.47,6.47,0,0,1-.11.68.92.92,0,0,1-.19.41A.4.4,0,0,1,912.44,149.27Z"/><path class="cls-3" d="M912.44,149.27a.38.38,0,0,1-.29-.15.83.83,0,0,1-.19-.41,6.18,6.18,0,0,1-.12-.68,7.9,7.9,0,0,1,0-.88,8.83,8.83,0,0,1,.06-1.11,1.93,1.93,0,0,1,.21-.72.43.43,0,0,1,.37-.26Zm0,0v-4.21h7.67a5.59,5.59,0,0,0,2.3-.49,8.52,8.52,0,0,0,2.07-1.34,10.89,10.89,0,0,0,1.69-1.84,9.54,9.54,0,0,0,1.12-2.07,5.6,5.6,0,0,0,.4-2v-2.11l2.31,3.88a14.93,14.93,0,0,0-3.32-1.32,11.78,11.78,0,0,0-6.45,0,14.81,14.81,0,0,0-3.33,1.32l2.31-3.88v2.11a5.63,5.63,0,0,0,.41,2,9.13,9.13,0,0,0,1.12,2.07,10.43,10.43,0,0,0,1.68,1.84,8.77,8.77,0,0,0,2.08,1.34,5.45,5.45,0,0,0,2.26.49h7.51v4.21h-5.68a13.63,13.63,0,0,1-4.69-.8,15.5,15.5,0,0,1-3.95-2.14,16.53,16.53,0,0,1-3-2.92,13.26,13.26,0,0,1-1.94-3.18,7.53,7.53,0,0,1-.68-2.91v-1.79a17.24,17.24,0,0,1,3-1.32,21,21,0,0,1,3.21-.82,17.85,17.85,0,0,1,3-.27,17.65,17.65,0,0,1,2.94.27,21.62,21.62,0,0,1,3.21.82,17,17,0,0,1,3,1.32v1.79a7.5,7.5,0,0,1-.67,2.91,13.93,13.93,0,0,1-1.94,3.18,16.92,16.92,0,0,1-3,2.92,15.33,15.33,0,0,1-4,2.14,13.59,13.59,0,0,1-4.69.8Zm21.83,0v-4.21a.36.36,0,0,1,.29.15.83.83,0,0,1,.19.41,4.92,4.92,0,0,1,.12.66,7.57,7.57,0,0,1,0,.87,7.75,7.75,0,0,1,0,.88,4.47,4.47,0,0,1-.12.68.83.83,0,0,1-.19.41A.36.36,0,0,1,934.27,149.27Z"/><path class="cls-3" d="M934.27,149.27a.4.4,0,0,1-.29-.15.92.92,0,0,1-.19-.41,6.47,6.47,0,0,1-.11-.68,7.75,7.75,0,0,1,0-.88,7.14,7.14,0,0,1,.07-1.11,2.16,2.16,0,0,1,.2-.72.43.43,0,0,1,.37-.26Zm0,0v-4.21h3.57v4.21Zm3.57,0V126.7h4.91v22.57Z"/><path class="cls-3" d="M947.73,149.27V126.7h4.88v22.57Z"/><path class="cls-3" d="M963.4,157.55a20.44,20.44,0,0,1-2.54-.17c-.88-.12-1.8-.29-2.76-.5l.74-3.92c1,.13,1.94.23,2.68.29s1.36.1,1.88.1a5.08,5.08,0,0,0,3.14-.77,2.82,2.82,0,0,0,1-2.35V136.62l1,.7h-3.56a5.33,5.33,0,0,0-1.83.28,1.94,1.94,0,0,0-1.11,1.12,6.89,6.89,0,0,0-.37,2.62,7.09,7.09,0,0,0,.32,2.44,1.71,1.71,0,0,0,1.06,1,6.4,6.4,0,0,0,1.93.24h2.57v4.21h-2.57a10.64,10.64,0,0,1-4.55-.87,5.78,5.78,0,0,1-2.76-2.63,9.57,9.57,0,0,1-.91-4.43,10.07,10.07,0,0,1,.91-4.53,6,6,0,0,1,2.76-2.76,10.05,10.05,0,0,1,4.55-.93h7.48v17.11a6.83,6.83,0,0,1-1.12,3.9,7.13,7.13,0,0,1-3.15,2.54A11.77,11.77,0,0,1,963.4,157.55Z"/><path class="cls-3" d="M992.75,157.23a11.93,11.93,0,0,1-5.11-1,8.63,8.63,0,0,1-3.53-2.87,7.09,7.09,0,0,1-1.29-4.18c0-.43,0-1,.1-1.68s.15-1.48.26-2.33.23-1.74.37-2.65.27-1.79.4-2.65l4.85.64q-.33,2.16-.57,3.9c-.16,1.17-.28,2.15-.36,3a17.2,17.2,0,0,0-.13,1.78,3.49,3.49,0,0,0,2.28,3.43,6.73,6.73,0,0,0,2.73.49,6.09,6.09,0,0,0,2.69-.5,3,3,0,0,0,1.42-1.32,4.08,4.08,0,0,0,.41-1.84V126.7h4.92v22.67a7.14,7.14,0,0,1-1.22,4.14,8.08,8.08,0,0,1-3.36,2.74A11.44,11.44,0,0,1,992.75,157.23Z"/><path class="cls-3" d="M1007.2,149.27V126.7h4.88v22.57Zm4.88,0v-4.21h3.56v4.21Zm3.56,0v-4.21a.37.37,0,0,1,.31.15,1.44,1.44,0,0,1,.19.41,3.78,3.78,0,0,1,.11.66q0,.39,0,.87c0,.32,0,.62,0,.88a3.57,3.57,0,0,1-.11.68,1.44,1.44,0,0,1-.19.41A.37.37,0,0,1,1015.64,149.27Z"/><path class="cls-3" d="M1015.64,149.27a.38.38,0,0,1-.29-.15.92.92,0,0,1-.19-.41,6.47,6.47,0,0,1-.11-.68,6,6,0,0,1,0-.88,8.83,8.83,0,0,1,.06-1.11,1.93,1.93,0,0,1,.21-.72.43.43,0,0,1,.37-.26Zm0,0v-4.21H1032l-2,1.77v-5.56a7.16,7.16,0,0,0-.33-2.44,2.13,2.13,0,0,0-1.19-1.22,6.49,6.49,0,0,0-2.36-.35,19.44,19.44,0,0,0-2.56.16,8.33,8.33,0,0,0-1.94.45l3.05-2.83a18.43,18.43,0,0,0-.37,1.84c-.11.74-.21,1.53-.29,2.35s-.11,1.63-.11,2.4,0,1.45.11,2.25.17,1.49.26,2.1.17,1,.21,1.23l-4.66,1.32a14.29,14.29,0,0,1-.35-1.51,24,24,0,0,1-.32-2.42c-.09-.93-.13-1.92-.13-3s0-2.07.15-3.07.22-1.9.37-2.71.28-1.46.41-1.93a16.16,16.16,0,0,1,2.46-.58,22.26,22.26,0,0,1,3.71-.29,12.74,12.74,0,0,1,4.89.81,5.7,5.7,0,0,1,2.93,2.6,10.2,10.2,0,0,1,1,4.85v8Zm19.3,0v-4.21h3.34v4.21Zm3.34,0v-4.21a.36.36,0,0,1,.3.15,1.21,1.21,0,0,1,.19.41,3.72,3.72,0,0,1,.12.66q0,.39,0,.87c0,.32,0,.62,0,.88a3.5,3.5,0,0,1-.12.68,1.21,1.21,0,0,1-.19.41A.36.36,0,0,1,1038.25,149.27Z"/><path class="cls-3" d="M1038.25,149.27a.36.36,0,0,1-.29-.15.92.92,0,0,1-.2-.41,6.47,6.47,0,0,1-.11-.68,7.75,7.75,0,0,1-.05-.88,7.14,7.14,0,0,1,.07-1.11,1.93,1.93,0,0,1,.21-.72.42.42,0,0,1,.37-.26Zm0,0v-4.21h13.67l-1.7,1.32v-5.2a3.51,3.51,0,0,0-1.15-2.84,5.71,5.71,0,0,0-3.73-1q-.71,0-1.89.09c-.79.07-1.66.16-2.6.29l-.45-3.85c.9-.22,1.81-.4,2.74-.55a17.08,17.08,0,0,1,2.72-.22,11,11,0,0,1,4.78,1,7.9,7.9,0,0,1,3.29,2.76,7.57,7.57,0,0,1,1.21,4.32v8.09Zm6,7.19v-3.92h4.94v3.92Zm10.92-7.19v-4.21h3.37v4.21Zm3.37,0v-4.21a.4.4,0,0,1,.29.15.92.92,0,0,1,.19.41c0,.19.08.41.11.66a7.57,7.57,0,0,1,.05.87,7.75,7.75,0,0,1-.05.88,6.47,6.47,0,0,1-.11.68.92.92,0,0,1-.19.41A.4.4,0,0,1,1058.51,149.27Z"/><path class="cls-3" d="M1058.51,149.27a.36.36,0,0,1-.29-.15.83.83,0,0,1-.19-.41,6.18,6.18,0,0,1-.12-.68,7.75,7.75,0,0,1-.05-.88,8.64,8.64,0,0,1,.07-1.11,1.93,1.93,0,0,1,.21-.72.42.42,0,0,1,.37-.26Zm0,0v-4.21h3.56v4.21Zm3.56,0V126.7H1067v22.57Z"/><path class="cls-3" d="M1072,149.27V126.7h4.88v22.57Z"/><circle class="cls-4" cx="896.35" cy="58.04" r="50.3"/><path class="cls-6" d="M919.43,69.36H879.22a.88.88,0,0,0-1,1c0,.52,0,1,0,1.62h-5.07a.87.87,0,0,0-1,1q0,2.92,0,5.85a.87.87,0,0,0,.93,1c.2,0,.4,0,.6,0h4.54v1.39c0,1,.26,1.21,1.22,1.21h40c1,0,1.23-.26,1.23-1.21V70.7C920.75,69.58,920.53,69.36,919.43,69.36Zm-2.11,1.76H919v.47h-1.67ZM919,73.39v.47h-1.67l0-.47Zm0,7.22h-1.68v-.47H919Zm-1.7-2.73H919v.47h-1.68ZM919,76.09h-1.62c-.15-.35,0-.5.34-.48a7.85,7.85,0,0,0,1,0C919,75.59,919.08,75.77,919,76.09Z"/><path class="cls-6" d="M896.28,45.94a9.12,9.12,0,0,0-9.36,9.35V67.6h25.16v-.48c0-4,0-8,0-12a9.12,9.12,0,0,0-9.23-9.2Z"/><path class="cls-6" d="M879.6,67.63h5.59V67c0-3.87,0-7.74,0-11.6a10.83,10.83,0,0,1,3-7.69.44.44,0,0,0,0-.69,2.62,2.62,0,0,0-2.21-1H875.86A2.56,2.56,0,0,0,873,48.76V70.21h3.42C876.84,68.32,877.69,67.63,879.6,67.63Z"/><path class="cls-6" d="M910.61,47.38a10.88,10.88,0,0,1,3.2,7.87V67.58h1.75V51.14h3.34c.56,0,.93-.27,1-.75s0-1.21,0-1.85h-1.3c-.43,0-.87,0-1.3,0a.84.84,0,0,1-.85-.87.86.86,0,0,1,.82-.85c.21,0,.43,0,.65,0h2v-.86h-2.51a.86.86,0,0,1-.92-.85.87.87,0,0,1,1-.88c.83,0,1.65,0,2.48,0v-.87c-.81,0-1.6,0-2.39,0s-1-.31-1.05-.84.38-.89,1.05-.89h2.41c0-.55,0-1,0-1.52,0-.77-.31-1.08-1.08-1.08-1,0-1.92,0-2.87,0a.6.6,0,0,1-.67-.38,2.56,2.56,0,0,0-3-1.29,2.42,2.42,0,0,0-1.89,2.46c0,2.31,0,4.63,0,6.94A1,1,0,0,0,910.61,47.38Z"/><path class="cls-6" d="M888.44,37.39a10.19,10.19,0,0,0,.81-.8,1.92,1.92,0,0,1,1.54-.64c2.43,0,4.87,0,7.31,0h.5v1.28l-.34,0c-1.18,0-1.36.2-1.36,1.4V41.6h-.77a.88.88,0,0,0-1,1c0,.52,0,1,0,1.6h8.67c0-.59,0-1.15,0-1.71a.86.86,0,0,0-.91-.87h-.82V38.34c0-.78-.31-1.07-1.09-1.08h-.61a1.52,1.52,0,0,1,0-.19c0-.56,0-1.12,0-1.68,0-.89-.27-1.17-1.16-1.17h-8.61a3.13,3.13,0,0,0-2.19.79c-.41.37-.81.77-1.19,1.17a.85.85,0,0,0,0,1.26A.84.84,0,0,0,888.44,37.39Z"/><path class="cls-6" d="M886.05,44.16c0-.58,0-1.12,0-1.66a.86.86,0,0,0-.93-.9h-.8V38.37c0-.81-.3-1.11-1.12-1.11h-4.66c-.88,0-1.16.28-1.16,1.16V41.6h-.69c-.72,0-1,.31-1,1,0,.51,0,1,0,1.55ZM880.93,39c1,0,1.22.25,1.22,1.33s-.24,1.27-1.34,1.27-1.26-.24-1.26-1.34S879.78,39,880.93,39Z"/><path class="cls-6" d="M873.75,81.56a3.18,3.18,0,0,0,2.88.78c0-.27-.09-.52-.14-.78Z"/><circle class="cls-4" cx="1119.97" cy="279.66" r="50.3"/><path class="cls-7" d="M1132.43,272.67a9.45,9.45,0,0,0,2.76-9.66,9.69,9.69,0,0,0-7.06-7.16c-.5-.15-1-.23-1.55-.34h-1.8c-.33.08-.66.15-1,.24A8.12,8.12,0,0,0,1120,258l-.28-.25a7.72,7.72,0,0,0-4.38-2.2.48.48,0,0,1-.16-.08h-1.8a2.8,2.8,0,0,1-.31.09,9.64,9.64,0,0,0-7.86,6.07,9.39,9.39,0,0,0,1.24,9.79,21.51,21.51,0,0,0,4.62,4.21l7.82,5.84c.38.28.73.62,1,.85,2.42-1.84,4.76-3.64,7.13-5.4A49.92,49.92,0,0,0,1132.43,272.67Zm-8.24-2.92h-2.79v2.81h-2.84v-2.78h-2.81v-2.84h2.79v-2.8h2.85v2.78h2.8Z"/><path class="cls-8" d="M1115.42,285.79a28.08,28.08,0,0,0-5.73-3.35,7.48,7.48,0,0,0-3.59-.82c-1.33.11-1.82.89-1.38,2.15a3.25,3.25,0,0,0,.18.43,6.8,6.8,0,0,0,2.1,2.39q2.37,1.74,4.76,3.46l1.27.93-1.7,2.27c-2.21-1.62-4.44-3.14-6.53-4.82a9.84,9.84,0,0,1-3.55-6.06c-.26-1.38-.28-2.81-.44-4.22a36.12,36.12,0,0,0-1.32-7,11.91,11.91,0,0,0-.89-2,1.16,1.16,0,0,0-1.13-.73c-.53,0-.79.49-.94.95a10.9,10.9,0,0,0-.43,1.68c-.13.87-.2,1.74-.29,2.62v4.9c0,.16.06.31.07.47.07,1.35.15,2.7.22,4a9.61,9.61,0,0,0,1.33,5,25.6,25.6,0,0,0,3.71,4.39c1.79,1.73,3.63,3.39,5.37,5.17s3.33,3.53,3.58,6.1h8.45c0-4.06.07-8.09,0-12.11A7.29,7.29,0,0,0,1115.42,285.79Z"/><path class="cls-8" d="M1143.93,271.77a6.45,6.45,0,0,0-.74-2.75.87.87,0,0,0-1.55-.17,5.31,5.31,0,0,0-.89,1.48,30.87,30.87,0,0,0-1.62,7.72c-.17,1.42-.18,2.87-.44,4.27a10.52,10.52,0,0,1-4.21,6.65c-1.13.84-2.28,1.66-3.43,2.49l-2.46,1.78L1126.9,291l2.33-1.69c1.47-1.1,3-2.16,4.41-3.31a4.63,4.63,0,0,0,1.66-2.52,1.31,1.31,0,0,0-1.23-1.8,5.8,5.8,0,0,0-1.9.15,23.16,23.16,0,0,0-7.43,3.8,7.71,7.71,0,0,0-3.36,6.61v11.59h8.48a7.22,7.22,0,0,1,1.57-3.83,34.38,34.38,0,0,1,4.26-4.52,56,56,0,0,0,5.81-5.92,9.15,9.15,0,0,0,2.24-5.15c.07-1.16.19-2.32.25-3.48A59.33,59.33,0,0,0,1143.93,271.77Z"/><circle class="cls-4" cx="155.73" cy="458.62" r="50.3"/><path class="cls-3" d="M147,484c.73.34,1.5.62,2.25.92h18.21c.36-.11.72-.19,1.07-.32a4.82,4.82,0,0,0,2.12-1.39H146A7.13,7.13,0,0,0,147,484Z"/><path class="cls-3" d="M170,468c-.05-.5-.21-.61-.68-.61q-10.9,0-21.8,0c-.48,0-.63.13-.68.61-.38,3.59-.79,7.17-1.19,10.76-.1.87-.18,1.75-.28,2.65h26.1c-.1-.95-.19-1.83-.29-2.71C170.74,475.09,170.33,471.53,170,468Zm-3.21,3,1.73-.21.2,1.72-1.73.22Zm.38,3.48,1.74-.21.19,1.73-1.72.21Zm.59,5.21-.19-1.73,1.72-.2.21,1.72Z"/><path class="cls-5" d="M151.39,452.71a4.21,4.21,0,0,0,3.71,4.09,14.38,14.38,0,0,0,1.53.1v8.69h3.51v-.52q0-3.72,0-7.44a.76.76,0,0,1,.29-.56,2.55,2.55,0,0,0,1.46-2.54q0-9.58,0-19.15c0-.13,0-.27,0-.41a.88.88,0,0,0-.94-.88,11.71,11.71,0,0,0-1.18.09,9.48,9.48,0,0,0-8.31,8.48C151.27,446,151.32,449.36,151.39,452.71Zm1.72-5.84a2.88,2.88,0,0,1,0-.39h1.72v5.6c0,1,.26,1.28,1.27,1.28h.52V455a2.74,2.74,0,0,1-3.54-2.69C153.09,450.52,153.1,448.69,153.11,446.87Z"/><path class="cls-5" d="M148.8,461.54l1.52-.77-.93-1.9c.6-.2,1.16-.37,1.7-.58s.83-.9.56-1.24c-.47-.59-1-1.16-1.47-1.74,0,.09-.05.2-.06.32-.16,1.28-.15,1.28-1.48,1.61,0-.26,0-.48-.06-.7-.14-2.24-.27-4.47-.44-6.71A37.71,37.71,0,0,0,145,437.17c-.45-1-.94-2-1.44-3a8.72,8.72,0,0,1,4.16,1.6,9.28,9.28,0,0,1,2.83,3.4c.28-.51.49-1,.78-1.4a.57.57,0,0,0,0-.77,10.16,10.16,0,0,0-9.93-4.54,10.5,10.5,0,0,0-6.66,17.38c3,3.44,6.17,6.75,9.26,10.12a1,1,0,0,0,1.24.32c.81-.29,1.64-.55,2.51-.83Zm-3.55-3.16a.79.79,0,0,1-.54-.24q-3.41-3.67-6.78-7.37a35.78,35.78,0,0,1-2.5-2.86,8.73,8.73,0,0,1,.25-10.46l.38-.4c1,5,3.23,9.38,5.74,13.63,1.35,2.29,2.74,4.54,4.12,6.81.1.17.2.35.33.56A5.56,5.56,0,0,1,145.25,458.38Zm1.52-2.93c-.08-.1-.14-.14-.17-.19a116.75,116.75,0,0,1-6.43-11.37,33.86,33.86,0,0,1-2.5-7.58c-.1-.49,0-.82.46-1l3-1.09c.27-.1.43,0,.57.26a34.33,34.33,0,0,1,4.4,12.86c.31,2.55.47,5.11.7,7.66C146.78,455.13,146.77,455.26,146.77,455.45Z"/><path class="cls-5" d="M165.28,451.88a3.48,3.48,0,0,0,3.57,1.41,9.07,9.07,0,0,0,6-4.24,6.09,6.09,0,0,0,1-3.49,6.17,6.17,0,0,0-5-6.13,6.09,6.09,0,0,0-6.77,4,9.2,9.2,0,0,0-.42,4A8.13,8.13,0,0,0,165.28,451.88Z"/><path class="cls-5" d="M179,442.65a9.51,9.51,0,0,0-15-4.76c-.13.11-.31.27-.32.42,0,.73,0,1.46,0,2.32.24-.26.38-.42.52-.56a7.58,7.58,0,0,1,5.72-2.48,7.87,7.87,0,0,1,7.58,9.65c-1,4.05-3.77,6.54-7.74,7.66a5.2,5.2,0,0,1-5.85-2c0-.06-.11-.1-.24-.23,0,.79,0,1.47,0,2.15a4.16,4.16,0,0,1-1.42,3.13,1.06,1.06,0,0,0-.32.67c0,2.16,0,4.31,0,6.47a4.64,4.64,0,0,0,0,.48c.7,0,1.36,0,2,0,.37,0,.52-.12.64-.47.93-2.62,1.88-5.24,2.8-7.86a.56.56,0,0,1,.62-.45,9.27,9.27,0,0,0,1.58-.13,12,12,0,0,0,7-4.12A9.94,9.94,0,0,0,179,442.65Z"/><path class="cls-5" d="M148.37,463.71c.24.6.45,1.17.7,1.73a.33.33,0,0,0,.27.16h3.54l-1.38-3.46Z"/><circle class="cls-4" cx="350.39" cy="609.24" r="50.09"/><path class="cls-9" d="M358.3,635.31c.15.89.69,2.42-.54,2.65-2.43.19-1.51-5.78-1.09-7.28a12.7,12.7,0,0,1-12.29,0,11.45,11.45,0,0,1,.19,6.43,1.06,1.06,0,0,1-1.27.88c-1.26-.33-.65-1.78-.49-2.77A24,24,0,0,0,335,637c3.83,1.75,8.16,1.68,12.28,2.09,6.33,0,12.83.18,18.86-2A21.76,21.76,0,0,0,358.3,635.31Z"/><path class="cls-8" d="M347.62,629.71a8.44,8.44,0,0,0,5.86,0c13.47-4.51,20.82-18.37,22.28-31.81l-5.38-2.55-1.94.69a3.76,3.76,0,0,1-4.21,4.08,4.29,4.29,0,0,1-5.29,4.09,4.76,4.76,0,0,1-8.41,2.58,4.75,4.75,0,0,1-8.39-2.59,4.29,4.29,0,0,1-5.3-4.1,3.72,3.72,0,0,1-4.16-4.05c-.86-.14-1.58-.92-2.37-.61-1.64.79-3.3,1.58-4.95,2.35C326.72,611.33,334.12,625.13,347.62,629.71Z"/><path class="cls-8" d="M340,596c2.72-.39,4.44.76,5.25,3.34a4.76,4.76,0,0,1,5.3,1.48,4.75,4.75,0,0,1,5.29-1.48c.83-2.64,2.59-3.73,5.27-3.35a3.75,3.75,0,0,1,4.11-3.23c0-.68.65-1.31.15-1.86a38,38,0,0,1-4.51-6.43,27.72,27.72,0,0,1-20.69,0,30.22,30.22,0,0,1-4.59,6.64c-.2.53.2,1.09.3,1.68A3.77,3.77,0,0,1,340,596Z"/><path class="cls-8" d="M360.16,582.22c-4.82-2.94-14.19-2.79-19.11-.13l0,.26C345.63,585,355.72,585.18,360.16,582.22Z"/><path class="cls-9" d="M346.85,606.43a2.62,2.62,0,0,0,0-5.24A2.62,2.62,0,0,0,346.85,606.43Z"/><path class="cls-9" d="M354.23,606.43a2.62,2.62,0,0,0,0-5.24A2.62,2.62,0,0,0,354.23,606.43Z"/><path class="cls-9" d="M341.09,602.22a2.1,2.1,0,0,0,0-4.19A2.1,2.1,0,0,0,341.09,602.22Z"/><path class="cls-9" d="M360,602.22a2.1,2.1,0,0,0,0-4.19A2.1,2.1,0,0,0,360,602.22Z"/><path class="cls-9" d="M363.19,596.44a1.57,1.57,0,0,0,3.13,0A1.57,1.57,0,0,0,363.19,596.44Z"/><path class="cls-9" d="M337.9,596.48a1.57,1.57,0,0,0-3.13-.08C334.68,598.44,337.91,598.51,337.9,596.48Z"/><path class="cls-9" d="M333.7,592.75a1,1,0,0,0-2.08,0A1,1,0,0,0,333.7,592.75Z"/><path class="cls-9" d="M369.46,592.74a1,1,0,0,0-2.07,0A1,1,0,0,0,369.46,592.74Z"/><circle class="cls-4" cx="744.39" cy="609.24" r="50.09"/><path class="cls-10" d="M766.55,597.69h-19.8v26.43h19.8Zm-17.29,3.62a12.58,12.58,0,0,1,1.1-1.09,1.09,1.09,0,0,1,1.57,1.5,12,12,0,0,1-1.18,1.18.93.93,0,0,1-1.25.11,4.22,4.22,0,0,1-.68-.92A5.55,5.55,0,0,1,749.26,601.31Zm8.08.53c-2.14,2.17-4.31,4.33-6.48,6.48a1.08,1.08,0,0,1-1.61.1,1.1,1.1,0,0,1,.07-1.66c2.15-2.17,4.32-4.32,6.48-6.48a1,1,0,0,1,1.29-.26,3.89,3.89,0,0,1,.78.9A4.67,4.67,0,0,1,757.34,601.84Z"/><path class="cls-6" d="M717.58,624.59a8.81,8.81,0,0,0,9.63,5,8.92,8.92,0,0,0,7.24-9.64,8.73,8.73,0,0,0-3.25-6,5.75,5.75,0,0,1-2.23-4.79c0-1.1,0-2.2,0-3.3a3.39,3.39,0,0,0-.05-.47h-6.56c0,1.31,0,2.6,0,3.89a5.68,5.68,0,0,1-2.22,4.66A8.78,8.78,0,0,0,717.58,624.59Z"/><path class="cls-5" d="M775.44,633.55c0-1.33-.29-1.63-1.63-1.63H714.87c-.91,0-1.29.41-1.3,1.31,0,.46,0,.91,0,1.36,0,1.47.27,1.74,1.72,1.74h58.94a1.12,1.12,0,0,0,1.2-1.22C775.45,634.59,775.44,634.07,775.44,633.55Z"/><path class="cls-6" d="M744.32,625a.89.89,0,0,0,.17-.58q0-13.49,0-27a.86.86,0,0,0-.14-.54c-1-1-2-2-3.11-3.17v34.35C742.36,627,743.35,626,744.32,625Z"/><path class="cls-6" d="M772.06,593.79c-1.11,1.1-2.12,2.09-3.1,3.1a.87.87,0,0,0-.14.54v27a.9.9,0,0,0,.17.59c1,1,2,2,3.07,3.09Z"/><path class="cls-6" d="M746,626.51c-1,1-2,2-3.13,3.13h27.64c-1.11-1.11-2.11-2.13-3.13-3.11a.94.94,0,0,0-.59-.14H746.52A.85.85,0,0,0,746,626.51Z"/><path class="cls-6" d="M745.58,595a1.4,1.4,0,0,0,1.13.47H764c1.08,0,2.28.29,3.2-.1s1.61-1.45,2.39-2.22c.28-.27.54-.56.9-.93H742.78C743.82,593.23,744.72,594.09,745.58,595Z"/><path class="cls-6" d="M721.47,601c-.84,0-1.31.41-1.32,1.1s.49,1.1,1.31,1.11h8.4c.82,0,1.31-.43,1.31-1.11s-.47-1.09-1.3-1.1h-8.4Z"/><path class="cls-11" d="M721.62,592.91a4.67,4.67,0,0,1,0-3.54,5.34,5.34,0,0,0-5.35.65,1.34,1.34,0,0,0-.11,2.13A5.19,5.19,0,0,0,721.62,592.91Z"/><path class="cls-11" d="M729.38,599.78a1.36,1.36,0,0,0,2-1,5.32,5.32,0,0,0-2.14-5,4.71,4.71,0,0,1-3.19,1.82,14.65,14.65,0,0,0,.61,1.59A5.14,5.14,0,0,0,729.38,599.78Z"/><path class="cls-11" d="M729.27,588.58a5.6,5.6,0,0,0,2.06-4.6c-.1-1.51-1.18-2.07-2.49-1.3a5.66,5.66,0,0,0-2.7,3.69,1.61,1.61,0,0,0,0,.38A4.55,4.55,0,0,1,729.27,588.58Z"/><path class="cls-11" d="M730.37,591.76c.49.42.93.89,1.42,1.32a.87.87,0,0,0,.54.23,4.52,4.52,0,0,0,2.68-1,1.35,1.35,0,0,0,.07-2.25,5.1,5.1,0,0,0-2.94-1.12,2.88,2.88,0,0,0-.44.3c-.45.41-.86.85-1.31,1.24A.79.79,0,0,0,730.37,591.76Z"/><path class="cls-11" d="M721.41,587a4.3,4.3,0,0,1,1.29.41.78.78,0,0,0,1.14-.65c.13-.6.31-1.2.44-1.81a.73.73,0,0,0,0-.53,4.69,4.69,0,0,0-2.43-1.93,1.33,1.33,0,0,0-1.86,1.11,8.72,8.72,0,0,0-.07.94c0,.3.11.77.23,1.23C720.28,586.41,720.55,587,721.41,587Z"/><path class="cls-11" d="M723.91,595.67c-.13-.75-.55-1-1.27-.71a2.82,2.82,0,0,1-1,.32c-1.1,0-1.38.75-1.55,1.61-.07.36-.11.73-.15,1.05.06.71.07,1.42.75,1.8a1.7,1.7,0,0,0,1.88-.22,13.25,13.25,0,0,0,1.53-1.37.8.8,0,0,0,.16-1A7,7,0,0,1,723.91,595.67Z"/><path class="cls-11" d="M723.46,591.16a2.21,2.21,0,0,0,4.41,0,2.21,2.21,0,1,0-4.41,0Z"/><circle class="cls-4" cx="1339.76" cy="426.07" r="50.3"/><path class="cls-9" d="M1334,435.24c0-1.79,0-3.57,0-5.36a2.8,2.8,0,1,0-5.59,0c0,.57,0,1.15,0,1.77h-1.83c-.31-3.37.55-5.46,3.69-6.47,0-.94,0-1.89,0-2.84a6.51,6.51,0,0,0-6.52-6.52c-2.49,0-5,0-7.46,0a6.5,6.5,0,0,0-6.54,6.51c0,3.06,0,6.13,0,9.19a17.62,17.62,0,0,0,4.7,11.85,2.53,2.53,0,0,1,.9,2.13s0,.06.07.1h11.2a6.26,6.26,0,0,1,2-3.4c1.43-1.38,2.81-2.8,4.21-4.2A3.69,3.69,0,0,0,1334,435.24Z"/><path class="cls-6" d="M1356.63,405a22.41,22.41,0,0,0-14.23-5.93v21.37h9.34A20.49,20.49,0,0,1,1356.63,405Z"/><path class="cls-6" d="M1331.08,416.52a9.43,9.43,0,0,0,.88,3.93h8.5V399.08a22.62,22.62,0,0,0-14.21,5.93l.23.29A19.36,19.36,0,0,1,1331.08,416.52Z"/><path class="cls-6" d="M1356.14,437.2a1.44,1.44,0,0,1-.22-.27,19.83,19.83,0,0,1-4.23-12.36v-2.2h-9.29v13.91a2.86,2.86,0,0,1,2.76,3.15v1.51h11.16a14.44,14.44,0,0,1,.15-2.41A1.2,1.2,0,0,0,1356.14,437.2Z"/><path class="cls-6" d="M1353.61,420.42h10.19a22.36,22.36,0,0,0-5.85-14.09A18.64,18.64,0,0,0,1353.61,420.42Z"/><path class="cls-6" d="M1353.61,422.36c-.57,5,1.47,11.49,4.39,14.07a22.22,22.22,0,0,0,5.77-14.07Z"/><path class="cls-6" d="M1340.46,436.31V422.38h-8.33v2.82c2.62.89,3.7,2.39,3.7,5.12,0,1.15-.09,2.3,0,3.43a7.11,7.11,0,0,1-2.75,6.62c-.44.36-.81.8-1.31,1.29l4,1.43c0-1.43,0-2.71,0-4a2.77,2.77,0,0,1,2.77-2.79Z"/><path class="cls-9" d="M1313.49,453.05h14.85v-5.52h-14.85Z"/><path class="cls-3" d="M1342.19,438.17h-3.38c-.77,0-1.11.35-1.11,1.11V452c0,.76.34,1.1,1.11,1.1h3.26c.91,0,1.22-.31,1.23-1.23v-6.17c0-2.13,0-4.27,0-6.4C1343.29,438.52,1343,438.18,1342.19,438.17Z"/><path class="cls-3" d="M1362.71,438.17h-3.26c-.91,0-1.22.31-1.22,1.22,0,2.06,0,4.12,0,6.18s0,4.27,0,6.4c0,.76.34,1.1,1.1,1.1h3.39c.76,0,1.1-.34,1.1-1.1q0-6.35,0-12.69C1363.82,438.52,1363.48,438.18,1362.71,438.17Z"/><path class="cls-3" d="M1345.21,448.39h11.12v-5.52h-11.12Z"/><path class="cls-6" d="M1329.16,416a18,18,0,0,0-4.23-9.66,22.11,22.11,0,0,0-4.6,7.63C1323.45,413.9,1326.53,413.65,1329.16,416Z"/><circle class="cls-4" cx="1453.19" cy="235.35" r="50.3"/><path class="cls-6" d="M1475.55,244.43a12.56,12.56,0,0,0-.7-2.76,24.34,24.34,0,0,0-5.09-7.55,56.69,56.69,0,0,0-16.15-12,39.79,39.79,0,0,0-14.36-4.57,10.51,10.51,0,0,0-5.24.64,3.89,3.89,0,0,0-2.6,4,10.36,10.36,0,0,0,.47,2.54,18.06,18.06,0,0,0,2.88,5.25,44,44,0,0,0,7.19,7.46c.47-.84.93-1.59,1.32-2.38a6.64,6.64,0,0,1,7.89-3.7,13.51,13.51,0,0,1,3.42,1.8c3.91,2.54,4.5,6.95,1.49,10.51-.5.59-.94,1.23-1.48,2,1.13.49,2.12.94,3.14,1.35a33.18,33.18,0,0,0,10.56,2.59,10,10,0,0,0,4.81-.74A4,4,0,0,0,1475.55,244.43Z"/><path class="cls-8" d="M1451.75,249.19a11.79,11.79,0,0,1,3.17-7.23,4.62,4.62,0,0,0-.82-6.86q-1.06-.78-2.22-1.47a4.79,4.79,0,0,0-6.86,2,12.59,12.59,0,0,1-7.47,6.76,10.38,10.38,0,0,0-6.64,11.64,10.55,10.55,0,0,0,20.86-3.09A11.75,11.75,0,0,1,1451.75,249.19Zm-11.82-2.56a5.55,5.55,0,0,0-4.24,4.46,5.49,5.49,0,0,0,2.41,5.77,1.22,1.22,0,0,1,.57,1.58,1.1,1.1,0,0,1-1.31.62,1.61,1.61,0,0,1-.6-.3,7.7,7.7,0,0,1-3.47-6.29,8.16,8.16,0,0,1,6-8.13c.9-.24,1.53,0,1.74.71S1440.81,246.37,1439.93,246.63Z"/><path class="cls-6" d="M1451.63,219c1.35.69,2.73,1.34,4.15,2,0-.21,0-.36,0-.51a4.89,4.89,0,0,1,4-5.8,7.5,7.5,0,0,1,8.1,4.66,4.87,4.87,0,0,1-2.94,6.5c-.32.1-.65.17-1.05.28,1.15.95,2.24,1.8,3.28,2.73a1,1,0,0,0,1.21.16,7.39,7.39,0,0,0,3.93-8.61,12.09,12.09,0,0,0-6.37-8,11.33,11.33,0,0,0-9.55-1,7.22,7.22,0,0,0-5,6.9A.92.92,0,0,0,1451.63,219Z"/><circle class="cls-4" cx="1221.95" cy="609.24" r="50.3"/><path class="cls-9" d="M1213.29,621.73a6.34,6.34,0,0,0-8.78-.22c-2,1.88-3.92,3.89-5.76,5.94a5.73,5.73,0,0,0,5.52,9.19,16.22,16.22,0,0,0,2.65-1,4.54,4.54,0,0,1,3.94.08c.53.26,1.06.53,1.61.76a5.6,5.6,0,0,0,7.8-5.19,5.2,5.2,0,0,0-1.39-3.66C1217,625.67,1215.21,623.66,1213.29,621.73Z"/><path class="cls-9" d="M1239.83,595.41a6.46,6.46,0,0,0-9.43-.07c-1.7,1.71-3.37,3.45-5,5.18a5.42,5.42,0,0,0-1.57,3.9,5.72,5.72,0,0,0,8,5.35l1.59-.67a4.42,4.42,0,0,1,3.76.08c.49.23,1,.48,1.45.7a5.64,5.64,0,0,0,6.92-1.7,5.57,5.57,0,0,0-.36-7.15C1243.38,599.13,1241.62,597.25,1239.83,595.41Z"/><path class="cls-6" d="M1206.39,616.78a5.83,5.83,0,0,0,1.37-3.59,6.48,6.48,0,0,0-1.35-4.33,3.4,3.4,0,0,0-5.29-.15,6.42,6.42,0,0,0,0,8.15A3.37,3.37,0,0,0,1206.39,616.78Z"/><path class="cls-6" d="M1232.63,590.31a6.06,6.06,0,0,0,1.45-4,6.14,6.14,0,0,0-1.43-4,3.38,3.38,0,0,0-5.28,0,6.42,6.42,0,0,0,0,8A3.35,3.35,0,0,0,1232.63,590.31Z"/><path class="cls-6" d="M1216.52,616.46a6.45,6.45,0,0,0,.07-8.07,3.37,3.37,0,0,0-5.36,0,6.08,6.08,0,0,0-1.38,4,5.88,5.88,0,0,0,1.52,4.09A3.36,3.36,0,0,0,1216.52,616.46Z"/><path class="cls-6" d="M1242.83,589.91a6.43,6.43,0,0,0,0-8.11,3.36,3.36,0,0,0-5.15-.11,6.39,6.39,0,0,0,0,8.29A3.35,3.35,0,0,0,1242.83,589.91Z"/><path class="cls-6" d="M1223.54,614.26a3.35,3.35,0,0,0-3.72,1.16,6,6,0,0,0-1.63,5.28,3.35,3.35,0,0,0,2.29,3,3.44,3.44,0,0,0,3.61-1.17,6,6,0,0,0,1.71-4.3,4.14,4.14,0,0,0,0-.61C1225.6,616.09,1225.07,614.8,1223.54,614.26Z"/><path class="cls-6" d="M1198.82,622.27a10.45,10.45,0,0,0,.61-2c-.21-2.61-1-4.53-3.18-5.63a3,3,0,0,0-4.3,1.58,6,6,0,0,0,2.88,7.4A2.93,2.93,0,0,0,1198.82,622.27Z"/><path class="cls-6" d="M1252.13,591.27a3.8,3.8,0,0,0-2.3-3.57,3.65,3.65,0,0,0-4,1.47,6.07,6.07,0,0,0-1.35,5.07,3.37,3.37,0,0,0,2.18,2.85,3.31,3.31,0,0,0,3.5-.93,6.18,6.18,0,0,0,1.94-4.52C1252.13,591.52,1252.14,591.39,1252.13,591.27Z"/><path class="cls-6" d="M1221.14,597.1a3,3,0,0,0,4-1.42,11.17,11.17,0,0,0,.59-2c-.23-2.57-1-4.5-3.19-5.59a3,3,0,0,0-4.3,1.58A6,6,0,0,0,1221.14,597.1Z"/><circle class="cls-4" cx="142.07" cy="135.72" r="50.3"/><path class="cls-11" d="M169.9,156.65H140.25v3.49c0,1.67.75,2.42,2.41,2.42H168a1.88,1.88,0,0,0,1.87-1.62C170,159.52,169.9,158.09,169.9,156.65Z"/><path class="cls-11" d="M141.3,152.25h-.87V155h29.45V122H140.42v22.93h4.08a12.4,12.4,0,1,1,22-1.38,12,12,0,0,1-5.51,5.91,12.34,12.34,0,0,1-9.93.75,3.89,3.89,0,0,1-3.86,2.1C145.2,152.21,143.25,152.25,141.3,152.25Z"/><path class="cls-11" d="M149.58,147.86a2.11,2.11,0,0,0-2.17-1.31h-32.2c-.14,0-.31-.05-.4,0s-.54.34-.56.54c-.06.88,0,1.76,0,2.7h10.24a2.25,2.25,0,0,1,.64.05.79.79,0,0,1-.13,1.55,3.71,3.71,0,0,1-.58,0H114.22v8.47a2.36,2.36,0,0,0,2.64,2.65h16a2.39,2.39,0,0,0,2.69-2.67v-9.26h.75c3.77,0,7.54,0,11.31,0A2,2,0,0,0,149.58,147.86Z"/><path class="cls-11" d="M151.92,148.74a10.81,10.81,0,0,0,14-10.26c-.06-.58-.09-1.16-.18-1.73a10.75,10.75,0,1,0-19.89,7.18,1.71,1.71,0,0,0,1.76,1,3.55,3.55,0,0,1,3.67,3.11A.73.73,0,0,0,151.92,148.74Zm-2.3-9.45c0-.2.07-.34.11-.48.85-2.5,1.71-5,2.54-7.51a.58.58,0,0,1,.66-.47c1.13,0,2.26,0,3.48,0l-1.73,4.74h6.07l-7.56,10.27-.1,0c.56-2.14,1.13-4.27,1.72-6.51Z"/><path class="cls-11" d="M169.92,120.26c0-1.27,0-2.5,0-3.74a2,2,0,0,0-2.15-2.13H142.54a2,2,0,0,0-2.16,2.12c0,1.12,0,2.24,0,3.37a1.8,1.8,0,0,0,.07.38Z"/><path class="cls-11" d="M164.38,112.73v-4.5c0-1.06-.31-1.36-1.39-1.36h-12.7c-1.08,0-2.16,0-3.25,0a1,1,0,0,0-1.12,1c0,1.58,0,3.17,0,4.81Z"/><path class="cls-11" d="M129.34,143a4.46,4.46,0,0,0-4.25-3.46c-2.42-.1-3.91,1.23-4.66,3.44-1.9.07-3.05.72-3.43,1.95h15.85A3.39,3.39,0,0,0,129.34,143Z"/><circle class="cls-4" cx="368.62" cy="277.76" r="50.3"/><path class="cls-3" d="M386.27,282.83a11.36,11.36,0,0,0-5.12.19,1.09,1.09,0,0,1-1.19-.34q-8.1-8.13-16.24-16.22a.88.88,0,0,1-.25-1,10.49,10.49,0,0,0-1.69-9.44,10.3,10.3,0,0,0-9.33-4.28c-.54,0-1.08.16-1.62.24a1.62,1.62,0,0,0-1.47,1.15,1.65,1.65,0,0,0,.61,1.73c1.27,1.26,2.54,2.52,3.79,3.79a3,3,0,0,1,.29,4.2,3,3,0,0,1-4.21.46c-1-.9-2-1.92-3-2.88-.46-.46-.9-.93-1.37-1.37a1.53,1.53,0,0,0-2.69.79c-.16.71-.25,1.43-.38,2.15v.92a20.6,20.6,0,0,0,.75,3.26,10.28,10.28,0,0,0,8.28,6.75,12.38,12.38,0,0,0,4.92-.31.69.69,0,0,1,.76.21q8.24,8.26,16.52,16.5a.69.69,0,0,1,.2.76,11.63,11.63,0,0,0-.15,5.8,10.49,10.49,0,0,0,8.31,7.88c.41.09.83.14,1.25.21h1.53l1.75-.31a1.61,1.61,0,0,0,1.38-1.14,1.57,1.57,0,0,0-.51-1.62c-1.29-1.28-2.59-2.57-3.87-3.86a3.05,3.05,0,0,1-.28-4.28,3,3,0,0,1,4.18-.41c1,.82,1.84,1.77,2.75,2.66.54.53,1.06,1.06,1.59,1.59a1.54,1.54,0,0,0,1.63.46,1.56,1.56,0,0,0,1.09-1.3c.11-.6.22-1.2.32-1.8v-1.53a19.93,19.93,0,0,0-.57-2.57A10.33,10.33,0,0,0,386.27,282.83Z"/><path class="cls-3" d="M358.64,279.16q-7.17,7.14-14.32,14.3a9.58,9.58,0,0,0-.67.76,7,7,0,0,0-1.23,2.94v1.43a7.26,7.26,0,0,0,1.09,2.76,6,6,0,0,0,4.05,2.56c.1,0,.19.06.29.09h1.43c2-.28,3.38-1.51,4.74-2.88,4.33-4.39,8.71-8.72,13.08-13.08a1.71,1.71,0,0,1,.43-.27L358.78,279Zm1.4,6.44a1.51,1.51,0,0,1,.91,2.33,3,3,0,0,1-.41.46l-8.85,8.85a1.77,1.77,0,0,1-1.11.66,1.59,1.59,0,0,1-1.52-.77,1.45,1.45,0,0,1,0-1.55,2.08,2.08,0,0,1,.32-.4l9.07-9.06A1.59,1.59,0,0,1,360,285.6Z"/><path class="cls-3" d="M394,254.4c-.65-.7-1.34-1.35-2-2a1.64,1.64,0,0,0-2.37-.29L384.67,255c-1,.58-1.94,1.14-2.89,1.74a1.52,1.52,0,0,0-.31,2.48,6.71,6.71,0,0,0,.63.52l-10.22,10.33,4.32,4.3,10.24-10.34c.32.38.56.72.85,1a1.51,1.51,0,0,0,2.45-.31c1.71-2.84,3.39-5.69,5.08-8.54v-.62A12.14,12.14,0,0,0,394,254.4Z"/><circle class="cls-4" cx="1235.8" cy="80.66" r="50.3"/><path class="cls-12" d="M1268.32,81.72a4.53,4.53,0,0,0-3.8-4.58c-3.33-.62-6.66-1.25-10-1.8a6.64,6.64,0,0,1-3.43-1.57c-2.76-2.39-5.6-4.67-8.39-7a6.17,6.17,0,0,0-4.15-1.48c-4.66,0-9.32,0-14,0a6.23,6.23,0,0,0-5.21,2.4c-1.92,2.32-3.91,4.59-5.84,6.89a1.06,1.06,0,0,1-.92.41c-1.3,0-2.59,0-3.88,0a4.56,4.56,0,0,0-4.48,4.47c0,2,0,3.95,0,5.92a5.65,5.65,0,0,0,6.7,5.33,8.18,8.18,0,1,1,16.09,0h20.55a8.16,8.16,0,1,1,16.05,0,5.19,5.19,0,0,0,.56,0,4.58,4.58,0,0,0,4.13-4.43C1268.35,84.78,1268.33,83.25,1268.32,81.72Zm-41.72-8.29a1.49,1.49,0,0,1-1.55,1.52c-1.1,0-2.2,0-3.3,0s-2.12,0-3.17,0a1.11,1.11,0,0,1-.85-.47,1,1,0,0,1,.19-.89c1.39-1.68,2.8-3.36,4.26-5a2.55,2.55,0,0,1,1.31-.62,6.94,6.94,0,0,1,1.58,0,1.5,1.5,0,0,1,1.53,1.54C1226.63,70.81,1226.63,72.12,1226.6,73.43Zm7.75,7.12c-.38,0-.76,0-1.14,0h0c-.36,0-.72,0-1.08,0a1.52,1.52,0,0,1,0-3,20.37,20.37,0,0,1,2.21,0,1.5,1.5,0,0,1,1.42,1.51A1.53,1.53,0,0,1,1234.35,80.55ZM1247,74.47c-.16.48-.56.51-1,.51h-7.06v0h-7a1.57,1.57,0,0,1-1.76-1.77c0-1.18,0-2.37,0-3.56a1.54,1.54,0,0,1,1.67-1.67c2.35,0,4.71,0,7.06,0a2,2,0,0,1,1.16.41c2.16,1.66,4.3,3.37,6.45,5.06C1246.85,73.71,1247.11,74,1247,74.47Z"/><path class="cls-12" d="M1219,82.6a6.63,6.63,0,1,0,6.59,6.68A6.63,6.63,0,0,0,1219,82.6Zm0,9.68a3.06,3.06,0,1,1,3-3A3.06,3.06,0,0,1,1219,92.28Z"/><path class="cls-12" d="M1255.65,82.6a6.63,6.63,0,1,0,6.57,6.7A6.62,6.62,0,0,0,1255.65,82.6Zm0,9.68a3.06,3.06,0,1,1,3-3A3.06,3.06,0,0,1,1255.62,92.28Z"/><path class="cls-13" d="M1227.43,192c.43,10.24-7.39,19.43-16.75,23.58s-20,4.26-30.21,3.79c-53.58-2.48-108.22-18.58-159.87-4.12-48.07,13.46-87.3,54.62-98.44,103.28"/><path class="cls-13" d="M1107.79,381.78c-5,19.49-13.62,38.66-28.29,52.44-21.45,20.14-52.5,26-81.86,27.82-20,1.27-43.56-.64-54.48-17.43"/><path class="cls-13" d="M522.13,164.49c-5.38,11.09-3.89,24.64,1.72,35.61s14.9,19.64,24.94,26.79c18.29,13,42.1,21.76,63.16,14,7.32-2.71,14.16-7.61,17.49-14.67s2.37-16.4-3.53-21.51c-8.59-7.44-21.94-3.07-31.71,2.74-8,4.75-15.91,10.81-18.92,19.58-2,5.83-1.58,12.22-.46,18.29a84,84,0,0,0,92.87,68.11"/><path class="cls-13" d="M1456,335c3.64,4.34,1.62,11.46-2.84,15s-10.48,4.18-16.15,4.23c-28.76.27-56.4-12.37-85.16-12.62-36.49-.33-69.93,19.08-100.71,38.69-22.4,14.28-45,29.38-61.27,50.34-12,15.48-20.61,34-35.87,46.37-11.44,9.23-25.68,14.15-39.6,18.89-25.55,8.7-51.42,17.48-78.32,19.78-44.28,3.8-88-10.13-129.62-25.85-9.43-3.56-19-7.35-26.66-13.94s-14-17.15-17-31.15"/><path class="cls-13" d="M224.54,184.55c22.46-14.46,51.22-13.11,77.87-11.26,20,1.39,40.09,2.8,59.39,8.11,15.49,4.25,30.21,10.95,44.43,18.43,12.47,6.56,24.79,13.86,34.57,24C467,251,455.73,269.52,486,292c31.29,23.24,23,7,91,36"/><path class="cls-13" d="M378,374.57c-.2,16.32,7.29,31.76,16.13,45.48,4.65,7.22,9.81,14.25,16.45,19.72,9,7.41,20.26,11.53,31.5,14.71C497.53,470.16,542.87,466.07,587,429"/><path class="cls-13" d="M665.82,436.65c-9.62,12.55-15.75,20-27.49,30.56-30.26,27.32-70.66,41.53-111.19,46.05s-81.51,0-121.81-6.22c-44-6.79-91.25-15.19-131.26,4.33-43.85,21.38-70.4,72.79-117.71,84.67-8.46,2.12-18.65,2.35-24.56-4.07-7.32-8-3.33-21.47,4.66-28.75"/><path class="cls-13" d="M361.87,727.08c-3,15.26,5.55,31.15,18.14,40.28s28.49,12.51,44,13.48c26.14,1.64,52.5-2.91,77.06-12,15.45-5.71,30.89-13.76,40.17-27.37,14.7-21.58,10.09-50.34,14.34-76.11,4.8-29.09,21.43-55.08,41.61-76.56s44-39.15,66.71-57.94c8.79-7.27,17.54-14.84,23.85-24.34,12.59-18.95,13.94-43,14.89-65.7"/><path class="cls-13" d="M737.17,443a169.12,169.12,0,0,1,5.72,35.33c.4,7.16.31,14.49-2,21.25-3.88,11.09-13.27,19.16-22,27A550.52,550.52,0,0,0,618.1,646.23C610.9,657.8,604,669.85,601,683.12c-3.12,13.47-2.17,27.61.73,41.12,3.79,17.75,11.16,35.15,23.78,48.2s31,21.21,49,18.84c5.13-.67,10.26-2.23,14.32-5.44,12-9.47,9.81-28,5.68-42.74-12.37-2.68-25.15,6.61-29.43,18.52s-1.59,25.36,3.88,36.77c3.34,7,7.88,13.62,14.47,17.6,9.52,5.75,21.47,5,32.51,3.67,9.29-1.1,18.87-2.54,26.79-7.53,11.51-7.27,17.58-21.08,18.81-34.64s-1.7-27.11-4.61-40.42"/><path class="cls-13" d="M1228.5,727c-13.42,24.49-42.37,35.57-69.51,42.13-42.5,10.28-87.38,14.16-129.86,3.83S946.75,736.76,926,698.3c-16.65-30.8-20.24-67.25-36.24-98.39-15-29.16-39.8-51.76-62.17-75.73s-43.47-51.6-47.83-84.09"/><path class="cls-13" d="M829,444.35A301.16,301.16,0,0,0,944.45,574.6c19.61,12,41,21.91,63.78,25,9.21,1.26,19.16,1.25,27.08-3.61s12.53-16,7.61-23.88c-3.79-6.09-11.75-8.29-18.91-7.92-14.65.76-28.76,11.51-31.59,25.91-3.2,16.31,8.6,33,24.06,39.15s33.25,3.3,48.41-3.51,28.33-17.29,41.75-27.1c25.76-18.83,43.18-45,91.18-56,60.06-13.77,56,14.16,90,19,7.54,1.07,21.63-1.49,28.41-4.95,10.62-5.4,13.5-19,15.17-30.78"/><path class="cls-13" d="M873.74,168.1A32.89,32.89,0,0,1,862.56,202c-6.19,4.82-13.93,7.2-21.63,8.69a113,113,0,0,1-27.29,1.87c-6.63-.36-13.74-1.55-18.43-6.26s-5.07-14,.75-17.17c7.65-.58,16-1,22.21,3.61,4.62,3.42,7.06,9,8.89,14.44,6.26,18.57,7.77,38.94,2.83,57.9S814.3,301,797.82,311.65"/><path class="cls-13" d="M762,443.16c2,32,8,38.09,21,67,5,11.12,32.37,42.39,41,51s16.68,17.67,23,28c33,54,29.72,68.36,39.2,109.37,2.18,9.43,4.15,19,4.6,28.62,1.19,25.65-8.27,50.46-17.58,74.38a109,109,0,0,1-7,15.54c-11.35,19.46-34.52,31.7-40.23,53.48"/></svg>