<svg id="Layer_1" data-name="Layer 1" xmlns="http://www.w3.org/2000/svg" viewBox="0 0 1524 922"><defs><style>.cls-1{fill:#D82A21;}.cls-2{fill:#e7f1ff;}.cls-3{fill:#a5a4a5;}.cls-4{fill:#191a1a;}.cls-5{fill:#ff7f3e;}.cls-6{fill:#eda37a;}.cls-7{fill:#f6c343;}.cls-8{fill:#1ebe61;}.cls-9{fill:#2e86ff;}.cls-10{fill:none;stroke:#a6a6a6;stroke-miterlimit:10;stroke-width:4px;stroke-dasharray:11;}</style></defs><rect class="cls-1" x="596.94" y="363.6" width="4.52" height="4.21"/><path class="cls-1" d="M587.56,373.51a16.41,16.41,0,0,0,6.54,1.22q.72,0,1.44-.06c.49-.05.94-.12,1.36-.2l-.27-5.73-1.44.14c-.4,0-.76,0-1.09,0a7,7,0,0,1-4.32-1.06,4.54,4.54,0,0,1,0-6.48,7,7,0,0,1,4.32-1.07h78.34v-11a14,14,0,0,0-1.35-6.69,7.87,7.87,0,0,0-4-3.6,17.79,17.79,0,0,0-6.76-1.11,31.06,31.06,0,0,0-5.13.4,21.42,21.42,0,0,0-3.39.8c-.18.65-.37,1.54-.58,2.66s-.38,2.38-.51,3.75-.2,2.79-.2,4.24.06,2.81.18,4.1l.06.64h-9.55V338h-6.79v16.5H624V338h-6.79v16.5H604.79v-5.36a10.4,10.4,0,0,0-1.66-6,11.09,11.09,0,0,0-4.55-3.82,15.52,15.52,0,0,0-6.65-1.35,24.54,24.54,0,0,0-4,.33c-1.35.23-2.71.52-4.1.87l.66,5.28c1.45-.21,2.75-.36,3.9-.47s2.09-.15,2.8-.15c2.36,0,4.09.45,5.17,1.35a4.82,4.82,0,0,1,1.62,3.93v5.36H594.1a16.41,16.41,0,0,0-6.54,1.22,10,10,0,0,0-4.37,3.49,10.22,10.22,0,0,0,0,10.82A9.91,9.91,0,0,0,587.56,373.51Zm69.82-20.65c-.1-1.09-.15-2.13-.15-3.1s0-2.17.15-3.31c.08-.9.19-1.76.31-2.59.85-.08,1.71-.14,2.6-.14a8.87,8.87,0,0,1,3.26.49,2.91,2.91,0,0,1,1.64,1.69,9.67,9.67,0,0,1,.46,3.37v5.23h-8.09C657.5,354,657.44,353.45,657.38,352.86Z"/><rect class="cls-1" x="613.04" y="328.47" width="6.48" height="5.41"/><rect class="cls-1" x="621.78" y="328.47" width="6.48" height="5.41"/><rect class="cls-1" x="634.38" y="328.47" width="6.83" height="5.41"/><polygon class="cls-1" points="697.19 338.54 697.19 360.31 704.11 360.31 704.11 331.08 698.12 331.08 688.28 337.16 690.41 342.17 697.19 338.54"/><path class="cls-1" d="M713.45,357.43a7.86,7.86,0,0,0,3.46,2.6,14,14,0,0,0,5,.82,12.18,12.18,0,0,0,6.37-1.49,8.67,8.67,0,0,0,3.62-4.77,27.09,27.09,0,0,0,1.15-8.69,35.29,35.29,0,0,0-.62-7.14,12,12,0,0,0-2-4.75,7.84,7.84,0,0,0-3.46-2.66,13.82,13.82,0,0,0-5.12-.84,13.29,13.29,0,0,0-5,.84,8.07,8.07,0,0,0-3.46,2.66,12.46,12.46,0,0,0-2,4.75,33,33,0,0,0-.66,7.14,31.16,31.16,0,0,0,.66,6.9A12.22,12.22,0,0,0,713.45,357.43ZM718,341.09a9.59,9.59,0,0,1,.76-2.91,3,3,0,0,1,1.31-1.42,4.78,4.78,0,0,1,3.83,0,3,3,0,0,1,1.27,1.44,10.37,10.37,0,0,1,.73,2.91,38.82,38.82,0,0,1,.24,4.79,35.88,35.88,0,0,1-.24,4.59,8,8,0,0,1-.78,2.77,3,3,0,0,1-1.3,1.35,4.1,4.1,0,0,1-1.85.38,4.06,4.06,0,0,1-1.84-.38,3,3,0,0,1-1.3-1.35,8.21,8.21,0,0,1-.8-2.77,31.94,31.94,0,0,1-.27-4.59A39.29,39.29,0,0,1,718,341.09Z"/><path class="cls-1" d="M755.1,334a7.84,7.84,0,0,0-3.46-2.66,13.82,13.82,0,0,0-5.12-.84,13.29,13.29,0,0,0-5,.84,8.07,8.07,0,0,0-3.46,2.66,12.16,12.16,0,0,0-2,4.75,33,33,0,0,0-.66,7.14,31.16,31.16,0,0,0,.66,6.9,12.06,12.06,0,0,0,2,4.63,7.86,7.86,0,0,0,3.46,2.6,14,14,0,0,0,5,.82,12.18,12.18,0,0,0,6.37-1.49,8.61,8.61,0,0,0,3.61-4.77,26.78,26.78,0,0,0,1.16-8.69,35.29,35.29,0,0,0-.62-7.14A12.14,12.14,0,0,0,755.1,334Zm-4.61,16.48a8,8,0,0,1-.78,2.77,3,3,0,0,1-1.31,1.35,4.64,4.64,0,0,1-3.68,0,3.11,3.11,0,0,1-1.31-1.35,8.47,8.47,0,0,1-.79-2.77,31.94,31.94,0,0,1-.27-4.59,39.29,39.29,0,0,1,.24-4.81,9.59,9.59,0,0,1,.76-2.91,3,3,0,0,1,1.31-1.42,4.78,4.78,0,0,1,3.83,0,3,3,0,0,1,1.27,1.44,10.37,10.37,0,0,1,.73,2.91,38.82,38.82,0,0,1,.24,4.79A35.88,35.88,0,0,1,750.49,350.49Z"/><path class="cls-1" d="M777.55,359.36a8.66,8.66,0,0,0,3.61-4.77,26.78,26.78,0,0,0,1.16-8.69,35.29,35.29,0,0,0-.62-7.14,12.14,12.14,0,0,0-2-4.75,7.84,7.84,0,0,0-3.46-2.66,13.82,13.82,0,0,0-5.12-.84,13.29,13.29,0,0,0-5,.84,8.07,8.07,0,0,0-3.46,2.66,12.16,12.16,0,0,0-2,4.75,32.93,32.93,0,0,0-.67,7.14,31.11,31.11,0,0,0,.67,6.9,12.06,12.06,0,0,0,2,4.63,7.86,7.86,0,0,0,3.46,2.6,14,14,0,0,0,5,.82A12.18,12.18,0,0,0,777.55,359.36Zm-9.52-6.1a8.47,8.47,0,0,1-.79-2.77,31.94,31.94,0,0,1-.27-4.59,39.29,39.29,0,0,1,.24-4.81,9.59,9.59,0,0,1,.76-2.91,3,3,0,0,1,1.31-1.42,4.78,4.78,0,0,1,3.83,0,3,3,0,0,1,1.27,1.44,10.37,10.37,0,0,1,.73,2.91,38.82,38.82,0,0,1,.24,4.79,35.88,35.88,0,0,1-.24,4.59,8,8,0,0,1-.78,2.77,3,3,0,0,1-1.31,1.35,4.64,4.64,0,0,1-3.68,0A3.06,3.06,0,0,1,768,353.26Z"/><rect class="cls-1" x="804.94" y="330.42" width="6.83" height="5.41"/><path class="cls-1" d="M801.57,369.87a16.42,16.42,0,0,0,7,1.45,15.94,15.94,0,0,0,6.72-1.36,11.11,11.11,0,0,0,4.64-3.79,9.84,9.84,0,0,0,1.68-5.72v-.14h31.28v-11a13.9,13.9,0,0,0-1.36-6.69,7.85,7.85,0,0,0-4-3.6,17.85,17.85,0,0,0-6.77-1.11,31,31,0,0,0-5.12.4,21.42,21.42,0,0,0-3.39.8c-.18.65-.37,1.54-.58,2.66s-.38,2.38-.51,3.75-.2,2.79-.2,4.24.06,2.81.18,4.1l.06.64h-9.56V338h-6.78v22.45a5.63,5.63,0,0,1-.58,2.55,4.23,4.23,0,0,1-1.95,1.82,8.41,8.41,0,0,1-3.73.69,9.63,9.63,0,0,1-3.77-.67,4.9,4.9,0,0,1-3.15-4.75q0-.79.18-2.46t.51-4.08q.33-2.42.78-5.39l-6.7-.89c-.18,1.19-.36,2.41-.56,3.66s-.36,2.48-.51,3.66-.26,2.26-.35,3.22-.13,1.74-.13,2.33a9.77,9.77,0,0,0,1.77,5.76A11.9,11.9,0,0,0,801.57,369.87Zm36.31-17a31,31,0,0,1-.16-3.1c0-1.07,0-2.17.16-3.31.08-.9.18-1.76.3-2.59.85-.08,1.71-.14,2.6-.14a8.83,8.83,0,0,1,3.26.49,2.88,2.88,0,0,1,1.64,1.69,9.4,9.4,0,0,1,.47,3.37v5.23h-8.09C838,354,837.93,353.45,837.88,352.86Z"/><rect class="cls-1" x="891.66" y="328.47" width="6.48" height="5.41"/><rect class="cls-1" x="887.63" y="322.12" width="5.81" height="4.7"/><rect class="cls-1" x="882.92" y="328.47" width="6.48" height="5.41"/><path class="cls-1" d="M887.14,360.31h39.43v-9.44a16,16,0,0,0-.62-4.57,11.1,11.1,0,0,0-1.93-3.8,8.92,8.92,0,0,0-3.35-2.59,11.8,11.8,0,0,0-4.92-.93H909.4l.89-1.69q.4-.8.87-1.59c.31-.54.68-1.17,1.13-1.91s1-1.64,1.77-2.71l-5.72-3.19c-.8,1.24-1.46,2.27-2,3.08s-.94,1.49-1.25,2-.58,1-.82,1.49L902,339l4,5.81h9.76a4,4,0,0,1,2.26.58,3.57,3.57,0,0,1,1.35,1.9,11.25,11.25,0,0,1,.47,3.6v3.63h-26V338h-6.74v4.44h-9.27V338h-6.79v22.94a6.16,6.16,0,0,1-1,3.72,3,3,0,0,1-2.59,1.29c-.21,0-.53,0-1-.05s-.9,0-1.37,0l-.22,5.72,1.46.11a11.45,11.45,0,0,0,1.2.07,10.27,10.27,0,0,0,5.37-1.38,9.48,9.48,0,0,0,3.59-3.83,11.9,11.9,0,0,0,1.29-5.61V348.29h9.27Z"/><rect class="cls-1" x="933.49" y="329.13" width="6.74" height="31.18"/><path class="cls-1" d="M936.5,322.3l-.08-.13a2.43,2.43,0,0,1-.22-1,2,2,0,0,1,.58-1.47,2.23,2.23,0,0,1,1.64-.58,4.78,4.78,0,0,1,.82.09,3.28,3.28,0,0,1,.82.31l1.59-3a4.94,4.94,0,0,0-1.55-.69,7.42,7.42,0,0,0-1.86-.24,6.3,6.3,0,0,0-3,.73,6.19,6.19,0,0,0-2.22,2,5.11,5.11,0,0,0-.84,2.9,4.24,4.24,0,0,0,.13,1.07h-1.15v3.46h11.45V322.3Z"/><path class="cls-1" d="M610.56,407.74H599.11a25.33,25.33,0,0,1-3.7-.25,7.26,7.26,0,0,1-2.73-.91,4.32,4.32,0,0,1-1.68-1.79,6.24,6.24,0,0,1-.58-2.87,16.17,16.17,0,0,1,.16-2.24c.1-.78.22-1.53.37-2.24s.27-1.28.36-1.73l-6.61-1.28c-.06.29-.15.72-.27,1.26s-.24,1.18-.35,1.89-.23,1.45-.31,2.22a18.87,18.87,0,0,0-.14,2.21,11.16,11.16,0,0,0,1.73,6.35,10.58,10.58,0,0,0,5.1,3.88,23,23,0,0,0,8.25,1.31h18.64V391.23h-6.79Z"/><rect class="cls-1" x="592.95" y="384.4" width="6.48" height="5.41"/><rect class="cls-1" x="601.69" y="384.4" width="6.48" height="5.41"/><polygon class="cls-1" points="641.21 407.74 634.2 407.74 634.2 388.53 627.41 388.53 627.41 407.74 621.56 407.74 621.56 413.55 648 413.55 648 382.36 641.21 382.36 641.21 407.74"/><rect class="cls-1" x="674.97" y="418.07" width="6.83" height="5.41"/><path class="cls-1" d="M730.86,407.74h-9.54v-5.19a14.07,14.07,0,0,0-1.35-6.7,7.87,7.87,0,0,0-4-3.6,18,18,0,0,0-6.76-1.1,31.08,31.08,0,0,0-5.12.39,21.33,21.33,0,0,0-3.4.8c-.18.65-.37,1.54-.57,2.66s-.38,2.38-.52,3.75-.19,2.79-.19,4.24,0,2.82.17,4.1c0,.22.05.43.07.65h-9.56v-5.37a10.4,10.4,0,0,0-1.66-6,11,11,0,0,0-4.55-3.81,15.43,15.43,0,0,0-6.61-1.36,24.52,24.52,0,0,0-3.75.31c-1.28.21-2.55.46-3.79.76l.62,5.32c1.3-.18,2.5-.31,3.59-.4s2-.13,2.62-.13c2.37,0,4.08.45,5.15,1.35a4.87,4.87,0,0,1,1.59,3.93v5.37H661.79V382.36h-6.74v31.19h82.6V382.36h-6.79Zm-24.6-1.65c-.1-1.09-.15-2.13-.15-3.1s0-2.17.15-3.31c.08-.9.19-1.75.31-2.59.85-.08,1.71-.13,2.6-.13a8.86,8.86,0,0,1,3.26.48,2.91,2.91,0,0,1,1.64,1.69,9.63,9.63,0,0,1,.47,3.37v5.24h-8.1C706.38,407.22,706.32,406.68,706.26,406.09Z"/><rect class="cls-1" x="744.52" y="382.36" width="6.74" height="31.18"/><rect class="cls-1" x="796.2" y="418.07" width="6.48" height="5.41"/><rect class="cls-1" x="804.94" y="418.07" width="6.48" height="5.41"/><rect class="cls-1" x="854.49" y="418.07" width="6.83" height="5.41"/><path class="cls-1" d="M863.36,392.59a15.43,15.43,0,0,0-6.61-1.36,24.52,24.52,0,0,0-3.75.31c-1.28.21-2.55.46-3.79.76l.62,5.32c1.3-.18,2.5-.31,3.59-.4s2-.13,2.62-.13c2.37,0,4.08.45,5.15,1.35a4.87,4.87,0,0,1,1.59,3.93v5.37H841.62v-5.19a14.07,14.07,0,0,0-1.35-6.7,7.87,7.87,0,0,0-4-3.6,18,18,0,0,0-6.76-1.1,31.08,31.08,0,0,0-5.12.39,21.33,21.33,0,0,0-3.4.8c-.17.65-.37,1.54-.57,2.66s-.38,2.38-.51,3.75a42,42,0,0,0-.2,4.24c0,1.45.06,2.82.17,4.1,0,.22,0,.43.07.65H809.24V391.23h-6.78v16.51H786.53a22.74,22.74,0,0,0,2.53-2.47,16.3,16.3,0,0,0,2.59-4,10.09,10.09,0,0,0,1-4.26v-2.48a25.25,25.25,0,0,0-4.15-1.82,29.52,29.52,0,0,0-4.44-1.13,24.15,24.15,0,0,0-4-.38,24.7,24.7,0,0,0-4.09.38,29.1,29.1,0,0,0-4.43,1.13,25.4,25.4,0,0,0-4.13,1.82V397a10.38,10.38,0,0,0,.93,4,19.24,19.24,0,0,0,2.69,4.39,21.63,21.63,0,0,0,2.66,2.77,12.53,12.53,0,0,0-2.06,1,10.25,10.25,0,0,0-3.66,3.59,9.66,9.66,0,0,0-1.31,5.08,9.36,9.36,0,0,0,1.55,5.41,9.91,9.91,0,0,0,4.37,3.48A16.24,16.24,0,0,0,779,428a26.78,26.78,0,0,0,3.51-.24c1.21-.16,2.48-.38,3.81-.64l-1-5.46c-1.42.18-2.65.31-3.7.4s-1.92.13-2.6.13a6.86,6.86,0,0,1-4.23-1.08,3.74,3.74,0,0,1-1.4-3.13,5.41,5.41,0,0,1,.47-2.35,4.49,4.49,0,0,1,1.22-1.6,8.62,8.62,0,0,1,1.55-1,5.1,5.1,0,0,1,.66-.29l1.22-.46.78-.31c.42.19.85.37,1.29.53a18.59,18.59,0,0,0,6.47,1.11h82.51V402.37a10.4,10.4,0,0,0-1.66-6A11,11,0,0,0,863.36,392.59ZM780,397a17.4,17.4,0,0,1,4.45.63c.45.11.89.25,1.32.39a7.77,7.77,0,0,1-.43,1.69,10.36,10.36,0,0,1-1.4,2.51,14.08,14.08,0,0,1-2,2.15,14.82,14.82,0,0,1-2.3,1.63,11.94,11.94,0,0,1-1.08-.83,14.46,14.46,0,0,1-2.28-2.55,14.06,14.06,0,0,1-1.55-2.86,8.34,8.34,0,0,1-.49-1.74c.43-.15.87-.28,1.31-.39A17.42,17.42,0,0,1,780,397Zm46.59,9c-.1-1.09-.15-2.13-.15-3.1s.05-2.17.15-3.31c.09-.9.19-1.75.31-2.59.85-.08,1.71-.13,2.6-.13a8.86,8.86,0,0,1,3.26.48,2.91,2.91,0,0,1,1.64,1.69,9.63,9.63,0,0,1,.47,3.37v5.24h-8.1C826.68,407.22,826.62,406.68,826.56,406.09Z"/><rect class="cls-1" x="904.13" y="428.63" width="6.48" height="5.41"/><rect class="cls-1" x="895.39" y="428.63" width="6.48" height="5.41"/><path class="cls-1" d="M922.51,392.54a8.57,8.57,0,0,0-3.81,3.79,13.36,13.36,0,0,0-1.27,6.08,14.31,14.31,0,0,0,.89,5.33h-4.57a12,12,0,0,1-1.59-.09,4,4,0,0,1-1.23-.36,9.17,9.17,0,0,1-1.26-.75l-3.86,4.79a11.47,11.47,0,0,0,3.73,1.71,16.92,16.92,0,0,0,4.21.51h1.73a5.38,5.38,0,0,1-1.28,3.86,5.44,5.44,0,0,1-4,1.33H897.61a9.65,9.65,0,0,1-3.8-.69,5.75,5.75,0,0,1-2.5-1.91,4.54,4.54,0,0,1-.89-2.77,29.15,29.15,0,0,1,.24-2.95c.17-1.38.39-3,.69-4.81l-6.7-.89c-.2,1.3-.38,2.51-.53,3.64s-.27,2.11-.36,3-.13,1.57-.13,2.13a9.23,9.23,0,0,0,1.07,4.37,11.1,11.1,0,0,0,2.95,3.52,14.1,14.1,0,0,0,4.43,2.36,17.56,17.56,0,0,0,5.53.84h12.55a13.69,13.69,0,0,0,6.39-1.42,10.6,10.6,0,0,0,4.21-3.91,10.77,10.77,0,0,0,1.51-5.67h16.86V391.23H928.79A13.7,13.7,0,0,0,922.51,392.54Zm3.55,14.84a2.34,2.34,0,0,1-1.42-1.49,10.66,10.66,0,0,1-.42-3.48,10,10,0,0,1,.42-3.28,2.73,2.73,0,0,1,1.42-1.62,6.6,6.6,0,0,1,2.73-.47h3.55v10.7h-3.55A8.34,8.34,0,0,1,926.06,407.38Z"/><rect class="cls-1" x="926" y="381.7" width="6.83" height="5.41"/><circle class="cls-2" cx="506.17" cy="60.04" r="50.3"/><path class="cls-3" d="M528.94,56.15a22.33,22.33,0,0,0-10.77-15.71,23.29,23.29,0,0,0-16.06-2.85A21.69,21.69,0,0,0,488,45.8a22.8,22.8,0,0,0-4.81,17.38c.15,1.29.49,2.56.74,3.84h.19a3.87,3.87,0,0,0,.71-2.2,9.94,9.94,0,0,1,1.46-4.4.86.86,0,0,0,.13-.41c0-.63,0-1.25.1-1.87a14.49,14.49,0,0,1,1.86-6.28,1,1,0,0,1,.81-.55,4.62,4.62,0,0,0,3.33-1.77,16,16,0,0,1,5.56-4.47c4.24-2,8.67-2,13.12-1.07a15.11,15.11,0,0,1,8.6,5.58,4.21,4.21,0,0,0,2.91,1.67,1.59,1.59,0,0,1,1.46,1.09c.07.15.15.29.22.44a16.79,16.79,0,0,1,1.47,7,1.47,1.47,0,0,0,.16.7,9,9,0,0,1,1.25,3.24c.14.76.23,1.53.4,2.28a5.8,5.8,0,0,0,.45,1.07c.16-.12.2-.19.22-.27A22.39,22.39,0,0,0,528.94,56.15Z"/><path class="cls-4" d="M498.22,66.75c-1-2.42-2-4.84-3.08-7.25a2.48,2.48,0,0,0-3-1.57c-1.17.36-2.28.9-3.45,1.37l10,23.53,2.79-1.18a2.65,2.65,0,0,0,1.5-3.79Z"/><path class="cls-4" d="M520.91,58.15a2.64,2.64,0,0,0-3.81,1.53l-3.93,9.25q-1.9,4.51-3.82,9a2.52,2.52,0,0,0,.9,3.34c1.08.61,2.26,1,3.42,1.56,3.34-7.88,6.66-15.69,10-23.53Z"/><path class="cls-3" d="M487.15,61.11a8.31,8.31,0,0,0-1.22,3.55,5.17,5.17,0,0,1-1,3,1.11,1.11,0,0,0-.19,1.31q2.11,5,4.21,9.93a1.19,1.19,0,0,0,1,.76,5.32,5.32,0,0,1,1.57.49,16.19,16.19,0,0,1,1.72,1.16,7.86,7.86,0,0,0,2.8,1.29,13.74,13.74,0,0,0,1.41.18l-9.6-22.64A11,11,0,0,0,487.15,61.11Z"/><path class="cls-3" d="M526.57,65.83c-.16-.89-.27-1.79-.49-2.66a5.8,5.8,0,0,0-1.67-3c-3.19,7.54-6.36,15-9.55,22.53a3.45,3.45,0,0,0,.8,0,8.51,8.51,0,0,0,1.88-.56,23.45,23.45,0,0,0,2.38-1.47,4.33,4.33,0,0,1,2.21-1,1.29,1.29,0,0,0,1.34-1,5.32,5.32,0,0,1,.21-.5c1.29-3,2.57-6.07,3.87-9.11a1.07,1.07,0,0,0-.07-1.28A3.72,3.72,0,0,1,526.57,65.83Z"/><rect class="cls-4" x="641.83" y="893.96" width="5.11" height="5.11"/><rect class="cls-4" x="649.89" y="893.96" width="5.11" height="5.11"/><rect class="cls-4" x="657.95" y="893.96" width="5.11" height="5.11"/><rect class="cls-4" x="684.12" y="902.35" width="4.69" height="3.92"/><rect class="cls-4" x="690.44" y="902.35" width="4.69" height="3.92"/><rect class="cls-4" x="705.18" y="876.02" width="4.69" height="3.92"/><rect class="cls-4" x="702.26" y="871.42" width="4.21" height="3.4"/><rect class="cls-4" x="698.86" y="876.02" width="4.69" height="3.92"/><path class="cls-4" d="M737.36,894.86h-6.94v-2.63a11.77,11.77,0,0,0-.45-3.31,7.91,7.91,0,0,0-1.4-2.74,6.46,6.46,0,0,0-2.42-1.88,8.53,8.53,0,0,0-3.56-.68H718l.65-1.21c.19-.39.4-.78.62-1.16l.82-1.38c.32-.54.75-1.19,1.29-2l-4.15-2.31c-.57.9-1.05,1.64-1.43,2.23s-.67,1.08-.89,1.48-.43.75-.6,1.07l-1.7,3.24,2.92,4.21h7.07a2.92,2.92,0,0,1,1.63.42,2.57,2.57,0,0,1,1,1.38,7.94,7.94,0,0,1,.34,2.6v2.63H706.79V882.92h-4.92v11.94H692V882.92h-4.88v3.21h-6.72v-3.21h-4.91v16.6a4.48,4.48,0,0,1-.69,2.7,2.22,2.22,0,0,1-1.88.93l-.7,0c-.32,0-.66,0-1,0l-.16,4.15c.36,0,.72,0,1.06.08s.63.05.87.05a7.47,7.47,0,0,0,3.88-1,6.78,6.78,0,0,0,2.6-2.78,8.65,8.65,0,0,0,.93-4.06v-9.15h6.72v8.7h55.13V876.5h-4.91Z"/><rect class="cls-4" x="747.25" y="876.5" width="4.88" height="22.57"/><path class="cls-4" d="M759.91,883.85a6,6,0,0,0-2.76,2.76,10.07,10.07,0,0,0-.91,4.53,9.57,9.57,0,0,0,.91,4.43,5.74,5.74,0,0,0,2.76,2.63,10.64,10.64,0,0,0,4.55.87H767v1a2.85,2.85,0,0,1-1,2.35,5.08,5.08,0,0,1-3.14.77c-.52,0-1.15,0-1.88-.1s-1.64-.16-2.68-.29l-.74,3.92c1,.21,1.88.38,2.76.5a18.73,18.73,0,0,0,2.54.18,11.81,11.81,0,0,0,4.75-.89,7.15,7.15,0,0,0,3.14-2.53,6.81,6.81,0,0,0,1.13-3.91V882.92h-7.48A10.05,10.05,0,0,0,759.91,883.85Zm4.55,11a6.36,6.36,0,0,1-1.93-.24,1.66,1.66,0,0,1-1.06-1,7.09,7.09,0,0,1-.32-2.44,6.89,6.89,0,0,1,.37-2.62,1.91,1.91,0,0,1,1.11-1.12,5.33,5.33,0,0,1,1.83-.28H767v7.74Z"/><rect class="cls-4" x="793.68" y="902.35" width="4.69" height="3.92"/><rect class="cls-4" x="800" y="902.35" width="4.69" height="3.92"/><rect class="cls-4" x="814.74" y="876.02" width="4.69" height="3.92"/><rect class="cls-4" x="808.42" y="876.02" width="4.69" height="3.92"/><rect class="cls-4" x="811.82" y="871.42" width="4.21" height="3.4"/><path class="cls-4" d="M846.92,894.86H840v-2.63a11.77,11.77,0,0,0-.45-3.31,7.91,7.91,0,0,0-1.4-2.74,6.46,6.46,0,0,0-2.42-1.88,8.53,8.53,0,0,0-3.56-.68h-4.6l.65-1.21c.19-.39.4-.78.62-1.16l.82-1.38c.32-.54.75-1.19,1.28-2l-4.14-2.31c-.57.9-1,1.64-1.43,2.23s-.67,1.08-.89,1.48-.43.75-.6,1.07l-1.7,3.24,2.92,4.21h7.07a2.92,2.92,0,0,1,1.63.42,2.57,2.57,0,0,1,1,1.38,7.94,7.94,0,0,1,.34,2.6v2.63H816.35V882.92h-4.92v11.94h-9.85V882.92H796.7v3.21H790v-3.21h-4.91v16.6a4.48,4.48,0,0,1-.69,2.7,2.22,2.22,0,0,1-1.88.93l-.7,0c-.33,0-.66,0-1,0l-.16,4.15c.36,0,.72,0,1.06.08s.63.05.87.05a7.47,7.47,0,0,0,3.88-1,6.84,6.84,0,0,0,2.6-2.78,8.65,8.65,0,0,0,.93-4.06v-9.15h6.72v8.7h55.13V876.5h-4.91Z"/><rect class="cls-4" x="856.81" y="876.5" width="4.88" height="22.57"/><path class="cls-4" d="M869.47,883.85a6,6,0,0,0-2.76,2.76,10.07,10.07,0,0,0-.91,4.53,9.57,9.57,0,0,0,.91,4.43,5.74,5.74,0,0,0,2.76,2.63,10.64,10.64,0,0,0,4.55.87h2.56v1a2.84,2.84,0,0,1-1,2.35,5.08,5.08,0,0,1-3.14.77c-.52,0-1.15,0-1.88-.1s-1.64-.16-2.68-.29l-.74,3.92c1,.21,1.88.38,2.76.5a18.73,18.73,0,0,0,2.54.18,11.81,11.81,0,0,0,4.75-.89,7.15,7.15,0,0,0,3.14-2.53A6.81,6.81,0,0,0,881.5,900V882.92H874A10.05,10.05,0,0,0,869.47,883.85Zm4.55,11a6.36,6.36,0,0,1-1.93-.24,1.66,1.66,0,0,1-1.06-1,7.09,7.09,0,0,1-.32-2.44,6.89,6.89,0,0,1,.37-2.62,1.91,1.91,0,0,1,1.11-1.12,5.33,5.33,0,0,1,1.83-.28h2.56v7.74Z"/><rect class="cls-4" x="1015" y="345.4" width="4.69" height="3.92"/><rect class="cls-4" x="1021.33" y="345.4" width="4.69" height="3.92"/><rect class="cls-4" x="1043.29" y="345.4" width="4.69" height="3.92"/><rect class="cls-4" x="1036.96" y="345.4" width="4.69" height="3.92"/><path class="cls-4" d="M1049.46,368.46V352.31H1042a9.9,9.9,0,0,0-4.54.94,6.17,6.17,0,0,0-2.76,2.75,9.61,9.61,0,0,0-.92,4.4,10.32,10.32,0,0,0,.65,3.85h-6.59V352.31h-7.48a10,10,0,0,0-4.54.93A6,6,0,0,0,1013,356a10.05,10.05,0,0,0-.92,4.52A9.61,9.61,0,0,0,1013,365a5.83,5.83,0,0,0,2.76,2.63,10.59,10.59,0,0,0,4.54.87h29.13ZM1018.4,364a1.71,1.71,0,0,1-1.06-1,9.46,9.46,0,0,1,0-5.06,2,2,0,0,1,1.11-1.13,5.35,5.35,0,0,1,1.83-.27h2.57v7.74h-2.57A6.45,6.45,0,0,1,1018.4,364Zm21.6,0a1.69,1.69,0,0,1-1-1.07,7.87,7.87,0,0,1-.3-2.52,7.37,7.37,0,0,1,.3-2.38,1.94,1.94,0,0,1,1-1.17,4.65,4.65,0,0,1,2-.34h2.57v7.74H1042A6.09,6.09,0,0,1,1040,364Z"/><rect class="cls-4" x="1064.03" y="371.73" width="4.69" height="3.92"/><rect class="cls-4" x="1070.36" y="371.73" width="4.69" height="3.92"/><polygon class="cls-4" points="1093.03 368.46 1097.94 368.46 1097.94 345.88 1093.03 345.88 1093.03 364.25 1089.46 364.25 1086.13 364.25 1086.13 345.88 1081.21 345.88 1081.21 364.25 1077.65 364.25 1077.65 364.25 1077.65 364.25 1073.47 364.25 1073.47 352.31 1068.56 352.31 1068.56 364.25 1062.91 364.25 1059.34 364.25 1059.34 345.88 1054.46 345.88 1054.46 368.46 1059.34 368.46 1062.91 368.46 1073.47 368.46 1077.65 368.46 1077.65 368.46 1077.65 368.46 1081.21 368.46 1086.13 368.46 1089.46 368.46 1093.03 368.46"/><rect class="cls-4" x="1102.92" y="345.88" width="4.88" height="22.57"/><path class="cls-4" d="M1115.58,353.24a6,6,0,0,0-2.76,2.76,10.06,10.06,0,0,0-.91,4.52,9.62,9.62,0,0,0,.91,4.44,5.83,5.83,0,0,0,2.76,2.63,10.67,10.67,0,0,0,4.55.87h2.57v1a2.79,2.79,0,0,1-1,2.34,5,5,0,0,1-3.14.77c-.52,0-1.14,0-1.88-.09s-1.63-.16-2.68-.29l-.74,3.92c1,.21,1.88.38,2.76.49a18.73,18.73,0,0,0,2.54.18,11.77,11.77,0,0,0,4.75-.88,7.2,7.2,0,0,0,3.15-2.54,6.75,6.75,0,0,0,1.12-3.9V352.31h-7.48A10.08,10.08,0,0,0,1115.58,353.24Zm4.55,11a6.4,6.4,0,0,1-1.93-.24,1.71,1.71,0,0,1-1.06-1,7.12,7.12,0,0,1-.32-2.45,6.87,6.87,0,0,1,.37-2.61,2,2,0,0,1,1.11-1.13,5.35,5.35,0,0,1,1.83-.27h2.57v7.74Z"/><rect class="cls-4" x="1147.23" y="345.4" width="4.69" height="3.92"/><rect class="cls-4" x="1140.9" y="345.4" width="4.69" height="3.92"/><path class="cls-4" d="M1206,368.46h8.48V345.88h-4.92v18.37h-6.9v-3a12,12,0,0,0-.48-3.42,8.65,8.65,0,0,0-1.46-2.87,6.78,6.78,0,0,0-2.51-2,8.52,8.52,0,0,0-3.61-.7,10.49,10.49,0,0,0-2.79.32,7.21,7.21,0,0,0-2.17,1,11.19,11.19,0,0,0-1.91,1.62c-.5.52-1,1.14-1.58,1.81v-4.71h-4.91v11.94H1174v-3.89a7.51,7.51,0,0,0-1.21-4.31,8,8,0,0,0-3.29-2.77,11.18,11.18,0,0,0-4.78-1,17.08,17.08,0,0,0-2.72.22c-.93.15-1.84.33-2.74.55l.45,3.85c.94-.13,1.81-.23,2.6-.29s1.42-.1,1.89-.1a5.76,5.76,0,0,1,3.73,1,3.52,3.52,0,0,1,1.15,2.84v3.89h-15.31V352.31h-7.49a10,10,0,0,0-4.54.93,6,6,0,0,0-2.76,2.76,10.05,10.05,0,0,0-.92,4.52,9.61,9.61,0,0,0,.92,4.44,5.83,5.83,0,0,0,2.76,2.63,10.63,10.63,0,0,0,4.54.87H1206ZM1144.31,364a1.66,1.66,0,0,1-1.06-1,9.46,9.46,0,0,1,0-5.06,2,2,0,0,1,1.1-1.13,5.43,5.43,0,0,1,1.83-.27h2.57v7.74h-2.57A6.33,6.33,0,0,1,1144.31,364Zm41.8-2.44c.29-.35.59-.71.92-1.08a19.05,19.05,0,0,1,2-1.92,10.91,10.91,0,0,1,2.31-1.48,6.07,6.07,0,0,1,2.62-.58,3.94,3.94,0,0,1,2,.48,3.19,3.19,0,0,1,1.3,1.51,6.82,6.82,0,0,1,.47,2.76v3h-11.6Z"/><rect class="cls-4" x="1219.41" y="345.88" width="4.88" height="22.57"/><rect class="cls-4" x="166.43" y="685.17" width="4.69" height="3.92"/><path class="cls-4" d="M179.17,702.06h-8.28a19.28,19.28,0,0,1-2.68-.17,5.5,5.5,0,0,1-2-.66,3.25,3.25,0,0,1-1.22-1.3,4.55,4.55,0,0,1-.41-2.07,11.41,11.41,0,0,1,.11-1.62c.07-.57.16-1.11.27-1.63s.19-.93.26-1.25l-4.79-.93c0,.21-.1.52-.19.92s-.17.85-.26,1.36-.16,1-.22,1.61a12.72,12.72,0,0,0-.1,1.6,8,8,0,0,0,1.26,4.59,7.56,7.56,0,0,0,3.69,2.81,16.57,16.57,0,0,0,6,.95h13.49V690.12h-4.92Z"/><rect class="cls-4" x="172.75" y="685.17" width="4.69" height="3.92"/><rect class="cls-4" x="188.68" y="683.7" width="4.88" height="22.57"/><path class="cls-4" d="M228.93,690.28a9.78,9.78,0,0,0-3.58-1.88,15.16,15.16,0,0,0-4.08-.56,22.06,22.06,0,0,0-3.1.22c-1.06.15-2.09.34-3.08.55s-1.91.43-2.75.64l.52,3.24,2.58-.19c.95-.06,1.91-.12,2.88-.16s1.84-.06,2.63-.06a8.72,8.72,0,0,1,3.79.7,4.28,4.28,0,0,1,2.1,2.3,11.31,11.31,0,0,1,.66,4.25v2.73h-3.63v-1.28a5.48,5.48,0,0,0-.79-2.89,6,6,0,0,0-5.21-2.92,6,6,0,0,0-3.1.8,6,6,0,0,0-2.2,2.12,5.41,5.41,0,0,0-.81,2.89v1.28h-6.45V690.12H200.4v16.6a4.48,4.48,0,0,1-.69,2.7,2.22,2.22,0,0,1-1.88.93l-.71,0c-.32,0-.65,0-1,0l-.16,4.15c.36,0,.71,0,1.06.08s.63,0,.86,0a7.48,7.48,0,0,0,3.89-1,6.84,6.84,0,0,0,2.6-2.78,8.65,8.65,0,0,0,.93-4.06v-.45h27.1v-6.94a13.94,13.94,0,0,0-.95-5.52A9.11,9.11,0,0,0,228.93,690.28Zm-13.41,11.78v-1.28a2.74,2.74,0,0,1,.32-1.32,2.57,2.57,0,0,1,.85-.91,2.14,2.14,0,0,1,1.18-.34,2,2,0,0,1,1.12.34,2.63,2.63,0,0,1,.84.91,2.74,2.74,0,0,1,.32,1.32v1.28Z"/><rect class="cls-4" x="260.86" y="709.54" width="4.95" height="3.92"/><path class="cls-4" d="M301.32,702.06h-6.9v-3.75a10.2,10.2,0,0,0-1-4.85,5.71,5.71,0,0,0-2.92-2.6,12.83,12.83,0,0,0-4.9-.81,22.26,22.26,0,0,0-3.71.29,16.16,16.16,0,0,0-2.46.58c-.12.47-.26,1.11-.41,1.93s-.28,1.72-.37,2.71-.15,2-.15,3.07,0,2,.13,3c0,.16,0,.31.05.46h-6.92v-3.88a7.49,7.49,0,0,0-1.21-4.32,7.9,7.9,0,0,0-3.29-2.76,11.15,11.15,0,0,0-4.78-1,17,17,0,0,0-2.71.22c-.94.15-1.85.33-2.75.55l.45,3.85c.94-.13,1.81-.22,2.6-.29s1.42-.09,1.9-.09a5.67,5.67,0,0,1,3.72,1,3.52,3.52,0,0,1,1.16,2.84v3.88H251.55V690.12h-7.48a10.05,10.05,0,0,0-4.55.93,6,6,0,0,0-2.76,2.76,10.07,10.07,0,0,0-.91,4.53,9.57,9.57,0,0,0,.91,4.43,5.74,5.74,0,0,0,2.76,2.63,10.64,10.64,0,0,0,4.55.87h2.57v1a2.82,2.82,0,0,1-1,2.35,5.08,5.08,0,0,1-3.14.77c-.52,0-1.14,0-1.88-.1S239,710.09,238,710l-.74,3.92c1,.21,1.88.38,2.76.5a18.68,18.68,0,0,0,2.54.17,11.77,11.77,0,0,0,4.75-.88,7.13,7.13,0,0,0,3.15-2.54,6.83,6.83,0,0,0,1.12-3.9v-1h54.68V683.7h-4.91Zm-57.25,0a6.4,6.4,0,0,1-1.93-.24,1.71,1.71,0,0,1-1.06-1,7.09,7.09,0,0,1-.32-2.44,6.89,6.89,0,0,1,.37-2.62,1.94,1.94,0,0,1,1.11-1.12,5.33,5.33,0,0,1,1.83-.28h2.57v7.74Zm39.45-1.18q-.12-1.2-.12-2.25c0-.77,0-1.57.12-2.39.05-.66.13-1.28.22-1.88.61-.06,1.23-.1,1.88-.1a6.49,6.49,0,0,1,2.36.35,2.13,2.13,0,0,1,1.19,1.22,7.16,7.16,0,0,1,.33,2.44v3.79h-5.85C283.6,701.69,283.56,701.3,283.52,700.88Z"/><rect class="cls-4" x="311.21" y="683.7" width="4.88" height="22.57"/><path class="cls-4" d="M323.88,691.05a6,6,0,0,0-2.76,2.76,10.07,10.07,0,0,0-.92,4.53,9.57,9.57,0,0,0,.92,4.43,5.74,5.74,0,0,0,2.76,2.63,10.59,10.59,0,0,0,4.54.87H331v1a2.84,2.84,0,0,1-1,2.35,5.13,5.13,0,0,1-3.15.77c-.51,0-1.14,0-1.88-.1s-1.63-.16-2.68-.29l-.74,3.92c1,.21,1.88.38,2.76.5a18.79,18.79,0,0,0,2.54.17,11.77,11.77,0,0,0,4.75-.88,7.13,7.13,0,0,0,3.15-2.54,6.75,6.75,0,0,0,1.12-3.9V690.12h-7.48A10,10,0,0,0,323.88,691.05Zm4.54,11a6.45,6.45,0,0,1-1.93-.24,1.71,1.71,0,0,1-1.06-1,9.46,9.46,0,0,1,.05-5.06,1.94,1.94,0,0,1,1.11-1.12,5.33,5.33,0,0,1,1.83-.28H331v7.74Z"/><path class="cls-4" d="M365.8,702.06h-8.29a19.39,19.39,0,0,1-2.68-.17,5.38,5.38,0,0,1-2-.66,3.11,3.11,0,0,1-1.22-1.3,4.54,4.54,0,0,1-.42-2.07,13.1,13.1,0,0,1,.11-1.62c.08-.57.17-1.11.27-1.63s.2-.93.26-1.25l-4.78-.93c-.05.21-.11.52-.2.92s-.17.85-.25,1.36-.16,1-.23,1.61a14.85,14.85,0,0,0-.09,1.6,8,8,0,0,0,1.25,4.59,7.56,7.56,0,0,0,3.69,2.81,16.61,16.61,0,0,0,6,.95h13.49V690.12H365.8Z"/><rect class="cls-4" x="353.05" y="685.17" width="4.69" height="3.92"/><rect class="cls-4" x="359.38" y="685.17" width="4.69" height="3.92"/><rect class="cls-4" x="375.3" y="683.7" width="4.88" height="22.57"/><path class="cls-4" d="M387,706.72a4.48,4.48,0,0,1-.69,2.7,2.22,2.22,0,0,1-1.88.93l-.7,0c-.33,0-.66,0-1,0l-.16,4.15c.37,0,.72,0,1.06.08s.63,0,.87,0a7.46,7.46,0,0,0,3.88-1,6.78,6.78,0,0,0,2.6-2.78,8.65,8.65,0,0,0,.93-4.06v-16.6H387Z"/><rect class="cls-4" x="396.85" y="683.7" width="4.88" height="22.57"/><path class="cls-4" d="M505,693.38a6.37,6.37,0,0,0-2.42-1.88,8.55,8.55,0,0,0-3.57-.68h-4.59l.65-1.22c.19-.38.4-.77.62-1.15l.82-1.38c.32-.54.75-1.19,1.28-2l-4.14-2.31L492.26,685c-.37.59-.67,1.08-.9,1.48s-.42.75-.59,1.07l-1.7,3.24L492,695h7.06a2.94,2.94,0,0,1,1.64.42,2.57,2.57,0,0,1,1,1.38,7.94,7.94,0,0,1,.34,2.6v2.63H484.09v-4.59a16.55,16.55,0,0,0-.16-2q-.17-1.29-.39-2.73c-.15-1-.3-1.83-.45-2.6l-4.81.74c.17.92.32,1.82.46,2.71s.25,1.68.33,2.38.11,1.2.11,1.52v4.59h-3.47a3,3,0,0,1-1.16-.24,3.89,3.89,0,0,1-.63-.34,14.94,14.94,0,0,0,.44-3.85v-5.81h-4.91v5.81a14.43,14.43,0,0,1-.21,2.88,1.83,1.83,0,0,1-.74,1.25,3.12,3.12,0,0,1-1.52.3H464.7v-8.63h-4.92v8.63h-7v-4.59a16.94,16.94,0,0,0-.17-2c-.1-.86-.23-1.77-.38-2.73s-.3-1.83-.45-2.6l-4.82.74c.17.92.33,1.82.47,2.71s.24,1.68.32,2.38.11,1.2.11,1.52v4.59h-3.47a3,3,0,0,1-1.15-.24,3.89,3.89,0,0,1-.63-.34,14.94,14.94,0,0,0,.44-3.85v-5.81h-4.92v5.81a14.43,14.43,0,0,1-.21,2.88,1.82,1.82,0,0,1-.73,1.25,3.19,3.19,0,0,1-1.53.3h-2.28v-8.63h-4.91v8.63h-7V690.12h-7.48a10.08,10.08,0,0,0-4.55.93,6,6,0,0,0-2.76,2.76,10.07,10.07,0,0,0-.91,4.53,9.57,9.57,0,0,0,.91,4.43,5.74,5.74,0,0,0,2.76,2.63,10.67,10.67,0,0,0,4.55.87h2.57v1a2.82,2.82,0,0,1-1,2.35,5.08,5.08,0,0,1-3.14.77c-.52,0-1.14,0-1.88-.1S409,710.09,408,710l-.74,3.92c1,.21,1.88.38,2.76.5a18.68,18.68,0,0,0,2.54.17,11.77,11.77,0,0,0,4.75-.88,7.13,7.13,0,0,0,3.15-2.54,6.75,6.75,0,0,0,1.12-3.9v-1H435.7a8.52,8.52,0,0,0,4.16-.9,4.5,4.5,0,0,0,.45-.31,7.76,7.76,0,0,0,1.35.68,7.65,7.65,0,0,0,2.77.53H467a8.48,8.48,0,0,0,4.15-.9,3.7,3.7,0,0,0,.46-.31,8,8,0,0,0,1.34.68,7.71,7.71,0,0,0,2.78.53h31.18v-6.84a11.77,11.77,0,0,0-.45-3.31A8.08,8.08,0,0,0,505,693.38Zm-91,8.68a6.4,6.4,0,0,1-1.93-.24,1.71,1.71,0,0,1-1.06-1,7.09,7.09,0,0,1-.32-2.44,6.89,6.89,0,0,1,.37-2.62,1.94,1.94,0,0,1,1.11-1.12,5.33,5.33,0,0,1,1.83-.28h2.57v7.74Z"/><path class="cls-4" d="M516.71,713.91a1.86,1.86,0,0,1-.16-.74,1.45,1.45,0,0,1,.42-1.06,1.61,1.61,0,0,1,1.19-.41,3,3,0,0,1,.59.06,1.91,1.91,0,0,1,.6.23l1.15-2.16a3.3,3.3,0,0,0-1.12-.49,5.22,5.22,0,0,0-1.35-.18,4.59,4.59,0,0,0-2.18.53,4.3,4.3,0,0,0-1.61,1.44,3.73,3.73,0,0,0-.61,2.11,3.31,3.31,0,0,0,.09.77h-.83v2.5h8.29V714h-4.41Z"/><polygon class="cls-4" points="524.58 702.06 519.51 702.06 519.51 688.16 514.6 688.16 514.6 702.06 510.36 702.06 510.36 706.27 529.49 706.27 529.49 683.7 524.58 683.7 524.58 702.06"/><rect class="cls-4" x="534.6" y="683.7" width="4.88" height="22.57"/><path class="cls-4" d="M642,690.12h-4.91v16.6a4.48,4.48,0,0,1-.69,2.7,2.22,2.22,0,0,1-1.88.93l-.71,0c-.32,0-.65,0-1,0l-.16,4.15c.36,0,.71,0,1.06.08s.63,0,.86,0a7.5,7.5,0,0,0,3.89-1,6.84,6.84,0,0,0,2.6-2.78,8.65,8.65,0,0,0,.93-4.06Z"/><path class="cls-4" d="M687.21,706.27h10.57V690.12h-4.92v11.94h-9v-2.63a11.77,11.77,0,0,0-.45-3.31,7.91,7.91,0,0,0-1.4-2.74,6.37,6.37,0,0,0-2.42-1.88,8.53,8.53,0,0,0-3.56-.68h-4.6l.65-1.22c.19-.38.4-.77.62-1.15l.82-1.38c.32-.54.75-1.19,1.29-2l-4.15-2.31c-.57.9-1,1.64-1.43,2.23s-.67,1.08-.89,1.48-.43.75-.6,1.07l-1.7,3.24,2.92,4.21H676a2.92,2.92,0,0,1,1.63.42,2.57,2.57,0,0,1,1,1.38,7.94,7.94,0,0,1,.34,2.6v2.63H661V690.12h-7.48a10,10,0,0,0-4.54.93,6,6,0,0,0-2.76,2.76,10.07,10.07,0,0,0-.92,4.53,9.57,9.57,0,0,0,.92,4.43A5.74,5.74,0,0,0,649,705.4a10.59,10.59,0,0,0,4.54.87h2.57v1a2.84,2.84,0,0,1-1,2.35,5.11,5.11,0,0,1-3.15.77c-.51,0-1.14,0-1.88-.1s-1.63-.16-2.68-.29l-.74,3.92c1,.21,1.89.38,2.76.5a18.79,18.79,0,0,0,2.54.17,11.77,11.77,0,0,0,4.75-.88,7.13,7.13,0,0,0,3.15-2.54,6.75,6.75,0,0,0,1.12-3.9v-1h26.17Zm-33.65-4.21a6.45,6.45,0,0,1-1.93-.24,1.67,1.67,0,0,1-1-1,6.81,6.81,0,0,1-.33-2.44,7.1,7.1,0,0,1,.37-2.62,1.94,1.94,0,0,1,1.11-1.12,5.33,5.33,0,0,1,1.83-.28h2.57v7.74Z"/><rect class="cls-4" x="688.34" y="709.54" width="4.69" height="3.92"/><rect class="cls-4" x="694.66" y="709.54" width="4.69" height="3.92"/><path class="cls-4" d="M717.91,706.27h8.48V683.7h-4.92v18.36h-6.9V700a12.25,12.25,0,0,0-1.12-5.64,7,7,0,0,0-3.28-3.19,12.06,12.06,0,0,0-5.26-1H702.3v4.2h2.61a6.59,6.59,0,0,1,2.82.5,2.93,2.93,0,0,1,1.48,1.72,10.32,10.32,0,0,1,.45,3.44v2.08h-8.35v4.21h16.6Z"/><rect class="cls-4" x="731.36" y="683.7" width="4.88" height="22.57"/><path class="cls-4" d="M744,691.05a6,6,0,0,0-2.76,2.76,10.07,10.07,0,0,0-.92,4.53,9.57,9.57,0,0,0,.92,4.43A5.74,5.74,0,0,0,744,705.4a10.64,10.64,0,0,0,4.55.87h2.56v1a2.84,2.84,0,0,1-1,2.35,5.09,5.09,0,0,1-3.15.77c-.51,0-1.14,0-1.87-.1s-1.64-.16-2.69-.29l-.73,3.92c1,.21,1.88.38,2.76.5a18.54,18.54,0,0,0,2.53.17,11.82,11.82,0,0,0,4.76-.88,7.15,7.15,0,0,0,3.14-2.54,6.76,6.76,0,0,0,1.13-3.9V690.12h-7.48A10.05,10.05,0,0,0,744,691.05Zm4.55,11a6.36,6.36,0,0,1-1.93-.24,1.68,1.68,0,0,1-1.06-1,9.46,9.46,0,0,1,0-5.06,1.89,1.89,0,0,1,1.11-1.12,5.33,5.33,0,0,1,1.83-.28h2.56v7.74Z"/><path class="cls-4" d="M784.6,710.51a7.07,7.07,0,0,0,1.22-4.14V683.7h-4.91v22.67a4,4,0,0,1-.42,1.84,3,3,0,0,1-1.41,1.32,6.1,6.1,0,0,1-2.7.5,6.76,6.76,0,0,1-2.73-.49,3.53,3.53,0,0,1-2.28-3.43c0-.39,0-1,.13-1.78s.21-1.79.37-3,.35-2.46.56-3.9l-4.85-.64c-.12.86-.26,1.74-.4,2.65s-.26,1.79-.37,2.65-.19,1.63-.25,2.33-.1,1.25-.1,1.68a7.15,7.15,0,0,0,1.28,4.18,8.72,8.72,0,0,0,3.54,2.87,11.89,11.89,0,0,0,5.1,1,11.48,11.48,0,0,0,4.87-1A8,8,0,0,0,784.6,710.51Z"/><rect class="cls-4" x="803.61" y="683.21" width="4.95" height="3.92"/><rect class="cls-4" x="792.02" y="683.21" width="4.95" height="3.92"/><path class="cls-4" d="M831.16,702.06v-3.75a10.2,10.2,0,0,0-1-4.85,5.64,5.64,0,0,0-2.92-2.6,12.83,12.83,0,0,0-4.9-.81,22.35,22.35,0,0,0-3.71.29,15.67,15.67,0,0,0-2.45.58c-.13.47-.27,1.11-.42,1.93s-.27,1.72-.37,2.71-.14,2-.14,3.07,0,2,.13,3c0,.16,0,.31.05.46h-6.93V690.12h-4.88v3.21h-6.71v-3.21H792v16.6a4.48,4.48,0,0,1-.69,2.7,2.22,2.22,0,0,1-1.88.93l-.71,0c-.32,0-.65,0-1,0l-.16,4.15c.36,0,.72,0,1.06.08s.63,0,.86,0a7.48,7.48,0,0,0,3.89-1,6.84,6.84,0,0,0,2.6-2.78,8.65,8.65,0,0,0,.93-4.06v-9.15h6.71v8.7H843V683.7h-4.91v18.36h-6.91Zm-10.9-1.18c-.08-.8-.11-1.55-.11-2.25s0-1.57.11-2.39c.06-.66.14-1.28.22-1.88.62-.06,1.24-.1,1.88-.1a6.41,6.41,0,0,1,2.36.35,2.1,2.1,0,0,1,1.19,1.22,6.89,6.89,0,0,1,.34,2.44v3.79h-5.86C820.34,701.69,820.3,701.3,820.26,700.88Z"/><rect class="cls-4" x="847.96" y="683.7" width="4.88" height="22.57"/><path class="cls-4" d="M1291.13,509.4a10.64,10.64,0,0,0,4.55.87h36.12v-7.19a12,12,0,0,0-.48-3.42,8.7,8.7,0,0,0-1.46-2.88,6.81,6.81,0,0,0-2.51-2,8.52,8.52,0,0,0-3.61-.7,10.92,10.92,0,0,0-2.79.32,7.33,7.33,0,0,0-2.17,1,11.19,11.19,0,0,0-1.91,1.62c-.49.53-1,1.14-1.57,1.81v-4.71h-4.92v11.94h-7.22V494.12h-7.48a10.05,10.05,0,0,0-4.55.93,6,6,0,0,0-2.76,2.76,10.07,10.07,0,0,0-.91,4.53,9.57,9.57,0,0,0,.91,4.43A5.74,5.74,0,0,0,1291.13,509.4Zm24.17-6c.28-.35.58-.7.91-1.07a18.17,18.17,0,0,1,2-1.93,10.91,10.91,0,0,1,2.31-1.48,6.22,6.22,0,0,1,2.62-.58,3.91,3.91,0,0,1,2,.49,3.15,3.15,0,0,1,1.3,1.51,6.75,6.75,0,0,1,.47,2.76v3H1315.3Zm-22.56-3.66a1.89,1.89,0,0,1,1.11-1.12,5.33,5.33,0,0,1,1.83-.28h2.57v7.74h-2.57a6.36,6.36,0,0,1-1.93-.24,1.68,1.68,0,0,1-1.06-1,7.09,7.09,0,0,1-.32-2.44A6.89,6.89,0,0,1,1292.74,499.72Z"/><rect class="cls-4" x="1296.67" y="487.21" width="4.69" height="3.92"/><rect class="cls-4" x="1290.35" y="487.21" width="4.69" height="3.92"/><rect class="cls-4" x="1319.02" y="487.25" width="4.94" height="3.92"/><polygon class="cls-4" points="1345.22 510.27 1355.79 510.27 1355.79 494.12 1350.87 494.12 1350.87 506.06 1345.22 506.06 1341.66 506.06 1341.66 487.7 1336.78 487.7 1336.78 510.27 1341.66 510.27 1345.22 510.27"/><rect class="cls-4" x="1352.67" y="513.54" width="4.69" height="3.92"/><rect class="cls-4" x="1346.35" y="513.54" width="4.69" height="3.92"/><path class="cls-4" d="M1361.44,518.55a7.44,7.44,0,0,0,3.88-1,6.78,6.78,0,0,0,2.6-2.78,8.65,8.65,0,0,0,.94-4.06v-.45h11.81V487.7h-4.91v18.36h-6.9V494.12h-4.92v16.6a4.48,4.48,0,0,1-.69,2.7,2.21,2.21,0,0,1-1.88.93l-.7,0c-.32,0-.66,0-1,0l-.16,4.15c.37,0,.72,0,1.06.08S1361.2,518.55,1361.44,518.55Z"/><rect class="cls-4" x="1385.65" y="487.7" width="4.88" height="22.57"/><path class="cls-4" d="M1405.48,325.88a11.94,11.94,0,0,0,5.11,1.05,11.56,11.56,0,0,0,4.86-1,8,8,0,0,0,3.36-2.75,7.12,7.12,0,0,0,1.22-4.14V296.39h-4.91v22.67a4,4,0,0,1-.42,1.85,3.06,3.06,0,0,1-1.41,1.31,6,6,0,0,1-2.7.5,7,7,0,0,1-2.73-.48,3.71,3.71,0,0,1-1.7-1.36,3.67,3.67,0,0,1-.58-2.08,17.38,17.38,0,0,1,.13-1.78c.08-.8.21-1.79.37-2.95s.34-2.47.56-3.9l-4.85-.65c-.13.86-.26,1.74-.4,2.65s-.26,1.8-.37,2.65-.19,1.63-.26,2.33-.09,1.26-.09,1.69A7.05,7.05,0,0,0,1402,323,8.61,8.61,0,0,0,1405.48,325.88Z"/><rect class="cls-4" x="1442.28" y="295.91" width="4.95" height="3.92"/><path class="cls-4" d="M1476.83,305.48a6.72,6.72,0,0,0-2.52-2,8.55,8.55,0,0,0-3.61-.71,9.43,9.43,0,0,0-3.52.6,9.15,9.15,0,0,0-2.74,1.7,18.92,18.92,0,0,0-2.15,2.28v-11h-4.92v18.37h-5.58V302.81h-7.49a9.9,9.9,0,0,0-4.54.95,6.17,6.17,0,0,0-2.76,2.75,9.57,9.57,0,0,0-.92,4.39,10.37,10.37,0,0,0,.65,3.86h-6.81V296.39H1425V319h53.72v-7.19a12.34,12.34,0,0,0-.47-3.42A8,8,0,0,0,1476.83,305.48Zm-34.5,9a1.71,1.71,0,0,1-1-1.07,7.9,7.9,0,0,1-.3-2.53,7.34,7.34,0,0,1,.3-2.37,2,2,0,0,1,1-1.17,4.65,4.65,0,0,1,2-.34h2.57v7.74h-2.57A6.09,6.09,0,0,1,1442.33,314.5Zm20-2.43c.28-.35.58-.7.89-1.07a18.09,18.09,0,0,1,2-1.93,10.87,10.87,0,0,1,2.31-1.47,6,6,0,0,1,2.62-.58,3.94,3.94,0,0,1,2,.48,3.19,3.19,0,0,1,1.3,1.51,6.82,6.82,0,0,1,.47,2.76v3h-11.56Z"/><polygon class="cls-4" points="1496.42 314.76 1491.35 314.76 1491.35 300.85 1486.43 300.85 1486.43 314.76 1482.19 314.76 1482.19 318.96 1501.33 318.96 1501.33 296.39 1496.42 296.39 1496.42 314.76"/><path class="cls-4" d="M1493,295.84h-4.41l-.06-.09a1.89,1.89,0,0,1-.16-.74,1.43,1.43,0,0,1,.42-1.06,1.6,1.6,0,0,1,1.19-.42,2.44,2.44,0,0,1,.59.07,2.08,2.08,0,0,1,.6.22l1.15-2.15a3.51,3.51,0,0,0-1.12-.5,5.67,5.67,0,0,0-1.35-.17,4.48,4.48,0,0,0-2.18.53,4.3,4.3,0,0,0-1.61,1.44,3.67,3.67,0,0,0-.61,2.1,3.25,3.25,0,0,0,.09.77h-.83v2.51H1493Z"/><rect class="cls-4" x="1506.44" y="296.39" width="4.88" height="22.57"/><rect class="cls-4" x="1024.91" y="683.21" width="4.69" height="3.92"/><rect class="cls-4" x="1031.23" y="683.21" width="4.69" height="3.92"/><rect class="cls-4" x="1049.86" y="683.21" width="4.95" height="3.92"/><rect class="cls-4" x="1063.82" y="709.54" width="4.69" height="3.92"/><rect class="cls-4" x="1070.15" y="709.54" width="4.69" height="3.92"/><path class="cls-4" d="M1081,702.06h-7.74V690.12h-4.91v11.94h-9V690.12h-7.48a9.74,9.74,0,0,0-4.54,1,6.12,6.12,0,0,0-2.77,2.74,9.64,9.64,0,0,0-.91,4.4,10.33,10.33,0,0,0,.64,3.85h-6.58V690.12h-7.48a10.05,10.05,0,0,0-4.55.93,6,6,0,0,0-2.76,2.76,10.07,10.07,0,0,0-.91,4.53,9.57,9.57,0,0,0,.91,4.43,5.74,5.74,0,0,0,2.76,2.63,10.64,10.64,0,0,0,4.55.87h55.68V683.7H1081Zm-52.69-.24a1.68,1.68,0,0,1-1.06-1,7.09,7.09,0,0,1-.32-2.44,6.89,6.89,0,0,1,.37-2.62,1.89,1.89,0,0,1,1.11-1.12,5.33,5.33,0,0,1,1.83-.28h2.57v7.74h-2.57A6.4,6.4,0,0,1,1028.31,701.82Zm21.6,0a1.66,1.66,0,0,1-1-1.08,7.55,7.55,0,0,1-.31-2.52,7.06,7.06,0,0,1,.31-2.38,2,2,0,0,1,1-1.17,4.78,4.78,0,0,1,2-.34h2.57v7.74h-2.57A6.09,6.09,0,0,1,1049.91,701.81Z"/><polygon class="cls-4" points="1103.58 702.06 1098.5 702.06 1098.5 688.16 1093.59 688.16 1093.59 702.06 1089.35 702.06 1089.35 706.27 1108.49 706.27 1108.49 683.7 1103.58 683.7 1103.58 702.06"/><path class="cls-4" d="M1094.84,678.83a4.3,4.3,0,0,0-1.6,1.45,3.67,3.67,0,0,0-.61,2.1,3.31,3.31,0,0,0,.09.77h-.83v2.51h8.28v-2.51h-4.41a.93.93,0,0,1,0-.1,1.69,1.69,0,0,1-.16-.73,1.42,1.42,0,0,1,.42-1.06,1.57,1.57,0,0,1,1.18-.42,3.13,3.13,0,0,1,.6.06,2.26,2.26,0,0,1,.59.23l1.16-2.15a3.4,3.4,0,0,0-1.12-.5,5.22,5.22,0,0,0-1.35-.18A4.63,4.63,0,0,0,1094.84,678.83Z"/><rect class="cls-4" x="1113.6" y="683.7" width="4.88" height="22.57"/><rect class="cls-4" x="1136.3" y="685.17" width="4.69" height="3.92"/><path class="cls-4" d="M1149,702.06h-8.28a19.28,19.28,0,0,1-2.68-.17,5.5,5.5,0,0,1-2-.66,3.25,3.25,0,0,1-1.22-1.3,4.55,4.55,0,0,1-.41-2.07,11.41,11.41,0,0,1,.11-1.62c.07-.57.16-1.11.27-1.63s.19-.93.26-1.25l-4.79-.93c0,.21-.1.52-.19.92s-.17.85-.26,1.36-.16,1-.22,1.61a12.72,12.72,0,0,0-.1,1.6,8,8,0,0,0,1.26,4.59,7.56,7.56,0,0,0,3.69,2.81,16.57,16.57,0,0,0,6,.95H1154V690.12H1149Z"/><rect class="cls-4" x="1142.62" y="685.17" width="4.69" height="3.92"/><rect class="cls-4" x="1170.33" y="683.21" width="4.94" height="3.92"/><polygon class="cls-4" points="1170.33 702.06 1166.99 702.06 1163.43 702.06 1163.43 683.7 1158.55 683.7 1158.55 706.27 1163.43 706.27 1166.99 706.27 1175.25 706.27 1175.25 690.12 1170.33 690.12 1170.33 702.06"/><rect class="cls-4" x="1180.35" y="683.7" width="4.88" height="22.57"/><rect class="cls-4" x="1209.51" y="709.54" width="4.69" height="3.92"/><rect class="cls-4" x="1215.83" y="709.54" width="4.69" height="3.92"/><path class="cls-4" d="M1247,702.06H1240v-3.88a7.56,7.56,0,0,0-1.2-4.32,8,8,0,0,0-3.29-2.76,11.23,11.23,0,0,0-4.79-1,17,17,0,0,0-2.71.22c-.93.15-1.85.33-2.75.55l.45,3.85c1-.13,1.81-.22,2.6-.29s1.43-.09,1.9-.09a5.67,5.67,0,0,1,3.72,1,3.52,3.52,0,0,1,1.16,2.84v3.88H1219V690.12H1214v11.94h-9V690.12h-7.48a10,10,0,0,0-4.54.93,6,6,0,0,0-2.76,2.76,10.07,10.07,0,0,0-.92,4.53,9.57,9.57,0,0,0,.92,4.43,5.74,5.74,0,0,0,2.76,2.63,10.59,10.59,0,0,0,4.54.87h2.57v1a2.84,2.84,0,0,1-1,2.35,5.09,5.09,0,0,1-3.15.77c-.51,0-1.14,0-1.88-.1s-1.63-.16-2.68-.29l-.74,3.92c1,.21,1.89.38,2.76.5a18.79,18.79,0,0,0,2.54.17,11.77,11.77,0,0,0,4.75-.88,7.13,7.13,0,0,0,3.15-2.54,6.75,6.75,0,0,0,1.12-3.9v-1h46.82V683.7H1247Zm-49.39,0a6.33,6.33,0,0,1-1.92-.24,1.66,1.66,0,0,1-1.06-1,6.81,6.81,0,0,1-.33-2.44,7.1,7.1,0,0,1,.37-2.62,1.94,1.94,0,0,1,1.11-1.12,5.33,5.33,0,0,1,1.83-.28h2.57v7.74Z"/><rect class="cls-4" x="1256.84" y="683.7" width="4.88" height="22.57"/><rect class="cls-4" x="1279.54" y="685.17" width="4.69" height="3.92"/><path class="cls-4" d="M1292.29,702.06H1284a19.39,19.39,0,0,1-2.68-.17,5.38,5.38,0,0,1-2-.66,3.11,3.11,0,0,1-1.22-1.3,4.54,4.54,0,0,1-.42-2.07,13.1,13.1,0,0,1,.11-1.62c.08-.57.17-1.11.27-1.63s.2-.93.26-1.25l-4.78-.93c0,.21-.11.52-.2.92s-.17.85-.25,1.36-.16,1-.23,1.61a14.85,14.85,0,0,0-.09,1.6,8,8,0,0,0,1.25,4.59,7.56,7.56,0,0,0,3.69,2.81,16.61,16.61,0,0,0,6,.95h13.49V690.12h-4.91Z"/><rect class="cls-4" x="1285.87" y="685.17" width="4.69" height="3.92"/><path class="cls-4" d="M1325.6,690.86a12.8,12.8,0,0,0-4.9-.81,22.22,22.22,0,0,0-3.7.29,15.57,15.57,0,0,0-2.46.58c-.13.47-.27,1.11-.42,1.93s-.27,1.72-.37,2.71-.14,2-.14,3.07,0,2,.13,3c0,.16,0,.31,0,.46h-7.12V683.7h-4.88v22.57h27.71v-8a10.08,10.08,0,0,0-1-4.85A5.64,5.64,0,0,0,1325.6,690.86Zm-7,10c-.07-.8-.11-1.55-.11-2.25s0-1.57.11-2.39c.06-.66.14-1.28.22-1.88.62-.06,1.24-.1,1.88-.1a6.41,6.41,0,0,1,2.36.35,2.1,2.1,0,0,1,1.19,1.22,6.89,6.89,0,0,1,.34,2.44v3.79h-5.86C1318.68,701.69,1318.64,701.3,1318.6,700.88Z"/><rect class="cls-4" x="1335.67" y="683.21" width="4.95" height="3.92"/><rect class="cls-4" x="1364.7" y="683.21" width="4.69" height="3.92"/><rect class="cls-4" x="1358.37" y="683.21" width="4.69" height="3.92"/><path class="cls-4" d="M1417.12,690.86a12.83,12.83,0,0,0-4.9-.81,22.26,22.26,0,0,0-3.71.29,16.16,16.16,0,0,0-2.46.58c-.12.47-.26,1.11-.41,1.93s-.28,1.72-.37,2.71-.15,2-.15,3.07.05,2,.13,3c0,.16,0,.31,0,.46h-6.89v-4.59a16.55,16.55,0,0,0-.16-2c-.11-.86-.24-1.77-.38-2.73s-.31-1.83-.45-2.6l-4.82.74c.17.92.32,1.82.46,2.71s.25,1.68.33,2.38.11,1.2.11,1.52v4.59H1390a3,3,0,0,1-1.16-.24,3.89,3.89,0,0,1-.63-.34,14.94,14.94,0,0,0,.44-3.85v-5.81h-4.91v5.81a14.43,14.43,0,0,1-.21,2.88,1.83,1.83,0,0,1-.74,1.25,3.12,3.12,0,0,1-1.52.3H1379v-8.63h-4.92v8.63h-7.8V690.12h-4.91v11.94h-9V683.7h-4.92v18.36h-6.9V690.12h-4.91v16.6a4.48,4.48,0,0,1-.69,2.7,2.22,2.22,0,0,1-1.88.93l-.71,0c-.32,0-.65,0-1,0l-.16,4.15c.36,0,.71,0,1.06.08s.63,0,.86,0a7.48,7.48,0,0,0,3.89-1,6.84,6.84,0,0,0,2.6-2.78,8.65,8.65,0,0,0,.93-4.06v-.45h40.72a8.48,8.48,0,0,0,4.15-.9,3.7,3.7,0,0,0,.46-.31,8,8,0,0,0,1.34.68,7.71,7.71,0,0,0,2.78.53h31v-8a10.2,10.2,0,0,0-1-4.85A5.71,5.71,0,0,0,1417.12,690.86Zm-7,10q-.12-1.2-.12-2.25c0-.77,0-1.57.12-2.39.05-.66.13-1.28.22-1.88.61-.06,1.24-.1,1.88-.1a6.49,6.49,0,0,1,2.36.35,2.13,2.13,0,0,1,1.19,1.22,7.16,7.16,0,0,1,.33,2.44v3.79h-5.85C1410.2,701.69,1410.16,701.3,1410.12,700.88Z"/><rect class="cls-4" x="20.36" y="205.91" width="4.69" height="3.92"/><rect class="cls-4" x="14.03" y="205.91" width="4.69" height="3.92"/><rect class="cls-4" x="37.63" y="232.24" width="4.69" height="3.92"/><rect class="cls-4" x="31.31" y="232.24" width="4.69" height="3.92"/><path class="cls-4" d="M50.41,207.26a1.89,1.89,0,0,1-.16-.74,1.43,1.43,0,0,1,.42-1.06,1.6,1.6,0,0,1,1.19-.42,2.44,2.44,0,0,1,.59.07,2,2,0,0,1,.6.22l1.15-2.15a3.51,3.51,0,0,0-1.12-.5,5.21,5.21,0,0,0-1.35-.17,4.48,4.48,0,0,0-2.18.53,4.3,4.3,0,0,0-1.61,1.44,3.67,3.67,0,0,0-.61,2.1,3.25,3.25,0,0,0,.09.77h-.83v2.51h8.29v-2.51H50.47Z"/><path class="cls-4" d="M48.26,224.76H40.75V212.81H35.83v11.95h-9V212.81H19.36a10,10,0,0,0-4.54.93,6.12,6.12,0,0,0-2.76,2.77,10,10,0,0,0-.92,4.52,9.54,9.54,0,0,0,.92,4.43,5.8,5.8,0,0,0,2.76,2.64,10.6,10.6,0,0,0,4.54.86H53.17V212.81H48.26Zm-30.82-.24a1.65,1.65,0,0,1-1.06-1.05,6.78,6.78,0,0,1-.33-2.44,7,7,0,0,1,.37-2.61,2,2,0,0,1,1.11-1.13,5.35,5.35,0,0,1,1.83-.27h2.57v7.74H19.36A6.33,6.33,0,0,1,17.44,224.52Z"/><rect class="cls-4" x="58.28" y="206.39" width="4.88" height="22.57"/><rect class="cls-4" x="68.65" y="205.91" width="4.95" height="3.92"/><rect class="cls-4" x="92.35" y="205.91" width="4.94" height="3.92"/><path class="cls-4" d="M109.27,224.76H99.88a15.94,15.94,0,0,0,1.54-1.66,14.1,14.1,0,0,0,1.94-3.17A7.53,7.53,0,0,0,104,217v-1.8a18.35,18.35,0,0,0-3-1.32,21.56,21.56,0,0,0-3.21-.81,16.71,16.71,0,0,0-2.94-.28,17,17,0,0,0-2.95.28,21,21,0,0,0-3.21.81,18.9,18.9,0,0,0-3,1.32V217a7.53,7.53,0,0,0,.68,2.91,13.74,13.74,0,0,0,1.94,3.17,17,17,0,0,0,1.53,1.66H80.53v-2.09A12.2,12.2,0,0,0,79.41,217a7,7,0,0,0-3.28-3.2,12.21,12.21,0,0,0-5.26-1h-2.6V217h2.6a6.59,6.59,0,0,1,2.82.5,2.91,2.91,0,0,1,1.48,1.71,10.36,10.36,0,0,1,.45,3.44v2.09H67.27V229H89.75a13.39,13.39,0,0,0,4.69-.8c.15,0,.29-.12.45-.18s.29.13.44.18a13.39,13.39,0,0,0,4.69.8h14.16V206.39h-4.91ZM94.88,217a12.73,12.73,0,0,1,3.23.45c.32.08.62.2.94.3a6.93,6.93,0,0,1-.33,1.24,9.1,9.1,0,0,1-1.12,2.07,10.55,10.55,0,0,1-1.69,1.85,9,9,0,0,1-1,.76,8.28,8.28,0,0,1-1-.76,10.18,10.18,0,0,1-1.69-1.85A9.1,9.1,0,0,1,91.05,219a6.13,6.13,0,0,1-.32-1.24c.31-.1.61-.22.93-.3A12.72,12.72,0,0,1,94.88,217Z"/><rect class="cls-4" x="119.16" y="206.39" width="4.88" height="22.57"/><rect class="cls-4" x="148.19" y="207.87" width="4.69" height="3.92"/><rect class="cls-4" x="141.86" y="207.87" width="4.69" height="3.92"/><path class="cls-4" d="M140.06,228a16.64,16.64,0,0,0,6,.94h13.48V212.81h-4.91v11.95h-8.28a17.89,17.89,0,0,1-2.69-.18,5.38,5.38,0,0,1-2-.66,3.12,3.12,0,0,1-1.22-1.3,4.48,4.48,0,0,1-.42-2.07,13.36,13.36,0,0,1,.11-1.62c.08-.57.17-1.11.28-1.62s.19-.93.25-1.25l-4.78-.94c0,.22-.11.52-.19.92s-.18.85-.26,1.36-.16,1-.23,1.61a15,15,0,0,0-.09,1.61,8.07,8.07,0,0,0,1.25,4.59A7.65,7.65,0,0,0,140.06,228Z"/><path class="cls-4" d="M185.05,229H261.6V206.39h-4.91v18.37h-6.91V221a10.11,10.11,0,0,0-1-4.85,5.68,5.68,0,0,0-2.92-2.6,13,13,0,0,0-4.89-.8,21.24,21.24,0,0,0-3.71.29,13.59,13.59,0,0,0-2.46.58q-.19.7-.42,1.92c-.15.82-.27,1.72-.37,2.72s-.14,2-.14,3.06,0,2,.13,3c0,.17,0,.31,0,.47h-6.92v-2.64a11.75,11.75,0,0,0-.45-3.3,8.13,8.13,0,0,0-1.4-2.75,6.46,6.46,0,0,0-2.42-1.88,8.58,8.58,0,0,0-3.57-.67h-4.59l.64-1.22c.19-.39.4-.77.63-1.16l.82-1.38c.32-.53.75-1.19,1.28-2L214,205.49c-.58.9-1.06,1.64-1.43,2.23s-.67,1.08-.9,1.48l-.59,1.08-1.7,3.24,2.92,4.21h7.06a3,3,0,0,1,1.64.41,2.63,2.63,0,0,1,1,1.38,8.27,8.27,0,0,1,.34,2.6v2.64H204.35V221a10.23,10.23,0,0,0-1-4.85,5.72,5.72,0,0,0-2.92-2.6,13,13,0,0,0-4.9-.8,21.24,21.24,0,0,0-3.71.29,14,14,0,0,0-2.46.58c-.12.47-.26,1.11-.41,1.92s-.28,1.72-.37,2.72a30.44,30.44,0,0,0-.15,3.06c0,1.05.05,2,.13,3,0,.17,0,.31,0,.47h-6.92V206.39H176.8v18.37h-5.08V210.85h-4.91v13.91h-4.24V229h22.48Zm53.83-5.39c-.07-.79-.11-1.54-.11-2.25s0-1.57.11-2.39c.06-.66.15-1.27.23-1.88.61-.06,1.23-.09,1.88-.09a6.28,6.28,0,0,1,2.36.35,2.06,2.06,0,0,1,1.18,1.22,6.85,6.85,0,0,1,.34,2.44v3.79H239C239,224.39,238.92,224,238.88,223.57Zm-45.43,0a22.37,22.37,0,0,1-.12-2.25c0-.77,0-1.57.12-2.39.06-.66.14-1.27.23-1.88.61-.06,1.23-.09,1.87-.09a6.24,6.24,0,0,1,2.36.35,2.08,2.08,0,0,1,1.19,1.22,7.08,7.08,0,0,1,.34,2.44v3.79h-5.86C193.53,224.39,193.49,224,193.45,223.57Z"/><rect class="cls-4" x="266.58" y="206.39" width="4.88" height="22.57"/><rect class="cls-4" x="263.18" y="365.5" width="3.28" height="3.05"/><path class="cls-4" d="M256.68,347.05q-1.47.24-3,.63l.48,3.82c1.05-.15,2-.26,2.83-.34s1.5-.11,2-.11a5.82,5.82,0,0,1,3.74,1,3.49,3.49,0,0,1,1.17,2.84v3.89h-2.82a11.83,11.83,0,0,0-4.74.88,7.2,7.2,0,0,0-3.16,2.52,7.36,7.36,0,0,0,0,7.84,7.2,7.2,0,0,0,3.16,2.52,11.83,11.83,0,0,0,4.74.88c.34,0,.69,0,1,0a8.88,8.88,0,0,0,1-.14l-.19-4.15c-.41.05-.76.08-1,.1l-.78,0a5,5,0,0,1-3.13-.77,2.77,2.77,0,0,1-1-2.34,2.8,2.8,0,0,1,1-2.35,5.08,5.08,0,0,1,3.13-.77h7.73v-8.09a7.56,7.56,0,0,0-1.2-4.32,8,8,0,0,0-3.29-2.76,11.27,11.27,0,0,0-4.82-1A17.64,17.64,0,0,0,256.68,347.05Z"/><polygon class="cls-4" points="291.21 340.39 286.3 340.39 286.3 358.76 281.23 358.76 281.23 344.85 276.31 344.85 276.31 358.76 272.07 358.76 272.07 362.96 291.21 362.96 291.21 340.39"/><rect class="cls-4" x="337.77" y="366.24" width="4.69" height="3.92"/><rect class="cls-4" x="344.1" y="366.24" width="4.69" height="3.92"/><path class="cls-4" d="M347.21,346.81H342.3v11.95h-9v-2.64a11.75,11.75,0,0,0-.45-3.3,8.13,8.13,0,0,0-1.4-2.75,6.46,6.46,0,0,0-2.42-1.88,8.58,8.58,0,0,0-3.57-.67h-4.59l.64-1.22c.2-.39.4-.77.63-1.16l.82-1.38c.32-.53.75-1.19,1.28-2l-4.14-2.31-1.43,2.23c-.37.59-.67,1.08-.9,1.48l-.59,1.08-1.7,3.24,2.92,4.21h7.06a3,3,0,0,1,1.64.41,2.63,2.63,0,0,1,1,1.38,8.27,8.27,0,0,1,.34,2.6v2.64H310.48V346.81H303a10.05,10.05,0,0,0-4.55.93,6.12,6.12,0,0,0-2.76,2.77,10,10,0,0,0-.91,4.52,9.54,9.54,0,0,0,.91,4.43,5.8,5.8,0,0,0,2.76,2.64A10.65,10.65,0,0,0,303,363h2.57v1a2.82,2.82,0,0,1-1,2.34,5,5,0,0,1-3.14.77c-.52,0-1.14,0-1.88-.09s-1.64-.16-2.68-.29l-.74,3.91a27.9,27.9,0,0,0,2.76.5,18.73,18.73,0,0,0,2.54.18,11.81,11.81,0,0,0,4.75-.88,7.11,7.11,0,0,0,3.14-2.54,6.76,6.76,0,0,0,1.13-3.9v-1h36.73ZM303,358.76a6.4,6.4,0,0,1-1.93-.24,1.67,1.67,0,0,1-1.06-1,7.05,7.05,0,0,1-.32-2.44,6.84,6.84,0,0,1,.37-2.61,1.91,1.91,0,0,1,1.11-1.13A5.35,5.35,0,0,1,303,351h2.57v7.74Z"/><rect class="cls-4" x="366.96" y="366.24" width="4.95" height="3.92"/><path class="cls-4" d="M383.72,363V340.39h-4.91v18.37h-6.94V346.81H367V350h-6.71v-3.21h-4.91v16.6a4.48,4.48,0,0,1-.69,2.7,2.22,2.22,0,0,1-1.88.93l-.71,0q-.48,0-1,0l-.16,4.14,1.06.08c.34,0,.63.05.86.05a7.39,7.39,0,0,0,3.89-1,6.88,6.88,0,0,0,2.6-2.77,8.69,8.69,0,0,0,.93-4.07v-9.15H367V363h16.73Z"/><rect class="cls-4" x="388.7" y="340.39" width="4.88" height="22.57"/><rect class="cls-4" x="411.4" y="341.87" width="4.69" height="3.92"/><path class="cls-4" d="M409.6,362a16.62,16.62,0,0,0,6,.94h13.49V346.81h-4.91v11.95h-8.29a17.85,17.85,0,0,1-2.68-.18,5.38,5.38,0,0,1-2-.66,3.06,3.06,0,0,1-1.22-1.3,4.48,4.48,0,0,1-.42-2.07,13.36,13.36,0,0,1,.11-1.62c.08-.57.17-1.11.28-1.62s.19-.93.25-1.25l-4.78-.94c-.05.22-.11.52-.2.92s-.17.85-.25,1.36-.16,1.05-.23,1.61a15,15,0,0,0-.09,1.61,8,8,0,0,0,1.25,4.59A7.56,7.56,0,0,0,409.6,362Z"/><rect class="cls-4" x="417.73" y="341.87" width="4.69" height="3.92"/><rect class="cls-4" x="433.65" y="340.39" width="4.88" height="22.57"/><path class="cls-4" d="M442.64,355a9.54,9.54,0,0,0,.92,4.43,5.8,5.8,0,0,0,2.76,2.64,10.6,10.6,0,0,0,4.54.86h2.57v1a2.81,2.81,0,0,1-1,2.34,5,5,0,0,1-3.15.77c-.51,0-1.14,0-1.88-.09s-1.63-.16-2.68-.29l-.74,3.91c1,.22,1.89.39,2.77.5a18.59,18.59,0,0,0,2.53.18,11.74,11.74,0,0,0,4.75-.88,7.2,7.2,0,0,0,3.15-2.54,6.75,6.75,0,0,0,1.12-3.9V346.81h-7.48a10,10,0,0,0-4.54.93,6.12,6.12,0,0,0-2.76,2.77A10,10,0,0,0,442.64,355Zm5.28-2.61a2,2,0,0,1,1.11-1.13,5.39,5.39,0,0,1,1.83-.27h2.57v7.74h-2.57a6.33,6.33,0,0,1-1.92-.24,1.65,1.65,0,0,1-1.06-1,6.82,6.82,0,0,1-.32-2.44A7.08,7.08,0,0,1,447.92,352.42Z"/><path class="cls-4" d="M475,356.67a12.2,12.2,0,0,0-1.12-5.63,7,7,0,0,0-3.28-3.2,12.21,12.21,0,0,0-5.26-1h-2.6V351h2.6a6.56,6.56,0,0,1,2.82.5,2.91,2.91,0,0,1,1.48,1.71,10.36,10.36,0,0,1,.45,3.44v2.09h-8.35V363H475Z"/><path class="cls-4" d="M479,332.57a3.75,3.75,0,0,0-.61,2.1,4.05,4.05,0,0,0,.09.78h-.82V338H486v-2.5h-4.41a.93.93,0,0,0-.05-.1,1.73,1.73,0,0,1-.16-.74,1.46,1.46,0,0,1,.41-1.06,1.61,1.61,0,0,1,1.19-.42,3.26,3.26,0,0,1,.6.07,2.22,2.22,0,0,1,.59.22l1.16-2.15a3.57,3.57,0,0,0-1.13-.5,5.67,5.67,0,0,0-1.35-.17,4.48,4.48,0,0,0-2.18.53A4.38,4.38,0,0,0,479,332.57Z"/><rect class="cls-4" x="479.38" y="340.39" width="4.88" height="22.57"/><rect class="cls-4" x="433.25" y="130.17" width="4.69" height="3.92"/><path class="cls-4" d="M425.13,150.32a16.61,16.61,0,0,0,6,1h13.49V135.12h-4.91v11.94h-8.29a19.28,19.28,0,0,1-2.68-.17,5.5,5.5,0,0,1-2-.66,3.25,3.25,0,0,1-1.22-1.3,4.68,4.68,0,0,1-.41-2.07,11.41,11.41,0,0,1,.11-1.62c.07-.57.17-1.11.27-1.63s.2-.93.26-1.25l-4.78-.93c0,.21-.11.52-.2.92s-.17.85-.25,1.36-.17,1-.23,1.61a14.93,14.93,0,0,0-.1,1.6,8,8,0,0,0,1.26,4.59A7.56,7.56,0,0,0,425.13,150.32Z"/><rect class="cls-4" x="426.93" y="130.17" width="4.69" height="3.92"/><polygon class="cls-4" points="457.63 151.27 468.19 151.27 472.36 151.27 480.62 151.27 480.62 135.12 475.7 135.12 475.7 147.06 472.36 147.06 468.19 147.06 468.19 135.12 463.28 135.12 463.28 147.06 457.63 147.06 454.06 147.06 454.06 128.7 449.18 128.7 449.18 151.27 454.06 151.27 457.63 151.27"/><rect class="cls-4" x="465.07" y="154.55" width="4.69" height="3.92"/><rect class="cls-4" x="458.75" y="154.55" width="4.69" height="3.92"/><rect class="cls-4" x="475.7" y="128.21" width="4.95" height="3.92"/><path class="cls-4" d="M487.86,150.4a10.59,10.59,0,0,0,4.54.87H495v1a2.84,2.84,0,0,1-1,2.35,5.13,5.13,0,0,1-3.15.77c-.51,0-1.14,0-1.88-.1s-1.63-.16-2.68-.29l-.74,3.92c1,.21,1.88.38,2.76.5a18.68,18.68,0,0,0,2.54.17,11.77,11.77,0,0,0,4.75-.88,7.13,7.13,0,0,0,3.15-2.54,6.75,6.75,0,0,0,1.12-3.9V135.12H492.4a10,10,0,0,0-4.54.93,6,6,0,0,0-2.76,2.76,9.94,9.94,0,0,0-.92,4.53,9.44,9.44,0,0,0,.92,4.43A5.74,5.74,0,0,0,487.86,150.4Zm1.6-9.68a1.94,1.94,0,0,1,1.11-1.12,5.33,5.33,0,0,1,1.83-.28H495v7.74H492.4a6.45,6.45,0,0,1-1.93-.24,1.71,1.71,0,0,1-1.06-1,9.46,9.46,0,0,1,0-5.06Z"/><rect class="cls-4" x="520.95" y="128.21" width="4.69" height="3.92"/><rect class="cls-4" x="514.62" y="128.21" width="4.69" height="3.92"/><path class="cls-4" d="M553.15,147.06h-6.93v-2.63a11.77,11.77,0,0,0-.45-3.31,8.08,8.08,0,0,0-1.4-2.74A6.37,6.37,0,0,0,542,136.5a8.58,8.58,0,0,0-3.57-.68h-4.59l.64-1.22c.19-.38.4-.77.63-1.15s.5-.85.82-1.38.75-1.19,1.28-2L533,127.8c-.58.9-1.06,1.64-1.43,2.23s-.67,1.08-.9,1.48-.42.75-.59,1.07l-1.7,3.24,2.92,4.21h7.06a3,3,0,0,1,1.64.42,2.63,2.63,0,0,1,1,1.38,8.22,8.22,0,0,1,.34,2.6v2.63H522.55V135.12h-4.88v3.21H511v-3.21h-4.91v16.6a4.48,4.48,0,0,1-.69,2.7,2.22,2.22,0,0,1-1.88.93l-.71,0c-.32,0-.65,0-1,0l-.16,4.15c.36,0,.71,0,1.06.08s.63,0,.86,0a7.5,7.5,0,0,0,3.89-1,6.84,6.84,0,0,0,2.6-2.78,8.65,8.65,0,0,0,.93-4.06v-9.15h6.71v8.7h40.4V128.7h-4.92Z"/><polygon class="cls-4" points="575.73 147.06 570.65 147.06 570.65 133.16 565.74 133.16 565.74 147.06 561.5 147.06 561.5 151.27 580.64 151.27 580.64 128.7 575.73 128.7 575.73 147.06"/><path class="cls-4" d="M567.86,158.91a1.7,1.7,0,0,1-.16-.74,1.45,1.45,0,0,1,.42-1.06,1.61,1.61,0,0,1,1.18-.41,3.13,3.13,0,0,1,.6.06,2,2,0,0,1,.59.23l1.16-2.16a3.36,3.36,0,0,0-1.13-.49,5.2,5.2,0,0,0-1.34-.18,4.63,4.63,0,0,0-2.19.53,4.28,4.28,0,0,0-1.6,1.44,3.7,3.7,0,0,0-.61,2.11,3.31,3.31,0,0,0,.09.77H564v2.5h8.28V159h-4.41Z"/><rect class="cls-4" x="585.74" y="128.7" width="4.88" height="22.57"/><rect class="cls-4" x="1180.11" y="149.36" width="4.69" height="3.92"/><path class="cls-4" d="M1178.31,169.51a16.61,16.61,0,0,0,6,1h13.49V154.3h-4.92v11.95h-8.28a17.75,17.75,0,0,1-2.68-.18,5.14,5.14,0,0,1-2-.66,3.18,3.18,0,0,1-1.22-1.3,4.62,4.62,0,0,1-.41-2.07,11.61,11.61,0,0,1,.11-1.62q.1-.85.27-1.62c.11-.51.19-.93.26-1.25l-4.79-.93c0,.21-.1.52-.19.91s-.17.85-.26,1.37-.16,1-.22,1.6a15.11,15.11,0,0,0-.1,1.61,8,8,0,0,0,1.26,4.59A7.56,7.56,0,0,0,1178.31,169.51Z"/><rect class="cls-4" x="1186.43" y="149.36" width="4.69" height="3.92"/><rect class="cls-4" x="1202.36" y="147.88" width="4.88" height="22.57"/><path class="cls-4" d="M1211.58,178.74a7.46,7.46,0,0,0,3.88-1,6.91,6.91,0,0,0,2.6-2.78,8.65,8.65,0,0,0,.93-4.06V154.3h-4.91v16.61a4.47,4.47,0,0,1-.69,2.69,2.22,2.22,0,0,1-1.88.93l-.71,0q-.48,0-1,0l-.16,4.14,1.06.08C1211.05,178.72,1211.34,178.74,1211.58,178.74Z"/><rect class="cls-4" x="1239.8" y="173.73" width="4.69" height="3.92"/><rect class="cls-4" x="1233.47" y="173.73" width="4.69" height="3.92"/><path class="cls-4" d="M1278.36,170.46h8.48V147.88h-4.91v18.37H1275v-4.59a16.84,16.84,0,0,0-.16-2c-.1-.85-.23-1.76-.38-2.72s-.3-1.83-.45-2.61l-4.82.74c.17.92.33,1.83.47,2.72s.24,1.68.32,2.37.11,1.21.11,1.53v4.59h-3.47a3,3,0,0,1-1.15-.24,4.86,4.86,0,0,1-.63-.34,15,15,0,0,0,.43-3.85V156h-4.91v5.81a14.39,14.39,0,0,1-.21,2.87,1.8,1.8,0,0,1-.73,1.25,3.07,3.07,0,0,1-1.53.31h-2.28v-8.64h-4.91v8.64h-7.81V154.3H1238v11.95h-9.21V147.88h-4.89v22.58h34a8.52,8.52,0,0,0,4.16-.9,4.5,4.5,0,0,0,.45-.31,7.76,7.76,0,0,0,1.35.68,7.65,7.65,0,0,0,2.77.53h11.72Z"/><rect class="cls-4" x="1291.82" y="147.88" width="4.88" height="22.57"/><rect class="cls-4" x="121.6" y="519.53" width="4.94" height="3.92"/><rect class="cls-4" x="140.06" y="545.57" width="4.95" height="3.92"/><path class="cls-4" d="M190.08,526.88a13,13,0,0,0-4.9-.8,22.26,22.26,0,0,0-3.71.29A14,14,0,0,0,179,527c-.12.47-.26,1.11-.41,1.92s-.28,1.72-.37,2.72a30.59,30.59,0,0,0-.15,3.06c0,1.05,0,2,.13,3,0,.17,0,.31,0,.47H172v-3a12.34,12.34,0,0,0-.46-3.42,8.2,8.2,0,0,0-1.46-2.87,6.88,6.88,0,0,0-2.52-2,8.59,8.59,0,0,0-3.62-.71,9.34,9.34,0,0,0-3.51.6,9.2,9.2,0,0,0-2.75,1.7,19.74,19.74,0,0,0-2.15,2.28v-11H150.6v18.37H145v-12h-4.92v12h-6.67V534.2a7.57,7.57,0,0,0-1.21-4.32,8,8,0,0,0-3.29-2.76,11.27,11.27,0,0,0-4.82-1,17.64,17.64,0,0,0-2.87.24c-1,.17-2,.37-3,.63l.48,3.82c1.05-.15,2-.26,2.83-.33s1.51-.12,2-.12a5.82,5.82,0,0,1,3.74,1,3.5,3.5,0,0,1,1.17,2.84v3.89h-2.82a11.83,11.83,0,0,0-4.74.88,7.2,7.2,0,0,0-3.16,2.52,7.36,7.36,0,0,0,0,7.84,7.2,7.2,0,0,0,3.16,2.52,11.83,11.83,0,0,0,4.74.88,20.28,20.28,0,0,0,2.53-.17c.88-.12,1.8-.28,2.77-.47l-.74-3.92c-1,.13-1.92.22-2.67.28s-1.38.08-1.89.08a5,5,0,0,1-3.13-.78,3.28,3.28,0,0,1,0-4.68,5,5,0,0,1,3.13-.77H194v-8a10.23,10.23,0,0,0-1-4.85A5.76,5.76,0,0,0,190.08,526.88Zm-34.57,8.52c.28-.35.58-.7.9-1.07a18.84,18.84,0,0,1,2-1.92,10.36,10.36,0,0,1,2.32-1.48,6,6,0,0,1,2.61-.58,3.91,3.91,0,0,1,2,.48,3.19,3.19,0,0,1,1.3,1.51,6.82,6.82,0,0,1,.47,2.76v3H155.51Zm27.57,1.5a22.37,22.37,0,0,1-.12-2.25c0-.77,0-1.56.12-2.39.06-.65.13-1.27.22-1.88.61,0,1.24-.09,1.88-.09a6.24,6.24,0,0,1,2.36.35,2.1,2.1,0,0,1,1.19,1.22,7.12,7.12,0,0,1,.33,2.44v3.79h-5.85C183.16,537.72,183.12,537.33,183.08,536.9Z"/><path class="cls-4" d="M718,148.4a10.59,10.59,0,0,0,4.54.87h85.28a8.52,8.52,0,0,0,4.16-.9,4.63,4.63,0,0,0,.46-.31,7.74,7.74,0,0,0,4.12,1.21h20.2V126.7h-4.92v18.36h-6.9v-4.59a16.55,16.55,0,0,0-.16-2q-.16-1.29-.39-2.73c-.15-1-.3-1.83-.45-2.6l-4.81.74c.17.92.32,1.82.46,2.71s.25,1.68.32,2.38a14.79,14.79,0,0,1,.12,1.52v4.59h-3.47a3,3,0,0,1-1.16-.24,3.89,3.89,0,0,1-.63-.34,14.94,14.94,0,0,0,.44-3.85v-5.81H810.3v5.81a14.5,14.5,0,0,1-.21,2.88,1.83,1.83,0,0,1-.74,1.25,3.14,3.14,0,0,1-1.53.3h-2.28v-8.63h-4.91v8.63h-7v-3.88a7.56,7.56,0,0,0-1.2-4.32,8,8,0,0,0-3.29-2.76,11.08,11.08,0,0,0-4.79-1,17,17,0,0,0-2.71.22c-.93.15-1.85.33-2.75.55l.45,3.85c.94-.13,1.81-.22,2.6-.29s1.43-.09,1.9-.09a5.67,5.67,0,0,1,3.72,1,3.52,3.52,0,0,1,1.16,2.84v3.88H773.4v-3a12,12,0,0,0-.48-3.42,8.7,8.7,0,0,0-1.46-2.88,6.81,6.81,0,0,0-2.51-2,8.52,8.52,0,0,0-3.61-.7,10.92,10.92,0,0,0-2.79.32,7.33,7.33,0,0,0-2.17,1,11.19,11.19,0,0,0-1.91,1.62c-.49.52-1,1.14-1.57,1.81v-4.71H752v11.94h-8.06V133.12H739v11.94h-9V133.12h-7.48a10,10,0,0,0-4.54.93,6,6,0,0,0-2.77,2.76,10.07,10.07,0,0,0-.91,4.53,9.57,9.57,0,0,0,.91,4.43A5.76,5.76,0,0,0,718,148.4Zm38.9-6c.28-.35.58-.71.91-1.07a18.17,18.17,0,0,1,2-1.93,10.73,10.73,0,0,1,2.32-1.48,6.14,6.14,0,0,1,2.61-.58,3.81,3.81,0,0,1,2,.49,3.15,3.15,0,0,1,1.3,1.51,6.75,6.75,0,0,1,.47,2.76v3H756.9Zm-37.3-3.66a1.94,1.94,0,0,1,1.11-1.12,5.33,5.33,0,0,1,1.83-.28h2.57v7.74h-2.57a6.4,6.4,0,0,1-1.93-.24,1.71,1.71,0,0,1-1.06-1,7.09,7.09,0,0,1-.32-2.44A6.89,6.89,0,0,1,719.6,138.72Z"/><rect class="cls-4" x="723.53" y="126.21" width="4.69" height="3.92"/><rect class="cls-4" x="717.21" y="126.21" width="4.69" height="3.92"/><rect class="cls-4" x="734.48" y="152.54" width="4.69" height="3.92"/><rect class="cls-4" x="740.81" y="152.54" width="4.69" height="3.92"/><rect class="cls-4" x="781.88" y="126.57" width="4.95" height="3.92"/><rect class="cls-4" x="813.6" y="126.21" width="4.69" height="3.92"/><rect class="cls-4" x="810.68" y="121.62" width="4.21" height="3.4"/><rect class="cls-4" x="807.28" y="126.21" width="4.69" height="3.92"/><rect class="cls-4" x="841.73" y="126.7" width="4.88" height="22.57"/><path class="cls-4" d="M861.37,148.4a10.59,10.59,0,0,0,4.54.87H887.3V133.12h-4.92v11.94h-9V133.12h-7.48a10,10,0,0,0-4.54.93,6,6,0,0,0-2.76,2.76,10.07,10.07,0,0,0-.92,4.53,9.57,9.57,0,0,0,.92,4.43A5.78,5.78,0,0,0,861.37,148.4Zm1.6-9.68a1.94,1.94,0,0,1,1.11-1.12,5.33,5.33,0,0,1,1.83-.28h2.57v7.74h-2.57a6.45,6.45,0,0,1-1.93-.24,1.71,1.71,0,0,1-1.06-1,9.46,9.46,0,0,1,.05-5.06Z"/><rect class="cls-4" x="860.58" y="126.21" width="4.69" height="3.92"/><rect class="cls-4" x="866.91" y="126.21" width="4.69" height="3.92"/><rect class="cls-4" x="877.86" y="152.54" width="4.69" height="3.92"/><rect class="cls-4" x="884.18" y="152.54" width="4.69" height="3.92"/><rect class="cls-4" x="904.15" y="126.21" width="4.94" height="3.92"/><path class="cls-4" d="M937.84,145.06h-9.39a14.91,14.91,0,0,0,1.54-1.65,13.93,13.93,0,0,0,1.94-3.18,7.5,7.5,0,0,0,.67-2.91v-1.79a17,17,0,0,0-3-1.32,21.62,21.62,0,0,0-3.21-.82,17.65,17.65,0,0,0-2.94-.27,17.85,17.85,0,0,0-3,.27,21,21,0,0,0-3.21.82,17.24,17.24,0,0,0-3,1.32v1.79a7.53,7.53,0,0,0,.68,2.91,13.26,13.26,0,0,0,1.94,3.18,14.81,14.81,0,0,0,1.53,1.65h-9.38V133.12h-4.92v11.94h-6.9V126.7h-4.88v22.57h25.94a13.59,13.59,0,0,0,4.69-.8l.45-.19.45.19a13.63,13.63,0,0,0,4.69.8h14.16V126.7h-4.91Zm-14.39-7.74a12.79,12.79,0,0,1,3.23.45c.32.09.62.21.93.31a6.13,6.13,0,0,1-.32,1.24,9.54,9.54,0,0,1-1.12,2.07,10.89,10.89,0,0,1-1.69,1.84,8.36,8.36,0,0,1-1,.77,9.19,9.19,0,0,1-1-.77,10.43,10.43,0,0,1-1.68-1.84,9.13,9.13,0,0,1-1.12-2.07,6.18,6.18,0,0,1-.33-1.24c.31-.1.62-.22.94-.31A12.72,12.72,0,0,1,923.45,137.32Z"/><rect class="cls-4" x="947.73" y="126.7" width="4.88" height="22.57"/><path class="cls-4" d="M960.39,134.05a6,6,0,0,0-2.76,2.76,10.07,10.07,0,0,0-.91,4.53,9.57,9.57,0,0,0,.91,4.43,5.78,5.78,0,0,0,2.76,2.63,10.64,10.64,0,0,0,4.55.87h2.57v1a2.82,2.82,0,0,1-1,2.35,5.08,5.08,0,0,1-3.14.77c-.52,0-1.14,0-1.88-.1s-1.63-.16-2.68-.29l-.74,3.92c1,.21,1.88.38,2.76.5a20.44,20.44,0,0,0,2.54.17,11.77,11.77,0,0,0,4.75-.88,7.13,7.13,0,0,0,3.15-2.54,6.83,6.83,0,0,0,1.12-3.9V133.12h-7.48A10.05,10.05,0,0,0,960.39,134.05Zm4.55,11a6.4,6.4,0,0,1-1.93-.24,1.71,1.71,0,0,1-1.06-1,7.09,7.09,0,0,1-.32-2.44,6.89,6.89,0,0,1,.37-2.62,1.94,1.94,0,0,1,1.11-1.12,5.33,5.33,0,0,1,1.83-.28h2.57v7.74Z"/><path class="cls-4" d="M997.27,149.37a4.08,4.08,0,0,1-.41,1.84,3,3,0,0,1-1.42,1.32,6.09,6.09,0,0,1-2.69.5,6.73,6.73,0,0,1-2.73-.49,3.49,3.49,0,0,1-2.28-3.43,17.2,17.2,0,0,1,.13-1.78c.08-.81.2-1.79.36-3s.35-2.46.57-3.9l-4.85-.64c-.13.86-.27,1.74-.4,2.65s-.27,1.79-.37,2.65-.2,1.63-.26,2.33-.1,1.25-.1,1.68a7.09,7.09,0,0,0,1.29,4.18,8.63,8.63,0,0,0,3.53,2.87,11.93,11.93,0,0,0,5.11,1,11.44,11.44,0,0,0,4.86-1,8.08,8.08,0,0,0,3.36-2.74,7.14,7.14,0,0,0,1.22-4.14V126.7h-4.92Z"/><path class="cls-4" d="M1015.64,149.27H1067V126.7h-4.91v18.36h-6.93v-3.88a7.57,7.57,0,0,0-1.21-4.32,7.9,7.9,0,0,0-3.29-2.76,11,11,0,0,0-4.78-1,17.08,17.08,0,0,0-2.72.22c-.93.15-1.84.33-2.74.55l.45,3.85c.94-.13,1.81-.22,2.6-.29s1.42-.09,1.89-.09a5.71,5.71,0,0,1,3.73,1,3.51,3.51,0,0,1,1.15,2.84v3.88h-15.31v-3.75a10.2,10.2,0,0,0-1-4.85,5.7,5.7,0,0,0-2.93-2.6,12.74,12.74,0,0,0-4.89-.81,22.26,22.26,0,0,0-3.71.29,16.16,16.16,0,0,0-2.46.58c-.13.47-.27,1.11-.41,1.93s-.28,1.72-.37,2.71-.15,2-.15,3.07,0,2,.13,3c0,.16,0,.3.05.46h-7.11V126.7h-4.88v22.57h8.44Zm8.36-5.39c-.07-.8-.11-1.55-.11-2.25s0-1.57.11-2.4c.06-.65.15-1.27.23-1.87.62-.06,1.24-.1,1.88-.1a6.49,6.49,0,0,1,2.36.35,2.13,2.13,0,0,1,1.19,1.22,7.16,7.16,0,0,1,.33,2.44v3.79h-5.86C1024.09,144.69,1024,144.3,1024,143.88Z"/><rect class="cls-4" x="1044.22" y="152.54" width="4.95" height="3.92"/><rect class="cls-4" x="1071.96" y="126.7" width="4.88" height="22.57"/><circle class="cls-2" cx="896.35" cy="58.04" r="50.3"/><path class="cls-5" d="M919.43,69.36H879.22a.88.88,0,0,0-1,1c0,.52,0,1,0,1.62h-5.07a.87.87,0,0,0-1,1q0,2.92,0,5.85a.87.87,0,0,0,.93,1c.2,0,.4,0,.6,0h4.54v1.39c0,1,.26,1.21,1.22,1.21h40c1,0,1.23-.26,1.23-1.21V70.7C920.75,69.58,920.53,69.36,919.43,69.36Zm-2.11,1.76H919v.47h-1.67ZM919,73.39v.47h-1.67l0-.47Zm0,7.22h-1.68v-.47H919Zm-1.7-2.73H919v.47h-1.68ZM919,76.09h-1.62c-.15-.35,0-.5.34-.48a7.85,7.85,0,0,0,1,0C919,75.59,919.08,75.77,919,76.09Z"/><path class="cls-5" d="M896.28,45.94a9.12,9.12,0,0,0-9.36,9.35V67.6h25.16v-.48c0-4,0-8,0-12a9.12,9.12,0,0,0-9.23-9.2Z"/><path class="cls-5" d="M879.6,67.63h5.59V67c0-3.87,0-7.74,0-11.6a10.83,10.83,0,0,1,3-7.69.44.44,0,0,0,0-.69,2.62,2.62,0,0,0-2.21-1H875.86A2.56,2.56,0,0,0,873,48.76V70.21h3.42C876.84,68.32,877.69,67.63,879.6,67.63Z"/><path class="cls-5" d="M910.61,47.38a10.88,10.88,0,0,1,3.2,7.87V67.58h1.75V51.14h3.34c.56,0,.93-.27,1-.75s0-1.21,0-1.85h-1.3c-.43,0-.87,0-1.3,0a.84.84,0,0,1-.85-.87.86.86,0,0,1,.82-.85c.21,0,.43,0,.65,0h2v-.86h-2.51a.86.86,0,0,1-.92-.85.87.87,0,0,1,1-.88c.83,0,1.65,0,2.48,0v-.87c-.81,0-1.6,0-2.39,0s-1-.31-1.05-.84.38-.89,1.05-.89h2.41c0-.55,0-1,0-1.52,0-.77-.31-1.08-1.08-1.08-1,0-1.92,0-2.87,0a.6.6,0,0,1-.67-.38,2.56,2.56,0,0,0-3-1.29,2.42,2.42,0,0,0-1.89,2.46c0,2.31,0,4.63,0,6.94A1,1,0,0,0,910.61,47.38Z"/><path class="cls-5" d="M888.44,37.39a10.19,10.19,0,0,0,.81-.8,1.92,1.92,0,0,1,1.54-.64c2.43,0,4.87,0,7.31,0h.5v1.28l-.34,0c-1.18,0-1.36.2-1.36,1.4V41.6h-.77a.88.88,0,0,0-1,1c0,.52,0,1,0,1.6h8.67c0-.59,0-1.15,0-1.71a.86.86,0,0,0-.91-.87h-.82V38.34c0-.78-.31-1.07-1.09-1.08h-.61a1.52,1.52,0,0,1,0-.19c0-.56,0-1.12,0-1.68,0-.89-.27-1.17-1.16-1.17h-8.61a3.13,3.13,0,0,0-2.19.79c-.41.37-.81.77-1.19,1.17a.85.85,0,0,0,0,1.26A.84.84,0,0,0,888.44,37.39Z"/><path class="cls-5" d="M886.05,44.16c0-.58,0-1.12,0-1.66a.86.86,0,0,0-.93-.9h-.8V38.37c0-.81-.3-1.11-1.12-1.11h-4.66c-.88,0-1.16.28-1.16,1.16V41.6h-.69c-.72,0-1,.31-1,1,0,.51,0,1,0,1.55ZM880.93,39c1,0,1.22.25,1.22,1.33s-.24,1.27-1.34,1.27-1.26-.24-1.26-1.34S879.78,39,880.93,39Z"/><path class="cls-5" d="M873.75,81.56a3.18,3.18,0,0,0,2.88.78c0-.27-.09-.52-.14-.78Z"/><circle class="cls-2" cx="1119.97" cy="279.66" r="50.3"/><path class="cls-1" d="M1132.43,272.67a9.45,9.45,0,0,0,2.76-9.66,9.69,9.69,0,0,0-7.06-7.16c-.5-.15-1-.23-1.55-.34h-1.8c-.33.08-.66.15-1,.24A8.12,8.12,0,0,0,1120,258l-.28-.25a7.72,7.72,0,0,0-4.38-2.2.48.48,0,0,1-.16-.08h-1.8a2.8,2.8,0,0,1-.31.09,9.64,9.64,0,0,0-7.86,6.07,9.39,9.39,0,0,0,1.24,9.79,21.51,21.51,0,0,0,4.62,4.21l7.82,5.84c.38.28.73.62,1,.85,2.42-1.84,4.76-3.64,7.13-5.4A49.92,49.92,0,0,0,1132.43,272.67Zm-8.24-2.92h-2.79v2.81h-2.84v-2.78h-2.81v-2.84h2.79v-2.8h2.85v2.78h2.8Z"/><path class="cls-6" d="M1115.42,285.79a28.08,28.08,0,0,0-5.73-3.35,7.48,7.48,0,0,0-3.59-.82c-1.33.11-1.82.89-1.38,2.15a3.25,3.25,0,0,0,.18.43,6.8,6.8,0,0,0,2.1,2.39q2.37,1.74,4.76,3.46l1.27.93-1.7,2.27c-2.21-1.62-4.44-3.14-6.53-4.82a9.84,9.84,0,0,1-3.55-6.06c-.26-1.38-.28-2.81-.44-4.22a36.12,36.12,0,0,0-1.32-7,11.91,11.91,0,0,0-.89-2,1.16,1.16,0,0,0-1.13-.73c-.53,0-.79.49-.94.95a10.9,10.9,0,0,0-.43,1.68c-.13.87-.2,1.74-.29,2.62v4.9c0,.16.06.31.07.47.07,1.35.15,2.7.22,4a9.61,9.61,0,0,0,1.33,5,25.6,25.6,0,0,0,3.71,4.39c1.79,1.73,3.63,3.39,5.37,5.17s3.33,3.53,3.58,6.1h8.45c0-4.06.07-8.09,0-12.11A7.29,7.29,0,0,0,1115.42,285.79Z"/><path class="cls-6" d="M1143.93,271.77a6.45,6.45,0,0,0-.74-2.75.87.87,0,0,0-1.55-.17,5.31,5.31,0,0,0-.89,1.48,30.87,30.87,0,0,0-1.62,7.72c-.17,1.42-.18,2.87-.44,4.27a10.52,10.52,0,0,1-4.21,6.65c-1.13.84-2.28,1.66-3.43,2.49l-2.46,1.78L1126.9,291l2.33-1.69c1.47-1.1,3-2.16,4.41-3.31a4.63,4.63,0,0,0,1.66-2.52,1.31,1.31,0,0,0-1.23-1.8,5.8,5.8,0,0,0-1.9.15,23.16,23.16,0,0,0-7.43,3.8,7.71,7.71,0,0,0-3.36,6.61v11.59h8.48a7.22,7.22,0,0,1,1.57-3.83,34.38,34.38,0,0,1,4.26-4.52,56,56,0,0,0,5.81-5.92,9.15,9.15,0,0,0,2.24-5.15c.07-1.16.19-2.32.25-3.48A59.33,59.33,0,0,0,1143.93,271.77Z"/><circle class="cls-2" cx="155.73" cy="458.62" r="50.3"/><path class="cls-4" d="M147,484c.73.34,1.5.62,2.25.92h18.21c.36-.11.72-.19,1.07-.32a4.82,4.82,0,0,0,2.12-1.39H146A7.13,7.13,0,0,0,147,484Z"/><path class="cls-4" d="M170,468c-.05-.5-.21-.61-.68-.61q-10.9,0-21.8,0c-.48,0-.63.13-.68.61-.38,3.59-.79,7.17-1.19,10.76-.1.87-.18,1.75-.28,2.65h26.1c-.1-.95-.19-1.83-.29-2.71C170.74,475.09,170.33,471.53,170,468Zm-3.21,3,1.73-.21.2,1.72-1.73.22Zm.38,3.48,1.74-.21.19,1.73-1.72.21Zm.59,5.21-.19-1.73,1.72-.2.21,1.72Z"/><path class="cls-3" d="M151.39,452.71a4.21,4.21,0,0,0,3.71,4.09,14.38,14.38,0,0,0,1.53.1v8.69h3.51v-.52q0-3.72,0-7.44a.76.76,0,0,1,.29-.56,2.55,2.55,0,0,0,1.46-2.54q0-9.58,0-19.15c0-.13,0-.27,0-.41a.88.88,0,0,0-.94-.88,11.71,11.71,0,0,0-1.18.09,9.48,9.48,0,0,0-8.31,8.48C151.27,446,151.32,449.36,151.39,452.71Zm1.72-5.84a2.88,2.88,0,0,1,0-.39h1.72v5.6c0,1,.26,1.28,1.27,1.28h.52V455a2.74,2.74,0,0,1-3.54-2.69C153.09,450.52,153.1,448.69,153.11,446.87Z"/><path class="cls-3" d="M148.8,461.54l1.52-.77-.93-1.9c.6-.2,1.16-.37,1.7-.58s.83-.9.56-1.24c-.47-.59-1-1.16-1.47-1.74,0,.09-.05.2-.06.32-.16,1.28-.15,1.28-1.48,1.61,0-.26,0-.48-.06-.7-.14-2.24-.27-4.47-.44-6.71A37.71,37.71,0,0,0,145,437.17c-.45-1-.94-2-1.44-3a8.72,8.72,0,0,1,4.16,1.6,9.28,9.28,0,0,1,2.83,3.4c.28-.51.49-1,.78-1.4a.57.57,0,0,0,0-.77,10.16,10.16,0,0,0-9.93-4.54,10.5,10.5,0,0,0-6.66,17.38c3,3.44,6.17,6.75,9.26,10.12a1,1,0,0,0,1.24.32c.81-.29,1.64-.55,2.51-.83Zm-3.55-3.16a.79.79,0,0,1-.54-.24q-3.41-3.67-6.78-7.37a35.78,35.78,0,0,1-2.5-2.86,8.73,8.73,0,0,1,.25-10.46l.38-.4c1,5,3.23,9.38,5.74,13.63,1.35,2.29,2.74,4.54,4.12,6.81.1.17.2.35.33.56A5.56,5.56,0,0,1,145.25,458.38Zm1.52-2.93c-.08-.1-.14-.14-.17-.19a116.75,116.75,0,0,1-6.43-11.37,33.86,33.86,0,0,1-2.5-7.58c-.1-.49,0-.82.46-1l3-1.09c.27-.1.43,0,.57.26a34.33,34.33,0,0,1,4.4,12.86c.31,2.55.47,5.11.7,7.66C146.78,455.13,146.77,455.26,146.77,455.45Z"/><path class="cls-3" d="M165.28,451.88a3.48,3.48,0,0,0,3.57,1.41,9.07,9.07,0,0,0,6-4.24,6.09,6.09,0,0,0,1-3.49,6.17,6.17,0,0,0-5-6.13,6.09,6.09,0,0,0-6.77,4,9.2,9.2,0,0,0-.42,4A8.13,8.13,0,0,0,165.28,451.88Z"/><path class="cls-3" d="M179,442.65a9.51,9.51,0,0,0-15-4.76c-.13.11-.31.27-.32.42,0,.73,0,1.46,0,2.32.24-.26.38-.42.52-.56a7.58,7.58,0,0,1,5.72-2.48,7.87,7.87,0,0,1,7.58,9.65c-1,4.05-3.77,6.54-7.74,7.66a5.2,5.2,0,0,1-5.85-2c0-.06-.11-.1-.24-.23,0,.79,0,1.47,0,2.15a4.16,4.16,0,0,1-1.42,3.13,1.06,1.06,0,0,0-.32.67c0,2.16,0,4.31,0,6.47a4.64,4.64,0,0,0,0,.48c.7,0,1.36,0,2,0,.37,0,.52-.12.64-.47.93-2.62,1.88-5.24,2.8-7.86a.56.56,0,0,1,.62-.45,9.27,9.27,0,0,0,1.58-.13,12,12,0,0,0,7-4.12A9.94,9.94,0,0,0,179,442.65Z"/><path class="cls-3" d="M148.37,463.71c.24.6.45,1.17.7,1.73a.33.33,0,0,0,.27.16h3.54l-1.38-3.46Z"/><circle class="cls-2" cx="350.39" cy="609.24" r="50.09"/><path class="cls-7" d="M358.3,635.31c.15.89.69,2.42-.54,2.65-2.43.19-1.51-5.78-1.09-7.28a12.7,12.7,0,0,1-12.29,0,11.45,11.45,0,0,1,.19,6.43,1.06,1.06,0,0,1-1.27.88c-1.26-.33-.65-1.78-.49-2.77A24,24,0,0,0,335,637c3.83,1.75,8.16,1.68,12.28,2.09,6.33,0,12.83.18,18.86-2A21.76,21.76,0,0,0,358.3,635.31Z"/><path class="cls-6" d="M347.62,629.71a8.44,8.44,0,0,0,5.86,0c13.47-4.51,20.82-18.37,22.28-31.81l-5.38-2.55-1.94.69a3.76,3.76,0,0,1-4.21,4.08,4.29,4.29,0,0,1-5.29,4.09,4.76,4.76,0,0,1-8.41,2.58,4.75,4.75,0,0,1-8.39-2.59,4.29,4.29,0,0,1-5.3-4.1,3.72,3.72,0,0,1-4.16-4.05c-.86-.14-1.58-.92-2.37-.61-1.64.79-3.3,1.58-4.95,2.35C326.72,611.33,334.12,625.13,347.62,629.71Z"/><path class="cls-6" d="M340,596c2.72-.39,4.44.76,5.25,3.34a4.76,4.76,0,0,1,5.3,1.48,4.75,4.75,0,0,1,5.29-1.48c.83-2.64,2.59-3.73,5.27-3.35a3.75,3.75,0,0,1,4.11-3.23c0-.68.65-1.31.15-1.86a38,38,0,0,1-4.51-6.43,27.72,27.72,0,0,1-20.69,0,30.22,30.22,0,0,1-4.59,6.64c-.2.53.2,1.09.3,1.68A3.77,3.77,0,0,1,340,596Z"/><path class="cls-6" d="M360.16,582.22c-4.82-2.94-14.19-2.79-19.11-.13l0,.26C345.63,585,355.72,585.18,360.16,582.22Z"/><path class="cls-7" d="M346.85,606.43a2.62,2.62,0,0,0,0-5.24A2.62,2.62,0,0,0,346.85,606.43Z"/><path class="cls-7" d="M354.23,606.43a2.62,2.62,0,0,0,0-5.24A2.62,2.62,0,0,0,354.23,606.43Z"/><path class="cls-7" d="M341.09,602.22a2.1,2.1,0,0,0,0-4.19A2.1,2.1,0,0,0,341.09,602.22Z"/><path class="cls-7" d="M360,602.22a2.1,2.1,0,0,0,0-4.19A2.1,2.1,0,0,0,360,602.22Z"/><path class="cls-7" d="M363.19,596.44a1.57,1.57,0,0,0,3.13,0A1.57,1.57,0,0,0,363.19,596.44Z"/><path class="cls-7" d="M337.9,596.48a1.57,1.57,0,0,0-3.13-.08C334.68,598.44,337.91,598.51,337.9,596.48Z"/><path class="cls-7" d="M333.7,592.75a1,1,0,0,0-2.08,0A1,1,0,0,0,333.7,592.75Z"/><path class="cls-7" d="M369.46,592.74a1,1,0,0,0-2.07,0A1,1,0,0,0,369.46,592.74Z"/><circle class="cls-2" cx="744.39" cy="609.24" r="50.09"/><path class="cls-2" d="M766.55,597.69h-19.8v26.43h19.8Zm-17.29,3.62a12.58,12.58,0,0,1,1.1-1.09,1.09,1.09,0,0,1,1.57,1.5,12,12,0,0,1-1.18,1.18.93.93,0,0,1-1.25.11,4.22,4.22,0,0,1-.68-.92A5.55,5.55,0,0,1,749.26,601.31Zm8.08.53c-2.14,2.17-4.31,4.33-6.48,6.48a1.08,1.08,0,0,1-1.61.1,1.1,1.1,0,0,1,.07-1.66c2.15-2.17,4.32-4.32,6.48-6.48a1,1,0,0,1,1.29-.26,3.89,3.89,0,0,1,.78.9A4.67,4.67,0,0,1,757.34,601.84Z"/><path class="cls-5" d="M717.58,624.59a8.81,8.81,0,0,0,9.63,5,8.92,8.92,0,0,0,7.24-9.64,8.73,8.73,0,0,0-3.25-6,5.75,5.75,0,0,1-2.23-4.79c0-1.1,0-2.2,0-3.3a3.39,3.39,0,0,0-.05-.47h-6.56c0,1.31,0,2.6,0,3.89a5.68,5.68,0,0,1-2.22,4.66A8.78,8.78,0,0,0,717.58,624.59Z"/><path class="cls-3" d="M775.44,633.55c0-1.33-.29-1.63-1.63-1.63H714.87c-.91,0-1.29.41-1.3,1.31,0,.46,0,.91,0,1.36,0,1.47.27,1.74,1.72,1.74h58.94a1.12,1.12,0,0,0,1.2-1.22C775.45,634.59,775.44,634.07,775.44,633.55Z"/><path class="cls-5" d="M744.32,625a.89.89,0,0,0,.17-.58q0-13.49,0-27a.86.86,0,0,0-.14-.54c-1-1-2-2-3.11-3.17v34.35C742.36,627,743.35,626,744.32,625Z"/><path class="cls-5" d="M772.06,593.79c-1.11,1.1-2.12,2.09-3.1,3.1a.87.87,0,0,0-.14.54v27a.9.9,0,0,0,.17.59c1,1,2,2,3.07,3.09Z"/><path class="cls-5" d="M746,626.51c-1,1-2,2-3.13,3.13h27.64c-1.11-1.11-2.11-2.13-3.13-3.11a.94.94,0,0,0-.59-.14H746.52A.85.85,0,0,0,746,626.51Z"/><path class="cls-5" d="M745.58,595a1.4,1.4,0,0,0,1.13.47H764c1.08,0,2.28.29,3.2-.1s1.61-1.45,2.39-2.22c.28-.27.54-.56.9-.93H742.78C743.82,593.23,744.72,594.09,745.58,595Z"/><path class="cls-5" d="M721.47,601c-.84,0-1.31.41-1.32,1.1s.49,1.1,1.31,1.11h8.4c.82,0,1.31-.43,1.31-1.11s-.47-1.09-1.3-1.1h-8.4Z"/><path class="cls-8" d="M721.62,592.91a4.67,4.67,0,0,1,0-3.54,5.34,5.34,0,0,0-5.35.65,1.34,1.34,0,0,0-.11,2.13A5.19,5.19,0,0,0,721.62,592.91Z"/><path class="cls-8" d="M729.38,599.78a1.36,1.36,0,0,0,2-1,5.32,5.32,0,0,0-2.14-5,4.71,4.71,0,0,1-3.19,1.82,14.65,14.65,0,0,0,.61,1.59A5.14,5.14,0,0,0,729.38,599.78Z"/><path class="cls-8" d="M729.27,588.58a5.6,5.6,0,0,0,2.06-4.6c-.1-1.51-1.18-2.07-2.49-1.3a5.66,5.66,0,0,0-2.7,3.69,1.61,1.61,0,0,0,0,.38A4.55,4.55,0,0,1,729.27,588.58Z"/><path class="cls-8" d="M730.37,591.76c.49.42.93.89,1.42,1.32a.87.87,0,0,0,.54.23,4.52,4.52,0,0,0,2.68-1,1.35,1.35,0,0,0,.07-2.25,5.1,5.1,0,0,0-2.94-1.12,2.88,2.88,0,0,0-.44.3c-.45.41-.86.85-1.31,1.24A.79.79,0,0,0,730.37,591.76Z"/><path class="cls-8" d="M721.41,587a4.3,4.3,0,0,1,1.29.41.78.78,0,0,0,1.14-.65c.13-.6.31-1.2.44-1.81a.73.73,0,0,0,0-.53,4.69,4.69,0,0,0-2.43-1.93,1.33,1.33,0,0,0-1.86,1.11,8.72,8.72,0,0,0-.07.94c0,.3.11.77.23,1.23C720.28,586.41,720.55,587,721.41,587Z"/><path class="cls-8" d="M723.91,595.67c-.13-.75-.55-1-1.27-.71a2.82,2.82,0,0,1-1,.32c-1.1,0-1.38.75-1.55,1.61-.07.36-.11.73-.15,1.05.06.71.07,1.42.75,1.8a1.7,1.7,0,0,0,1.88-.22,13.25,13.25,0,0,0,1.53-1.37.8.8,0,0,0,.16-1A7,7,0,0,1,723.91,595.67Z"/><path class="cls-8" d="M723.46,591.16a2.21,2.21,0,0,0,4.41,0,2.21,2.21,0,1,0-4.41,0Z"/><circle class="cls-2" cx="1339.76" cy="426.07" r="50.3"/><path class="cls-7" d="M1334,435.24c0-1.79,0-3.57,0-5.36a2.8,2.8,0,1,0-5.59,0c0,.57,0,1.15,0,1.77h-1.83c-.31-3.37.55-5.46,3.69-6.47,0-.94,0-1.89,0-2.84a6.51,6.51,0,0,0-6.52-6.52c-2.49,0-5,0-7.46,0a6.5,6.5,0,0,0-6.54,6.51c0,3.06,0,6.13,0,9.19a17.62,17.62,0,0,0,4.7,11.85,2.53,2.53,0,0,1,.9,2.13s0,.06.07.1h11.2a6.26,6.26,0,0,1,2-3.4c1.43-1.38,2.81-2.8,4.21-4.2A3.69,3.69,0,0,0,1334,435.24Z"/><path class="cls-5" d="M1356.63,405a22.41,22.41,0,0,0-14.23-5.93v21.37h9.34A20.49,20.49,0,0,1,1356.63,405Z"/><path class="cls-5" d="M1331.08,416.52a9.43,9.43,0,0,0,.88,3.93h8.5V399.08a22.62,22.62,0,0,0-14.21,5.93l.23.29A19.36,19.36,0,0,1,1331.08,416.52Z"/><path class="cls-5" d="M1356.14,437.2a1.44,1.44,0,0,1-.22-.27,19.83,19.83,0,0,1-4.23-12.36v-2.2h-9.29v13.91a2.86,2.86,0,0,1,2.76,3.15v1.51h11.16a14.44,14.44,0,0,1,.15-2.41A1.2,1.2,0,0,0,1356.14,437.2Z"/><path class="cls-5" d="M1353.61,420.42h10.19a22.36,22.36,0,0,0-5.85-14.09A18.64,18.64,0,0,0,1353.61,420.42Z"/><path class="cls-5" d="M1353.61,422.36c-.57,5,1.47,11.49,4.39,14.07a22.22,22.22,0,0,0,5.77-14.07Z"/><path class="cls-5" d="M1340.46,436.31V422.38h-8.33v2.82c2.62.89,3.7,2.39,3.7,5.12,0,1.15-.09,2.3,0,3.43a7.11,7.11,0,0,1-2.75,6.62c-.44.36-.81.8-1.31,1.29l4,1.43c0-1.43,0-2.71,0-4a2.77,2.77,0,0,1,2.77-2.79Z"/><path class="cls-7" d="M1313.49,453.05h14.85v-5.52h-14.85Z"/><path class="cls-4" d="M1342.19,438.17h-3.38c-.77,0-1.11.35-1.11,1.11V452c0,.76.34,1.1,1.11,1.1h3.26c.91,0,1.22-.31,1.23-1.23v-6.17c0-2.13,0-4.27,0-6.4C1343.29,438.52,1343,438.18,1342.19,438.17Z"/><path class="cls-4" d="M1362.71,438.17h-3.26c-.91,0-1.22.31-1.22,1.22,0,2.06,0,4.12,0,6.18s0,4.27,0,6.4c0,.76.34,1.1,1.1,1.1h3.39c.76,0,1.1-.34,1.1-1.1q0-6.35,0-12.69C1363.82,438.52,1363.48,438.18,1362.71,438.17Z"/><path class="cls-4" d="M1345.21,448.39h11.12v-5.52h-11.12Z"/><path class="cls-5" d="M1329.16,416a18,18,0,0,0-4.23-9.66,22.11,22.11,0,0,0-4.6,7.63C1323.45,413.9,1326.53,413.65,1329.16,416Z"/><circle class="cls-2" cx="1453.19" cy="235.35" r="50.3"/><path class="cls-5" d="M1475.55,244.43a12.56,12.56,0,0,0-.7-2.76,24.34,24.34,0,0,0-5.09-7.55,56.69,56.69,0,0,0-16.15-12,39.79,39.79,0,0,0-14.36-4.57,10.51,10.51,0,0,0-5.24.64,3.89,3.89,0,0,0-2.6,4,10.36,10.36,0,0,0,.47,2.54,18.06,18.06,0,0,0,2.88,5.25,44,44,0,0,0,7.19,7.46c.47-.84.93-1.59,1.32-2.38a6.64,6.64,0,0,1,7.89-3.7,13.51,13.51,0,0,1,3.42,1.8c3.91,2.54,4.5,6.95,1.49,10.51-.5.59-.94,1.23-1.48,2,1.13.49,2.12.94,3.14,1.35a33.18,33.18,0,0,0,10.56,2.59,10,10,0,0,0,4.81-.74A4,4,0,0,0,1475.55,244.43Z"/><path class="cls-6" d="M1451.75,249.19a11.79,11.79,0,0,1,3.17-7.23,4.62,4.62,0,0,0-.82-6.86q-1.06-.78-2.22-1.47a4.79,4.79,0,0,0-6.86,2,12.59,12.59,0,0,1-7.47,6.76,10.38,10.38,0,0,0-6.64,11.64,10.55,10.55,0,0,0,20.86-3.09A11.75,11.75,0,0,1,1451.75,249.19Zm-11.82-2.56a5.55,5.55,0,0,0-4.24,4.46,5.49,5.49,0,0,0,2.41,5.77,1.22,1.22,0,0,1,.57,1.58,1.1,1.1,0,0,1-1.31.62,1.61,1.61,0,0,1-.6-.3,7.7,7.7,0,0,1-3.47-6.29,8.16,8.16,0,0,1,6-8.13c.9-.24,1.53,0,1.74.71S1440.81,246.37,1439.93,246.63Z"/><path class="cls-5" d="M1451.63,219c1.35.69,2.73,1.34,4.15,2,0-.21,0-.36,0-.51a4.89,4.89,0,0,1,4-5.8,7.5,7.5,0,0,1,8.1,4.66,4.87,4.87,0,0,1-2.94,6.5c-.32.1-.65.17-1.05.28,1.15.95,2.24,1.8,3.28,2.73a1,1,0,0,0,1.21.16,7.39,7.39,0,0,0,3.93-8.61,12.09,12.09,0,0,0-6.37-8,11.33,11.33,0,0,0-9.55-1,7.22,7.22,0,0,0-5,6.9A.92.92,0,0,0,1451.63,219Z"/><circle class="cls-2" cx="1221.95" cy="609.24" r="50.3"/><path class="cls-7" d="M1213.29,621.73a6.34,6.34,0,0,0-8.78-.22c-2,1.88-3.92,3.89-5.76,5.94a5.73,5.73,0,0,0,5.52,9.19,16.22,16.22,0,0,0,2.65-1,4.54,4.54,0,0,1,3.94.08c.53.26,1.06.53,1.61.76a5.6,5.6,0,0,0,7.8-5.19,5.2,5.2,0,0,0-1.39-3.66C1217,625.67,1215.21,623.66,1213.29,621.73Z"/><path class="cls-7" d="M1239.83,595.41a6.46,6.46,0,0,0-9.43-.07c-1.7,1.71-3.37,3.45-5,5.18a5.42,5.42,0,0,0-1.57,3.9,5.72,5.72,0,0,0,8,5.35l1.59-.67a4.42,4.42,0,0,1,3.76.08c.49.23,1,.48,1.45.7a5.64,5.64,0,0,0,6.92-1.7,5.57,5.57,0,0,0-.36-7.15C1243.38,599.13,1241.62,597.25,1239.83,595.41Z"/><path class="cls-5" d="M1206.39,616.78a5.83,5.83,0,0,0,1.37-3.59,6.48,6.48,0,0,0-1.35-4.33,3.4,3.4,0,0,0-5.29-.15,6.42,6.42,0,0,0,0,8.15A3.37,3.37,0,0,0,1206.39,616.78Z"/><path class="cls-5" d="M1232.63,590.31a6.06,6.06,0,0,0,1.45-4,6.14,6.14,0,0,0-1.43-4,3.38,3.38,0,0,0-5.28,0,6.42,6.42,0,0,0,0,8A3.35,3.35,0,0,0,1232.63,590.31Z"/><path class="cls-5" d="M1216.52,616.46a6.45,6.45,0,0,0,.07-8.07,3.37,3.37,0,0,0-5.36,0,6.08,6.08,0,0,0-1.38,4,5.88,5.88,0,0,0,1.52,4.09A3.36,3.36,0,0,0,1216.52,616.46Z"/><path class="cls-5" d="M1242.83,589.91a6.43,6.43,0,0,0,0-8.11,3.36,3.36,0,0,0-5.15-.11,6.39,6.39,0,0,0,0,8.29A3.35,3.35,0,0,0,1242.83,589.91Z"/><path class="cls-5" d="M1223.54,614.26a3.35,3.35,0,0,0-3.72,1.16,6,6,0,0,0-1.63,5.28,3.35,3.35,0,0,0,2.29,3,3.44,3.44,0,0,0,3.61-1.17,6,6,0,0,0,1.71-4.3,4.14,4.14,0,0,0,0-.61C1225.6,616.09,1225.07,614.8,1223.54,614.26Z"/><path class="cls-5" d="M1198.82,622.27a10.45,10.45,0,0,0,.61-2c-.21-2.61-1-4.53-3.18-5.63a3,3,0,0,0-4.3,1.58,6,6,0,0,0,2.88,7.4A2.93,2.93,0,0,0,1198.82,622.27Z"/><path class="cls-5" d="M1252.13,591.27a3.8,3.8,0,0,0-2.3-3.57,3.65,3.65,0,0,0-4,1.47,6.07,6.07,0,0,0-1.35,5.07,3.37,3.37,0,0,0,2.18,2.85,3.31,3.31,0,0,0,3.5-.93,6.18,6.18,0,0,0,1.94-4.52C1252.13,591.52,1252.14,591.39,1252.13,591.27Z"/><path class="cls-5" d="M1221.14,597.1a3,3,0,0,0,4-1.42,11.17,11.17,0,0,0,.59-2c-.23-2.57-1-4.5-3.19-5.59a3,3,0,0,0-4.3,1.58A6,6,0,0,0,1221.14,597.1Z"/><circle class="cls-2" cx="142.07" cy="135.72" r="50.3"/><path class="cls-8" d="M169.9,156.65H140.25v3.49c0,1.67.75,2.42,2.41,2.42H168a1.88,1.88,0,0,0,1.87-1.62C170,159.52,169.9,158.09,169.9,156.65Z"/><path class="cls-8" d="M141.3,152.25h-.87V155h29.45V122H140.42v22.93h4.08a12.4,12.4,0,1,1,22-1.38,12,12,0,0,1-5.51,5.91,12.34,12.34,0,0,1-9.93.75,3.89,3.89,0,0,1-3.86,2.1C145.2,152.21,143.25,152.25,141.3,152.25Z"/><path class="cls-8" d="M149.58,147.86a2.11,2.11,0,0,0-2.17-1.31h-32.2c-.14,0-.31-.05-.4,0s-.54.34-.56.54c-.06.88,0,1.76,0,2.7h10.24a2.25,2.25,0,0,1,.64.05.79.79,0,0,1-.13,1.55,3.71,3.71,0,0,1-.58,0H114.22v8.47a2.36,2.36,0,0,0,2.64,2.65h16a2.39,2.39,0,0,0,2.69-2.67v-9.26h.75c3.77,0,7.54,0,11.31,0A2,2,0,0,0,149.58,147.86Z"/><path class="cls-8" d="M151.92,148.74a10.81,10.81,0,0,0,14-10.26c-.06-.58-.09-1.16-.18-1.73a10.75,10.75,0,1,0-19.89,7.18,1.71,1.71,0,0,0,1.76,1,3.55,3.55,0,0,1,3.67,3.11A.73.73,0,0,0,151.92,148.74Zm-2.3-9.45c0-.2.07-.34.11-.48.85-2.5,1.71-5,2.54-7.51a.58.58,0,0,1,.66-.47c1.13,0,2.26,0,3.48,0l-1.73,4.74h6.07l-7.56,10.27-.1,0c.56-2.14,1.13-4.27,1.72-6.51Z"/><path class="cls-8" d="M169.92,120.26c0-1.27,0-2.5,0-3.74a2,2,0,0,0-2.15-2.13H142.54a2,2,0,0,0-2.16,2.12c0,1.12,0,2.24,0,3.37a1.8,1.8,0,0,0,.07.38Z"/><path class="cls-8" d="M164.38,112.73v-4.5c0-1.06-.31-1.36-1.39-1.36h-12.7c-1.08,0-2.16,0-3.25,0a1,1,0,0,0-1.12,1c0,1.58,0,3.17,0,4.81Z"/><path class="cls-8" d="M129.34,143a4.46,4.46,0,0,0-4.25-3.46c-2.42-.1-3.91,1.23-4.66,3.44-1.9.07-3.05.72-3.43,1.95h15.85A3.39,3.39,0,0,0,129.34,143Z"/><circle class="cls-2" cx="368.62" cy="277.76" r="50.3"/><path class="cls-4" d="M386.27,282.83a11.36,11.36,0,0,0-5.12.19,1.09,1.09,0,0,1-1.19-.34q-8.1-8.13-16.24-16.22a.88.88,0,0,1-.25-1,10.49,10.49,0,0,0-1.69-9.44,10.3,10.3,0,0,0-9.33-4.28c-.54,0-1.08.16-1.62.24a1.62,1.62,0,0,0-1.47,1.15,1.65,1.65,0,0,0,.61,1.73c1.27,1.26,2.54,2.52,3.79,3.79a3,3,0,0,1,.29,4.2,3,3,0,0,1-4.21.46c-1-.9-2-1.92-3-2.88-.46-.46-.9-.93-1.37-1.37a1.53,1.53,0,0,0-2.69.79c-.16.71-.25,1.43-.38,2.15v.92a20.6,20.6,0,0,0,.75,3.26,10.28,10.28,0,0,0,8.28,6.75,12.38,12.38,0,0,0,4.92-.31.69.69,0,0,1,.76.21q8.24,8.26,16.52,16.5a.69.69,0,0,1,.2.76,11.63,11.63,0,0,0-.15,5.8,10.49,10.49,0,0,0,8.31,7.88c.41.09.83.14,1.25.21h1.53l1.75-.31a1.61,1.61,0,0,0,1.38-1.14,1.57,1.57,0,0,0-.51-1.62c-1.29-1.28-2.59-2.57-3.87-3.86a3.05,3.05,0,0,1-.28-4.28,3,3,0,0,1,4.18-.41c1,.82,1.84,1.77,2.75,2.66.54.53,1.06,1.06,1.59,1.59a1.54,1.54,0,0,0,1.63.46,1.56,1.56,0,0,0,1.09-1.3c.11-.6.22-1.2.32-1.8v-1.53a19.93,19.93,0,0,0-.57-2.57A10.33,10.33,0,0,0,386.27,282.83Z"/><path class="cls-4" d="M358.64,279.16q-7.17,7.14-14.32,14.3a9.58,9.58,0,0,0-.67.76,7,7,0,0,0-1.23,2.94v1.43a7.26,7.26,0,0,0,1.09,2.76,6,6,0,0,0,4.05,2.56c.1,0,.19.06.29.09h1.43c2-.28,3.38-1.51,4.74-2.88,4.33-4.39,8.71-8.72,13.08-13.08a1.71,1.71,0,0,1,.43-.27L358.78,279Zm1.4,6.44a1.51,1.51,0,0,1,.91,2.33,3,3,0,0,1-.41.46l-8.85,8.85a1.77,1.77,0,0,1-1.11.66,1.59,1.59,0,0,1-1.52-.77,1.45,1.45,0,0,1,0-1.55,2.08,2.08,0,0,1,.32-.4l9.07-9.06A1.59,1.59,0,0,1,360,285.6Z"/><path class="cls-4" d="M394,254.4c-.65-.7-1.34-1.35-2-2a1.64,1.64,0,0,0-2.37-.29L384.67,255c-1,.58-1.94,1.14-2.89,1.74a1.52,1.52,0,0,0-.31,2.48,6.71,6.71,0,0,0,.63.52l-10.22,10.33,4.32,4.3,10.24-10.34c.32.38.56.72.85,1a1.51,1.51,0,0,0,2.45-.31c1.71-2.84,3.39-5.69,5.08-8.54v-.62A12.14,12.14,0,0,0,394,254.4Z"/><circle class="cls-2" cx="1235.8" cy="80.66" r="50.3"/><path class="cls-9" d="M1268.32,81.72a4.53,4.53,0,0,0-3.8-4.58c-3.33-.62-6.66-1.25-10-1.8a6.64,6.64,0,0,1-3.43-1.57c-2.76-2.39-5.6-4.67-8.39-7a6.17,6.17,0,0,0-4.15-1.48c-4.66,0-9.32,0-14,0a6.23,6.23,0,0,0-5.21,2.4c-1.92,2.32-3.91,4.59-5.84,6.89a1.06,1.06,0,0,1-.92.41c-1.3,0-2.59,0-3.88,0a4.56,4.56,0,0,0-4.48,4.47c0,2,0,3.95,0,5.92a5.65,5.65,0,0,0,6.7,5.33,8.18,8.18,0,1,1,16.09,0h20.55a8.16,8.16,0,1,1,16.05,0,5.19,5.19,0,0,0,.56,0,4.58,4.58,0,0,0,4.13-4.43C1268.35,84.78,1268.33,83.25,1268.32,81.72Zm-41.72-8.29a1.49,1.49,0,0,1-1.55,1.52c-1.1,0-2.2,0-3.3,0s-2.12,0-3.17,0a1.11,1.11,0,0,1-.85-.47,1,1,0,0,1,.19-.89c1.39-1.68,2.8-3.36,4.26-5a2.55,2.55,0,0,1,1.31-.62,6.94,6.94,0,0,1,1.58,0,1.5,1.5,0,0,1,1.53,1.54C1226.63,70.81,1226.63,72.12,1226.6,73.43Zm7.75,7.12c-.38,0-.76,0-1.14,0h0c-.36,0-.72,0-1.08,0a1.52,1.52,0,0,1,0-3,20.37,20.37,0,0,1,2.21,0,1.5,1.5,0,0,1,1.42,1.51A1.53,1.53,0,0,1,1234.35,80.55ZM1247,74.47c-.16.48-.56.51-1,.51h-7.06v0h-7a1.57,1.57,0,0,1-1.76-1.77c0-1.18,0-2.37,0-3.56a1.54,1.54,0,0,1,1.67-1.67c2.35,0,4.71,0,7.06,0a2,2,0,0,1,1.16.41c2.16,1.66,4.3,3.37,6.45,5.06C1246.85,73.71,1247.11,74,1247,74.47Z"/><path class="cls-9" d="M1219,82.6a6.63,6.63,0,1,0,6.59,6.68A6.63,6.63,0,0,0,1219,82.6Zm0,9.68a3.06,3.06,0,1,1,3-3A3.06,3.06,0,0,1,1219,92.28Z"/><path class="cls-9" d="M1255.65,82.6a6.63,6.63,0,1,0,6.57,6.7A6.62,6.62,0,0,0,1255.65,82.6Zm0,9.68a3.06,3.06,0,1,1,3-3A3.06,3.06,0,0,1,1255.62,92.28Z"/><path class="cls-10" d="M1227.43,192c.43,10.24-7.39,19.43-16.75,23.58s-20,4.26-30.21,3.79c-53.58-2.48-108.22-18.58-159.87-4.12-48.07,13.46-87.3,54.62-98.44,103.28"/><path class="cls-10" d="M1107.79,381.78c-5,19.49-13.62,38.66-28.29,52.44-21.45,20.14-52.5,26-81.86,27.82-20,1.27-43.56-.64-54.48-17.43"/><path class="cls-10" d="M522.13,164.49c-5.38,11.09-3.89,24.64,1.72,35.61s14.9,19.64,24.94,26.79c18.29,13,42.1,21.76,63.16,14,7.32-2.71,14.16-7.61,17.49-14.67s2.37-16.4-3.53-21.51c-8.59-7.44-21.94-3.07-31.71,2.74-8,4.75-15.91,10.81-18.92,19.58-2,5.83-1.58,12.22-.46,18.29a84,84,0,0,0,92.87,68.11"/><path class="cls-10" d="M1456,335c3.64,4.34,1.62,11.46-2.84,15s-10.48,4.18-16.15,4.23c-28.76.27-56.4-12.37-85.16-12.62-36.49-.33-69.93,19.08-100.71,38.69-22.4,14.28-45,29.38-61.27,50.34-12,15.48-20.61,34-35.87,46.37-11.44,9.23-25.68,14.15-39.6,18.89-25.55,8.7-51.42,17.48-78.32,19.78-44.28,3.8-88-10.13-129.62-25.85-9.43-3.56-19-7.35-26.66-13.94s-14-17.15-17-31.15"/><path class="cls-10" d="M224.54,184.55c22.46-14.46,51.22-13.11,77.87-11.26,20,1.39,40.09,2.8,59.39,8.11,15.49,4.25,30.21,10.95,44.43,18.43,12.47,6.56,24.79,13.86,34.57,24C467,251,455.73,269.52,486,292c31.29,23.24,23,7,91,36"/><path class="cls-10" d="M378,374.57c-.2,16.32,7.29,31.76,16.13,45.48,4.65,7.22,9.81,14.25,16.45,19.72,9,7.41,20.26,11.53,31.5,14.71C497.53,470.16,542.87,466.07,587,429"/><path class="cls-10" d="M665.82,436.65c-9.62,12.55-15.75,20-27.49,30.56-30.26,27.32-70.66,41.53-111.19,46.05s-81.51,0-121.81-6.22c-44-6.79-91.25-15.19-131.26,4.33-43.85,21.38-70.4,72.79-117.71,84.67-8.46,2.12-18.65,2.35-24.56-4.07-7.32-8-3.33-21.47,4.66-28.75"/><path class="cls-10" d="M361.87,727.08c-3,15.26,5.55,31.15,18.14,40.28s28.49,12.51,44,13.48c26.14,1.64,52.5-2.91,77.06-12,15.45-5.71,30.89-13.76,40.17-27.37,14.7-21.58,10.09-50.34,14.34-76.11,4.8-29.09,21.43-55.08,41.61-76.56s44-39.15,66.71-57.94c8.79-7.27,17.54-14.84,23.85-24.34,12.59-18.95,13.94-43,14.89-65.7"/><path class="cls-10" d="M737.17,443a169.12,169.12,0,0,1,5.72,35.33c.4,7.16.31,14.49-2,21.25-3.88,11.09-13.27,19.16-22,27A550.52,550.52,0,0,0,618.1,646.23C610.9,657.8,604,669.85,601,683.12c-3.12,13.47-2.17,27.61.73,41.12,3.79,17.75,11.16,35.15,23.78,48.2s31,21.21,49,18.84c5.13-.67,10.26-2.23,14.32-5.44,12-9.47,9.81-28,5.68-42.74-12.37-2.68-25.15,6.61-29.43,18.52s-1.59,25.36,3.88,36.77c3.34,7,7.88,13.62,14.47,17.6,9.52,5.75,21.47,5,32.51,3.67,9.29-1.1,18.87-2.54,26.79-7.53,11.51-7.27,17.58-21.08,18.81-34.64s-1.7-27.11-4.61-40.42"/><path class="cls-10" d="M1228.5,727c-13.42,24.49-42.37,35.57-69.51,42.13-42.5,10.28-87.38,14.16-129.86,3.83S946.75,736.76,926,698.3c-16.65-30.8-20.24-67.25-36.24-98.39-15-29.16-39.8-51.76-62.17-75.73s-43.47-51.6-47.83-84.09"/><path class="cls-10" d="M829,444.35A301.16,301.16,0,0,0,944.45,574.6c19.61,12,41,21.91,63.78,25,9.21,1.26,19.16,1.25,27.08-3.61s12.53-16,7.61-23.88c-3.79-6.09-11.75-8.29-18.91-7.92-14.65.76-28.76,11.51-31.59,25.91-3.2,16.31,8.6,33,24.06,39.15s33.25,3.3,48.41-3.51,28.33-17.29,41.75-27.1c25.76-18.83,43.18-45,91.18-56,60.06-13.77,56,14.16,90,19,7.54,1.07,21.63-1.49,28.41-4.95,10.62-5.4,13.5-19,15.17-30.78"/><path class="cls-10" d="M873.74,168.1A32.89,32.89,0,0,1,862.56,202c-6.19,4.82-13.93,7.2-21.63,8.69a113,113,0,0,1-27.29,1.87c-6.63-.36-13.74-1.55-18.43-6.26s-5.07-14,.75-17.17c7.65-.58,16-1,22.21,3.61,4.62,3.42,7.06,9,8.89,14.44,6.26,18.57,7.77,38.94,2.83,57.9S814.3,301,797.82,311.65"/><path class="cls-10" d="M762,443.16c2,32,8,38.09,21,67,5,11.12,32.37,42.39,41,51s16.68,17.67,23,28c33,54,29.72,68.36,39.2,109.37,2.18,9.43,4.15,19,4.6,28.62,1.19,25.65-8.27,50.46-17.58,74.38a109,109,0,0,1-7,15.54c-11.35,19.46-34.52,31.7-40.23,53.48"/></svg>