<?xml version="1.0" encoding="utf-8"?>
<!-- Generator: Adobe Illustrator 24.3.0, SVG Export Plug-In . SVG Version: 6.00 Build 0)  -->
<svg version="1.1" id="Layer_1" xmlns="http://www.w3.org/2000/svg" xmlns:xlink="http://www.w3.org/1999/xlink" x="0px" y="0px"
	 viewBox="0 0 168.26 168.26" style="enable-background:new 0 0 168.26 168.26;" xml:space="preserve">
<style type="text/css">
	.st0{fill:#494948;}
</style>
<g>
	<path class="st0" d="M141.64-0.03H26.62c-14.69,0-26.65,11.95-26.65,26.65v115.02c0,14.69,11.95,26.65,26.65,26.65h115.02
		c14.69,0,26.65-11.96,26.65-26.65V26.62C168.29,11.92,156.34-0.03,141.64-0.03z M26.62,8.97h115.02c9.73,0,17.65,7.92,17.65,17.65
		v115.02c0,9.73-7.92,17.65-17.65,17.65H26.62c-9.73,0-17.65-7.92-17.65-17.65V26.62C8.97,16.89,16.89,8.97,26.62,8.97z"/>
	<path class="st0" d="M25.65,71.69c0.27,0.24,0.58,0.51,0.95,0.85c1.68,1.52,2.22,2.77,1.98,4.59l-0.03,0.24
		c-0.03,0.24-0.09,0.7-0.13,0.79c-1.93,1.54-2.24,4.04-0.73,5.92c0.74,0.93,1.53,1.8,2.33,2.69c0.31,0.34,0.61,0.68,0.92,1.03
		c0.44,0.49,1.07,0.8,1.74,0.84c0.02,0,0.11,0,0.13,0c0.3,0,0.6-0.06,0.88-0.16c-0.46,0.89-0.36,2.02,0.35,2.81l2.11,2.37
		c1.78,1.99,3.52,3.95,5.25,5.93c1.09,1.25,2.45,1.85,4.17,1.85c0,0,1.19-0.02,1.19-0.02c1.34-0.02,2.68-0.03,4.01-0.03
		c1.25,0,2.49,0.01,3.74,0.06c0.42,0.01,0.84,0.02,1.26,0.02c2.97,0,5.42-0.4,7.65-1.24c0.72,0.51,1.45,1.06,2.19,1.62
		c0.33,0.26,0.67,0.51,1.01,0.77l-0.49,0.49c-0.46,0.46-0.92,0.91-1.37,1.38c-1.26,1.32-1.46,2.59-1.4,3.43
		c0.05,0.83,0.42,2.07,1.82,3.2c1.27,1.03,2.55,2.05,3.82,3.07c1.47,1.18,2.94,2.35,4.4,3.54c0.88,0.71,1.89,1.09,2.93,1.09
		c0.64,0,1.28-0.13,1.93-0.41c0.52-0.22,1.04-0.41,1.57-0.6c1.11-0.41,2.26-0.83,3.39-1.46c0.57-0.32,0.83-0.33,0.81-0.34
		c0.01,0.01,0.18,0.1,0.45,0.51c1.59,2.36,4.07,2.36,4.89,2.36c0,0,0.16,0,0.16,0c0.37-0.01,0.74,0,1.12-0.01
		c-0.14,0.12-0.28,0.24-0.41,0.38c-1.74,1.77-3.32,3.67-4.71,5.66c-1.51,2.17-1.76,4.88-0.66,7.27c1.05,2.29,3.14,3.8,5.59,4.05
		c0.58,0.06,1.09,0.09,1.58,0.09c2.54,0,4.63-0.83,6.21-2.48c0.32-0.34,0.78-0.66,1.32-1.04c2.62-1.84,3.9-4.44,3.62-7.32l0-0.85
		c0.03-2.51-0.91-4.53-2.61-5.79c0.42,0,0.85,0,1.27-0.01c1.28-0.02,2.64-0.49,3.64-1.25c3.02-2.31,6.02-4.64,9.03-6.97l0.15-0.12
		c0.33-0.26,0.67-0.52,1-0.77c0,0.05-0.02,0.1-0.02,0.15c-0.1,1.53-0.19,3.53,0.02,5.54c0.18,1.61,0.91,3.06,1.49,4
		c0.59,0.95,1.35,1.66,2.03,2.29c0.14,0.13,0.29,0.27,0.43,0.4c1.38,1.33,2.94,2.01,4.65,2.01c0.89,0,1.78-0.19,2.66-0.57
		c2.58-1.11,4.05-3.3,4.12-6.15c0.03-1.03,0.02-2.07,0.01-3.09l0-1.32c0-0.02,0-0.08,0-0.13l0.01-1.25
		c0.01-1.02,0.02-2.03-0.02-3.04c-0.09-2.7-1.57-4.88-4.18-6.13c-1.04-0.5-2.09-0.75-3.12-0.75c-0.47,0-0.93,0.07-1.38,0.17
		c-0.02-1.28-0.01-2.55-0.01-3.83v-0.19c0-1.77,0-3.53-0.03-5.3c-0.02-1.14-0.39-2.34-1.01-3.3c-1.32-2.07-2.67-4.08-3.97-6.03
		c0.74-0.37,1.47-0.74,2.22-1.09c1.91-0.89,2.9-2.53,2.8-4.62c-0.02-0.49-0.02-0.98-0.01-1.48l0-0.13c0-0.26,0.01-0.53,0-0.79
		c-0.01-1.86-0.65-3.22-1.85-3.99c0.23-0.15,0.42-0.29,0.58-0.41c1.73-1.3,6.04-4.53,6.04-4.53c2.4-1.8,4.79-3.6,7.19-5.39
		c1.6-1.2,2.25-2.87,1.83-4.67c1.09-0.19,2.29-0.73,3.22-2.13c0.27-0.41,0.41-0.89,0.41-1.38V40.79c0-0.51-0.15-1.01-0.45-1.43
		c-1-1.43-2.45-2.19-4.22-2.19c-0.19,0-0.38,0.01-0.58,0.03c-0.27,0.02-0.55,0.03-0.82,0.03c-0.37,0-0.74-0.02-1.13-0.03
		c-0.09,0-0.18-0.01-0.27-0.01c-1.7,0-3.1,0.78-4.04,2.26c-0.29,0.45-0.58,0.89-0.88,1.35c-0.01-0.01-0.03-0.01-0.04-0.02
		c-0.37-0.19-0.63-0.44-0.88-1.13c-0.46-1.27-0.98-2.54-1.44-3.67c-0.36-0.87-0.72-1.75-1.05-2.63c-0.76-2.01-2.39-3.12-4.59-3.12
		c-1.31,0.01-2.62,0.02-3.93,0.02l-5.62,0c-2.6,0.01-4.12,1.26-4.66,3.83c-0.33,1.57-0.64,3.14-0.97,4.74l-0.03,0.15
		c-2.59,0.14-4.21,1.85-4.24,4.5c-0.02,1.58-0.02,3.16,0,4.74c0.01,0.94,0.24,1.78,0.64,2.46c-0.75,0.38-1.43,0.79-2.07,1.25
		c-0.89,0.65-1.24,1.77-0.91,2.79h-2.14c-1.38,0-2.5,1.12-2.5,2.5v1.37c0,0.52-0.74,1.27-1.42,1.28c-0.27,0-0.54-0.01-0.81-0.01
		c-0.32-0.01-0.63-0.02-0.94-0.02c-1.28,0-2.9,0.13-4.47,1.07c-2.31-1.93-5.01-2.9-8.04-2.9c-0.58,0-1.19,0.04-1.81,0.11l-0.39,0.05
		c-0.34,0.04-0.68,0.09-0.98,0.1c-0.05-0.19-0.11-0.39-0.14-0.52c-0.11-0.44-0.23-0.89-0.37-1.27c-0.06-0.19-0.2-0.64-0.58-1.09
		c-0.09-0.1-0.17-0.22-0.28-0.38c-0.42-0.58-1-1.38-2-1.86c-1.65-0.79-3.34-1.48-5-2.15c1.13-1.53,1.18-3.42,0.08-5.07
		c-0.28-0.42-0.56-0.84-0.83-1.27l-0.07-0.11c-0.79-1.21-1.61-2.46-2.52-3.68c-0.76-1.02-2.15-1.77-3.45-1.86
		c-0.77-0.05-1.58-0.08-2.53-0.08c-0.73,0-1.45,0.02-2.18,0.03l-0.51,0.01c-2.23,0.05-3.85,1.46-4.2,3.59
		c-1.07,0.23-1.97,0.69-2.73,1.09l-0.27,0.14c-0.53,0.27-1.06,0.53-1.58,0.79l0.66,1.35l-0.75-1.3c-1.01,0.49-2.05,1-3.07,1.58
		c-1.01,0.58-1.92,1.48-2.49,2.47c-0.83,1.44-1.54,2.93-2.23,4.38l-0.09,0.2c-2.6,0.34-5.22,0.73-7.78,1.11l-1.95,0.29
		c-2.5,0.37-3.88,1.96-3.9,4.5c-0.01,1.9-0.02,3.81,0,5.71c0.01,0.75-0.01,1.32-0.02,1.76C23.2,69.12,23.53,69.83,25.65,71.69z
		 M53.06,50.93c0.56,0,2.17,0,3.42-1.09c-0.02,0.11-0.04,0.23-0.05,0.34c-0.09,0.76-0.08,1.48-0.06,2.12
		c0.01,0.31,0.02,0.62,0.01,0.93c-0.07,2.22,1.13,3.87,3.27,4.54c0.87,0.27,1.73,0.56,2.59,0.86c0,0,1.21,0.41,1.71,0.57
		c1.88,0.62,2.25,1.11,2.35,1.98c0.08,0.67,0.3,1.23,0.49,1.7c0.04,0.11,0.09,0.23,0.12,0.34c0.6,2.1,2.25,3.36,4.47,3.36
		c0,0,0.34-0.01,0.43-0.01c0.15,0,0.29,0,0.5,0.01c0.22,0.01,0.44,0.01,0.67,0.01c0.34,0,0.68-0.02,1.01-0.06
		c0.58-0.07,1.15-0.11,1.69-0.11c2.47,0,4.54,0.79,6.32,2.42c0.86,0.79,1.9,1.21,3,1.21c0.28,0,0.56-0.04,0.84-0.09
		c-0.32,0.28-0.54,0.68-0.54,1.14v3.33c0,0.83,0.67,1.5,1.5,1.5h3.39c0.83,0,1.5-0.67,1.5-1.5v-3.33c0-0.83-0.67-1.5-1.5-1.5h-3.24
		c0.21-0.1,0.41-0.21,0.61-0.34c1.05-0.68,2.2-1.01,3.52-1.01c0.29,0,0.58,0.02,0.87,0.05c0.32,0.03,0.65,0.05,0.98,0.05
		c0.39,0,0.76-0.03,1.11-0.09c0.87-0.15,1.79-0.39,2.56-1.1c1.37-1.28,2.65-2.6,3.73-3.72c0.65-0.68,1.06-1.65,1.1-2.59
		c0.02-0.57,0.03-1.15,0.03-1.73c0.23-0.01,0.46-0.04,0.68-0.11l2.32-0.74c1.67-0.54,3.29-1.06,4.91-1.56
		c0.45-0.14,0.91-0.25,1.41-0.37c0.38-0.09,0.76-0.18,1.14-0.28c1.9-0.52,2.74-1.59,3.12-2.4c0.37-0.82,0.64-2.17-0.23-3.97
		c-0.17-0.34-0.34-0.68-0.51-1.01c-0.25-0.49-0.49-0.95-0.68-1.4c-0.47-1.12-1.17-1.96-2.06-2.48c0.19-0.48,0.32-0.98,0.43-1.47
		l0.21-1.03c0.25-1.17,0.5-2.38,0.72-3.57c0.63,0.01,1.26,0.01,1.89,0.01c0.72,0,1.43,0,2.2-0.01c0.78,2.03,1.54,3.9,2.31,5.71
		c0.41,0.96,1.08,1.8,1.88,2.38c1.49,1.07,3.01,2.06,4.47,3.02l0.31,0.2c0.14,0.09,0.28,0.18,0.42,0.26
		c-0.31,0.82-0.43,1.95,0.06,3.47c0.13,0.41,0.31,0.84,0.5,1.27c0.06,0.13,0.15,0.35,0.23,0.56c-0.21,0.15-0.48,0.32-0.64,0.43
		c-0.35,0.23-0.7,0.46-1.01,0.69c-2,1.52-4.02,3.02-6.02,4.53l-1.19,0.89c-0.56-0.31-1.18-0.54-1.94-0.54
		c-1.17,0-2.04,0.53-3.25,1.25l-2.24,1.34c-1.06,0.63-2.12,1.27-3.17,1.91c-0.39,0.24-0.73,0.44-1.03,0.61
		c-2.81,1.65-3.29,2.49-3.26,5.71c0,0.37,0.01,0.81,0,1.32c-0.01,1.27,0.13,2.71,1.21,3.81c0.94,0.94,2.16,1.19,3.3,1.24
		c-0.45,0.49-0.75,1.04-0.91,1.64c-0.48,1.82,0.54,3.35,0.87,3.85l1.93,2.9c1.3,1.95,2.61,3.9,3.88,5.87
		c0.06,0.1,0.14,0.33,0.14,0.51c0.06,2.31,0.06,4.59,0,6.78c-3.8,3-8.01,6.28-12.87,10.02c-0.26,0-0.52,0.01-0.78,0.01
		c-0.67,0-1.33-0.01-2-0.02c-0.69-0.01-1.39-0.02-2.08-0.02c-1.23,0-2.25,0.04-3.19,0.11c-0.28,0.02-0.56,0.04-0.83,0.04
		c-1.65,0-2.66-0.48-3.48-1.66c-0.85-1.22-2.11-1.89-3.54-1.89c-0.68,0-1.38,0.15-2.1,0.46c-1.85,0.78-3.79,1.56-5.93,2.38
		c-1.02-0.79-2.05-1.61-3.05-2.42c1.87-2.53,1.44-5.55,1.28-6.65c-0.15-1.08-0.72-2.56-1.86-3.49c-1.36-1.11-2.81-2.19-4.09-3.14
		l-0.12-0.09c-0.72-0.54-1.45-1.08-2.16-1.62c-0.94-0.72-1.95-1.09-2.98-1.09c-0.64,0-1.28,0.14-1.9,0.42
		C60.11,92.55,57.81,93,55.1,93c-0.55,0-1.1-0.02-1.66-0.05l-0.2-0.01c-0.74-0.04-1.48-0.09-2.23-0.09c-0.78,0-1.46,0.05-2.1,0.14
		c-0.26,0.04-0.51,0.06-0.73,0.06c-0.83,0-1.75-0.21-2.84-1.72c-1.07-1.48-2.3-2.79-3.54-4.13c-0.48-0.52-0.96-1.03-1.43-1.56
		c-0.44-0.5-1.05-0.8-1.74-0.84c-0.02,0-0.11,0-0.13,0c-0.31,0-0.61,0.06-0.89,0.16c0.45-0.88,0.35-1.99-0.33-2.78l-0.66-0.76
		c0.43-1.07,0.41-2.15,0.39-2.94c-0.01-0.65-0.01-1.31,0-2.05c0.01-1.09,0.02-2.22-0.05-3.38c-0.08-1.24-0.6-2.52-1.41-3.42
		c-0.87-0.97-1.77-1.86-2.65-2.73l-0.07-0.07c-0.35-0.34-0.69-0.68-1.03-1.02c-0.01-1.09-0.02-2.17-0.01-3.27l0.15-0.02
		c2.08-0.3,4.11-0.59,6.13-0.88c0.45-0.07,0.83-0.11,1.17-0.16c3.26-0.41,3.89-1.16,5.13-4.2l0.27-0.65
		c1.09-2.64,2.6-4.14,5.04-5.03c0.25-0.09,0.5-0.19,0.75-0.29c0.61-0.24,1.09-0.44,1.49-0.44l0.1,0
		C52.38,50.92,52.73,50.93,53.06,50.93z"/>
	<path class="st0" d="M68.38,84.88c0.07,0.07,0.09,0.1,0.1,0.1c0,0.01,0.01,0.08-0.02,0.26c-0.25,1.31-0.48,2.73-0.73,4.34
		c-0.15,1,0.12,1.99,0.74,2.71c0.63,0.74,1.56,1.14,2.69,1.14c0,0,0,0,0,0c0.19,0,0.38-0.04,0.55-0.12l0.16-0.06
		c0.25-0.1,0.58-0.23,0.89-0.39l0.68-0.36c0.9-0.47,1.84-0.97,2.74-1.53c0.05-0.03,0.09-0.05,0.1-0.06c0.03,0.01,0.09,0.04,0.18,0.1
		c0.73,0.45,1.47,0.85,2.19,1.24c0.4,0.21,0.79,0.43,1.18,0.65c0.67,0.38,1.32,0.57,1.93,0.57c0.8,0,1.53-0.34,2.05-0.96
		c0.66-0.78,1.04-1.95,0.97-2.98c-0.08-1.25-0.32-2.47-0.54-3.65l-0.13-0.71C84.1,85.06,84.1,85.01,84.1,85
		c0.01-0.01,0.03-0.04,0.09-0.09c0.66-0.62,1.29-1.27,1.89-1.9c0.32-0.34,0.65-0.68,0.98-1.01c1.73-1.75,1.26-3.18,0.83-3.87
		c-0.54-0.86-1.56-1.6-2.61-1.88c-1.07-0.29-2.15-0.42-3.2-0.54c0,0-0.88-0.11-0.9-0.11c0,0-0.02-0.04-0.04-0.08
		c-0.58-1.39-1.15-2.75-1.92-4.02c-0.55-0.92-1.73-1.85-2.92-1.86c-1.17,0-2.35,0.92-2.91,1.83c-0.66,1.08-1.27,2.34-1.9,3.95
		c-0.04,0.11-0.07,0.15-0.07,0.15c-0.01,0.01-0.09,0.04-0.33,0.07l-0.55,0.06c-1.12,0.13-2.28,0.26-3.43,0.58
		c-0.95,0.26-2.15,1.07-2.55,2.2c-0.44,1.24,0.33,2.67,0.8,3.25C66.34,82.94,67.44,84,68.38,84.88z M74.28,81.67
		c0.79-0.31,1.46-0.77,2.01-1.37c0.55,0.62,1.21,1.08,1.99,1.39c-0.5,0.8-0.79,1.65-0.87,2.55c-0.38-0.09-0.77-0.13-1.15-0.13
		c-0.37,0-0.74,0.04-1.11,0.12C75.07,83.32,74.78,82.46,74.28,81.67z"/>
	<path class="st0" d="M93.76,81.19h3.35c0.83,0,1.5-0.67,1.5-1.5v-3.37c0-0.83-0.67-1.5-1.5-1.5h-3.35c-0.83,0-1.5,0.67-1.5,1.5
		v3.37C92.26,80.52,92.94,81.19,93.76,81.19z"/>
	<path class="st0" d="M97.13,85.29h-3.35c-0.83,0-1.5,0.67-1.5,1.5v3.37c0,0.83,0.67,1.5,1.5,1.5h3.35c0.83,0,1.5-0.67,1.5-1.5
		v-3.37C98.63,85.96,97.96,85.29,97.13,85.29z"/>
	<path class="st0" d="M85.31,92.01v3.37c0,0.83,0.67,1.5,1.5,1.5h3.35c0.83,0,1.5-0.67,1.5-1.5v-3.37c0-0.83-0.67-1.5-1.5-1.5h-3.35
		C85.99,90.51,85.31,91.18,85.31,92.01z"/>
</g>
</svg>
