<?xml version="1.0" encoding="utf-8"?>
<!-- Generator: Adobe Illustrator 24.3.0, SVG Export Plug-In . SVG Version: 6.00 Build 0)  -->
<svg version="1.1" id="Layer_1" xmlns="http://www.w3.org/2000/svg" xmlns:xlink="http://www.w3.org/1999/xlink" x="0px" y="0px"
	 viewBox="0 0 168.26 168.26" style="enable-background:new 0 0 168.26 168.26;" xml:space="preserve">
<style type="text/css">
	.st0{fill:#D82A21;}
</style>
<g>
	<path class="st0" d="M100.07,90.63c-0.18,0.02-0.36,0.03-0.54,0.03c-1.49,0-2.9-0.68-4.07-1.34c-0.29-0.2-0.82-0.58-1.57-0.58
		c-0.68,0-1.31,0.32-1.7,0.81c-1.32,1.46-1.83,3.25-1.42,4.91c0.41,1.64,1.69,2.96,3.51,3.62c0.06,0.02,0.12,0.05,0.17,0.08
		c0.31,0.14,0.77,0.35,1.35,0.35c0.41,0,0.6,0.06,0.65,0.06c0,0,0.01,0,0.01,0c0.02,0.07,0.07,0.32-0.03,0.89
		c-0.01,0.04-0.01,0.09-0.02,0.13c-0.04,0.39-0.15,1.59,0.66,2.48c0.34,0.37,0.95,0.81,1.98,0.81c0.22,0,0.44-0.02,0.68-0.06h0.94
		c3.28,0,4.04-0.76,4.04-4.05c0,0-0.01-0.51-0.01-0.59c3.92-1.33,6.08-4.34,6.08-8.44c0.11-3.82-1.64-6.74-5.22-8.67
		c-1.89-1-3.58-1.83-5.12-2.51c-0.43-0.21-0.55-0.34-0.57-0.34c0,0,0,0,0,0c0-0.02,0-0.09,0.03-0.21c0.06-0.23,0.09-0.32,0.85-0.4
		c0.27-0.03,0.54-0.05,0.81-0.05c1.05,0,2.02,0.25,2.95,0.78l0.09,0.07c0.36,0.27,0.95,0.73,1.74,0.73c0.81,0,1.51-0.48,1.79-1.19
		c0.11-0.24,0.24-0.49,0.37-0.75c0.53-1.04,1.19-2.34,1.19-3.83c0-1.78-1.43-3.12-3.69-3.41c-1.28-0.12-1.43-0.22-1.3-1.69
		c0.06-0.91-0.17-1.64-0.66-2.17c-0.31-0.33-0.87-0.72-1.77-0.72c-0.46,0-0.89,0.1-1.23,0.19c-0.1,0.03-0.2,0.05-0.26,0.07
		c-0.51-0.04-0.93-0.07-1.27-0.07c-0.4,0-1.44,0-2.19,0.78c-0.82,0.86-0.77,2.04-0.7,3.48c0.01,0.11,0.01,0.18,0.01,0.23
		c-0.04,0.03-0.1,0.06-0.19,0.09c-2.33,0.79-4.15,2.59-5.15,5.14c-1.59,4.53,0.19,8.58,4.81,11.07c0.91,0.56,1.85,0.97,2.77,1.38
		c0.63,0.28,1.22,0.54,1.79,0.85c1.03,0.52,0.91,1.04,0.84,1.31C101.48,90.21,101.41,90.52,100.07,90.63z"/>
	<path class="st0" d="M130.36,49.96c-10.47,0.09-21.07,0.09-31.33,0.09c-1.09,0-2.63,0.22-3.41,2.16c-0.57,1.42-1.08,2.61-1.8,3.86
		c-0.28,0.56-0.86,1.71-0.18,2.8c0.68,1.09,2.01,1.1,2.61,1.1c0,0,0.01,0,0.01,0c11.4-0.09,22.99-0.09,34.2-0.09
		c2.02,0,2.96,0.88,2.96,2.78v42.93c0,2.02-0.91,2.96-2.87,2.96c-3.38,0-6.76-0.02-10.14-0.05c-3.39-0.02-6.78-0.05-10.17-0.05
		c-6.59,0-13.19,0.02-19.8,0.05c-6.6,0.02-13.21,0.05-19.79,0.05l-0.32,0c-1.52,0-2.21,0.86-2.52,1.57
		c-0.82,1.91-1.75,3.77-2.74,5.75c-0.26,0.52-0.23,1.13,0.07,1.63c0.3,0.49,0.84,0.79,1.42,0.79c0.33,0,0.67,0,1.01-0.09h63.9
		c1.33,0,2.76-0.32,4.04-0.89c5.08-2.34,7.65-6.5,7.65-12.37V62.76C143.17,55.22,137.91,49.96,130.36,49.96z"/>
	<path class="st0" d="M49.7,68.79h28.65c0.75,0,1.46,0,2.28-0.1c2.76-0.16,4.68-2.13,4.68-4.82c0-2.71-2.2-4.82-5.01-4.82H64.63
		c-5.1,0-10.37,0-15.58-0.09c-2.37,0-4.16,1.14-4.91,3.15c-0.7,1.96-0.3,3.84,1.13,5.27C46.69,68.79,48.35,68.79,49.7,68.79z"/>
	<path class="st0" d="M59.43,89.09c3.16,0,5.29-1.94,5.29-4.83c0-2.94-2.09-4.92-5.2-4.92h-29.3c-2.53,0-3.8,1.26-4.41,2.31
		c-0.92,1.58-0.97,3.28-0.1,5.01c0.95,1.67,2.56,2.51,4.79,2.51h14.37C49.89,89.19,54.63,89.19,59.43,89.09z"/>
	<path class="st0" d="M59.62,99.66H39.96c-3.38,0-5.57,1.93-5.57,4.84c-0.06,1.36,0.35,2.55,1.2,3.44c0.68,0.71,1.97,1.56,4.27,1.56
		h19.75c0.02,0,0.05,0,0.07,0c3.08-0.13,5.31-2.23,5.31-5.09C64.86,101.65,62.6,99.66,59.62,99.66z"/>
	<path class="st0" d="M141.64-0.03H26.62c-14.69,0-26.65,11.95-26.65,26.65v115.02c0,14.69,11.96,26.65,26.65,26.65h115.02
		c14.69,0,26.65-11.96,26.65-26.65V26.62C168.29,11.92,156.34-0.03,141.64-0.03z M159.29,141.64c0,9.73-7.92,17.65-17.65,17.65
		H26.62c-9.73,0-17.65-7.92-17.65-17.65V26.62c0-9.73,7.92-17.65,17.65-17.65h115.02c9.73,0,17.65,7.92,17.65,17.65V141.64z"/>
</g>
</svg>
