<?xml version="1.0" encoding="utf-8"?>
<!-- Generator: Adobe Illustrator 24.3.0, SVG Export Plug-In . SVG Version: 6.00 Build 0)  -->
<svg version="1.1" id="Layer_1" xmlns="http://www.w3.org/2000/svg" xmlns:xlink="http://www.w3.org/1999/xlink" x="0px" y="0px"
	 viewBox="0 0 168.26 168.26" style="enable-background:new 0 0 168.26 168.26;" xml:space="preserve">
<style type="text/css">
	.st0{fill:#494948;}
</style>
<g>
	<path class="st0" d="M141.64-0.03H26.62c-14.69,0-26.65,11.95-26.65,26.65v115.02c0,14.69,11.96,26.65,26.65,26.65h115.02
		c14.69,0,26.65-11.96,26.65-26.65V26.62C168.29,11.92,156.33-0.03,141.64-0.03z M26.62,8.97h115.02c9.73,0,17.65,7.92,17.65,17.65
		v115.02c0,9.73-7.92,17.65-17.65,17.65H26.62c-9.73,0-17.65-7.92-17.65-17.65V26.62C8.97,16.89,16.89,8.97,26.62,8.97z"/>
	<path class="st0" d="M28.72,133.12c0.97,3.28,3.15,5.45,6.48,6.43c0.01,0,0.03,0.01,0.06,0.01c0.25,0.17,0.54,0.26,0.84,0.26h95.67
		c0.31,0,0.61-0.09,0.86-0.27c0.05-0.01,0.1-0.01,0.16-0.01c0.17-0.01,0.4-0.02,0.65-0.1c3.93-1.23,6.37-4.62,6.37-8.86
		c0.01-10.21,0-20.41,0-30.62l0-16.7c0-4.87-0.01-9.74,0.02-14.61c0.01-1.88-0.75-3.33-2.32-4.41
		c-11.26-7.75-22.52-15.5-33.78-23.26L87.11,29.55c-1.12-0.77-2.04-1.12-2.98-1.12c-0.93,0-1.84,0.34-2.95,1.1l-11.94,8.23
		c-12.61,8.69-25.23,17.38-37.85,26.05c-1.06,0.73-2.13,1.58-2.79,2.88c-0.11,0.21-0.16,0.45-0.16,0.68v64.77
		c0,0.3,0.09,0.59,0.26,0.84C28.7,133.04,28.71,133.08,28.72,133.12z M84.13,38.27c0.02,0,0.13,0.03,0.36,0.19
		c14.8,10.23,30.28,20.89,46.01,31.7c0.38,0.26,0.49,0.43,0.49,0.98c-0.02,16.53-0.02,33.06-0.02,49.59l0,9.25
		c0,0.54-0.03,0.82-0.06,0.95c-0.13,0.03-0.41,0.06-0.95,0.06l-5.7-0.01c-1.63,0-3.26,0.01-4.96,0.03c-0.01,0-0.02,0-0.03,0
		c0-0.02,0-0.04,0-0.07c0.04-5.29,0.03-10.59,0.03-15.88l0-4.2c0-3.17-1.75-4.91-4.94-4.92c0,0-5.73-0.01-5.73-0.01
		c-1.76,0-3.52,0.01-5.32,0.03c0-0.02,0-0.04,0-0.07c0.03-6.09,0.02-12.18,0.02-18.27l0-3.94c0-3.42-1.66-5.08-5.08-5.08H69.96
		c-3.35,0-5.04,1.69-5.05,5l0,4.61c0,5.87-0.01,11.74,0.03,17.61c0,0.05,0,0.1,0,0.14c-0.05,0-0.11,0-0.18,0
		c-1.78-0.03-3.56-0.03-5.34-0.03c-1.39,0-2.78,0-4.17,0.01l-1.5,0c-3.05,0.01-4.8,1.77-4.8,4.83l0,3.18
		c0,5.67-0.01,11.34,0.02,17.01c0,0.02,0,0.03,0,0.04c0,0-0.01,0-0.01,0c-1.68-0.02-3.36-0.03-5.04-0.03l-5.87,0.01
		c-0.4,0-0.61-0.03-0.71-0.06c-0.03-0.1-0.06-0.33-0.06-0.77V94.75c0-7.95,0-15.9-0.02-23.85c0-0.33,0.03-0.42,0.34-0.63
		c17.86-12.28,32.54-22.39,46.19-31.82C84,38.3,84.11,38.27,84.13,38.27z M57.76,114.77c1.21,0.02,2.42,0.03,3.64,0.03
		c1.16,0,2.32-0.01,3.52-0.03c-0.04,0.81-0.03,1.67,0.01,2.63c0.1,2.27,1.84,4.04,4.12,4.2c0.1,0.01,0.2,0.01,0.3,0.01
		c2.03,0,3.87-1.55,4.28-3.61c0.18-0.89,0.15-1.75,0.12-2.58c-0.01-0.2-0.01-0.4-0.02-0.61c0.98,0.02,1.96,0.03,2.95,0.03
		c0.98,0,1.97-0.01,3.03-0.02c-0.02,5.4-0.02,10.79,0,16.19c-1.83-0.01-3.65-0.02-5.48-0.02l-11.19,0c-1.75,0-3.5,0-5.28,0.02
		C57.79,125.74,57.79,120.28,57.76,114.77z M73.73,105.88c0.02-5.64,0.03-11.68,0-18.46c0.95,0.02,1.9,0.03,2.86,0.03
		c1.03,0,2.05-0.01,3.11-0.03c-0.04,0.85-0.01,1.69,0.01,2.44c0.06,2.45,2,4.38,4.42,4.39c2.39,0,4.32-1.91,4.41-4.34
		c0.02-0.74,0.04-1.61,0-2.5c0.93,0.02,1.86,0.03,2.79,0.03c1.05,0,2.11-0.01,3.18-0.02c-0.02,6.36-0.02,12.56,0,18.45
		c-1.67-0.01-3.35-0.01-5.02-0.01l-10.85,0C77.01,105.87,75.38,105.87,73.73,105.88z M88.53,114.8c0.95,0.02,1.9,0.03,2.85,0.03
		c1.03,0,2.06-0.01,3.12-0.02c-0.03,0.81-0.01,1.6,0.01,2.29c0.09,2.53,2.06,4.51,4.53,4.51c0,0,0,0,0,0
		c2.43-0.07,4.24-1.99,4.3-4.6l0-0.18c0-0.05,0-0.11,0-0.17c0.03-0.4-0.02-0.81-0.06-1.17c-0.03-0.23-0.07-0.59-0.05-0.78
		c0.06-0.01,0.17-0.02,0.33-0.02c0.24,0,0.49,0.02,0.75,0.04c0.3,0.02,0.6,0.05,0.91,0.05l1.01,0l2.32,0c0.62,0,1.24,0,1.93-0.01
		c-0.02,4.85-0.03,10.53,0.01,16.22c-1.87-0.01-3.73-0.01-5.6-0.01l-11.01,0c-1.77,0-3.55,0-5.35,0.02
		C88.55,125.96,88.55,120.66,88.53,114.8z"/>
</g>
</svg>
